<svg viewBox="0 0 1000 600" xmlns="http://www.w3.org/2000/svg">
<rect width="100%" height="100%" fill="#ffffff"/>
<text x="500.0" y="35" text-anchor="middle" font-family="sans-serif" font-size="22" font-weight="bold">Outgassing Characterization Detail (Zoom): aged</text>
<line x1="75" y1="525.0" x2="925" y2="525.0" stroke="#eee" stroke-width="1"/>
<text x="65" y="529.0" text-anchor="end" font-family="sans-serif" font-size="12" fill="red">12.00V</text>
<line x1="75" y1="435.0" x2="925" y2="435.0" stroke="#eee" stroke-width="1"/>
<text x="65" y="439.0" text-anchor="end" font-family="sans-serif" font-size="12" fill="red">12.36V</text>
<line x1="75" y1="345.0" x2="925" y2="345.0" stroke="#eee" stroke-width="1"/>
<text x="65" y="349.0" text-anchor="end" font-family="sans-serif" font-size="12" fill="red">12.72V</text>
<line x1="75" y1="255.0" x2="925" y2="255.0" stroke="#eee" stroke-width="1"/>
<text x="65" y="259.0" text-anchor="end" font-family="sans-serif" font-size="12" fill="red">13.08V</text>
<line x1="75" y1="165.0" x2="925" y2="165.0" stroke="#eee" stroke-width="1"/>
<text x="65" y="169.0" text-anchor="end" font-family="sans-serif" font-size="12" fill="red">13.44V</text>
<line x1="75" y1="75.0" x2="925" y2="75.0" stroke="#eee" stroke-width="1"/>
<text x="65" y="79.0" text-anchor="end" font-family="sans-serif" font-size="12" fill="red">13.80V</text>
<text x="935" y="529.0" text-anchor="start" font-family="sans-serif" font-size="12" fill="blue">-0.05A</text>
<text x="935" y="439.0" text-anchor="start" font-family="sans-serif" font-size="12" fill="blue">0.11A</text>
<text x="935" y="349.0" text-anchor="start" font-family="sans-serif" font-size="12" fill="blue">0.27A</text>
<text x="935" y="259.0" text-anchor="start" font-family="sans-serif" font-size="12" fill="blue">0.43A</text>
<text x="935" y="169.00000000000006" text-anchor="start" font-family="sans-serif" font-size="12" fill="blue">0.59A</text>
<text x="935" y="79.0" text-anchor="start" font-family="sans-serif" font-size="12" fill="blue">0.75A</text>
<line x1="75" y1="345.0" x2="925" y2="345.0" stroke="green" stroke-width="0.5" stroke-dasharray="2,2" opacity="0.3"/>
<text x="115" y="343.0" text-anchor="start" font-family="sans-serif" font-size="10" fill="green">Eff:0.50</text>
<line x1="75" y1="255.0" x2="925" y2="255.0" stroke="green" stroke-width="0.5" stroke-dasharray="2,2" opacity="0.3"/>
<text x="115" y="253.0" text-anchor="start" font-family="sans-serif" font-size="10" fill="green">Eff:0.75</text>
<line x1="75" y1="165.0" x2="925" y2="165.0" stroke="green" stroke-width="0.5" stroke-dasharray="2,2" opacity="0.3"/>
<text x="115" y="163.0" text-anchor="start" font-family="sans-serif" font-size="10" fill="green">Eff:1.00</text>
<polyline points="75.0,525.0 75.3,151.3 75.6,151.4 76.0,151.6 76.3,151.9 76.6,151.8 76.9,151.9 77.2,152.0 77.5,152.1 77.9,152.2 78.2,152.3 78.5,152.4 78.8,147.8 79.1,143.2 79.5,139.3 79.8,135.5 80.1,132.3 80.4,129.4 80.7,126.7 81.0,124.3 81.4,122.3 81.7,120.9 82.0,119.5 82.3,118.4 82.6,117.3 83.0,116.4 83.3,115.4 83.6,114.5 83.9,113.7 84.2,112.9 84.5,112.0 84.9,111.4 85.2,110.6 85.5,110.0 85.8,109.4 86.1,108.7 86.5,108.1 86.8,107.2 87.1,106.8 87.4,106.2 87.7,105.6 88.1,104.9 88.4,104.3 88.7,103.8 89.0,103.0 89.3,102.6 89.6,101.9 90.0,101.3 90.3,100.7 90.6,100.1 90.9,99.6 91.2,99.1 91.6,98.4 91.9,98.0 92.2,97.4 92.5,96.6 92.8,96.1 93.1,95.6 93.5,95.1 93.8,94.5 94.1,93.9 94.4,93.3 94.7,92.7 95.1,92.1 95.4,91.6 95.7,91.2 96.0,90.5 96.3,89.9 96.6,89.4 97.0,88.9 97.3,88.3 97.6,87.7 97.9,87.3 98.2,86.6 98.6,86.1 98.9,85.5 99.2,84.9 99.5,84.4 99.8,83.7 100.1,83.3 100.5,82.7 100.8,82.1 101.1,81.5 101.4,80.9 101.7,80.5 102.1,80.0 102.4,79.5 102.7,78.8 103.0,78.3 103.3,77.7 103.6,77.3 104.0,76.8 104.3,76.1 104.6,75.6 104.9,75.0 105.2,93.1 105.6,95.0 105.9,96.8 106.2,98.2 106.5,99.5 106.8,100.7 107.2,101.7 107.5,102.2 107.8,103.1 108.1,103.5 108.4,104.1 108.7,104.5 109.1,104.9 109.4,105.2 109.7,105.5 110.0,105.6 110.3,105.9 110.7,105.9 111.0,106.2 111.3,106.2 111.6,106.4 111.9,106.5 112.2,106.7 112.6,106.7 112.9,106.7 113.2,106.9 113.5,106.9 113.8,107.1 114.2,107.1 114.5,107.1 114.8,107.3 115.1,107.3 115.4,107.3 115.7,107.3 116.1,107.3 116.4,107.4 116.7,107.5 117.0,107.6 117.3,107.5 117.7,107.5 118.0,107.7 118.3,107.6 118.6,107.9 118.9,107.8 119.2,107.9 119.6,108.0 119.9,108.0 120.2,108.1 120.5,107.9 120.8,108.1 121.2,108.0 121.5,108.0 121.8,108.2 122.1,108.3 122.4,108.2 122.7,108.2 123.1,108.2 123.4,108.3 123.7,108.5 124.0,108.4 124.3,108.6 124.7,108.4 125.0,108.5 125.3,108.6 125.6,108.6 125.9,108.6 126.3,108.8 126.6,108.6 126.9,108.8 127.2,108.9 127.5,108.9 127.8,108.9 128.2,109.0 128.5,109.0 128.8,109.1 129.1,109.1 129.4,109.1 129.8,109.1 130.1,109.1 130.4,109.3 130.7,109.3 131.0,109.4 131.3,109.4 131.7,109.4 132.0,109.5 132.3,109.4 132.6,109.4 132.9,109.5 133.3,109.5 133.6,109.6 133.9,109.6 134.2,109.8 134.5,109.8 134.8,109.9 135.2,109.9 135.5,109.8 135.8,109.8 136.1,109.9 136.4,110.0 136.8,110.0 137.1,110.2 137.4,110.1 137.7,110.1 138.0,110.2 138.3,110.1 138.7,110.2 139.0,110.3 139.3,110.4 139.6,110.3 139.9,110.5 140.3,110.4 140.6,110.6 140.9,110.4 141.2,110.5 141.5,110.7 141.8,110.7 142.2,110.7 142.5,110.8 142.8,110.8 143.1,110.8 143.4,110.8 143.8,110.8 144.1,110.9 144.4,110.9 144.7,111.0 145.0,111.2 145.4,111.0 145.7,111.0 146.0,111.1 146.3,111.2 146.6,111.2 146.9,111.4 147.3,111.3 147.6,111.3 147.9,111.5 148.2,111.3 148.5,111.5 148.9,111.6 149.2,111.7 149.5,111.6 149.8,111.5 150.1,111.6 150.4,111.8 150.8,111.9 151.1,111.7 151.4,111.8 151.7,111.8 152.0,111.8 152.4,112.0 152.7,112.0 153.0,112.0 153.3,112.0 153.6,112.2 153.9,112.2 154.3,112.3 154.6,112.2 154.9,112.4 155.2,112.4 155.5,112.4 155.9,112.4 156.2,112.5 156.5,112.5 156.8,112.5 157.1,112.5 157.4,112.6 157.8,112.6 158.1,112.8 158.4,112.8 158.7,112.7 159.0,112.9 159.4,112.8 159.7,113.0 160.0,113.0 160.3,113.0 160.6,113.0 160.9,113.1 161.3,113.1 161.6,113.2 161.9,113.2 162.2,113.3 162.5,113.4 162.9,113.3 163.2,113.3 163.5,113.3 163.8,113.5 164.1,113.5 164.5,113.6 164.8,113.6 165.1,113.5 165.4,113.5 165.7,113.6 166.0,113.6 166.4,113.8 166.7,113.8 167.0,113.8 167.3,113.7 167.6,113.7 168.0,113.8 168.3,114.0 168.6,114.1 168.9,114.1 169.2,114.0 169.5,114.1 169.9,114.0 170.2,114.1 170.5,114.2 170.8,114.1 171.1,114.3 171.5,114.4 171.8,114.3 172.1,114.3 172.4,114.5 172.7,114.5 173.0,114.6 173.4,114.5 173.7,114.5 174.0,114.7 174.3,114.8 174.6,114.6 175.0,114.9 175.3,114.8 175.6,114.8 175.9,114.9 176.2,114.9 176.5,115.0 176.9,115.1 177.2,115.1 177.5,115.2 177.8,115.0 178.1,115.1 178.5,115.1 178.8,115.2 179.1,115.2 179.4,115.4 179.7,115.4 180.0,115.5 180.4,115.6 180.7,115.4 181.0,115.6 181.3,115.5 181.6,115.6 182.0,115.7 182.3,115.6 182.6,115.8 182.9,115.8 183.2,115.7 183.5,115.9 183.9,115.9 184.2,115.9 184.5,115.8 184.8,116.1 185.1,116.0 185.5,116.1 185.8,116.0 186.1,116.2 186.4,116.2 186.7,116.3 187.1,116.4 187.4,116.5 187.7,116.5 188.0,116.4 188.3,116.5 188.6,116.5 189.0,116.6 189.3,116.5 189.6,116.7 189.9,116.8 190.2,116.7 190.6,116.8 190.9,116.7 191.2,116.9 191.5,116.9 191.8,117.0 192.1,117.0 192.5,117.0 192.8,117.1 193.1,117.0 193.4,117.1 193.7,117.2 194.1,117.2 194.4,117.2 194.7,117.1 195.0,117.2 195.3,117.4 195.6,117.4 196.0,117.4 196.3,117.5 196.6,117.5 196.9,117.5 197.2,117.6 197.6,117.5 197.9,117.5 198.2,117.6 198.5,117.7 198.8,117.7 199.1,117.8 199.5,117.7 199.8,117.9 200.1,117.9 200.4,118.0 200.7,118.1 201.1,118.1 201.4,118.1 201.7,118.2 202.0,118.2 202.3,118.2 202.6,118.2 203.0,118.3 203.3,118.4 203.6,118.3 203.9,118.4" fill="none" stroke="red" stroke-width="2.5" opacity="0.8"/>
<polyline points="75.0,496.3 75.3,524.0 75.6,524.5 76.0,524.8 76.3,523.9 76.6,524.5 76.9,524.2 77.2,524.0 77.5,524.6 77.9,524.4 78.2,524.2 78.5,524.6 78.8,419.6 79.1,320.2 79.5,254.9 79.8,198.1 80.1,160.6 80.4,129.5 80.7,104.1 81.0,82.5 81.4,75.0 81.7,75.2 82.0,76.2 82.3,76.1 82.6,76.7 83.0,77.3 83.3,77.5 83.6,78.1 83.9,77.7 84.2,78.1 84.5,78.6 84.9,79.0 85.2,79.3 85.5,79.0 85.8,78.7 86.1,79.9 86.5,79.9 86.8,80.0 87.1,80.1 87.4,80.5 87.7,79.8 88.1,80.9 88.4,81.0 88.7,80.6 89.0,80.6 89.3,81.2 89.6,81.6 90.0,81.8 90.3,82.1 90.6,82.2 90.9,82.2 91.2,82.3 91.6,81.9 91.9,82.5 92.2,82.1 92.5,82.6 92.8,83.1 93.1,83.4 93.5,83.2 93.8,83.5 94.1,83.0 94.4,83.6 94.7,83.7 95.1,84.4 95.4,84.0 95.7,83.9 96.0,84.4 96.3,85.1 96.6,84.9 97.0,85.5 97.3,84.6 97.6,85.3 97.9,85.7 98.2,85.4 98.6,85.8 98.9,85.8 99.2,86.1 99.5,86.7 99.8,86.9 100.1,86.2 100.5,86.5 100.8,87.3 101.1,86.5 101.4,86.6 101.7,87.6 102.1,87.4 102.4,87.3 102.7,87.4 103.0,88.2 103.3,88.2 103.6,87.8 104.0,88.9 104.3,88.7 104.6,88.8 104.9,89.2 105.2,524.9 105.6,523.9 105.9,524.7 106.2,524.1 106.5,524.8 106.8,525.0 107.2,524.8 107.5,524.6 107.8,524.8 108.1,523.9 108.4,524.0 108.7,524.4 109.1,524.5 109.4,524.9 109.7,524.2 110.0,524.1 110.3,524.8 110.7,523.9 111.0,524.8 111.3,524.5 111.6,524.0 111.9,523.9 112.2,525.0 112.6,524.5 112.9,524.7 113.2,524.9 113.5,524.5 113.8,524.5 114.2,524.5 114.5,523.9 114.8,524.0 115.1,524.8 115.4,524.3 115.7,524.8 116.1,524.5 116.4,524.4 116.7,525.0 117.0,523.9 117.3,524.5 117.7,524.7 118.0,524.1 118.3,524.5 118.6,524.5 118.9,524.4 119.2,524.2 119.6,524.8 119.9,524.6 120.2,524.9 120.5,524.2 120.8,523.9 121.2,524.7 121.5,524.8 121.8,524.0 122.1,524.7 122.4,524.7 122.7,524.8 123.1,524.9 123.4,524.1 123.7,524.7 124.0,523.9 124.3,524.2 124.7,524.7 125.0,524.1 125.3,524.2 125.6,524.7 125.9,524.8 126.3,524.2 126.6,524.7 126.9,524.5 127.2,525.0 127.5,524.3 127.8,524.0 128.2,524.8 128.5,524.9 128.8,524.3 129.1,524.2 129.4,524.2 129.8,524.5 130.1,524.3 130.4,525.0 130.7,524.9 131.0,524.2 131.3,524.5 131.7,524.4 132.0,524.1 132.3,525.0 132.6,523.9 132.9,524.6 133.3,524.5 133.6,524.2 133.9,523.9 134.2,524.7 134.5,524.7 134.8,524.6 135.2,524.8 135.5,524.3 135.8,524.0 136.1,524.9 136.4,524.7 136.8,524.6 137.1,524.0 137.4,524.3 137.7,524.8 138.0,524.7 138.3,524.2 138.7,523.9 139.0,524.4 139.3,524.9 139.6,524.9 139.9,524.2 140.3,524.5 140.6,524.1 140.9,524.5 141.2,524.2 141.5,525.0 141.8,524.4 142.2,524.0 142.5,524.7 142.8,524.9 143.1,523.9 143.4,524.4 143.8,524.9 144.1,524.6 144.4,524.8 144.7,524.6 145.0,524.1 145.4,524.4 145.7,524.3 146.0,524.9 146.3,524.8 146.6,524.5 146.9,524.8 147.3,523.9 147.6,524.2 147.9,525.0 148.2,524.5 148.5,524.1 148.9,524.5 149.2,524.5 149.5,524.6 149.8,524.5 150.1,524.2 150.4,524.4 150.8,524.7 151.1,524.1 151.4,524.5 151.7,524.1 152.0,524.2 152.4,524.1 152.7,524.3 153.0,524.9 153.3,524.2 153.6,524.9 153.9,524.2 154.3,524.9 154.6,524.6 154.9,524.7 155.2,524.0 155.5,524.1 155.9,524.9 156.2,524.3 156.5,524.5 156.8,524.2 157.1,524.8 157.4,524.6 157.8,524.2 158.1,524.8 158.4,524.3 158.7,524.1 159.0,524.2 159.4,524.1 159.7,524.8 160.0,524.3 160.3,524.7 160.6,524.2 160.9,524.9 161.3,524.8 161.6,524.6 161.9,524.5 162.2,524.1 162.5,524.2 162.9,524.0 163.2,523.9 163.5,524.4 163.8,524.0 164.1,524.6 164.5,524.4 164.8,523.9 165.1,524.7 165.4,524.4 165.7,524.4 166.0,524.5 166.4,523.9 166.7,525.0 167.0,524.5 167.3,524.2 167.6,524.3 168.0,524.6 168.3,524.1 168.6,524.5 168.9,523.9 169.2,524.7 169.5,524.6 169.9,524.7 170.2,524.6 170.5,524.3 170.8,524.1 171.1,524.7 171.5,523.9 171.8,524.7 172.1,524.5 172.4,524.4 172.7,524.5 173.0,524.6 173.4,524.4 173.7,524.3 174.0,524.8 174.3,524.8 174.6,524.8 175.0,524.1 175.3,524.4 175.6,524.7 175.9,524.7 176.2,524.9 176.5,523.9 176.9,524.4 177.2,524.7 177.5,524.9 177.8,524.8 178.1,524.8 178.5,524.2 178.8,524.5 179.1,523.9 179.4,524.0 179.7,524.2 180.0,524.4 180.4,524.2 180.7,524.4 181.0,524.8 181.3,524.6 181.6,524.4 182.0,524.4 182.3,524.3 182.6,525.0 182.9,524.6 183.2,524.6 183.5,524.9 183.9,524.9 184.2,524.2 184.5,524.8 184.8,524.7 185.1,524.1 185.5,524.1 185.8,524.2 186.1,524.7 186.4,524.3 186.7,524.3 187.1,523.9 187.4,524.7 187.7,523.9 188.0,524.8 188.3,524.9 188.6,524.8 189.0,524.3 189.3,524.6 189.6,524.5 189.9,524.2 190.2,525.0 190.6,524.2 190.9,524.2 191.2,524.8 191.5,524.7 191.8,524.9 192.1,524.3 192.5,524.2 192.8,524.2 193.1,524.0 193.4,524.3 193.7,524.4 194.1,524.8 194.4,524.5 194.7,524.1 195.0,524.4 195.3,524.9 195.6,524.7 196.0,524.3 196.3,523.9 196.6,524.1 196.9,524.4 197.2,524.3 197.6,524.7 197.9,523.9 198.2,524.3 198.5,524.7 198.8,524.4 199.1,524.1 199.5,524.8 199.8,524.8 200.1,523.9 200.4,524.2 200.7,524.1 201.1,524.1 201.4,524.5 201.7,524.7 202.0,524.9 202.3,524.8 202.6,524.1 203.0,524.4 203.3,524.9 203.6,524.0 203.9,524.7" fill="none" stroke="blue" stroke-width="1.5" stroke-dasharray="5,3"/>
<polyline points="75.0,165.0 75.3,165.0 75.6,165.0 76.0,165.0 76.3,165.0 76.6,165.0 76.9,165.0 77.2,165.0 77.5,165.0 77.9,165.0 78.2,165.0 78.5,165.0 78.8,165.0 79.1,165.0 79.5,165.0 79.8,165.0 80.1,165.0 80.4,165.0 80.7,165.0 81.0,165.0 81.4,165.0 81.7,165.0 82.0,165.0 82.3,165.0 82.6,165.0 83.0,165.0 83.3,165.0 83.6,165.0 83.9,165.0 84.2,165.0 84.5,165.0 84.9,165.0 85.2,165.0 85.5,165.0 85.8,165.0 86.1,165.0 86.5,165.0 86.8,165.0 87.1,165.0 87.4,165.0 87.7,165.0 88.1,165.0 88.4,165.0 88.7,165.0 89.0,165.0 89.3,165.0 89.6,165.0 90.0,165.0 90.3,165.0 90.6,165.0 90.9,165.0 91.2,165.0 91.6,165.0 91.9,165.0 92.2,165.0 92.5,165.0 92.8,165.0 93.1,165.0 93.5,165.0 93.8,165.0 94.1,165.0 94.4,165.0 94.7,165.0 95.1,165.0 95.4,165.0 95.7,165.0 96.0,165.0 96.3,165.0 96.6,165.0 97.0,165.0 97.3,165.0 97.6,165.0 97.9,165.0 98.2,165.0 98.6,165.0 98.9,165.0 99.2,165.0 99.5,165.0 99.8,165.0 100.1,165.0 100.5,165.0 100.8,165.0 101.1,165.0 101.4,165.0 101.7,165.0 102.1,165.0 102.4,165.0 102.7,165.0 103.0,165.0 103.3,165.0 103.6,165.0 104.0,165.0 104.3,165.0 104.6,165.0 104.9,165.0 105.2,165.0 105.6,165.0 105.9,165.0 106.2,165.0 106.5,165.0 106.8,165.0 107.2,165.0 107.5,165.0 107.8,165.0 108.1,165.0 108.4,165.0 108.7,165.0 109.1,165.0 109.4,165.0 109.7,165.0 110.0,165.0 110.3,165.0 110.7,165.0 111.0,165.0 111.3,165.0 111.6,165.0 111.9,165.0 112.2,165.0 112.6,165.0 112.9,165.0 113.2,165.0 113.5,165.0 113.8,165.0 114.2,165.0 114.5,165.0 114.8,165.0 115.1,165.0 115.4,165.0 115.7,165.0 116.1,165.0 116.4,165.0 116.7,165.0 117.0,165.0 117.3,165.0 117.7,165.0 118.0,165.0 118.3,165.0 118.6,165.0 118.9,165.0 119.2,165.0 119.6,165.0 119.9,165.0 120.2,165.0 120.5,165.0 120.8,165.0 121.2,165.0 121.5,165.0 121.8,165.0 122.1,165.0 122.4,165.0 122.7,165.0 123.1,165.0 123.4,165.0 123.7,165.0 124.0,165.0 124.3,165.0 124.7,165.0 125.0,165.0 125.3,165.0 125.6,165.0 125.9,165.0 126.3,165.0 126.6,165.0 126.9,165.0 127.2,165.0 127.5,165.0 127.8,165.0 128.2,165.0 128.5,165.0 128.8,165.0 129.1,165.0 129.4,165.0 129.8,165.0 130.1,165.0 130.4,165.0 130.7,165.0 131.0,165.0 131.3,165.0 131.7,165.0 132.0,165.0 132.3,165.0 132.6,165.0 132.9,165.0 133.3,165.0 133.6,165.0 133.9,165.0 134.2,165.0 134.5,165.0 134.8,165.0 135.2,165.0 135.5,165.0 135.8,165.0 136.1,165.0 136.4,165.0 136.8,165.0 137.1,165.0 137.4,165.0 137.7,165.0 138.0,165.0 138.3,165.0 138.7,165.0 139.0,165.0 139.3,165.0 139.6,165.0 139.9,165.0 140.3,165.0 140.6,165.0 140.9,165.0 141.2,165.0 141.5,165.0 141.8,165.0 142.2,165.0 142.5,165.0 142.8,165.0 143.1,165.0 143.4,165.0 143.8,165.0 144.1,165.0 144.4,165.0 144.7,165.0 145.0,165.0 145.4,165.0 145.7,165.0 146.0,165.0 146.3,165.0 146.6,165.0 146.9,165.0 147.3,165.0 147.6,165.0 147.9,165.0 148.2,165.0 148.5,165.0 148.9,165.0 149.2,165.0 149.5,165.0 149.8,165.0 150.1,165.0 150.4,165.0 150.8,165.0 151.1,165.0 151.4,165.0 151.7,165.0 152.0,165.0 152.4,165.0 152.7,165.0 153.0,165.0 153.3,165.0 153.6,165.0 153.9,165.0 154.3,165.0 154.6,165.0 154.9,165.0 155.2,165.0 155.5,165.0 155.9,165.0 156.2,165.0 156.5,165.0 156.8,165.0 157.1,165.0 157.4,165.0 157.8,165.0 158.1,165.0 158.4,165.0 158.7,165.0 159.0,165.0 159.4,165.0 159.7,165.0 160.0,165.0 160.3,165.0 160.6,165.0 160.9,165.0 161.3,165.0 161.6,165.0 161.9,165.0 162.2,165.0 162.5,165.0 162.9,165.0 163.2,165.0 163.5,165.0 163.8,165.0 164.1,165.0 164.5,165.0 164.8,165.0 165.1,165.0 165.4,165.0 165.7,165.0 166.0,165.0 166.4,165.0 166.7,165.0 167.0,165.0 167.3,165.0 167.6,165.0 168.0,165.0 168.3,165.0 168.6,165.0 168.9,165.0 169.2,165.0 169.5,165.0 169.9,165.0 170.2,165.0 170.5,165.0 170.8,165.0 171.1,165.0 171.5,165.0 171.8,165.0 172.1,165.0 172.4,165.0 172.7,165.0 173.0,165.0 173.4,165.0 173.7,165.0 174.0,165.0 174.3,165.0 174.6,165.0 175.0,165.0 175.3,165.0 175.6,165.0 175.9,165.0 176.2,165.0 176.5,165.0 176.9,165.0 177.2,165.0 177.5,165.0 177.8,165.0 178.1,165.0 178.5,165.0 178.8,165.0 179.1,165.0 179.4,165.0 179.7,165.0 180.0,165.0 180.4,165.0 180.7,165.0 181.0,165.0 181.3,165.0 181.6,165.0 182.0,165.0 182.3,165.0 182.6,165.0 182.9,165.0 183.2,165.0 183.5,165.0 183.9,165.0 184.2,165.0 184.5,165.0 184.8,165.0 185.1,165.0 185.5,165.0 185.8,165.0 186.1,165.0 186.4,165.0 186.7,165.0 187.1,165.0 187.4,165.0 187.7,165.0 188.0,165.0 188.3,165.0 188.6,165.0 189.0,165.0 189.3,165.0 189.6,165.0 189.9,165.0 190.2,165.0 190.6,165.0 190.9,165.0 191.2,165.0 191.5,165.0 191.8,165.0 192.1,165.0 192.5,165.0 192.8,165.0 193.1,165.0 193.4,165.0 193.7,165.0 194.1,165.0 194.4,165.0 194.7,165.0 195.0,165.0 195.3,165.0 195.6,165.0 196.0,165.0 196.3,165.0 196.6,165.0 196.9,165.0 197.2,165.0 197.6,165.0 197.9,165.0 198.2,165.0 198.5,165.0 198.8,165.0 199.1,165.0 199.5,165.0 199.8,165.0 200.1,165.0 200.4,165.0 200.7,165.0 201.1,165.0 201.4,165.0 201.7,165.0 202.0,165.0 202.3,165.0 202.6,165.0 203.0,165.0 203.3,165.0 203.6,165.0 203.9,165.0" fill="none" stroke="green" stroke-width="1.2" opacity="0.6"/>
<polyline points="257.5,121.8 257.8,121.8 258.2,122.0 258.5,121.9 258.8,122.1 259.1,122.1 259.4,122.1 259.8,122.1 260.1,122.1 260.4,122.2 260.7,122.2 261.0,122.3 261.3,122.2 261.7,122.5 262.0,122.4 262.3,122.4 262.6,122.5 262.9,122.5 263.3,122.6 263.6,122.7 263.9,122.7 264.2,122.7 264.5,122.6 264.9,122.7 265.2,122.8 265.5,122.9 265.8,122.9 266.1,122.9 266.4,123.1 266.8,122.9 267.1,123.0 267.4,123.2 267.7,123.1 268.0,123.1 268.4,123.2 268.7,123.2 269.0,123.3 269.3,123.4 269.6,123.4 269.9,123.3 270.3,123.4 270.6,123.4 270.9,123.5 271.2,123.5 271.5,123.7 271.9,123.6 272.2,123.7 272.5,123.6 272.8,123.8 273.1,123.7 273.4,123.9 273.8,123.9 274.1,123.8 274.4,124.0 274.7,124.0 275.0,124.0 275.4,124.1 275.7,124.0 276.0,124.2 276.3,124.2 276.6,124.3 276.9,124.2 277.3,124.4 277.6,124.3 277.9,124.4 278.2,124.5 278.5,124.4 278.9,124.6 279.2,124.7 279.5,124.7 279.8,124.7 280.1,124.7 280.4,124.8 280.8,124.6 281.1,124.7 281.4,124.9 281.7,124.9 282.0,125.0 282.4,124.9 282.7,124.9 283.0,125.1 283.3,125.1 283.6,125.1 284.0,125.1 284.3,125.3 284.6,125.1 284.9,125.2 285.2,125.2 285.5,125.3 285.9,125.3 286.2,125.5 286.5,125.4 286.8,125.5 287.1,125.5 287.5,125.5 287.8,125.6 288.1,125.7 288.4,125.6 288.7,125.8 289.0,125.7 289.4,125.8 289.7,125.8 290.0,126.0 290.3,126.0 290.6,126.0 291.0,125.9 291.3,126.1 291.6,126.1 291.9,126.0 292.2,126.1 292.5,126.2 292.9,126.3 293.2,126.2 293.5,126.2 293.8,126.4 294.1,126.4 294.5,126.5 294.8,126.5 295.1,126.6 295.4,126.7 295.7,126.5 296.0,126.6 296.4,126.6 296.7,126.7 297.0,126.8 297.3,126.8 297.6,127.0 298.0,126.8 298.3,126.8 298.6,127.0 298.9,127.1 299.2,127.0 299.5,127.2 299.9,127.2 300.2,127.3 300.5,127.3 300.8,127.3 301.1,127.2 301.5,127.4 301.8,127.3 302.1,127.3 302.4,127.5 302.7,127.6 303.1,127.6 303.4,127.5 303.7,127.7 304.0,127.7 304.3,127.5 304.6,127.8 305.0,127.8 305.3,127.7 305.6,127.8 305.9,127.9 306.2,127.8 306.6,128.0 306.9,128.0 307.2,128.0 307.5,128.0 307.8,128.2 308.1,128.2 308.5,128.2 308.8,128.1 309.1,128.2 309.4,128.4 309.7,128.4 310.1,128.3 310.4,128.5 310.7,128.5 311.0,128.4 311.3,128.7 311.6,128.7 312.0,128.5 312.3,128.8 312.6,128.7 312.9,128.8 313.2,128.8 313.6,128.8 313.9,128.9 314.2,128.9 314.5,129.1 314.8,129.0 315.1,129.0 315.5,129.1 315.8,129.1 316.1,129.2 316.4,129.2 316.7,129.3 317.1,129.3 317.4,129.2 317.7,129.4 318.0,129.4 318.3,129.5 318.6,129.4 319.0,129.4 319.3,129.6 319.6,129.5 319.9,129.6 320.2,129.8 320.6,129.8 320.9,129.6 321.2,129.8 321.5,129.8 321.8,129.8 322.2,129.9 322.5,130.0 322.8,129.9 323.1,130.0 323.4,130.2 323.7,130.0 324.1,130.0 324.4,130.3 324.7,130.3 325.0,130.3 325.3,130.4 325.7,130.4 326.0,130.3 326.3,130.3 326.6,130.5 326.9,130.4 327.2,130.6 327.6,130.7 327.9,130.6 328.2,130.7 328.5,130.7 328.8,130.8 329.2,130.7 329.5,130.7 329.8,130.8 330.1,130.9 330.4,130.9 330.7,131.1 331.1,131.0 331.4,131.2 331.7,131.1 332.0,131.2 332.3,131.2 332.7,131.2 333.0,131.2 333.3,131.4 333.6,131.4 333.9,131.3 334.2,131.3 334.6,131.5 334.9,131.5 335.2,131.6 335.5,131.6 335.8,131.5 336.2,131.6 336.5,131.6 336.8,131.7 337.1,131.7 337.4,131.9 337.7,131.9 338.1,131.9 338.4,131.8 338.7,132.0 339.0,132.0 339.3,131.9 339.7,132.1 340.0,132.1 340.3,132.2 340.6,132.2 340.9,132.1 341.2,132.3 341.6,132.2 341.9,132.3 342.2,132.5 342.5,132.4 342.8,132.5 343.2,132.6 343.5,132.5 343.8,132.6 344.1,132.7 344.4,132.6 344.8,132.6 345.1,132.7 345.4,132.8 345.7,132.7 346.0,132.8 346.3,132.9 346.7,132.8 347.0,132.9 347.3,133.0 347.6,132.9 347.9,133.1 348.3,133.0 348.6,133.2 348.9,133.2 349.2,133.3 349.5,133.3 349.8,133.4 350.2,133.3 350.5,133.4 350.8,133.4 351.1,133.5 351.4,133.5 351.8,133.5 352.1,133.6 352.4,133.7 352.7,133.8 353.0,133.6 353.3,133.9 353.7,133.7 354.0,133.8 354.3,133.9 354.6,133.9 354.9,133.9 355.3,134.0 355.6,134.0 355.9,134.2 356.2,134.2" fill="none" stroke="red" stroke-width="2.5" opacity="0.8"/>
<polyline points="257.5,524.8 257.8,524.0 258.2,525.0 258.5,524.4 258.8,524.4 259.1,524.8 259.4,524.4 259.8,524.8 260.1,524.2 260.4,524.1 260.7,524.6 261.0,524.0 261.3,524.7 261.7,523.9 262.0,524.4 262.3,524.0 262.6,524.7 262.9,524.8 263.3,524.2 263.6,524.8 263.9,524.6 264.2,524.7 264.5,524.5 264.9,524.0 265.2,524.7 265.5,524.5 265.8,524.2 266.1,524.3 266.4,523.9 266.8,524.6 267.1,524.1 267.4,524.6 267.7,524.2 268.0,523.9 268.4,524.7 268.7,525.0 269.0,524.9 269.3,524.8 269.6,524.7 269.9,524.8 270.3,524.8 270.6,524.5 270.9,524.9 271.2,524.0 271.5,523.9 271.9,524.6 272.2,523.9 272.5,524.6 272.8,524.3 273.1,524.6 273.4,524.8 273.8,524.0 274.1,524.4 274.4,524.8 274.7,524.5 275.0,524.3 275.4,524.3 275.7,524.8 276.0,524.8 276.3,524.1 276.6,524.3 276.9,524.7 277.3,524.3 277.6,524.9 277.9,524.3 278.2,524.0 278.5,524.0 278.9,524.8 279.2,524.4 279.5,524.4 279.8,524.7 280.1,524.8 280.4,524.0 280.8,523.9 281.1,525.0 281.4,524.4 281.7,524.8 282.0,524.1 282.4,524.8 282.7,524.0 283.0,524.6 283.3,525.0 283.6,523.9 284.0,524.3 284.3,523.9 284.6,524.0 284.9,524.8 285.2,524.1 285.5,524.5 285.9,524.4 286.2,524.2 286.5,524.2 286.8,524.3 287.1,524.6 287.5,524.6 287.8,524.7 288.1,524.6 288.4,524.1 288.7,524.6 289.0,524.4 289.4,524.5 289.7,524.3 290.0,524.3 290.3,524.5 290.6,524.4 291.0,524.1 291.3,524.2 291.6,524.1 291.9,524.1 292.2,524.2 292.5,524.5 292.9,524.8 293.2,524.4 293.5,524.7 293.8,524.5 294.1,524.0 294.5,524.8 294.8,524.5 295.1,524.3 295.4,524.3 295.7,524.3 296.0,524.9 296.4,524.3 296.7,524.0 297.0,524.4 297.3,524.2 297.6,524.3 298.0,524.9 298.3,524.9 298.6,524.8 298.9,524.5 299.2,524.1 299.5,524.5 299.9,524.0 300.2,524.7 300.5,524.4 300.8,524.1 301.1,524.0 301.5,524.0 301.8,523.9 302.1,525.0 302.4,524.5 302.7,525.0 303.1,524.5 303.4,524.9 303.7,524.7 304.0,524.4 304.3,524.5 304.6,524.2 305.0,524.4 305.3,524.2 305.6,524.0 305.9,524.1 306.2,524.0 306.6,524.0 306.9,524.9 307.2,524.9 307.5,524.8 307.8,524.7 308.1,524.1 308.5,524.1 308.8,524.2 309.1,524.4 309.4,524.0 309.7,524.7 310.1,524.5 310.4,524.2 310.7,524.4 311.0,524.3 311.3,525.0 311.6,524.6 312.0,524.9 312.3,524.0 312.6,524.9 312.9,524.7 313.2,524.1 313.6,524.8 313.9,524.2 314.2,524.6 314.5,524.5 314.8,524.5 315.1,524.6 315.5,524.9 315.8,524.3 316.1,524.7 316.4,524.4 316.7,523.9 317.1,524.3 317.4,524.9 317.7,524.7 318.0,524.4 318.3,524.0 318.6,524.0 319.0,524.6 319.3,524.8 319.6,524.6 319.9,525.0 320.2,524.0 320.6,524.5 320.9,524.2 321.2,524.9 321.5,524.0 321.8,524.1 322.2,524.1 322.5,524.6 322.8,524.2 323.1,524.6 323.4,524.4 323.7,525.0 324.1,524.1 324.4,524.9 324.7,524.6 325.0,523.9 325.3,524.3 325.7,524.5 326.0,524.9 326.3,524.9 326.6,524.5 326.9,524.5 327.2,524.9 327.6,524.9 327.9,524.2 328.2,524.9 328.5,524.0 328.8,524.7 329.2,524.7 329.5,525.0 329.8,524.9 330.1,524.0 330.4,525.0 330.7,524.1 331.1,524.8 331.4,524.3 331.7,524.8 332.0,524.1 332.3,525.0 332.7,524.6 333.0,524.4 333.3,524.6 333.6,524.5 333.9,524.5 334.2,524.4 334.6,524.9 334.9,523.9 335.2,524.4 335.5,524.0 335.8,524.7 336.2,524.1 336.5,524.6 336.8,524.3 337.1,524.6 337.4,524.1 337.7,524.6 338.1,524.7 338.4,524.8 338.7,524.5 339.0,524.0 339.3,524.2 339.7,524.3 340.0,524.2 340.3,524.2 340.6,524.0 340.9,524.5 341.2,524.0 341.6,524.3 341.9,524.2 342.2,524.0 342.5,524.6 342.8,524.4 343.2,524.9 343.5,524.5 343.8,524.4 344.1,524.8 344.4,524.8 344.8,524.1 345.1,524.4 345.4,524.4 345.7,524.8 346.0,524.8 346.3,524.9 346.7,524.8 347.0,524.2 347.3,525.0 347.6,524.6 347.9,523.9 348.3,524.5 348.6,524.5 348.9,524.6 349.2,524.3 349.5,524.6 349.8,524.6 350.2,524.1 350.5,524.1 350.8,524.3 351.1,524.9 351.4,524.9 351.8,525.0 352.1,524.6 352.4,524.6 352.7,524.3 353.0,524.5 353.3,524.8 353.7,524.7 354.0,523.9 354.3,524.5 354.6,524.4 354.9,524.2 355.3,524.3 355.6,524.9 355.9,524.9 356.2,523.9" fill="none" stroke="blue" stroke-width="1.5" stroke-dasharray="5,3"/>
<polyline points="257.5,165.0 257.8,165.0 258.2,165.0 258.5,165.0 258.8,165.0 259.1,165.0 259.4,165.0 259.8,165.0 260.1,165.0 260.4,165.0 260.7,165.0 261.0,165.0 261.3,165.0 261.7,165.0 262.0,165.0 262.3,165.0 262.6,165.0 262.9,165.0 263.3,165.0 263.6,165.0 263.9,165.0 264.2,165.0 264.5,165.0 264.9,165.0 265.2,165.0 265.5,165.0 265.8,165.0 266.1,165.0 266.4,165.0 266.8,165.0 267.1,165.0 267.4,165.0 267.7,165.0 268.0,165.0 268.4,165.0 268.7,165.0 269.0,165.0 269.3,165.0 269.6,165.0 269.9,165.0 270.3,165.0 270.6,165.0 270.9,165.0 271.2,165.0 271.5,165.0 271.9,165.0 272.2,165.0 272.5,165.0 272.8,165.0 273.1,165.0 273.4,165.0 273.8,165.0 274.1,165.0 274.4,165.0 274.7,165.0 275.0,165.0 275.4,165.0 275.7,165.0 276.0,165.0 276.3,165.0 276.6,165.0 276.9,165.0 277.3,165.0 277.6,165.0 277.9,165.0 278.2,165.0 278.5,165.0 278.9,165.0 279.2,165.0 279.5,165.0 279.8,165.0 280.1,165.0 280.4,165.0 280.8,165.0 281.1,165.0 281.4,165.0 281.7,165.0 282.0,165.0 282.4,165.0 282.7,165.0 283.0,165.0 283.3,165.0 283.6,165.0 284.0,165.0 284.3,165.0 284.6,165.0 284.9,165.0 285.2,165.0 285.5,165.0 285.9,165.0 286.2,165.0 286.5,165.0 286.8,165.0 287.1,165.0 287.5,165.0 287.8,165.0 288.1,165.0 288.4,165.0 288.7,165.0 289.0,165.0 289.4,165.0 289.7,165.0 290.0,165.0 290.3,165.0 290.6,165.0 291.0,165.0 291.3,165.0 291.6,165.0 291.9,165.0 292.2,165.0 292.5,165.0 292.9,165.0 293.2,165.0 293.5,165.0 293.8,165.0 294.1,165.0 294.5,165.0 294.8,165.0 295.1,165.0 295.4,165.0 295.7,165.0 296.0,165.0 296.4,165.0 296.7,165.0 297.0,165.0 297.3,165.0 297.6,165.0 298.0,165.0 298.3,165.0 298.6,165.0 298.9,165.0 299.2,165.0 299.5,165.0 299.9,165.0 300.2,165.0 300.5,165.0 300.8,165.0 301.1,165.0 301.5,165.0 301.8,165.0 302.1,165.0 302.4,165.0 302.7,165.0 303.1,165.0 303.4,165.0 303.7,165.0 304.0,165.0 304.3,165.0 304.6,165.0 305.0,165.0 305.3,165.0 305.6,165.0 305.9,165.0 306.2,165.0 306.6,165.0 306.9,165.0 307.2,165.0 307.5,165.0 307.8,165.0 308.1,165.0 308.5,165.0 308.8,165.0 309.1,165.0 309.4,165.0 309.7,165.0 310.1,165.0 310.4,165.0 310.7,165.0 311.0,165.0 311.3,165.0 311.6,165.0 312.0,165.0 312.3,165.0 312.6,165.0 312.9,165.0 313.2,165.0 313.6,165.0 313.9,165.0 314.2,165.0 314.5,165.0 314.8,165.0 315.1,165.0 315.5,165.0 315.8,165.0 316.1,165.0 316.4,165.0 316.7,165.0 317.1,165.0 317.4,165.0 317.7,165.0 318.0,165.0 318.3,165.0 318.6,165.0 319.0,165.0 319.3,165.0 319.6,165.0 319.9,165.0 320.2,165.0 320.6,165.0 320.9,165.0 321.2,165.0 321.5,165.0 321.8,165.0 322.2,165.0 322.5,165.0 322.8,165.0 323.1,165.0 323.4,165.0 323.7,165.0 324.1,165.0 324.4,165.0 324.7,165.0 325.0,165.0 325.3,165.0 325.7,165.0 326.0,165.0 326.3,165.0 326.6,165.0 326.9,165.0 327.2,165.0 327.6,165.0 327.9,165.0 328.2,165.0 328.5,165.0 328.8,165.0 329.2,165.0 329.5,165.0 329.8,165.0 330.1,165.0 330.4,165.0 330.7,165.0 331.1,165.0 331.4,165.0 331.7,165.0 332.0,165.0 332.3,165.0 332.7,165.0 333.0,165.0 333.3,165.0 333.6,165.0 333.9,165.0 334.2,165.0 334.6,165.0 334.9,165.0 335.2,165.0 335.5,165.0 335.8,165.0 336.2,165.0 336.5,165.0 336.8,165.0 337.1,165.0 337.4,165.0 337.7,165.0 338.1,165.0 338.4,165.0 338.7,165.0 339.0,165.0 339.3,165.0 339.7,165.0 340.0,165.0 340.3,165.0 340.6,165.0 340.9,165.0 341.2,165.0 341.6,165.0 341.9,165.0 342.2,165.0 342.5,165.0 342.8,165.0 343.2,165.0 343.5,165.0 343.8,165.0 344.1,165.0 344.4,165.0 344.8,165.0 345.1,165.0 345.4,165.0 345.7,165.0 346.0,165.0 346.3,165.0 346.7,165.0 347.0,165.0 347.3,165.0 347.6,165.0 347.9,165.0 348.3,165.0 348.6,165.0 348.9,165.0 349.2,165.0 349.5,165.0 349.8,165.0 350.2,165.0 350.5,165.0 350.8,165.0 351.1,165.0 351.4,165.0 351.8,165.0 352.1,165.0 352.4,165.0 352.7,165.0 353.0,165.0 353.3,165.0 353.7,165.0 354.0,165.0 354.3,165.0 354.6,165.0 354.9,165.0 355.3,165.0 355.6,165.0 355.9,165.0 356.2,165.0" fill="none" stroke="green" stroke-width="1.2" opacity="0.6"/>
<polyline points="826.3,152.1 826.6,152.2 827.0,152.3 827.3,152.1 827.6,152.2 827.9,152.3 828.2,152.3 828.5,152.4 828.9,152.4 829.2,152.4 829.5,152.5 829.8,152.6 830.1,152.6 830.5,152.6 830.8,152.7 831.1,152.8 831.4,152.7 831.7,152.8 832.0,152.9 832.4,152.9 832.7,153.0 833.0,152.9 833.3,152.9 833.6,153.1 834.0,153.1 834.3,153.2 834.6,153.1 834.9,153.2 835.2,153.2 835.5,153.2 835.9,153.4 836.2,153.3 836.5,153.3 836.8,153.5 837.1,153.4 837.5,153.6 837.8,153.6 838.1,153.6 838.4,153.6 838.7,153.8 839.1,153.6 839.4,153.8 839.7,153.7 840.0,153.8 840.3,153.8 840.6,154.0 841.0,154.0 841.3,153.9 841.6,154.1 841.9,154.0 842.2,154.1 842.6,154.2 842.9,154.1 843.2,154.2 843.5,154.3 843.8,154.2 844.1,154.3 844.5,154.5 844.8,154.4 845.1,154.6 845.4,154.6 845.7,154.6 846.1,154.6 846.4,154.6 846.7,154.7 847.0,154.8 847.3,154.8 847.6,154.9 848.0,154.7 848.3,154.9 848.6,155.0 848.9,154.8 849.2,154.9 849.6,155.1 849.9,155.1 850.2,155.1 850.5,155.0 850.8,155.2 851.1,155.2 851.5,155.4 851.8,155.2 852.1,155.4 852.4,155.3 852.7,155.4 853.1,155.5 853.4,155.5 853.7,155.5 854.0,155.6 854.3,155.6 854.6,155.6 855.0,155.7 855.3,155.6 855.6,155.8 855.9,155.7 856.2,155.9 856.6,155.8 856.9,155.9 857.2,155.9 857.5,155.9 857.8,156.1 858.2,156.2 858.5,156.2 858.8,156.2 859.1,156.3 859.4,156.2 859.7,156.4 860.1,156.3 860.4,156.5 860.7,156.4 861.0,156.4 861.3,156.6 861.7,156.6 862.0,156.5 862.3,156.7 862.6,156.6 862.9,156.6 863.2,156.7 863.6,156.6 863.9,156.9 864.2,156.8 864.5,157.0 864.8,157.0 865.2,156.9 865.5,156.9 865.8,157.0 866.1,157.1 866.4,157.1 866.7,157.1 867.1,157.2 867.4,157.3 867.7,157.3 868.0,157.2 868.3,157.3 868.7,157.3 869.0,157.5 869.3,157.4 869.6,157.6 869.9,157.6 870.2,157.7 870.6,157.7 870.9,157.6 871.2,157.8 871.5,157.8 871.8,157.8 872.2,157.9 872.5,157.9 872.8,157.9 873.1,158.0 873.4,157.9 873.7,158.1 874.1,158.1 874.4,158.0 874.7,158.2 875.0,158.2 875.3,158.3 875.7,158.4 876.0,158.4 876.3,158.4 876.6,158.3 876.9,158.5 877.3,158.6 877.6,158.5 877.9,158.5 878.2,158.5 878.5,158.6 878.8,158.6 879.2,158.8 879.5,158.7 879.8,158.8 880.1,158.9 880.4,158.9 880.8,158.8 881.1,158.9 881.4,158.9 881.7,159.0 882.0,159.1 882.3,159.0 882.7,159.1 883.0,159.3 883.3,159.2 883.6,159.3 883.9,159.3 884.3,159.2 884.6,159.3 884.9,159.5 885.2,159.5 885.5,159.6 885.8,159.4 886.2,159.5 886.5,159.5 886.8,159.6 887.1,159.6 887.4,159.6 887.8,159.8 888.1,159.8 888.4,159.8 888.7,159.9 889.0,159.8 889.3,160.0 889.7,159.9 890.0,160.0 890.3,160.2 890.6,160.1 890.9,160.2 891.3,160.3 891.6,160.2 891.9,160.3 892.2,160.4 892.5,160.4 892.8,160.5 893.2,160.4 893.5,160.5 893.8,160.6 894.1,160.7 894.4,160.5 894.8,160.7 895.1,160.7 895.4,160.8 895.7,160.7 896.0,160.9 896.4,160.8 896.7,160.8 897.0,160.8 897.3,161.1 897.6,161.0 897.9,161.1 898.3,161.2 898.6,161.2 898.9,161.2 899.2,161.2 899.5,161.2 899.9,161.2 900.2,161.2 900.5,161.3 900.8,161.3 901.1,161.4 901.4,161.5 901.8,161.6 902.1,161.6 902.4,161.7 902.7,161.6 903.0,161.6 903.4,161.7 903.7,161.7 904.0,161.7 904.3,161.9 904.6,161.8 904.9,161.8 905.3,162.0 905.6,162.0 905.9,162.1 906.2,162.1 906.5,162.1 906.9,162.2 907.2,162.1 907.5,162.2 907.8,162.4 908.1,162.3 908.4,162.3 908.8,162.3 909.1,162.3 909.4,162.5 909.7,162.6 910.0,162.5 910.4,162.7 910.7,162.7 911.0,162.6 911.3,162.6 911.6,162.8 911.9,162.8 912.3,162.9 912.6,162.9 912.9,162.9 913.2,162.8 913.5,162.9 913.9,163.0 914.2,163.0 914.5,163.2 914.8,163.2 915.1,163.2 915.5,163.2 915.8,163.3 916.1,163.2 916.4,163.4 916.7,163.4 917.0,163.4 917.4,163.3 917.7,163.6 918.0,163.5 918.3,163.6 918.6,163.7 919.0,163.5 919.3,163.6 919.6,163.8 919.9,163.9 920.2,163.9 920.5,163.8 920.9,163.8 921.2,163.9 921.5,164.0 921.8,163.9 922.1,164.1 922.5,164.1 922.8,164.2 923.1,164.1 923.4,164.1 923.7,164.1 924.0,164.2 924.4,164.3 924.7,164.3 925.0,164.3" fill="none" stroke="red" stroke-width="2.5" opacity="0.8"/>
<polyline points="826.3,524.8 826.6,524.3 827.0,524.8 827.3,524.0 827.6,524.2 827.9,523.9 828.2,524.4 828.5,524.6 828.9,524.6 829.2,524.8 829.5,524.6 829.8,524.7 830.1,524.6 830.5,524.8 830.8,524.6 831.1,524.4 831.4,524.3 831.7,524.7 832.0,524.1 832.4,523.9 832.7,524.6 833.0,524.9 833.3,524.8 833.6,524.7 834.0,524.4 834.3,524.7 834.6,524.5 834.9,524.3 835.2,524.5 835.5,524.8 835.9,524.6 836.2,524.2 836.5,524.6 836.8,524.2 837.1,524.5 837.5,524.4 837.8,524.4 838.1,524.8 838.4,524.6 838.7,524.0 839.1,524.9 839.4,524.9 839.7,524.9 840.0,524.1 840.3,524.6 840.6,524.4 841.0,524.5 841.3,524.5 841.6,524.3 841.9,524.8 842.2,524.7 842.6,523.9 842.9,524.4 843.2,524.2 843.5,524.3 843.8,524.8 844.1,524.2 844.5,524.9 844.8,524.4 845.1,525.0 845.4,524.5 845.7,524.7 846.1,524.7 846.4,523.9 846.7,524.6 847.0,524.5 847.3,523.9 847.6,524.6 848.0,524.9 848.3,524.5 848.6,524.1 848.9,524.3 849.2,524.4 849.6,524.5 849.9,524.0 850.2,524.3 850.5,524.5 850.8,524.1 851.1,524.5 851.5,525.0 851.8,524.5 852.1,524.8 852.4,524.4 852.7,524.4 853.1,524.3 853.4,524.6 853.7,524.3 854.0,524.2 854.3,524.9 854.6,524.8 855.0,524.9 855.3,524.8 855.6,524.2 855.9,524.3 856.2,524.2 856.6,524.9 856.9,524.5 857.2,524.0 857.5,524.4 857.8,524.6 858.2,524.5 858.5,524.7 858.8,524.4 859.1,524.2 859.4,524.8 859.7,524.5 860.1,523.9 860.4,524.1 860.7,523.9 861.0,524.1 861.3,523.9 861.7,524.5 862.0,524.0 862.3,525.0 862.6,524.9 862.9,524.1 863.2,524.3 863.6,524.0 863.9,524.8 864.2,524.7 864.5,525.0 864.8,524.6 865.2,524.5 865.5,524.2 865.8,524.6 866.1,524.5 866.4,524.9 866.7,524.5 867.1,524.7 867.4,524.0 867.7,524.0 868.0,524.3 868.3,524.7 868.7,524.0 869.0,524.4 869.3,524.1 869.6,524.5 869.9,524.7 870.2,524.2 870.6,524.3 870.9,524.0 871.2,524.5 871.5,524.7 871.8,524.3 872.2,525.0 872.5,524.3 872.8,524.3 873.1,525.0 873.4,524.2 873.7,523.9 874.1,524.6 874.4,524.9 874.7,524.0 875.0,524.3 875.3,524.3 875.7,524.5 876.0,524.1 876.3,524.3 876.6,524.5 876.9,524.5 877.3,524.5 877.6,524.3 877.9,524.8 878.2,523.9 878.5,524.7 878.8,524.9 879.2,525.0 879.5,524.0 879.8,524.3 880.1,524.7 880.4,524.8 880.8,524.7 881.1,524.5 881.4,524.3 881.7,524.0 882.0,524.8 882.3,524.2 882.7,524.1 883.0,524.2 883.3,524.0 883.6,524.1 883.9,524.8 884.3,524.2 884.6,524.7 884.9,524.5 885.2,524.9 885.5,525.0 885.8,524.2 886.2,523.9 886.5,524.6 886.8,524.7 887.1,524.5 887.4,524.9 887.8,524.6 888.1,524.8 888.4,524.8 888.7,524.1 889.0,524.0 889.3,524.6 889.7,524.2 890.0,523.9 890.3,524.0 890.6,524.9 890.9,524.4 891.3,524.1 891.6,524.3 891.9,524.5 892.2,524.8 892.5,524.3 892.8,524.7 893.2,524.0 893.5,524.4 893.8,524.3 894.1,524.8 894.4,524.2 894.8,524.2 895.1,524.6 895.4,524.6 895.7,524.8 896.0,524.9 896.4,524.5 896.7,525.0 897.0,524.2 897.3,524.9 897.6,524.4 897.9,524.7 898.3,524.8 898.6,524.1 898.9,524.9 899.2,524.4 899.5,524.9 899.9,524.8 900.2,524.1 900.5,524.7 900.8,525.0 901.1,524.6 901.4,524.7 901.8,525.0 902.1,524.6 902.4,524.8 902.7,524.1 903.0,524.5 903.4,524.5 903.7,524.2 904.0,524.3 904.3,524.9 904.6,524.3 904.9,524.1 905.3,525.0 905.6,524.8 905.9,524.0 906.2,524.8 906.5,524.9 906.9,523.9 907.2,523.9 907.5,524.5 907.8,524.2 908.1,524.3 908.4,524.5 908.8,524.5 909.1,524.0 909.4,524.1 909.7,524.2 910.0,524.8 910.4,524.3 910.7,524.1 911.0,523.9 911.3,524.0 911.6,524.8 911.9,524.3 912.3,524.1 912.6,524.1 912.9,523.9 913.2,524.4 913.5,524.7 913.9,524.1 914.2,523.9 914.5,524.4 914.8,524.9 915.1,524.1 915.5,524.8 915.8,524.6 916.1,524.7 916.4,524.0 916.7,524.9 917.0,524.5 917.4,524.9 917.7,524.2 918.0,523.9 918.3,524.2 918.6,524.0 919.0,524.1 919.3,524.3 919.6,524.5 919.9,523.9 920.2,525.0 920.5,524.1 920.9,524.4 921.2,523.9 921.5,524.2 921.8,524.3 922.1,524.2 922.5,524.8 922.8,524.6 923.1,524.4 923.4,524.7 923.7,524.2 924.0,524.5 924.4,524.2 924.7,524.8 925.0,524.2" fill="none" stroke="blue" stroke-width="1.5" stroke-dasharray="5,3"/>
<polyline points="826.3,165.0 826.6,165.0 827.0,165.0 827.3,165.0 827.6,165.0 827.9,165.0 828.2,165.0 828.5,165.0 828.9,165.0 829.2,165.0 829.5,165.0 829.8,165.0 830.1,165.0 830.5,165.0 830.8,165.0 831.1,165.0 831.4,165.0 831.7,165.0 832.0,165.0 832.4,165.0 832.7,165.0 833.0,165.0 833.3,165.0 833.6,165.0 834.0,165.0 834.3,165.0 834.6,165.0 834.9,165.0 835.2,165.0 835.5,165.0 835.9,165.0 836.2,165.0 836.5,165.0 836.8,165.0 837.1,165.0 837.5,165.0 837.8,165.0 838.1,165.0 838.4,165.0 838.7,165.0 839.1,165.0 839.4,165.0 839.7,165.0 840.0,165.0 840.3,165.0 840.6,165.0 841.0,165.0 841.3,165.0 841.6,165.0 841.9,165.0 842.2,165.0 842.6,165.0 842.9,165.0 843.2,165.0 843.5,165.0 843.8,165.0 844.1,165.0 844.5,165.0 844.8,165.0 845.1,165.0 845.4,165.0 845.7,165.0 846.1,165.0 846.4,165.0 846.7,165.0 847.0,165.0 847.3,165.0 847.6,165.0 848.0,165.0 848.3,165.0 848.6,165.0 848.9,165.0 849.2,165.0 849.6,165.0 849.9,165.0 850.2,165.0 850.5,165.0 850.8,165.0 851.1,165.0 851.5,165.0 851.8,165.0 852.1,165.0 852.4,165.0 852.7,165.0 853.1,165.0 853.4,165.0 853.7,165.0 854.0,165.0 854.3,165.0 854.6,165.0 855.0,165.0 855.3,165.0 855.6,165.0 855.9,165.0 856.2,165.0 856.6,165.0 856.9,165.0 857.2,165.0 857.5,165.0 857.8,165.0 858.2,165.0 858.5,165.0 858.8,165.0 859.1,165.0 859.4,165.0 859.7,165.0 860.1,165.0 860.4,165.0 860.7,165.0 861.0,165.0 861.3,165.0 861.7,165.0 862.0,165.0 862.3,165.0 862.6,165.0 862.9,165.0 863.2,165.0 863.6,165.0 863.9,165.0 864.2,165.0 864.5,165.0 864.8,165.0 865.2,165.0 865.5,165.0 865.8,165.0 866.1,165.0 866.4,165.0 866.7,165.0 867.1,165.0 867.4,165.0 867.7,165.0 868.0,165.0 868.3,165.0 868.7,165.0 869.0,165.0 869.3,165.0 869.6,165.0 869.9,165.0 870.2,165.0 870.6,165.0 870.9,165.0 871.2,165.0 871.5,165.0 871.8,165.0 872.2,165.0 872.5,165.0 872.8,165.0 873.1,165.0 873.4,165.0 873.7,165.0 874.1,165.0 874.4,165.0 874.7,165.0 875.0,165.0 875.3,165.0 875.7,165.0 876.0,165.0 876.3,165.0 876.6,165.0 876.9,165.0 877.3,165.0 877.6,165.0 877.9,165.0 878.2,165.0 878.5,165.0 878.8,165.0 879.2,165.0 879.5,165.0 879.8,165.0 880.1,165.0 880.4,165.0 880.8,165.0 881.1,165.0 881.4,165.0 881.7,165.0 882.0,165.0 882.3,165.0 882.7,165.0 883.0,165.0 883.3,165.0 883.6,165.0 883.9,165.0 884.3,165.0 884.6,165.0 884.9,165.0 885.2,165.0 885.5,165.0 885.8,165.0 886.2,165.0 886.5,165.0 886.8,165.0 887.1,165.0 887.4,165.0 887.8,165.0 888.1,165.0 888.4,165.0 888.7,165.0 889.0,165.0 889.3,165.0 889.7,165.0 890.0,165.0 890.3,165.0 890.6,165.0 890.9,165.0 891.3,165.0 891.6,165.0 891.9,165.0 892.2,165.0 892.5,165.0 892.8,165.0 893.2,165.0 893.5,165.0 893.8,165.0 894.1,165.0 894.4,165.0 894.8,165.0 895.1,165.0 895.4,165.0 895.7,165.0 896.0,165.0 896.4,165.0 896.7,165.0 897.0,165.0 897.3,165.0 897.6,165.0 897.9,165.0 898.3,165.0 898.6,165.0 898.9,165.0 899.2,165.0 899.5,165.0 899.9,165.0 900.2,165.0 900.5,165.0 900.8,165.0 901.1,165.0 901.4,165.0 901.8,165.0 902.1,165.0 902.4,165.0 902.7,165.0 903.0,165.0 903.4,165.0 903.7,165.0 904.0,165.0 904.3,165.0 904.6,165.0 904.9,165.0 905.3,165.0 905.6,165.0 905.9,165.0 906.2,165.0 906.5,165.0 906.9,165.0 907.2,165.0 907.5,165.0 907.8,165.0 908.1,165.0 908.4,165.0 908.8,165.0 909.1,165.0 909.4,165.0 909.7,165.0 910.0,165.0 910.4,165.0 910.7,165.0 911.0,165.0 911.3,165.0 911.6,165.0 911.9,165.0 912.3,165.0 912.6,165.0 912.9,165.0 913.2,165.0 913.5,165.0 913.9,165.0 914.2,165.0 914.5,165.0 914.8,165.0 915.1,165.0 915.5,165.0 915.8,165.0 916.1,165.0 916.4,165.0 916.7,165.0 917.0,165.0 917.4,165.0 917.7,165.0 918.0,165.0 918.3,165.0 918.6,165.0 919.0,165.0 919.3,165.0 919.6,165.0 919.9,165.0 920.2,165.0 920.5,165.0 920.9,165.0 921.2,165.0 921.5,165.0 921.8,165.0 922.1,165.0 922.5,165.0 922.8,165.0 923.1,165.0 923.4,165.0 923.7,165.0 924.0,165.0 924.4,165.0 924.7,165.0 925.0,165.0" fill="none" stroke="green" stroke-width="1.2" opacity="0.6"/>
<line x1="75" y1="525" x2="925" y2="525" stroke="#333" stroke-width="2"/>
<line x1="75" y1="75" x2="75" y2="525" stroke="#333" stroke-width="2"/>
<line x1="925" y1="75" x2="925" y2="525" stroke="#333" stroke-width="2"/>
<text x="75.0" y="550" text-anchor="middle" font-family="sans-serif" font-size="12">0s</text>
<text x="245.0" y="550" text-anchor="middle" font-family="sans-serif" font-size="12">54s</text>
<text x="415.0" y="550" text-anchor="middle" font-family="sans-serif" font-size="12">107s</text>
<text x="585.0" y="550" text-anchor="middle" font-family="sans-serif" font-size="12">160s</text>
<text x="755.0" y="550" text-anchor="middle" font-family="sans-serif" font-size="12">214s</text>
<text x="925.0" y="550" text-anchor="middle" font-family="sans-serif" font-size="12">267s</text>
<g transform="translate(800, 60)">
<rect width="140" height="70" fill="white" fill-opacity="0.9" stroke="#ccc"/>
<line x1="10" y1="15" x2="40" y2="15" stroke="red" stroke-width="3"/>
<text x="45" y="20" font-family="sans-serif" font-size="14">Voltage</text>
<line x1="10" y1="35" x2="40" y2="35" stroke="blue" stroke-width="2" stroke-dasharray="5,3"/>
<text x="45" y="40" font-family="sans-serif" font-size="14">Current</text>
<line x1="10" y1="55" x2="40" y2="55" stroke="green" stroke-width="1.2"/>
<text x="45" y="60" font-family="sans-serif" font-size="14">Efficiency</text>
</g>
</svg>