<svg viewBox="0 0 1000 500" xmlns="http://www.w3.org/2000/svg">
<rect width="100%" height="100%" fill="#ffffff"/>
<text x="500.0" y="35" text-anchor="middle" font-family="sans-serif" font-size="22" font-weight="bold">Full Charge Cycle: aged</text>
<line x1="70" y1="430.0" x2="930" y2="430.0" stroke="#eee" stroke-width="1"/>
<text x="65" y="434.0" text-anchor="end" font-family="sans-serif" font-size="12" fill="red">12.00V</text>
<line x1="70" y1="357.99999999999994" x2="930" y2="357.99999999999994" stroke="#eee" stroke-width="1"/>
<text x="65" y="361.99999999999994" text-anchor="end" font-family="sans-serif" font-size="12" fill="red">12.37V</text>
<line x1="70" y1="285.9999999999999" x2="930" y2="285.9999999999999" stroke="#eee" stroke-width="1"/>
<text x="65" y="289.9999999999999" text-anchor="end" font-family="sans-serif" font-size="12" fill="red">12.74V</text>
<line x1="70" y1="214.00000000000014" x2="930" y2="214.00000000000014" stroke="#eee" stroke-width="1"/>
<text x="65" y="218.00000000000014" text-anchor="end" font-family="sans-serif" font-size="12" fill="red">13.11V</text>
<line x1="70" y1="142.0000000000001" x2="930" y2="142.0000000000001" stroke="#eee" stroke-width="1"/>
<text x="65" y="146.0000000000001" text-anchor="end" font-family="sans-serif" font-size="12" fill="red">13.47V</text>
<line x1="70" y1="70.0" x2="930" y2="70.0" stroke="#eee" stroke-width="1"/>
<text x="65" y="74.0" text-anchor="end" font-family="sans-serif" font-size="12" fill="red">13.84V</text>
<text x="935" y="434.0" text-anchor="start" font-family="sans-serif" font-size="12" fill="blue">-0.05A</text>
<text x="935" y="362.0" text-anchor="start" font-family="sans-serif" font-size="12" fill="blue">0.11A</text>
<text x="935" y="290.0" text-anchor="start" font-family="sans-serif" font-size="12" fill="blue">0.27A</text>
<text x="935" y="218.0" text-anchor="start" font-family="sans-serif" font-size="12" fill="blue">0.43A</text>
<text x="935" y="146.00000000000006" text-anchor="start" font-family="sans-serif" font-size="12" fill="blue">0.59A</text>
<text x="935" y="74.0" text-anchor="start" font-family="sans-serif" font-size="12" fill="blue">0.75A</text>
<polyline points="75.5,430.0 76.0,138.0 76.6,138.0 77.1,137.9 77.7,138.1 78.2,138.1 78.8,138.0 79.3,138.1 79.9,138.2 80.4,138.2 81.0,138.2 81.5,138.2 82.1,135.2 82.6,132.1 83.2,129.9 83.7,128.1 84.3,126.2 84.8,124.8 85.4,123.6 85.9,122.3 86.5,121.6 87.0,120.9 87.6,120.4 88.1,120.0 88.7,119.4 89.2,119.0 89.8,118.5 90.3,118.0 90.9,117.7 91.4,117.2 92.0,116.7 92.5,116.4 93.1,115.9 93.6,115.7 94.2,115.3 94.7,114.8 95.3,114.6 95.8,114.3 96.4,113.9 96.9,113.7 97.5,113.3 98.0,113.0 98.5,112.9 99.1,112.6 99.6,112.2 100.2,112.0 100.7,111.7 101.3,111.5 101.8,111.2 102.4,111.0 102.9,110.7 103.5,110.6 104.0,110.4 104.6,110.2 105.1,109.8 105.7,109.7 106.2,109.5 106.8,109.3 107.3,109.0 107.9,108.8 108.4,108.7 109.0,108.5 109.5,108.2 110.1,108.1 110.6,108.0 111.2,107.7 111.7,107.5 112.3,107.4 112.8,107.2 113.4,107.0 113.9,106.9 114.5,106.6 115.0,106.5 115.6,106.4 116.1,106.2 116.7,105.9 117.2,105.9 117.8,105.7 118.3,105.5 118.9,105.4 119.4,105.2 120.0,105.1 120.5,104.9 121.1,104.7 121.6,104.6 122.2,104.5 122.7,104.4 123.3,104.1 123.8,104.0 124.6,103.9 125.1,103.7 125.7,103.5 126.2,103.5 126.8,103.3 127.3,103.2 127.9,103.0 128.4,102.8 129.0,102.8 129.5,102.6 130.1,102.5 130.6,102.2 131.2,102.2 131.7,101.9 132.3,101.9 132.8,101.7 133.4,101.6 133.9,101.4 134.5,101.4 135.0,101.0 135.6,101.1 136.1,100.9 136.7,100.7 137.2,100.5 137.8,100.4 138.3,100.3 138.8,100.2 139.4,100.0 139.9,99.9 140.5,99.7 141.0,99.7 141.6,99.5 142.1,99.4 142.7,99.3 143.2,99.2 143.8,98.9 144.3,98.9 144.9,98.7 145.4,98.5 146.0,98.3 146.5,98.3 147.1,98.2 147.6,98.0 148.2,97.8 148.7,97.8 149.3,97.6 149.8,97.4 150.4,97.2 150.9,97.2 151.5,97.0 152.0,96.9 152.6,96.8 153.1,96.6 153.7,96.4 154.2,96.3 154.8,96.3 155.3,96.0 155.9,95.9 156.4,95.7 157.0,95.7 157.5,95.6 158.1,95.3 158.6,95.3 159.2,95.2 159.7,95.1 160.3,95.0 160.8,94.7 161.4,94.6 161.9,94.5 162.5,94.4 163.0,94.2 163.6,94.0 164.1,93.9 164.7,93.8 165.2,93.7 165.8,93.6 166.3,93.5 166.8,93.2 167.4,93.2 167.9,93.0 168.5,92.9 169.0,92.8 169.6,92.7 170.1,92.5 170.7,92.4 171.2,92.2 171.8,92.1 172.3,92.0 172.9,91.9 173.4,91.7 174.0,91.5 174.5,91.3 175.1,91.2 175.6,91.2 176.2,91.1 176.7,90.8 177.3,90.8 177.8,90.7 178.4,90.6 178.9,90.4 179.7,90.2 180.2,90.2 180.8,90.0 181.3,89.9 181.9,89.7 182.4,89.6 183.0,89.5 183.5,89.3 184.1,89.2 184.6,88.9 185.2,88.8 185.7,88.8 186.3,88.6 186.8,88.5 187.4,88.4 187.9,88.3 188.5,88.1 189.0,88.0 189.6,87.8 190.1,87.6 190.7,87.5 191.2,87.4 191.8,87.2 192.3,87.1 192.9,87.1 193.4,86.9 194.0,86.7 194.5,86.6 195.1,86.4 195.6,86.4 196.2,86.2 196.7,86.0 197.3,86.0 197.8,85.8 198.4,85.8 198.9,85.5 199.5,85.4 200.0,85.4 200.6,85.2 201.1,85.1 201.7,84.8 202.2,84.7 202.8,84.7 203.3,84.5 203.9,84.5 204.4,84.2 205.0,84.1 205.5,84.0 206.0,83.8 206.6,83.7 207.1,83.6 207.7,83.4 208.2,83.2 208.8,83.2 209.3,83.0 209.9,82.9 210.4,82.8 211.0,82.6 211.5,82.5 212.1,82.5 212.6,82.3 213.2,82.0 213.7,81.9 214.3,81.9 214.8,81.7 215.4,81.5 215.9,81.4 216.5,81.2 217.0,81.1 217.6,81.1 218.1,81.0 218.7,80.9 219.2,80.6 219.8,80.5 220.3,80.3 220.9,80.3 221.4,80.2 222.0,80.1 222.5,79.8 223.1,79.7 223.6,79.6 224.2,79.5 224.7,79.4 225.3,79.2 225.8,79.2 226.4,79.0 226.9,78.9 227.5,78.6 228.0,78.6 228.6,78.5 234.6,91.2 235.1,91.7 235.7,92.2 236.2,92.8 236.8,93.2 237.3,93.6 237.9,94.1 238.4,94.5 239.0,95.0 239.5,95.3 240.1,95.8 240.6,96.2 241.2,96.4 241.7,96.8 242.3,97.0 242.8,97.3 243.4,97.6 243.9,97.9 244.5,98.2 245.0,98.5 245.6,98.6 246.1,98.9 246.7,99.1 247.2,99.1 247.8,99.4 248.3,99.6 248.9,99.8 249.4,99.9 250.0,100.1 250.5,100.2 251.1,100.4 251.6,100.5 252.2,100.6 252.7,100.7 253.3,100.9 253.8,101.0 254.4,101.1 254.9,101.2 255.5,101.3 256.0,101.3 256.6,101.5 257.1,101.5 257.7,101.6 258.2,101.7 258.8,101.8 259.3,101.8 259.9,101.9 260.4,102.1 261.0,102.1 261.5,102.1 262.1,102.2 262.6,102.3 263.1,102.3 263.7,102.2 264.2,102.4 264.8,102.4 265.3,102.4 265.9,102.6 266.4,102.5 267.0,102.5 267.5,102.6 268.1,102.7 268.6,102.8 269.2,102.8 269.7,102.8 270.3,102.8 270.8,102.8 271.4,102.9 271.9,102.8 272.5,102.9 273.0,103.0 273.6,103.0 274.1,102.9 274.7,102.9 275.2,103.1 275.8,103.1 276.3,103.0 276.9,103.2 277.4,103.1 278.0,103.1 278.5,103.2 279.1,103.3 279.6,103.2 280.2,103.3 280.7,103.3 281.3,103.3 281.8,103.3 282.4,103.4 282.9,103.4 283.5,103.3 284.0,103.3 284.6,103.4 285.1,103.3 285.7,103.5 286.2,103.4 286.8,103.4 287.3,103.5 287.9,103.5 288.4,103.5 289.0,103.6 289.5,103.6 290.1,103.6 290.6,103.6 291.1,103.5 291.7,103.6 292.2,103.7 292.8,103.6 293.3,103.6 293.9,103.6 294.4,103.7 295.0,103.5 295.5,103.7 296.1,103.6 296.6,103.7 297.2,103.6 297.7,103.6 298.3,103.7 298.8,103.7 299.4,103.7 299.9,103.6 300.5,103.8 301.0,103.7 301.6,103.7 302.1,103.8 302.7,103.8 303.2,103.8 303.8,103.8 304.3,103.8 304.9,103.8 305.4,103.9 306.0,103.9 306.5,103.9 307.1,103.8 307.6,103.8 308.2,103.8 308.7,103.8 309.3,104.0 309.8,103.8 310.4,103.9 310.9,103.9 311.5,103.9 312.0,103.9 312.6,104.0 313.1,104.0 313.7,103.9 314.2,104.0 314.8,104.0 315.3,104.0 315.9,104.0 316.4,104.0 317.0,104.0 317.5,104.1 318.1,104.0 318.6,104.0 319.1,104.1 319.7,104.0 320.2,104.2 320.8,104.0 321.3,104.1 321.9,104.2 322.4,104.0 323.0,104.2 323.5,104.2 324.1,104.1 324.6,104.3 325.2,104.3 325.7,104.1 326.3,104.2 326.8,104.2 327.4,104.1 327.9,104.2 328.5,104.2 329.0,104.2 329.6,104.3 330.1,104.3 330.7,104.2 331.2,104.3 331.8,104.4 332.3,104.3 332.9,104.3 333.4,104.4 334.0,104.3 334.5,104.3 335.1,104.3 335.6,104.3 336.2,104.4 336.7,104.3 337.3,104.3 337.8,104.4 338.4,104.4 338.9,104.4 339.5,104.5 340.0,104.4 340.6,104.5 341.1,104.5 341.7,104.4 342.2,104.4 342.8,104.5 343.3,104.5 343.9,104.6 344.4,104.5 345.0,104.5 345.5,104.5 346.1,104.5 346.6,104.6 347.2,104.6 347.7,104.6 348.2,104.6 348.8,104.5 349.3,104.6 349.9,104.6 350.4,104.7 351.0,104.6 351.5,104.7 352.1,104.7 352.6,104.7 353.2,104.6 353.7,104.6 354.3,104.6 354.8,104.6 355.4,104.7 355.9,104.8 356.5,104.8 357.0,104.7 357.6,104.7 358.1,104.7 358.7,104.7 359.2,104.7 359.8,104.8 360.3,104.7 360.9,104.8 361.4,104.8 362.0,104.8 362.5,104.8 363.1,104.9 363.6,104.8 364.2,104.8 364.7,104.9 365.3,104.9 365.8,104.9 366.4,105.0 366.9,105.0 367.5,104.9 368.0,104.8 368.6,104.9 369.1,104.8 369.7,105.0 370.2,104.9 370.8,104.9 371.3,104.9 371.9,104.9 372.4,104.9 373.0,105.0 373.5,105.0 374.1,105.0 374.6,105.0 375.2,105.0 375.7,105.1 376.2,105.1 376.8,105.1 377.3,105.0 377.9,105.1 378.4,105.0 379.0,105.1 379.5,105.1 380.1,105.1 380.6,105.1 381.2,105.1 381.7,105.2 382.3,105.2 382.8,105.2 383.4,105.1 383.9,105.1 384.5,105.1 385.0,105.1 385.6,105.2 386.1,105.2 386.7,105.2 387.2,105.3 387.8,105.2 388.3,105.2 388.9,105.2 389.4,105.3 390.0,105.3 390.5,105.2 391.1,105.4 391.6,105.2 392.2,105.3 392.7,105.4 393.3,105.3 393.8,105.4 394.4,105.4 394.9,105.4 395.5,105.5 396.0,105.3 396.6,105.5 397.1,105.4 397.7,105.4 398.2,105.5 398.8,105.5 399.3,105.5 399.9,105.5 400.6,92.4 401.2,91.8 401.7,91.1 402.3,90.4 402.8,89.9 403.4,89.2 403.9,88.7 404.5,88.2 405.0,87.7 405.6,87.2 406.1,86.5 406.7,86.1 407.2,85.6 407.8,85.2 408.3,84.8 408.9,84.4 409.4,83.9 410.0,83.7 410.5,83.3 411.1,82.8 411.6,82.6 412.2,82.2 412.7,82.0 413.3,94.5 413.8,81.9 414.4,94.6 414.9,82.0 415.4,94.5 416.0,82.0 416.5,94.5 417.1,82.1 417.6,94.5 418.2,82.0 418.7,94.5 419.3,82.0 419.8,94.6 420.4,82.1 420.9,94.6 421.5,82.1 422.0,94.5 422.6,82.1 423.1,94.5 423.7,81.9 424.2,94.4 424.8,81.9 425.3,94.3 425.9,81.8 426.4,94.2 427.0,81.7 427.5,94.2 428.1,81.7 428.6,94.2 429.2,81.7 429.7,94.0 430.3,81.6 430.8,94.0 431.4,81.5 431.9,93.9 432.5,81.4 433.0,93.9 433.6,81.2 434.1,93.7 434.7,81.2 435.2,93.7 435.8,81.2 436.3,93.5 436.9,81.0 437.4,93.4 438.0,80.9 438.5,93.4 439.1,80.7 439.6,93.3 440.2,80.6 440.7,93.1 441.3,80.5 441.8,93.0 442.4,80.4 442.9,92.8 443.4,80.3 444.0,92.8 444.5,80.2 445.1,92.7 445.6,80.2 446.2,92.6 446.7,80.1 447.3,92.5 447.8,79.9 448.4,92.3 448.9,79.8 449.5,92.1 450.0,79.7 450.6,92.1 451.1,79.6 451.7,92.0 452.2,79.4 452.8,91.9 453.3,79.4 453.9,91.8 454.4,79.1 455.0,91.6 455.5,79.1 456.1,91.5 456.6,79.1 457.2,91.3 457.7,78.8 458.3,91.3 458.8,78.8 459.4,91.1 459.9,91.4 460.5,91.7 461.0,91.9 461.6,92.2 462.1,92.5 462.7,92.7 463.2,92.9 463.8,93.1 464.3,93.3 464.9,93.6 465.4,93.7 466.0,94.0 466.5,94.2 467.1,94.4 467.6,94.3 468.2,94.5 468.7,94.7 469.3,94.7 469.8,95.0 470.4,95.0 470.9,95.2 471.5,95.2 472.0,95.3 472.5,95.6 473.1,95.6 473.6,95.8 474.2,95.8 474.7,95.9 475.3,96.0 475.8,96.0 476.4,96.1 476.9,96.3 477.5,96.2 478.0,96.4 478.6,96.3 479.1,96.5 479.7,96.5 480.2,96.5 480.8,96.7 481.3,96.6 481.9,96.7 482.4,96.8 483.0,96.8 483.5,96.8 484.1,96.9 484.6,96.9 485.2,96.9 485.7,97.0 486.3,97.0 486.8,97.1 487.4,97.1 487.9,97.0 488.5,97.1 489.0,97.3 489.6,97.2 490.1,97.2 490.7,97.2 491.2,97.3 491.8,97.2 492.3,97.3 492.9,97.3 493.4,97.4 494.0,97.5 494.5,97.4 495.1,97.4 495.6,97.6 496.2,97.5 496.7,97.5 497.3,97.5 497.8,97.6 498.4,97.6 498.9,97.6 499.5,97.6 500.0,97.7 500.5,97.7 501.3,84.8 501.9,84.0 502.4,83.4 503.0,82.8 503.5,82.1 504.1,81.5 504.6,81.0 505.2,80.5 505.7,79.9 506.3,79.4 506.8,79.1 507.4,78.5 507.9,78.1 508.5,77.6 509.0,77.2 509.6,76.8 510.1,76.5 510.7,76.1 511.2,75.6 511.7,75.3 512.3,74.9 512.8,74.6 513.4,74.4 513.9,86.8 514.5,74.4 515.0,87.0 515.6,74.5 516.1,86.9 516.7,74.4 517.2,86.9 517.8,74.6 518.3,86.9 518.9,74.5 519.4,86.9 520.0,74.6 520.5,86.9 521.1,74.5 521.6,87.0 522.2,74.5 522.7,86.9 523.3,74.4 523.8,86.9 524.4,74.5 524.9,86.8 525.5,74.4 526.0,86.8 526.6,74.4 527.1,86.8 527.7,74.2 528.2,86.6 528.8,74.1 529.3,86.6 529.9,74.1 530.4,86.4 531.0,74.0 531.5,86.3 532.1,73.9 532.6,86.3 533.2,73.9 533.7,86.3 534.3,73.7 534.8,86.2 535.4,73.6 535.9,86.1 536.5,73.6 537.0,85.9 537.6,73.6 538.1,85.9 538.7,73.3 539.2,85.7 539.7,73.3 540.3,85.6 540.8,73.1 541.4,85.6 541.9,73.1 542.5,85.4 543.0,73.0 543.6,85.3 544.1,72.8 544.7,85.3 545.2,72.8 545.8,85.2 546.3,72.5 546.9,85.0 547.4,72.5 548.0,84.8 548.5,72.4 549.1,84.8 549.6,72.2 550.2,84.7 550.7,72.1 551.3,84.6 551.8,72.1 552.4,84.3 552.9,72.0 553.5,84.2 554.0,71.8 554.6,84.2 555.1,71.8 555.7,84.1 556.2,71.5 556.8,84.0 557.3,71.4 557.9,83.9 558.4,71.4 559.0,83.6 559.5,71.2 560.1,83.6 560.6,71.1 561.2,83.4 561.7,71.0 562.3,83.2 562.8,70.9 563.4,83.3 563.9,70.7 564.5,83.0 565.0,70.7 565.6,82.9 566.1,70.5 566.7,82.8 567.2,70.4 567.8,82.8 568.3,70.2 568.8,82.5 569.4,70.1 569.9,82.4 570.5,70.0 571.0,82.4 571.6,82.6 572.1,82.8 572.7,83.3 573.2,83.5 573.8,83.8 574.3,83.9 574.9,84.2 575.4,84.4 576.0,84.6 576.5,84.7 577.1,85.0 577.6,85.1 578.2,85.3 578.7,85.5 579.3,85.6 579.8,85.8 580.4,85.9 580.9,86.0 581.5,86.1 582.0,86.3 582.6,86.3 583.1,86.4 583.7,86.6 584.2,86.6 584.8,86.9 585.3,86.8 585.9,86.9 586.4,87.0 587.0,87.1 587.5,87.2 588.1,87.3 588.6,87.2 589.2,87.3 589.7,87.5 590.3,87.5 590.8,87.5 591.4,87.6 591.9,87.7 592.5,87.7 593.0,87.8 593.6,87.9 594.1,87.8 594.7,88.0 595.2,87.9 595.8,88.0 596.3,88.0 596.8,88.1 597.4,88.1 597.9,88.1 598.5,88.1 599.0,88.2 599.6,88.2 600.1,88.2 600.7,88.3 601.2,88.4 601.8,88.4 602.3,88.3 602.9,88.5 603.4,88.5 604.0,88.4 604.5,88.4 605.1,88.5 605.6,88.6 606.2,88.7 606.7,88.7 607.3,88.6 607.8,88.7 608.4,88.6 608.9,88.6 609.5,88.8 610.0,88.7 610.6,88.8 611.1,88.7 611.7,88.7 612.2,88.7 612.8,88.8 613.3,88.8 613.9,88.9 614.4,88.9 615.0,88.9 615.5,88.8 616.1,88.8 616.6,89.0 617.2,88.8 617.7,89.0 618.3,89.0 618.8,89.0 619.4,89.0 619.9,88.9 620.5,88.9 621.0,89.0 621.6,89.1 622.1,89.0 622.7,89.1 623.2,89.1 623.8,89.1 624.3,89.1 624.8,89.1 625.4,89.1 625.9,89.2 626.5,89.1 627.0,89.1 627.6,89.1 628.1,89.2 628.7,89.1 629.2,89.2 629.8,89.2 630.3,89.1 630.9,89.2 631.4,89.2 632.0,89.2 632.5,89.2 633.1,89.2 633.6,89.3 634.2,89.3 634.7,89.2 635.3,89.2 635.8,89.4 636.4,89.3 636.9,89.3 637.5,89.3 638.0,89.4 638.6,89.4 639.1,89.3 639.7,89.3 640.2,89.4 640.8,89.5 641.3,89.5 641.9,89.4 642.4,89.4 643.0,89.4 643.5,89.4 644.1,89.4 644.6,89.4 645.2,89.4 645.7,89.5 646.3,89.5 646.8,89.5 647.4,89.6 647.9,89.5 648.5,89.5 649.0,89.5 649.6,89.6 650.1,89.6 650.7,89.6 651.2,89.5 651.8,89.6 652.3,89.7 652.8,89.7 653.4,89.5 653.9,89.7 654.5,89.6 655.0,89.5 655.6,89.6 656.1,89.6 656.7,89.7 657.2,89.8 657.8,89.7 658.3,89.8 658.9,89.7 659.4,89.7 660.0,89.7 660.5,89.7 661.1,89.7 661.6,89.8 662.2,89.8 662.7,89.7 663.3,89.8 663.8,89.9 664.4,89.8 664.9,89.8 665.5,89.8 666.0,89.8 666.6,89.9 667.1,89.8 667.7,89.9 668.2,89.9 668.8,89.9 669.3,89.9 669.9,89.9 670.4,89.9 671.0,89.9 671.5,90.0 672.1,89.9 672.6,89.9 673.2,90.0 673.7,90.0 674.3,90.0 674.8,90.0 675.4,90.0 675.9,90.1 676.5,90.0 677.0,89.9 677.6,90.0 678.1,90.1 678.7,90.0 679.2,90.1 679.8,90.1 680.3,90.1 680.9,90.0 681.4,90.1 681.9,90.1 682.5,90.1 683.0,90.1 683.6,90.2 684.1,90.1 684.7,90.2 685.2,90.2 685.8,90.2 686.3,90.2 686.9,90.2 687.4,90.2 688.0,90.2 688.5,90.2 689.1,90.2 689.6,90.3 690.2,90.3 690.7,90.2 691.3,90.3 691.8,90.3 692.4,90.3 692.9,90.4 693.5,90.3 694.0,90.3 694.6,90.3 695.1,90.2 695.7,90.3 696.2,90.3 696.8,90.4 697.3,90.4 697.9,90.4 698.6,77.6 699.2,89.6 699.7,89.7 700.3,89.8 700.8,89.9 701.4,89.8 701.9,89.9 702.5,90.0 703.0,90.0 703.6,89.9 704.1,89.9 704.7,90.0 705.2,90.0 705.8,90.0 706.3,90.1 706.9,90.1 707.4,90.1 708.0,90.2 708.5,90.2 709.1,90.2 709.6,90.1 710.2,90.3 710.7,90.2 711.3,90.3 711.8,90.3 712.4,90.2 712.9,89.8 713.5,89.7 714.0,89.7 714.6,89.6 715.1,89.4 715.7,90.2 716.2,88.4 716.8,90.2 717.3,90.2 717.9,88.8 718.4,90.1 719.0,89.9 719.5,88.5 720.1,90.1 720.6,90.2 721.1,88.7 721.7,90.1 722.2,90.2 722.8,90.1 723.3,90.3 723.9,90.2 724.4,90.3 725.0,90.3 725.5,90.3 726.1,90.3 726.6,90.4 727.2,90.4 727.7,90.4 728.3,90.5 728.8,90.4 729.4,90.4 729.9,90.4 730.5,90.6 731.0,90.5 731.6,90.4 732.1,90.6 732.7,90.4 733.2,90.6 733.8,90.5 734.3,90.6 734.9,90.7 735.4,90.6 736.0,90.7 736.5,90.6 737.1,90.6 737.6,90.7 738.2,90.6 738.7,90.7 739.3,90.7 739.8,90.8 740.4,90.7 740.9,90.8 741.5,90.7 742.0,90.7 742.6,90.7 743.1,90.9 743.7,90.9 744.2,90.9 744.8,90.9 745.3,90.8 745.9,90.9 746.4,90.9 747.0,90.9 747.5,91.0 748.1,90.9 748.6,91.0 749.1,90.9 749.7,91.1 750.2,91.0 750.8,90.9 751.3,90.9 751.9,90.9 752.4,91.0 753.0,91.0 753.5,91.1 754.1,91.0 754.6,91.1 755.2,91.1 755.7,91.0 756.3,91.0 756.8,91.1 757.4,91.1 757.9,91.1 758.5,91.2 759.0,91.2 759.6,91.1 760.1,91.1 760.7,91.2 761.2,91.1 761.8,91.2 762.3,91.2 762.9,91.1 763.4,91.2 764.0,91.2 764.5,91.2 765.1,91.2 765.6,91.2 766.2,91.2 766.7,91.3 767.3,91.2 767.8,91.3 768.4,91.3 768.9,91.3 769.5,91.4 770.0,91.4 770.6,91.4 771.1,91.3 771.7,91.2 772.2,91.4 772.8,91.4 773.3,91.5 773.9,91.5 774.4,91.5 775.0,91.3 775.5,91.5 776.1,91.3 776.6,91.5 777.2,91.4 777.7,91.5 778.2,91.5 778.8,91.4 779.3,91.4 779.9,91.6 780.4,91.5 781.0,91.4 781.5,91.4 782.1,91.5 782.6,91.6 783.2,91.5 783.7,91.6 784.3,91.5 784.8,91.7 785.4,91.6 785.9,91.7 786.5,91.6 787.0,91.5 787.6,91.7 788.1,91.5 788.7,91.6 789.2,91.7 789.8,91.6 790.3,91.7 790.9,91.7 791.4,91.7 792.0,91.8 792.5,91.6 793.1,91.7 793.6,91.6 794.2,91.8 794.7,91.8 795.3,91.7 795.8,91.7 796.4,91.8 796.9,91.7 797.5,91.9 798.0,91.9 798.6,91.9 799.1,91.9 799.7,91.9 800.2,91.9 800.8,91.9 801.3,91.9 801.9,91.8 802.4,91.8 803.0,91.9 803.5,91.9 804.1,91.9 804.6,91.9 805.2,91.9 805.7,91.9 806.2,91.9 806.8,91.9 807.3,91.9 807.9,91.9 808.4,92.1 809.0,91.9 809.5,92.0 810.1,92.0 810.6,92.0 811.2,92.1 811.7,92.1 812.3,92.1 812.8,92.1 813.4,92.1 813.9,92.0 814.7,79.2 815.3,91.3 815.8,91.4 816.4,91.4 816.9,91.6 817.4,91.4 818.0,91.6 818.5,91.6 819.1,91.6 819.6,91.6 820.2,91.7 820.7,91.6 821.3,91.8 821.8,91.8 822.4,91.7 822.9,91.8 823.5,91.8 824.0,91.8 824.6,91.9 825.1,91.8 825.7,91.9 826.2,91.9 826.8,92.0 827.3,91.9 827.9,92.0 828.4,92.0 829.0,91.9 829.5,92.0 830.1,92.0 830.6,92.0 831.2,92.0 831.7,92.1 832.3,92.0 832.8,92.0 833.4,92.2 833.9,92.2 834.5,92.2 835.0,92.2 835.6,92.3 836.1,92.3 836.7,92.2 837.2,92.1 837.8,92.2 838.3,92.2 838.9,92.3 839.4,92.2 840.0,92.2 840.5,92.2 841.1,92.4 841.6,92.3 842.2,92.3 842.7,92.4 843.3,92.4 843.8,92.5 844.4,92.5 844.9,92.4 845.4,92.5 846.0,92.3 846.5,92.4 847.1,92.5 847.6,92.4 848.2,92.5 848.7,92.5 849.3,92.4 849.8,92.5 850.4,92.4 850.9,92.6 851.5,92.5 852.0,92.6 852.6,92.5 853.1,92.6 853.7,92.7 854.2,92.6 854.8,92.5 855.3,92.6 855.9,92.7 856.4,92.6 857.0,92.6 857.5,92.7 858.1,92.7 858.6,92.6 859.2,92.6 859.7,92.6 860.3,92.6 860.8,92.7 861.4,92.7 861.9,92.8 862.5,92.8 863.0,92.7 863.6,92.8 864.1,92.7 864.7,92.8 865.2,92.7 865.8,92.8 866.3,92.9 866.9,92.7 867.4,92.9 868.0,92.9 868.5,92.8 869.1,92.9 869.6,92.9 870.2,92.8 870.7,92.8 871.3,93.0 871.8,92.8 872.4,92.8 872.9,92.9 873.4,93.0 874.0,92.9 874.5,92.9 875.1,92.9 875.6,92.9 876.2,92.9 876.7,92.9 877.3,93.0 877.8,93.1 878.4,93.0 878.9,93.1 879.5,93.0 880.0,93.0 880.6,93.1 881.1,93.1 881.7,93.0 882.2,93.0 882.8,93.0 883.3,93.1 883.9,93.1 884.4,93.1 885.0,93.1 885.5,93.2 886.1,93.1 886.6,93.2 887.2,93.1 887.7,93.2 888.3,93.2 888.8,93.1 889.4,93.2 889.9,93.1 890.5,93.1 891.0,93.3 891.6,93.3 892.1,93.2 892.7,93.3 893.2,93.2 893.8,93.2 894.3,93.4 894.9,93.3 895.4,93.3 896.0,93.2 896.5,93.4 897.1,93.3 897.6,93.3 898.2,93.3 898.7,93.4 899.3,93.3 899.8,93.3 900.4,93.4 900.9,93.4 901.5,93.4 902.0,93.4 902.5,93.4 903.1,93.4 903.6,93.5 904.2,93.4 904.7,93.4 905.3,93.5 905.8,93.5 906.4,93.6 906.9,93.6 907.5,93.5 908.0,93.6 908.6,93.6 909.1,93.5 909.7,93.5 910.2,93.6 910.8,93.6 911.3,93.5 911.9,93.6 912.4,93.6 913.0,93.6 913.5,93.6 914.1,93.5 914.6,93.6 915.2,93.6 915.7,93.7 916.3,93.7 916.8,93.7 917.4,93.6 917.9,93.6 918.5,93.7 919.0,93.7 919.6,93.6 920.1,93.8 920.7,93.7 921.2,93.8 921.8,93.7 922.3,93.7 922.9,93.7 923.4,93.9 924.0,93.8 924.5,93.9 925.1,93.8 925.6,93.8 926.2,93.8 926.7,93.8 927.3,93.8 927.8,93.9 928.4,93.9 928.9,93.8 929.5,93.9 930.0,93.8 70.0,93.9 70.5,138.0 70.0,138.2 70.5,138.0 70.0,137.9 70.5,137.9" fill="none" stroke="red" stroke-width="2.5" opacity="0.8"/>
<polyline points="75.5,407.1 76.0,429.8 76.6,429.6 77.1,429.1 77.7,429.2 78.2,429.8 78.8,430.0 79.3,430.0 79.9,429.5 80.4,429.2 81.0,429.6 81.5,429.2 82.1,346.3 82.6,266.6 83.2,214.2 83.7,172.7 84.3,138.0 84.8,113.2 85.4,92.9 85.9,76.2 86.5,70.2 87.0,70.0 87.6,70.0 88.1,70.6 88.7,70.8 89.2,71.1 89.8,70.7 90.3,70.9 90.9,71.4 91.4,71.2 92.0,71.3 92.5,71.4 93.1,71.8 93.6,72.0 94.2,71.9 94.7,72.0 95.3,72.1 95.8,72.0 96.4,72.1 96.9,72.0 97.5,72.0 98.0,72.5 98.5,72.4 99.1,72.2 99.6,72.8 100.2,72.8 100.7,72.5 101.3,72.8 101.8,73.1 102.4,73.3 102.9,73.3 103.5,73.2 104.0,73.0 104.6,73.2 105.1,72.9 105.7,73.5 106.2,73.7 106.8,73.5 107.3,73.3 107.9,74.1 108.4,74.0 109.0,74.1 109.5,73.6 110.1,73.4 110.6,74.1 111.2,73.8 111.7,74.5 112.3,73.7 112.8,74.4 113.4,74.0 113.9,74.0 114.5,74.7 115.0,74.7 115.6,74.5 116.1,74.7 116.7,74.0 117.2,74.5 117.8,74.3 118.3,74.9 118.9,75.0 119.4,74.6 120.0,74.5 120.5,74.9 121.1,74.8 121.6,75.3 122.2,74.9 122.7,75.4 123.3,74.8 123.8,75.5 124.6,75.4 125.1,75.5 125.7,75.5 126.2,75.5 126.8,75.1 127.3,75.3 127.9,75.4 128.4,75.5 129.0,75.7 129.5,75.1 130.1,75.8 130.6,75.4 131.2,75.2 131.7,75.4 132.3,75.4 132.8,75.8 133.4,76.1 133.9,76.1 134.5,75.9 135.0,76.0 135.6,76.2 136.1,75.6 136.7,76.4 137.2,76.0 137.8,76.0 138.3,76.1 138.8,76.2 139.4,76.5 139.9,76.0 140.5,76.2 141.0,76.3 141.6,76.0 142.1,76.7 142.7,76.4 143.2,76.6 143.8,77.0 144.3,76.5 144.9,77.0 145.4,76.8 146.0,76.8 146.5,76.6 147.1,76.7 147.6,77.2 148.2,76.6 148.7,76.9 149.3,77.3 149.8,77.1 150.4,76.9 150.9,76.8 151.5,77.1 152.0,77.1 152.6,77.2 153.1,77.0 153.7,77.3 154.2,77.3 154.8,77.6 155.3,76.9 155.9,77.4 156.4,77.8 157.0,77.5 157.5,77.9 158.1,77.9 158.6,77.2 159.2,77.6 159.7,77.5 160.3,77.9 160.8,77.7 161.4,77.6 161.9,77.4 162.5,77.6 163.0,78.3 163.6,77.8 164.1,78.0 164.7,78.0 165.2,78.0 165.8,78.5 166.3,78.4 166.8,77.8 167.4,78.1 167.9,78.1 168.5,78.4 169.0,78.0 169.6,78.2 170.1,78.7 170.7,78.2 171.2,78.0 171.8,78.5 172.3,78.9 172.9,78.4 173.4,78.7 174.0,79.0 174.5,78.6 175.1,78.8 175.6,78.8 176.2,79.2 176.7,78.9 177.3,78.8 177.8,79.2 178.4,79.1 178.9,78.6 179.7,79.1 180.2,78.7 180.8,78.8 181.3,79.1 181.9,79.3 182.4,79.1 183.0,79.4 183.5,78.9 184.1,79.4 184.6,79.5 185.2,79.4 185.7,79.5 186.3,79.5 186.8,79.6 187.4,79.6 187.9,79.3 188.5,79.4 189.0,80.1 189.6,79.6 190.1,80.1 190.7,79.5 191.2,79.6 191.8,79.9 192.3,80.3 192.9,79.7 193.4,79.8 194.0,80.4 194.5,80.3 195.1,80.4 195.6,79.9 196.2,79.9 196.7,80.3 197.3,79.9 197.8,80.3 198.4,80.5 198.9,80.5 199.5,80.1 200.0,80.2 200.6,80.9 201.1,80.8 201.7,80.3 202.2,80.7 202.8,80.5 203.3,80.8 203.9,81.0 204.4,80.8 205.0,81.1 205.5,80.8 206.0,80.7 206.6,80.8 207.1,80.6 207.7,81.0 208.2,80.7 208.8,81.0 209.3,81.3 209.9,81.0 210.4,81.2 211.0,81.1 211.5,80.9 212.1,81.6 212.6,81.7 213.2,81.1 213.7,81.6 214.3,81.5 214.8,81.5 215.4,81.1 215.9,81.6 216.5,81.4 217.0,81.6 217.6,81.7 218.1,81.3 218.7,81.4 219.2,81.7 219.8,81.9 220.3,81.7 220.9,81.6 221.4,82.1 222.0,81.5 222.5,82.0 223.1,82.3 223.6,82.0 224.2,81.8 224.7,82.1 225.3,81.7 225.8,82.3 226.4,82.5 226.9,82.2 227.5,82.6 228.0,82.4 228.6,82.7 234.6,430.0 235.1,429.2 235.7,429.2 236.2,429.1 236.8,429.8 237.3,429.2 237.9,429.1 238.4,429.6 239.0,429.3 239.5,429.5 240.1,429.4 240.6,429.5 241.2,429.8 241.7,429.5 242.3,430.0 242.8,429.7 243.4,429.7 243.9,429.2 244.5,429.3 245.0,429.8 245.6,429.3 246.1,429.7 246.7,429.2 247.2,429.2 247.8,429.9 248.3,429.1 248.9,429.6 249.4,429.4 250.0,429.5 250.5,429.9 251.1,429.1 251.6,429.6 252.2,429.5 252.7,429.3 253.3,429.8 253.8,429.6 254.4,429.7 254.9,429.8 255.5,429.4 256.0,429.4 256.6,429.8 257.1,429.9 257.7,429.8 258.2,430.0 258.8,429.3 259.3,429.9 259.9,429.8 260.4,429.6 261.0,429.4 261.5,429.6 262.1,429.6 262.6,429.3 263.1,429.7 263.7,429.4 264.2,429.1 264.8,429.6 265.3,429.6 265.9,429.4 266.4,430.0 267.0,429.8 267.5,429.4 268.1,429.7 268.6,429.1 269.2,429.3 269.7,429.9 270.3,429.1 270.8,429.5 271.4,430.0 271.9,429.9 272.5,429.8 273.0,429.1 273.6,429.9 274.1,429.6 274.7,429.2 275.2,429.7 275.8,429.7 276.3,429.7 276.9,429.3 277.4,429.7 278.0,429.5 278.5,429.3 279.1,429.4 279.6,429.7 280.2,429.7 280.7,429.3 281.3,429.6 281.8,429.6 282.4,430.0 282.9,429.2 283.5,429.4 284.0,429.8 284.6,429.5 285.1,429.3 285.7,429.3 286.2,429.5 286.8,429.3 287.3,429.7 287.9,429.1 288.4,429.6 289.0,429.8 289.5,429.9 290.1,429.2 290.6,429.8 291.1,429.2 291.7,429.5 292.2,429.8 292.8,429.5 293.3,429.9 293.9,429.5 294.4,429.8 295.0,429.4 295.5,429.8 296.1,429.5 296.6,429.6 297.2,429.3 297.7,429.7 298.3,429.5 298.8,429.1 299.4,429.3 299.9,429.2 300.5,429.6 301.0,429.7 301.6,429.3 302.1,430.0 302.7,429.6 303.2,429.5 303.8,429.8 304.3,429.7 304.9,429.3 305.4,429.3 306.0,429.5 306.5,429.9 307.1,429.7 307.6,429.8 308.2,429.2 308.7,429.9 309.3,429.1 309.8,430.0 310.4,429.8 310.9,429.8 311.5,429.6 312.0,429.7 312.6,429.4 313.1,429.8 313.7,429.4 314.2,429.7 314.8,429.7 315.3,429.2 315.9,430.0 316.4,429.9 317.0,429.1 317.5,429.6 318.1,429.6 318.6,429.1 319.1,429.9 319.7,429.4 320.2,429.2 320.8,429.6 321.3,429.1 321.9,430.0 322.4,429.2 323.0,429.3 323.5,429.7 324.1,429.8 324.6,429.7 325.2,429.9 325.7,429.2 326.3,429.7 326.8,429.8 327.4,429.7 327.9,429.7 328.5,429.5 329.0,429.7 329.6,429.6 330.1,429.3 330.7,429.6 331.2,429.5 331.8,429.4 332.3,429.8 332.9,429.9 333.4,429.5 334.0,429.2 334.5,429.6 335.1,429.5 335.6,430.0 336.2,429.2 336.7,429.8 337.3,429.4 337.8,429.5 338.4,429.3 338.9,429.1 339.5,429.3 340.0,429.8 340.6,429.7 341.1,429.8 341.7,429.4 342.2,429.7 342.8,429.9 343.3,429.6 343.9,429.1 344.4,429.1 345.0,429.7 345.5,429.3 346.1,429.9 346.6,429.4 347.2,429.3 347.7,429.8 348.2,429.8 348.8,429.2 349.3,429.2 349.9,429.7 350.4,429.8 351.0,429.2 351.5,429.2 352.1,429.6 352.6,429.1 353.2,429.2 353.7,429.5 354.3,429.9 354.8,429.7 355.4,429.2 355.9,429.3 356.5,429.1 357.0,429.9 357.6,429.6 358.1,429.6 358.7,429.5 359.2,429.4 359.8,429.5 360.3,429.2 360.9,429.4 361.4,429.8 362.0,429.1 362.5,429.7 363.1,429.4 363.6,429.9 364.2,429.3 364.7,429.9 365.3,429.4 365.8,429.3 366.4,429.2 366.9,429.5 367.5,429.2 368.0,429.6 368.6,429.4 369.1,429.2 369.7,429.8 370.2,429.3 370.8,429.6 371.3,429.8 371.9,429.9 372.4,429.3 373.0,429.8 373.5,429.7 374.1,429.4 374.6,429.3 375.2,429.2 375.7,429.2 376.2,429.2 376.8,429.6 377.3,429.8 377.9,429.7 378.4,429.9 379.0,429.2 379.5,429.8 380.1,429.7 380.6,429.9 381.2,429.8 381.7,429.5 382.3,429.5 382.8,429.8 383.4,429.4 383.9,429.8 384.5,429.7 385.0,429.7 385.6,429.6 386.1,429.7 386.7,429.2 387.2,429.9 387.8,429.3 388.3,429.5 388.9,429.9 389.4,430.0 390.0,429.1 390.5,429.2 391.1,429.7 391.6,429.2 392.2,430.0 392.7,429.9 393.3,429.1 393.8,429.6 394.4,429.2 394.9,429.8 395.5,429.5 396.0,429.6 396.6,429.7 397.1,429.9 397.7,429.8 398.2,430.0 398.8,429.6 399.3,429.4 399.9,429.3 400.6,78.4 401.2,78.1 401.7,78.6 402.3,78.4 402.8,79.4 403.4,79.4 403.9,79.8 404.5,79.7 405.0,79.4 405.6,79.6 406.1,79.9 406.7,80.1 407.2,79.9 407.8,80.2 408.3,80.7 408.9,80.4 409.4,80.4 410.0,81.2 410.5,81.2 411.1,81.2 411.6,80.9 412.2,81.7 412.7,80.9 413.3,429.1 413.8,81.2 414.4,429.2 414.9,81.2 415.4,429.9 416.0,81.2 416.5,429.3 417.1,81.3 417.6,429.5 418.2,81.2 418.7,429.4 419.3,81.6 419.8,429.5 420.4,81.5 420.9,429.8 421.5,81.0 422.0,429.9 422.6,81.0 423.1,429.5 423.7,81.7 424.2,429.2 424.8,81.2 425.3,429.2 425.9,81.8 426.4,429.4 427.0,81.3 427.5,429.5 428.1,81.8 428.6,429.9 429.2,81.7 429.7,429.3 430.3,81.8 430.8,429.7 431.4,81.2 431.9,429.6 432.5,81.1 433.0,429.9 433.6,81.1 434.1,429.8 434.7,81.5 435.2,429.2 435.8,81.9 436.3,429.7 436.9,81.9 437.4,429.2 438.0,81.3 438.5,429.6 439.1,81.6 439.6,429.2 440.2,81.6 440.7,429.2 441.3,82.0 441.8,429.2 442.4,82.0 442.9,429.7 443.4,81.5 444.0,429.8 444.5,81.7 445.1,429.4 445.6,81.9 446.2,429.2 446.7,82.2 447.3,429.9 447.8,82.3 448.4,429.6 448.9,81.6 449.5,429.2 450.0,81.9 450.6,430.0 451.1,82.4 451.7,429.5 452.2,81.9 452.8,429.9 453.3,82.3 453.9,429.8 454.4,82.3 455.0,429.9 455.5,82.0 456.1,429.5 456.6,82.5 457.2,429.2 457.7,82.5 458.3,429.7 458.8,82.3 459.4,430.0 459.9,429.5 460.5,429.7 461.0,429.6 461.6,429.4 462.1,429.6 462.7,429.9 463.2,429.5 463.8,429.6 464.3,429.2 464.9,429.4 465.4,430.0 466.0,429.7 466.5,430.0 467.1,429.7 467.6,429.9 468.2,430.0 468.7,429.4 469.3,429.5 469.8,429.8 470.4,429.5 470.9,429.7 471.5,429.4 472.0,429.5 472.5,429.6 473.1,429.2 473.6,429.6 474.2,429.6 474.7,429.6 475.3,429.2 475.8,429.1 476.4,429.6 476.9,429.9 477.5,430.0 478.0,429.1 478.6,429.5 479.1,429.3 479.7,429.9 480.2,429.4 480.8,429.6 481.3,429.4 481.9,429.7 482.4,429.4 483.0,429.4 483.5,429.2 484.1,430.0 484.6,429.6 485.2,429.5 485.7,429.3 486.3,429.5 486.8,429.7 487.4,429.3 487.9,429.5 488.5,429.1 489.0,429.7 489.6,429.6 490.1,429.5 490.7,429.5 491.2,429.3 491.8,429.7 492.3,429.8 492.9,429.9 493.4,429.4 494.0,429.4 494.5,429.4 495.1,429.1 495.6,429.2 496.2,429.3 496.7,429.2 497.3,429.3 497.8,429.3 498.4,429.1 498.9,429.4 499.5,429.2 500.0,429.6 500.5,429.2 501.3,80.2 501.9,80.8 502.4,80.6 503.0,81.1 503.5,81.3 504.1,81.4 504.6,81.4 505.2,81.5 505.7,81.6 506.3,82.3 506.8,81.9 507.4,82.2 507.9,82.3 508.5,82.3 509.0,82.9 509.6,82.6 510.1,83.2 510.7,82.6 511.2,82.8 511.7,83.4 512.3,83.7 512.8,83.0 513.4,83.7 513.9,429.5 514.5,83.8 515.0,429.2 515.6,83.7 516.1,429.7 516.7,83.9 517.2,429.9 517.8,83.3 518.3,429.9 518.9,83.8 519.4,429.9 520.0,83.7 520.5,429.7 521.1,83.6 521.6,429.2 522.2,83.7 522.7,429.2 523.3,83.1 523.8,429.2 524.4,83.1 524.9,429.3 525.5,83.9 526.0,429.9 526.6,83.9 527.1,429.9 527.7,83.5 528.2,429.8 528.8,83.6 529.3,429.4 529.9,83.7 530.4,429.7 531.0,83.7 531.5,429.4 532.1,83.7 532.6,429.9 533.2,83.4 533.7,429.3 534.3,83.3 534.8,429.4 535.4,83.6 535.9,429.6 536.5,84.0 537.0,429.4 537.6,83.6 538.1,429.7 538.7,83.7 539.2,429.5 539.7,83.6 540.3,429.5 540.8,83.6 541.4,429.7 541.9,84.3 542.5,429.5 543.0,84.1 543.6,430.0 544.1,84.1 544.7,429.9 545.2,84.0 545.8,429.5 546.3,83.8 546.9,429.4 547.4,83.6 548.0,429.6 548.5,84.2 549.1,429.4 549.6,83.9 550.2,429.2 550.7,83.7 551.3,429.8 551.8,83.8 552.4,429.3 552.9,84.6 553.5,429.6 554.0,84.1 554.6,429.9 555.1,84.0 555.7,429.6 556.2,84.7 556.8,429.1 557.3,84.1 557.9,429.9 558.4,84.5 559.0,429.8 559.5,84.4 560.1,429.1 560.6,84.6 561.2,429.3 561.7,84.6 562.3,429.4 562.8,84.4 563.4,429.2 563.9,85.0 564.5,429.4 565.0,84.4 565.6,429.6 566.1,84.6 566.7,429.8 567.2,84.3 567.8,429.6 568.3,85.0 568.8,429.7 569.4,84.7 569.9,429.5 570.5,84.3 571.0,429.3 571.6,429.5 572.1,429.7 572.7,429.1 573.2,429.3 573.8,429.3 574.3,429.3 574.9,429.8 575.4,429.4 576.0,429.8 576.5,429.7 577.1,429.3 577.6,429.1 578.2,429.3 578.7,429.9 579.3,430.0 579.8,429.2 580.4,429.8 580.9,429.8 581.5,429.9 582.0,429.4 582.6,429.8 583.1,429.9 583.7,429.4 584.2,429.5 584.8,429.9 585.3,429.6 585.9,429.4 586.4,429.5 587.0,429.3 587.5,429.2 588.1,429.6 588.6,429.4 589.2,429.7 589.7,429.4 590.3,429.7 590.8,429.9 591.4,429.2 591.9,429.8 592.5,429.7 593.0,429.2 593.6,429.8 594.1,429.2 594.7,429.9 595.2,429.8 595.8,429.4 596.3,429.8 596.8,429.6 597.4,429.8 597.9,429.6 598.5,429.3 599.0,429.5 599.6,429.7 600.1,429.9 600.7,429.5 601.2,430.0 601.8,429.4 602.3,429.8 602.9,430.0 603.4,429.8 604.0,429.8 604.5,429.5 605.1,429.7 605.6,429.3 606.2,429.6 606.7,429.8 607.3,429.3 607.8,429.2 608.4,429.2 608.9,429.1 609.5,429.6 610.0,429.2 610.6,429.8 611.1,429.1 611.7,429.9 612.2,429.5 612.8,429.4 613.3,429.8 613.9,429.8 614.4,429.7 615.0,429.7 615.5,429.4 616.1,429.3 616.6,429.7 617.2,429.9 617.7,429.4 618.3,429.2 618.8,429.4 619.4,429.9 619.9,429.5 620.5,429.9 621.0,429.8 621.6,429.2 622.1,429.6 622.7,429.9 623.2,429.8 623.8,429.5 624.3,429.7 624.8,429.4 625.4,429.8 625.9,429.6 626.5,429.5 627.0,429.8 627.6,429.7 628.1,429.8 628.7,429.4 629.2,430.0 629.8,429.5 630.3,429.9 630.9,429.4 631.4,429.4 632.0,429.6 632.5,429.4 633.1,429.5 633.6,429.9 634.2,430.0 634.7,429.9 635.3,429.3 635.8,429.9 636.4,429.5 636.9,429.4 637.5,429.4 638.0,429.5 638.6,429.5 639.1,429.9 639.7,429.7 640.2,429.7 640.8,429.6 641.3,429.5 641.9,429.4 642.4,429.4 643.0,429.6 643.5,429.4 644.1,429.8 644.6,429.2 645.2,429.5 645.7,429.6 646.3,429.2 646.8,429.9 647.4,429.8 647.9,429.6 648.5,429.7 649.0,429.1 649.6,429.3 650.1,429.5 650.7,429.5 651.2,429.4 651.8,429.9 652.3,429.5 652.8,429.3 653.4,429.2 653.9,429.5 654.5,429.5 655.0,429.1 655.6,429.4 656.1,429.3 656.7,429.4 657.2,429.2 657.8,430.0 658.3,429.7 658.9,430.0 659.4,429.7 660.0,429.8 660.5,429.7 661.1,429.5 661.6,429.1 662.2,429.9 662.7,429.8 663.3,429.9 663.8,429.4 664.4,429.7 664.9,429.9 665.5,429.9 666.0,429.7 666.6,429.1 667.1,429.8 667.7,429.4 668.2,429.7 668.8,429.8 669.3,429.8 669.9,429.3 670.4,429.4 671.0,429.1 671.5,429.5 672.1,429.4 672.6,429.4 673.2,429.2 673.7,429.4 674.3,429.4 674.8,429.2 675.4,429.7 675.9,429.8 676.5,429.7 677.0,429.3 677.6,429.8 678.1,429.3 678.7,429.5 679.2,429.5 679.8,429.3 680.3,429.2 680.9,429.3 681.4,429.2 681.9,429.8 682.5,429.5 683.0,429.4 683.6,429.1 684.1,429.5 684.7,429.5 685.2,429.3 685.8,430.0 686.3,429.8 686.9,429.7 687.4,429.4 688.0,429.7 688.5,429.4 689.1,429.9 689.6,429.6 690.2,429.9 690.7,429.9 691.3,429.5 691.8,429.4 692.4,429.8 692.9,429.8 693.5,430.0 694.0,429.4 694.6,429.8 695.1,429.3 695.7,429.4 696.2,429.9 696.8,429.1 697.3,429.7 697.9,429.7 698.6,82.1 699.2,429.9 699.7,429.7 700.3,429.7 700.8,429.9 701.4,429.7 701.9,429.8 702.5,429.3 703.0,429.3 703.6,430.0 704.1,429.8 704.7,429.7 705.2,429.9 705.8,429.5 706.3,429.6 706.9,429.5 707.4,429.4 708.0,429.5 708.5,429.2 709.1,429.7 709.6,429.2 710.2,429.8 710.7,429.9 711.3,429.8 711.8,429.8 712.4,429.9 712.9,414.3 713.5,414.0 714.0,414.2 714.6,414.6 715.1,405.3 715.7,429.6 716.2,380.4 716.8,429.6 717.3,429.8 717.9,388.9 718.4,429.9 719.0,423.3 719.5,380.9 720.1,429.6 720.6,429.6 721.1,389.1 721.7,429.6 722.2,429.2 722.8,429.3 723.3,429.1 723.9,429.3 724.4,429.1 725.0,429.9 725.5,429.3 726.1,429.4 726.6,429.7 727.2,429.8 727.7,429.4 728.3,429.9 728.8,429.2 729.4,430.0 729.9,429.9 730.5,429.8 731.0,429.9 731.6,429.9 732.1,429.6 732.7,429.9 733.2,429.6 733.8,430.0 734.3,429.7 734.9,429.4 735.4,429.8 736.0,429.6 736.5,429.9 737.1,429.8 737.6,429.2 738.2,429.3 738.7,429.3 739.3,429.7 739.8,429.2 740.4,429.3 740.9,429.4 741.5,429.2 742.0,429.6 742.6,430.0 743.1,429.4 743.7,429.3 744.2,429.6 744.8,429.4 745.3,429.3 745.9,429.9 746.4,429.4 747.0,429.7 747.5,429.3 748.1,429.7 748.6,429.2 749.1,429.6 749.7,430.0 750.2,429.8 750.8,429.5 751.3,429.2 751.9,429.5 752.4,429.6 753.0,429.4 753.5,429.9 754.1,429.5 754.6,429.3 755.2,429.9 755.7,429.5 756.3,429.9 756.8,429.6 757.4,429.3 757.9,429.3 758.5,429.4 759.0,429.4 759.6,429.9 760.1,430.0 760.7,429.9 761.2,429.2 761.8,429.3 762.3,429.2 762.9,429.5 763.4,429.4 764.0,429.5 764.5,429.9 765.1,429.9 765.6,429.3 766.2,429.2 766.7,429.6 767.3,429.6 767.8,429.5 768.4,429.2 768.9,429.8 769.5,429.4 770.0,429.5 770.6,429.2 771.1,429.3 771.7,429.7 772.2,429.8 772.8,429.3 773.3,429.6 773.9,429.7 774.4,429.2 775.0,429.8 775.5,429.7 776.1,429.2 776.6,429.5 777.2,430.0 777.7,429.9 778.2,429.4 778.8,429.6 779.3,429.7 779.9,429.5 780.4,429.8 781.0,429.3 781.5,429.9 782.1,430.0 782.6,429.2 783.2,429.8 783.7,429.4 784.3,429.8 784.8,429.9 785.4,429.7 785.9,429.6 786.5,429.7 787.0,429.2 787.6,429.4 788.1,429.5 788.7,429.1 789.2,429.7 789.8,429.2 790.3,429.2 790.9,429.3 791.4,429.7 792.0,429.7 792.5,429.9 793.1,429.3 793.6,429.7 794.2,429.3 794.7,429.8 795.3,429.8 795.8,429.4 796.4,429.3 796.9,429.6 797.5,429.4 798.0,429.3 798.6,429.1 799.1,429.7 799.7,429.5 800.2,429.6 800.8,429.3 801.3,429.9 801.9,429.8 802.4,429.6 803.0,429.9 803.5,429.3 804.1,429.8 804.6,429.3 805.2,429.5 805.7,429.2 806.2,429.8 806.8,429.6 807.3,429.7 807.9,429.6 808.4,429.5 809.0,429.9 809.5,429.3 810.1,429.6 810.6,430.0 811.2,429.7 811.7,429.4 812.3,429.3 812.8,429.4 813.4,429.4 813.9,429.4 814.7,82.3 815.3,429.5 815.8,429.2 816.4,429.3 816.9,429.8 817.4,429.6 818.0,429.7 818.5,429.1 819.1,429.4 819.6,429.3 820.2,429.4 820.7,429.5 821.3,429.7 821.8,430.0 822.4,429.5 822.9,430.0 823.5,429.6 824.0,429.1 824.6,429.5 825.1,430.0 825.7,429.6 826.2,429.7 826.8,429.3 827.3,429.9 827.9,429.3 828.4,429.2 829.0,429.7 829.5,429.8 830.1,429.4 830.6,429.6 831.2,429.7 831.7,429.7 832.3,429.5 832.8,429.6 833.4,429.6 833.9,429.3 834.5,429.6 835.0,429.3 835.6,429.1 836.1,429.5 836.7,429.4 837.2,429.8 837.8,429.3 838.3,429.5 838.9,429.1 839.4,429.6 840.0,429.7 840.5,429.2 841.1,429.7 841.6,429.9 842.2,429.6 842.7,429.4 843.3,429.7 843.8,429.2 844.4,430.0 844.9,429.8 845.4,429.8 846.0,429.1 846.5,429.6 847.1,429.9 847.6,429.8 848.2,429.5 848.7,429.9 849.3,429.8 849.8,429.2 850.4,429.3 850.9,429.1 851.5,429.2 852.0,429.6 852.6,429.8 853.1,429.1 853.7,429.8 854.2,429.6 854.8,429.4 855.3,429.9 855.9,429.3 856.4,429.1 857.0,429.8 857.5,429.5 858.1,429.9 858.6,429.2 859.2,429.9 859.7,429.4 860.3,429.1 860.8,429.8 861.4,429.9 861.9,429.3 862.5,429.4 863.0,429.9 863.6,429.7 864.1,429.8 864.7,429.2 865.2,430.0 865.8,429.7 866.3,429.8 866.9,429.1 867.4,429.9 868.0,429.5 868.5,429.9 869.1,429.9 869.6,429.7 870.2,429.8 870.7,429.3 871.3,429.5 871.8,429.9 872.4,429.5 872.9,429.5 873.4,429.6 874.0,429.8 874.5,429.6 875.1,429.7 875.6,429.1 876.2,429.2 876.7,429.8 877.3,429.6 877.8,429.5 878.4,429.8 878.9,429.2 879.5,429.5 880.0,429.7 880.6,429.2 881.1,429.4 881.7,429.8 882.2,429.3 882.8,430.0 883.3,429.2 883.9,429.7 884.4,429.9 885.0,429.5 885.5,429.6 886.1,429.3 886.6,429.4 887.2,429.6 887.7,430.0 888.3,429.2 888.8,429.5 889.4,429.3 889.9,429.9 890.5,429.1 891.0,429.4 891.6,429.2 892.1,429.3 892.7,429.8 893.2,430.0 893.8,429.9 894.3,429.3 894.9,429.5 895.4,429.2 896.0,430.0 896.5,429.4 897.1,429.5 897.6,429.8 898.2,429.1 898.7,429.2 899.3,429.4 899.8,429.4 900.4,429.8 900.9,429.1 901.5,429.8 902.0,429.1 902.5,430.0 903.1,429.9 903.6,429.9 904.2,429.6 904.7,429.7 905.3,429.2 905.8,429.8 906.4,429.4 906.9,430.0 907.5,429.3 908.0,429.8 908.6,429.3 909.1,429.3 909.7,429.5 910.2,429.7 910.8,429.7 911.3,429.1 911.9,429.8 912.4,429.8 913.0,429.3 913.5,429.8 914.1,429.3 914.6,429.9 915.2,429.9 915.7,429.7 916.3,429.9 916.8,429.4 917.4,429.3 917.9,429.7 918.5,429.8 919.0,429.9 919.6,429.3 920.1,429.2 920.7,429.7 921.2,429.6 921.8,429.2 922.3,429.7 922.9,429.8 923.4,429.5 924.0,429.8 924.5,429.6 925.1,429.8 925.6,429.4 926.2,429.3 926.7,429.8 927.3,429.4 927.8,429.3 928.4,429.6 928.9,430.0 929.5,429.3 930.0,429.3 70.0,429.5 70.5,430.0 70.0,429.8 70.5,429.2 70.0,429.7 70.5,429.5" fill="none" stroke="blue" stroke-width="1.5" stroke-dasharray="5,3"/>
<line x1="70" y1="430" x2="930" y2="430" stroke="#333" stroke-width="2"/>
<line x1="70" y1="70" x2="70" y2="430" stroke="#333" stroke-width="2"/>
<line x1="930" y1="70" x2="930" y2="430" stroke="#333" stroke-width="2"/>
<text x="70.0" y="450" text-anchor="middle" font-family="sans-serif" font-size="12">0s</text>
<text x="242.0" y="450" text-anchor="middle" font-family="sans-serif" font-size="12">32s</text>
<text x="414.0" y="450" text-anchor="middle" font-family="sans-serif" font-size="12">63s</text>
<text x="586.0" y="450" text-anchor="middle" font-family="sans-serif" font-size="12">94s</text>
<text x="758.0" y="450" text-anchor="middle" font-family="sans-serif" font-size="12">126s</text>
<text x="930.0000000000001" y="450" text-anchor="middle" font-family="sans-serif" font-size="12">157s</text>
<g transform="translate(820, 60)">
<rect width="120" height="50" fill="white" fill-opacity="0.9" stroke="#ccc"/>
<line x1="10" y1="15" x2="40" y2="15" stroke="red" stroke-width="3"/>
<text x="45" y="20" font-family="sans-serif" font-size="14">Voltage</text>
<line x1="10" y1="35" x2="40" y2="35" stroke="blue" stroke-width="2" stroke-dasharray="5,3"/>
<text x="45" y="40" font-family="sans-serif" font-size="14">Current</text>
</g>
</svg>