<svg viewBox="0 0 1000 600" xmlns="http://www.w3.org/2000/svg">
<rect width="100%" height="100%" fill="#ffffff"/>
<text x="500.0" y="35" text-anchor="middle" font-family="sans-serif" font-size="22" font-weight="bold">Outgassing Characterization Detail (Zoom): aged</text>
<line x1="75" y1="525.0" x2="925" y2="525.0" stroke="#eee" stroke-width="1"/>
<text x="65" y="529.0" text-anchor="end" font-family="sans-serif" font-size="12" fill="red">11.13V</text>
<line x1="75" y1="435.0" x2="925" y2="435.0" stroke="#eee" stroke-width="1"/>
<text x="65" y="439.0" text-anchor="end" font-family="sans-serif" font-size="12" fill="red">11.67V</text>
<line x1="75" y1="345.0" x2="925" y2="345.0" stroke="#eee" stroke-width="1"/>
<text x="65" y="349.0" text-anchor="end" font-family="sans-serif" font-size="12" fill="red">12.20V</text>
<line x1="75" y1="255.0" x2="925" y2="255.0" stroke="#eee" stroke-width="1"/>
<text x="65" y="259.0" text-anchor="end" font-family="sans-serif" font-size="12" fill="red">12.74V</text>
<line x1="75" y1="165.0" x2="925" y2="165.0" stroke="#eee" stroke-width="1"/>
<text x="65" y="169.0" text-anchor="end" font-family="sans-serif" font-size="12" fill="red">13.27V</text>
<line x1="75" y1="75.0" x2="925" y2="75.0" stroke="#eee" stroke-width="1"/>
<text x="65" y="79.0" text-anchor="end" font-family="sans-serif" font-size="12" fill="red">13.81V</text>
<text x="935" y="529.0" text-anchor="start" font-family="sans-serif" font-size="12" fill="blue">-0.05A</text>
<text x="935" y="439.0" text-anchor="start" font-family="sans-serif" font-size="12" fill="blue">0.09A</text>
<text x="935" y="349.0" text-anchor="start" font-family="sans-serif" font-size="12" fill="blue">0.23A</text>
<text x="935" y="259.0" text-anchor="start" font-family="sans-serif" font-size="12" fill="blue">0.38A</text>
<text x="935" y="169.0" text-anchor="start" font-family="sans-serif" font-size="12" fill="blue">0.52A</text>
<text x="935" y="79.0" text-anchor="start" font-family="sans-serif" font-size="12" fill="blue">0.66A</text>
<line x1="75" y1="237.0" x2="925" y2="237.0" stroke="#f39c12" stroke-width="1.5" stroke-dasharray="4,2" opacity="0.6"/>
<text x="920" y="233.0" text-anchor="end" font-family="sans-serif" font-size="10" font-weight="bold" fill="#f39c12">ADS LIMIT (0.80)</text>
<line x1="75" y1="417.0" x2="925" y2="417.0" stroke="#27ae60" stroke-width="1.5" stroke-dasharray="4,2" opacity="0.6"/>
<text x="920" y="413.0" text-anchor="end" font-family="sans-serif" font-size="10" font-weight="bold" fill="#27ae60">GAS LIMIT (0.30)</text>
<line x1="75" y1="525.0" x2="925" y2="525.0" stroke="green" stroke-width="0.5" stroke-dasharray="2,2" opacity="0.2"/>
<text x="80" y="523.0" text-anchor="start" font-family="sans-serif" font-size="10" fill="green">Ratio:0.00</text>
<line x1="75" y1="435.0" x2="925" y2="435.0" stroke="green" stroke-width="0.5" stroke-dasharray="2,2" opacity="0.2"/>
<text x="80" y="433.0" text-anchor="start" font-family="sans-serif" font-size="10" fill="green">Ratio:0.25</text>
<line x1="75" y1="345.0" x2="925" y2="345.0" stroke="green" stroke-width="0.5" stroke-dasharray="2,2" opacity="0.2"/>
<text x="80" y="343.0" text-anchor="start" font-family="sans-serif" font-size="10" fill="green">Ratio:0.50</text>
<line x1="75" y1="255.0" x2="925" y2="255.0" stroke="green" stroke-width="0.5" stroke-dasharray="2,2" opacity="0.2"/>
<text x="80" y="253.0" text-anchor="start" font-family="sans-serif" font-size="10" fill="green">Ratio:0.75</text>
<line x1="75" y1="165.0" x2="925" y2="165.0" stroke="green" stroke-width="0.5" stroke-dasharray="2,2" opacity="0.2"/>
<text x="80" y="163.0" text-anchor="start" font-family="sans-serif" font-size="10" fill="green">Ratio:1.00</text>
<polyline points="75.0,75.0 75.9,97.8 76.8,100.4 77.7,102.8 78.7,104.8 79.6,106.6 80.5,108.2 81.4,109.7 82.3,111.0 83.2,112.4 84.2,113.5 85.1,114.5 86.0,115.6 86.9,116.5 87.8,117.4 88.7,118.4 89.7,119.1 90.6,119.9 91.5,120.5 92.4,121.2 93.3,121.9 94.2,122.6 95.1,123.1 96.1,123.7 97.0,124.3 97.9,124.9 98.8,125.4 99.7,125.8 100.6,126.3 101.6,126.8 102.5,127.2 103.4,127.7 104.3,128.1 105.2,128.6 106.1,129.0 107.1,129.5 108.0,129.9 108.9,130.5 109.8,130.9 110.7,131.4 111.6,131.8 112.5,132.3 113.5,132.8 114.4,133.3 115.3,133.8 116.2,134.4 117.1,134.8 118.0,135.3 118.9,135.8 119.9,136.4 120.8,136.8 121.7,137.5 122.6,137.9 123.5,138.4 124.4,139.0 125.3,139.5 126.3,140.1 127.2,140.6 128.1,141.1 129.0,141.8 129.9,142.3 130.8,142.8 131.7,143.4 132.7,144.0 133.6,144.6 134.5,145.1 135.4,145.6 136.3,146.3 137.2,146.7 138.1,147.4 139.1,148.0 140.0,148.5 140.9,149.1 141.8,149.6 142.7,150.3 143.6,150.9 144.5,151.5 145.5,152.0 146.4,152.6 147.3,153.2 148.2,153.9 149.1,154.4 150.0,155.1 151.0,155.6 151.9,156.2 152.8,156.9 153.7,157.5 154.6,158.1 155.5,158.7 156.4,159.3 157.4,159.9 158.3,160.5 159.2,161.1 160.1,161.7 161.0,162.4 161.9,163.0 162.8,163.7 163.8,164.2 164.7,164.9 165.6,165.5 166.5,166.1 167.4,166.7 168.3,167.4 169.2,168.0 170.2,168.7 171.1,169.3 172.0,170.0 172.9,170.5 173.8,171.1 174.7,171.8 175.6,172.5 176.6,173.1 177.5,173.8 178.4,174.3 179.3,175.1 180.2,175.6 181.1,176.3 182.0,177.0 183.0,177.7 183.9,178.3 184.8,178.8 185.7,179.6 186.6,180.2 187.5,180.8 188.4,181.4 189.4,182.1 190.3,182.8 191.2,183.4 192.1,184.1 193.0,184.8 193.9,185.4 194.9,186.0 195.8,186.7 196.7,187.3 197.6,188.1 198.5,188.7 199.4,189.3 200.3,190.1 201.3,190.7 202.2,191.3 203.1,192.0 204.0,192.7 204.9,193.4 205.8,194.0 206.7,194.7 207.7,195.4 208.6,196.0 209.5,196.7 210.4,197.3 211.3,197.9 212.2,198.6 213.1,199.3 214.1,199.9 215.0,200.6 215.9,201.3 216.8,201.9 217.7,202.6 218.6,203.2 219.5,204.0 220.5,204.7 221.4,205.3 222.3,205.9 223.2,206.6 224.1,207.4 225.0,208.0 225.9,208.6 226.9,209.3 227.8,209.9 228.7,210.6 229.6,211.3 230.5,212.0 231.4,212.6 232.3,213.3 233.3,214.1 234.2,214.7 235.1,215.3 236.0,216.0 236.9,216.7 237.8,217.4 238.7,218.0 239.7,218.8 240.6,219.4 241.5,220.0 242.4,220.8 243.3,221.5 244.2,222.1 245.2,222.7 246.1,223.4 247.0,224.1 247.9,224.8 248.8,225.6 249.7,226.2 250.7,226.9 251.6,227.4 252.5,228.3 253.4,228.9 254.3,229.5 255.2,230.2 256.2,230.9 257.1,231.5 258.0,232.2 258.9,232.9 259.8,233.6 260.7,234.3 261.7,234.9 262.6,235.6 263.5,236.4 264.4,236.9 265.3,237.7 266.2,238.3 267.2,239.1 268.1,239.8 269.0,240.4 269.9,241.2 270.8,241.8 271.7,242.5 272.6,243.1 273.6,243.8 274.5,244.5 275.4,245.2 276.3,245.8 277.2,246.6 278.2,247.3 279.1,247.9 280.0,248.5 280.9,249.3 281.8,250.0 282.7,250.5 283.7,251.4 284.6,252.0 285.5,252.6 286.4,253.3 287.3,254.0 288.2,254.7 289.2,255.3 290.1,256.0 291.0,256.8 291.9,257.5 292.8,258.2 293.7,258.8 294.7,259.5 295.6,260.1 296.5,260.8 297.4,261.6 298.3,262.2 299.2,262.9 300.2,263.6 301.1,264.2 302.0,265.0 302.9,265.7 303.8,266.2 304.7,267.0 305.6,267.7 306.6,268.3 307.5,269.1 308.4,269.7 309.3,270.4 310.2,271.1 311.1,271.8 312.1,272.4 313.0,273.1 313.9,273.8 314.8,274.5 315.7,275.1 316.6,275.8 317.5,276.5 318.5,277.2 319.4,277.9 320.3,278.6 321.2,279.3 322.1,279.9 323.0,280.7 323.9,281.4 324.9,282.1 325.8,282.7 326.7,283.4 327.6,284.1 328.5,284.8 329.4,285.4 330.4,286.1 331.3,286.8 332.2,287.5 333.1,288.1 334.0,288.9 334.9,289.6 335.8,290.3 336.8,290.9 337.7,291.6 338.6,292.3 339.5,293.0 340.4,293.7 341.3,294.4 342.2,295.1 343.2,295.6 344.1,296.5 345.0,297.0 345.9,297.8 346.8,298.4 347.7,299.2 348.6,299.9 349.6,300.5 350.5,301.2 351.4,301.9 352.3,302.6 353.2,303.3 354.1,304.0 355.0,304.6 356.0,305.3 356.9,306.0 357.8,306.7 358.7,307.4 359.6,308.0 360.5,308.8 361.5,309.4 362.4,310.2 363.3,310.7 364.2,311.5 365.1,312.1 366.0,312.8 367.0,313.6 367.9,314.2 368.8,314.9 369.7,315.6 370.6,316.3 371.5,317.0 372.5,317.6 373.4,318.4 374.3,319.1 375.2,319.7 376.1,320.4 377.0,321.1 378.0,321.7 378.9,322.4 379.8,323.1 380.7,323.7 381.6,324.5 382.5,325.1 383.4,325.9 384.4,326.6 385.3,327.2 386.2,327.9 387.1,328.6 388.0,329.2 388.9,329.9 389.8,330.7 390.8,331.4 391.7,332.0 392.6,332.7 393.5,333.4 394.4,334.1 395.3,334.8 396.3,335.4 397.2,336.2 398.1,336.8 399.0,337.5 399.9,338.1 400.8,338.9 401.8,339.6 402.7,340.2 403.6,340.9 404.5,341.6 405.4,342.3 406.3,343.1 407.2,343.6 408.2,344.4 409.1,345.0 410.0,345.7 410.9,346.4 411.8,347.0 412.7,347.8 413.7,348.5 414.6,349.2 415.5,349.9 416.4,350.4 417.3,351.3 418.2,351.8 419.2,352.6 420.1,353.2 421.0,353.9 421.9,354.7 422.8,355.3 423.8,356.0 424.7,356.7 425.6,357.4 426.5,358.1 427.4,358.7 428.3,359.4 429.3,360.1 430.2,360.7 431.1,361.6 432.0,362.2 432.9,362.8 433.8,363.5 434.8,364.2 435.7,364.9 436.6,365.6 437.5,366.4 438.4,367.0 439.3,367.7 440.3,368.4 441.2,369.1 442.1,369.8 443.0,370.5 443.9,371.1 444.8,371.7 445.8,372.5 446.7,373.1 447.6,373.9 448.5,374.5 449.4,375.1 450.3,376.0 451.2,376.5 452.2,377.2 453.1,377.9 454.0,378.6 454.9,379.4 455.8,380.0 456.7,380.6 457.7,381.4 458.6,382.0 459.5,382.7 460.4,383.4 461.3,384.0 462.3,384.9 463.2,385.5 464.1,386.1 465.0,386.8 465.9,387.5 466.8,388.3 467.7,388.8 468.7,389.6 469.6,390.4 470.5,390.9 471.4,391.7 472.3,392.3 473.2,393.0 474.2,393.6 475.1,394.4 476.0,395.1 476.9,395.8 477.8,396.4 478.7,397.2 479.7,397.8 480.6,398.5 481.5,399.2 482.4,399.9 483.3,400.5 484.2,401.3 485.2,401.9 486.1,402.6 487.0,403.4 487.9,404.0 488.8,404.1 489.7,404.4 490.7,405.6 491.6,404.3 492.5,403.6 493.4,406.0 494.3,406.6 495.2,407.2 496.1,408.0 497.1,408.8 498.0,409.4 498.9,410.1 499.8,410.7 500.7,411.4 501.6,412.2 502.5,412.8 503.5,413.4 504.4,414.1 505.3,414.9 506.2,415.6 507.1,416.2 508.0,416.9 509.0,417.7 509.9,418.3 510.8,419.0 511.7,419.7 512.6,420.4 513.5,421.0 514.4,421.8 515.4,422.3 516.3,423.1 517.2,423.7 518.1,424.5 519.0,425.1 519.9,425.9 520.8,426.6 521.8,427.2 522.7,427.8 523.6,428.5 524.5,429.2 525.4,430.0 526.3,430.6 527.2,431.3 528.2,432.0 529.1,432.7 530.0,433.4 530.9,434.1 531.8,434.7 532.7,435.4 533.6,436.0 534.6,436.7 535.5,437.5 536.4,438.2 537.3,432.9 538.2,430.3 539.1,428.3 540.1,426.5 541.0,424.6 541.9,422.8 542.8,425.5 543.7,427.1 544.6,427.8 545.5,428.5 546.5,429.3 547.4,429.8 548.3,430.7 549.2,431.3 550.1,431.9 551.0,432.6 552.0,433.4 552.9,434.0 553.8,434.8 554.7,435.3 555.6,436.1 556.5,436.7 557.4,437.4 558.4,438.1 559.3,438.8 560.2,439.6 561.1,440.1 562.0,440.8 562.9,441.6 563.8,442.2 564.8,443.0 565.7,443.6 566.6,444.2 567.5,445.0 568.4,445.7 569.3,446.4 570.2,447.0 571.2,447.8 572.1,448.4 573.0,449.2 573.9,449.8 574.8,450.6 575.7,451.1 576.6,451.8 577.6,452.5 578.5,453.1 579.4,453.9 580.3,454.7 581.2,455.2 582.1,456.0 583.0,456.7 584.0,457.4 584.9,458.1 585.8,458.7 586.7,459.4 587.6,459.3 588.5,451.8 589.5,459.1 590.4,459.8 591.3,460.4 592.2,461.2 593.1,461.9 594.0,462.6 594.9,463.2 595.9,463.9 596.8,464.6 597.7,465.4 598.6,466.0 599.5,466.7 600.4,467.3 601.4,468.0 602.3,468.8 603.2,469.4 604.1,470.1 605.0,470.8 605.9,471.4 606.8,472.2 607.8,472.8 608.7,473.5 609.6,474.2 610.5,475.0 611.4,475.5 612.3,476.3 613.2,477.0 614.2,477.6 615.1,478.4 616.0,479.1 616.9,479.7 617.8,480.5 618.7,481.0 619.6,481.7 620.6,482.4 621.5,483.1 622.4,483.8 623.3,484.4 624.2,485.3 625.1,485.8 626.0,486.6 627.0,487.3 627.9,487.9 628.8,488.6 629.7,489.2 630.6,486.4 631.5,486.1 632.5,487.3 633.4,488.0 634.3,488.8 635.2,489.4 636.1,490.1 637.0,490.8 637.9,491.5 638.9,492.1 639.8,492.9 640.7,493.5 641.6,494.2 642.5,494.8 643.4,495.6 644.3,496.3 645.3,496.9 646.2,497.6 647.1,498.4 648.0,499.1 648.9,499.7 649.8,500.3 650.8,501.0 651.7,501.7 652.6,502.5 653.5,503.0 654.4,503.7 655.3,504.4 656.2,505.2 657.2,505.8 658.1,506.5 659.0,507.3 659.9,507.9 660.8,508.6 661.7,509.3 662.6,510.0 663.6,510.7 664.5,511.3 665.4,512.1 666.3,512.7 667.2,513.3 668.1,514.1 669.0,514.7 670.0,515.4 670.9,516.1 671.8,516.9 672.7,517.5 673.6,518.2 674.5,518.9 675.4,519.5 676.4,516.5 677.3,514.0 678.2,516.4 679.1,517.0 680.0,517.8 681.0,515.4 681.9,514.3 682.8,515.4 683.7,516.1 684.6,516.8 685.5,517.4 686.4,518.2 687.4,518.8 688.3,519.5 689.2,520.2 690.1,521.0 691.0,521.6 691.9,522.2 692.8,523.0 693.8,523.7 694.7,524.3 695.6,525.0 696.5,502.7 697.4,512.6 698.4,514.5 699.3,515.2 700.2,515.9 701.1,494.6 702.0,487.5 702.9,480.8 703.9,474.2 704.8,467.7 705.7,461.3 706.6,467.5 707.5,471.2 708.4,472.0 709.3,472.6 710.3,473.2 711.2,473.9 712.1,474.6 713.0,475.3 713.9,476.0 714.8,476.7 715.7,477.4 716.7,478.0 717.6,478.7 718.5,479.4 719.4,480.2 720.3,480.8 721.2,481.5 722.1,482.2 723.1,482.8 724.0,483.6 724.9,484.2 725.8,485.0 726.7,485.6 727.6,486.3 728.5,487.0 729.5,487.7 730.4,488.3 731.3,489.1 732.2,489.7 733.1,490.3 734.0,491.1 734.9,491.8 735.9,492.5 736.8,493.1 737.7,493.8 738.6,494.5 739.5,495.1 740.4,496.0 741.4,496.5 742.3,497.2 743.2,498.0 744.1,498.7 745.0,499.4 745.9,500.0 746.8,500.8 747.8,501.4 748.7,502.0 749.6,502.8 750.5,503.4 751.4,491.4 752.3,495.0 753.3,498.1 754.2,498.7 755.1,499.4 756.0,482.5 756.9,476.0 757.8,471.1 758.8,466.6 759.7,461.8 760.6,466.1 761.5,456.0 762.4,458.7 763.3,461.6 764.2,462.4 765.2,462.9 766.1,463.7 767.0,464.3 767.9,465.0 768.8,465.7 769.7,466.3 770.6,467.1 771.6,467.8 772.5,468.5 773.4,469.1 774.3,469.8 775.2,462.7 776.1,458.9 777.1,461.9 778.0,462.7 778.9,463.4 779.8,464.0 780.7,464.7 781.6,465.4 782.6,444.9 783.5,441.8 784.4,457.3 785.3,458.0 786.2,458.8 787.2,440.7 788.1,448.0 789.0,449.9 789.9,450.8 790.8,451.4 791.7,452.1 792.7,449.1 793.6,428.0 794.5,442.9 795.4,444.1 796.3,444.8 797.2,445.4 798.1,446.1 799.1,446.9 800.0,447.5 800.9,448.1 801.8,448.8 802.7,449.6 803.6,450.2 804.5,450.8 805.5,451.7 806.4,452.2 807.3,453.0 808.2,453.7 809.1,428.1 810.0,419.4 811.0,411.1 811.9,402.9 812.8,394.7 813.7,386.8 814.6,398.1 815.5,400.3 816.4,401.0 817.4,401.8 818.3,402.4 819.2,403.0 820.1,403.8 821.0,404.4 821.9,405.2 822.8,405.8 823.8,406.4 824.7,407.2 825.6,407.8 826.5,408.5 827.4,409.2 828.3,409.9 829.2,410.6 830.2,411.3 831.1,412.1 832.0,412.7 832.9,413.3 833.8,414.0 834.7,414.7 835.7,415.3 836.6,416.0 837.5,416.7 838.4,417.5 839.3,418.1 840.2,418.9 841.1,419.5 842.1,420.2 843.0,420.8 843.9,421.5 844.8,422.2 845.7,422.9 846.6,423.6 847.5,424.4 848.5,424.9 849.4,425.7 850.3,426.4 851.2,427.1 852.1,427.7 853.0,428.4 853.9,429.1 854.9,429.9 855.8,426.3 856.7,407.5 857.6,413.7 858.5,399.2 859.4,408.8 860.4,390.9 861.3,396.1 862.2,382.5 863.1,389.0 864.0,375.1 864.9,387.4 865.8,388.5 866.8,389.1 867.7,389.8 868.6,390.5 869.5,391.2 870.4,391.8 871.3,392.5 872.2,393.3 873.2,393.9 874.1,394.7 875.0,395.4 875.9,396.0 876.8,396.7 877.7,397.4 878.7,398.1 879.6,398.8 880.5,399.4 881.4,400.1 882.3,400.8 883.2,401.4 884.1,402.2 885.1,402.8 886.0,398.1 886.9,396.4 887.8,386.2 888.7,392.8 889.6,378.2 890.6,390.2 891.5,385.9 892.4,386.7 893.3,387.8 894.2,388.6 895.1,389.3 896.0,389.9 897.0,390.7 897.9,391.3 898.8,391.9 899.7,392.6 900.6,393.4 901.5,394.0 902.5,391.5 903.4,391.2 904.3,392.4 905.2,393.0 906.1,393.7 907.0,394.4 907.9,395.1 908.9,386.6 909.8,377.7 910.7,392.1 911.6,392.9 912.5,393.6 913.4,394.3 914.4,392.1 915.3,389.1 916.2,392.0 917.1,389.1 918.0,374.8 918.9,388.9 919.9,374.0 920.8,385.8 921.7,385.4 922.6,386.3 923.5,387.1 924.5,387.8" fill="none" stroke="red" stroke-width="2.5" opacity="0.8"/>
<polyline points="75.0,492.7 75.9,523.9 76.8,523.8 77.7,524.2 78.7,523.9 79.6,524.1 80.5,524.8 81.4,523.9 82.3,524.1 83.2,524.2 84.2,524.9 85.1,524.3 86.0,524.9 86.9,524.8 87.8,523.9 88.7,524.4 89.7,523.9 90.6,524.4 91.5,524.9 92.4,524.2 93.3,524.2 94.2,524.3 95.1,524.0 96.1,524.1 97.0,524.0 97.9,524.4 98.8,524.8 99.7,524.7 100.6,524.8 101.6,524.3 102.5,524.5 103.4,523.7 104.3,524.7 105.2,523.9 106.1,523.7 107.1,523.9 108.0,523.8 108.9,523.8 109.8,524.8 110.7,524.7 111.6,524.1 112.5,524.2 113.5,524.6 114.4,524.4 115.3,524.4 116.2,524.0 117.1,524.3 118.0,524.5 118.9,524.9 119.9,524.6 120.8,525.0 121.7,524.2 122.6,523.8 123.5,524.8 124.4,525.0 125.3,523.8 126.3,524.6 127.2,524.6 128.1,524.2 129.0,524.7 129.9,524.6 130.8,524.3 131.7,524.1 132.7,524.4 133.6,524.3 134.5,524.2 135.4,524.4 136.3,524.1 137.2,524.6 138.1,524.6 139.1,524.5 140.0,524.9 140.9,524.3 141.8,524.5 142.7,523.9 143.6,524.5 144.5,524.0 145.5,524.4 146.4,524.4 147.3,524.1 148.2,523.8 149.1,523.9 150.0,523.9 151.0,524.6 151.9,524.3 152.8,524.7 153.7,524.6 154.6,524.8 155.5,524.2 156.4,523.8 157.4,524.7 158.3,524.3 159.2,524.2 160.1,524.9 161.0,524.9 161.9,524.5 162.8,524.6 163.8,524.9 164.7,524.2 165.6,524.2 166.5,524.7 167.4,524.7 168.3,524.6 169.2,524.5 170.2,524.6 171.1,524.9 172.0,523.7 172.9,524.1 173.8,525.0 174.7,524.4 175.6,524.6 176.6,523.8 177.5,523.9 178.4,524.1 179.3,524.6 180.2,524.2 181.1,524.4 182.0,523.8 183.0,524.6 183.9,523.8 184.8,523.8 185.7,524.9 186.6,524.7 187.5,524.6 188.4,524.4 189.4,524.7 190.3,524.3 191.2,524.7 192.1,524.1 193.0,524.6 193.9,524.6 194.9,524.2 195.8,524.3 196.7,523.9 197.6,523.8 198.5,524.3 199.4,523.7 200.3,524.6 201.3,524.8 202.2,524.2 203.1,524.9 204.0,524.8 204.9,523.8 205.8,524.5 206.7,524.2 207.7,525.0 208.6,524.8 209.5,524.0 210.4,525.0 211.3,523.8 212.2,524.0 213.1,524.1 214.1,524.5 215.0,524.1 215.9,524.4 216.8,524.8 217.7,524.5 218.6,524.7 219.5,524.0 220.5,524.4 221.4,524.9 222.3,524.6 223.2,525.0 224.1,524.5 225.0,524.0 225.9,524.5 226.9,524.5 227.8,524.2 228.7,524.9 229.6,524.1 230.5,524.8 231.4,524.2 232.3,524.5 233.3,524.0 234.2,524.2 235.1,523.8 236.0,523.7 236.9,523.8 237.8,523.7 238.7,525.0 239.7,525.0 240.6,524.4 241.5,524.9 242.4,523.8 243.3,524.7 244.2,524.3 245.2,525.0 246.1,523.9 247.0,523.9 247.9,524.0 248.8,523.9 249.7,524.8 250.7,524.6 251.6,524.4 252.5,523.8 253.4,524.5 254.3,524.0 255.2,523.8 256.2,524.1 257.1,524.2 258.0,523.8 258.9,524.5 259.8,524.0 260.7,524.5 261.7,524.4 262.6,524.1 263.5,524.6 264.4,524.5 265.3,524.3 266.2,524.0 267.2,524.4 268.1,524.8 269.0,524.4 269.9,524.9 270.8,524.3 271.7,524.5 272.6,524.0 273.6,524.5 274.5,524.8 275.4,524.4 276.3,524.7 277.2,524.6 278.2,524.7 279.1,524.7 280.0,524.1 280.9,524.3 281.8,524.2 282.7,524.0 283.7,524.9 284.6,524.5 285.5,524.8 286.4,524.2 287.3,523.8 288.2,524.8 289.2,524.2 290.1,524.0 291.0,524.8 291.9,524.7 292.8,524.2 293.7,524.6 294.7,524.1 295.6,524.3 296.5,523.9 297.4,524.2 298.3,524.3 299.2,524.8 300.2,524.0 301.1,524.7 302.0,524.4 302.9,525.0 303.8,524.1 304.7,524.9 305.6,524.5 306.6,523.9 307.5,524.8 308.4,524.6 309.3,524.0 310.2,524.0 311.1,523.8 312.1,524.0 313.0,524.5 313.9,524.8 314.8,524.6 315.7,524.2 316.6,524.8 317.5,524.1 318.5,524.5 319.4,524.1 320.3,524.5 321.2,524.3 322.1,524.9 323.0,524.1 323.9,524.8 324.9,524.6 325.8,524.6 326.7,524.6 327.6,523.8 328.5,524.2 329.4,524.1 330.4,524.4 331.3,523.9 332.2,524.3 333.1,524.3 334.0,523.9 334.9,524.8 335.8,524.0 336.8,523.8 337.7,524.4 338.6,523.8 339.5,524.6 340.4,524.8 341.3,525.0 342.2,524.8 343.2,524.1 344.1,525.0 345.0,524.5 345.9,524.3 346.8,524.8 347.7,524.4 348.6,524.1 349.6,523.8 350.5,524.9 351.4,523.8 352.3,524.1 353.2,524.6 354.1,524.3 355.0,523.8 356.0,524.8 356.9,523.9 357.8,523.8 358.7,525.0 359.6,524.7 360.5,523.9 361.5,523.9 362.4,524.6 363.3,524.5 364.2,523.9 365.1,523.8 366.0,524.1 367.0,524.4 367.9,524.4 368.8,524.2 369.7,525.0 370.6,524.6 371.5,523.8 372.5,524.0 373.4,524.8 374.3,524.3 375.2,523.8 376.1,523.9 377.0,524.8 378.0,523.8 378.9,524.0 379.8,523.8 380.7,524.9 381.6,524.3 382.5,524.1 383.4,523.9 384.4,524.9 385.3,524.7 386.2,524.6 387.1,524.9 388.0,524.3 388.9,524.4 389.8,523.8 390.8,524.8 391.7,524.6 392.6,524.2 393.5,524.2 394.4,524.2 395.3,523.8 396.3,523.8 397.2,523.8 398.1,524.4 399.0,524.0 399.9,524.0 400.8,524.9 401.8,524.8 402.7,524.9 403.6,524.1 404.5,523.9 405.4,523.9 406.3,524.5 407.2,523.8 408.2,524.3 409.1,524.0 410.0,525.0 410.9,524.4 411.8,524.8 412.7,523.8 413.7,524.5 414.6,524.5 415.5,524.7 416.4,523.9 417.3,524.5 418.2,524.9 419.2,524.9 420.1,524.2 421.0,524.1 421.9,524.7 422.8,524.0 423.8,523.8 424.7,524.1 425.6,524.5 426.5,524.7 427.4,524.1 428.3,524.8 429.3,524.1 430.2,523.8 431.1,524.2 432.0,524.5 432.9,524.2 433.8,524.7 434.8,523.9 435.7,524.5 436.6,524.6 437.5,524.7 438.4,524.2 439.3,523.9 440.3,524.4 441.2,524.1 442.1,523.9 443.0,523.7 443.9,524.7 444.8,524.2 445.8,523.9 446.7,523.8 447.6,523.9 448.5,523.8 449.4,524.6 450.3,524.6 451.2,523.9 452.2,524.5 453.1,524.5 454.0,524.8 454.9,524.5 455.8,524.5 456.7,524.4 457.7,524.4 458.6,524.6 459.5,524.1 460.4,524.7 461.3,524.1 462.3,525.0 463.2,524.1 464.1,524.6 465.0,524.5 465.9,524.2 466.8,524.1 467.7,524.5 468.7,524.7 469.6,524.2 470.5,524.6 471.4,524.6 472.3,525.0 473.2,524.1 474.2,523.9 475.1,525.0 476.0,524.1 476.9,524.2 477.8,524.2 478.7,524.1 479.7,524.8 480.6,523.9 481.5,523.8 482.4,524.5 483.3,525.0 484.2,524.9 485.2,524.6 486.1,524.9 487.0,524.2 487.9,524.1 488.8,510.3 489.7,509.8 490.7,524.2 491.6,474.9 492.5,476.3 493.4,524.4 494.3,524.9 495.2,524.7 496.1,524.6 497.1,524.8 498.0,524.2 498.9,524.7 499.8,524.3 500.7,524.0 501.6,524.3 502.5,524.2 503.5,524.5 504.4,524.5 505.3,524.0 506.2,524.8 507.1,524.6 508.0,524.3 509.0,523.9 509.9,524.7 510.8,523.7 511.7,524.8 512.6,524.2 513.5,523.8 514.4,524.9 515.4,524.3 516.3,524.5 517.2,524.4 518.1,524.0 519.0,523.8 519.9,524.9 520.8,524.9 521.8,524.4 522.7,524.1 523.6,524.0 524.5,524.2 525.4,524.1 526.3,524.8 527.2,524.9 528.2,523.8 529.1,523.7 530.0,524.4 530.9,523.8 531.8,523.8 532.7,524.3 533.6,523.9 534.6,524.5 535.5,524.2 536.4,524.5 537.3,391.2 538.2,395.5 539.1,398.0 540.1,400.7 541.0,402.9 541.9,405.4 542.8,524.3 543.7,524.6 544.6,524.9 545.5,524.9 546.5,524.3 547.4,524.0 548.3,524.8 549.2,524.9 550.1,524.4 551.0,524.4 552.0,524.4 552.9,524.8 553.8,524.0 554.7,524.8 555.6,524.5 556.5,524.8 557.4,524.6 558.4,524.5 559.3,524.2 560.2,524.0 561.1,524.3 562.0,524.7 562.9,524.9 563.8,524.1 564.8,524.4 565.7,524.6 566.6,524.8 567.5,524.2 568.4,523.8 569.3,524.1 570.2,524.5 571.2,524.9 572.1,524.3 573.0,524.7 573.9,524.0 574.8,525.0 575.7,523.9 576.6,525.0 577.6,524.1 578.5,524.5 579.4,524.6 580.3,524.6 581.2,523.8 582.1,524.3 583.0,523.8 584.0,524.1 584.9,524.8 585.8,524.6 586.7,524.9 587.6,524.6 588.5,339.1 589.5,524.5 590.4,524.8 591.3,525.0 592.2,524.4 593.1,524.8 594.0,524.6 594.9,523.8 595.9,524.4 596.8,525.0 597.7,523.8 598.6,524.4 599.5,524.0 600.4,524.3 601.4,524.4 602.3,524.4 603.2,524.3 604.1,523.9 605.0,524.9 605.9,523.7 606.8,524.5 607.8,524.0 608.7,524.4 609.6,524.3 610.5,524.4 611.4,524.8 612.3,524.3 613.2,523.9 614.2,523.9 615.1,523.8 616.0,524.6 616.9,524.0 617.8,524.4 618.7,524.8 619.6,525.0 620.6,524.6 621.5,524.7 622.4,523.8 623.3,524.6 624.2,525.0 625.1,524.2 626.0,524.4 627.0,524.5 627.9,524.6 628.8,524.2 629.7,523.9 630.6,524.6 631.5,523.9 632.5,524.7 633.4,524.7 634.3,524.6 635.2,524.1 636.1,524.5 637.0,523.9 637.9,524.8 638.9,524.4 639.8,524.2 640.7,524.1 641.6,524.0 642.5,523.9 643.4,524.5 644.3,524.2 645.3,524.4 646.2,524.1 647.1,523.8 648.0,524.7 648.9,525.0 649.8,524.2 650.8,524.6 651.7,523.9 652.6,524.4 653.5,524.4 654.4,523.8 655.3,524.5 656.2,524.6 657.2,524.3 658.1,524.7 659.0,524.5 659.9,524.4 660.8,524.2 661.7,524.9 662.6,524.1 663.6,524.8 664.5,525.0 665.4,524.0 666.3,523.8 667.2,524.7 668.1,524.7 669.0,524.3 670.0,523.8 670.9,524.5 671.8,524.7 672.7,524.9 673.6,524.9 674.5,523.9 675.4,523.8 676.4,523.8 677.3,524.3 678.2,523.8 679.1,524.0 680.0,524.9 681.0,524.5 681.9,524.6 682.8,524.7 683.7,525.0 684.6,524.3 685.5,523.9 686.4,523.8 687.4,524.7 688.3,524.0 689.2,524.8 690.1,524.1 691.0,524.7 691.9,523.7 692.8,523.9 693.8,523.8 694.7,524.6 695.6,525.0 696.5,165.0 697.4,524.2 698.4,524.8 699.3,524.5 700.2,524.2 701.1,153.6 702.0,161.5 702.9,168.9 703.9,175.7 704.8,182.6 705.7,189.2 706.6,524.2 707.5,524.5 708.4,523.8 709.3,523.9 710.3,523.8 711.2,524.0 712.1,525.0 713.0,524.2 713.9,524.8 714.8,524.4 715.7,523.8 716.7,524.3 717.6,524.4 718.5,523.8 719.4,523.8 720.3,524.2 721.2,524.2 722.1,523.9 723.1,524.5 724.0,524.9 724.9,525.0 725.8,524.4 726.7,523.8 727.6,524.8 728.5,523.7 729.5,524.2 730.4,523.8 731.3,524.6 732.2,524.2 733.1,524.8 734.0,524.4 734.9,524.6 735.9,524.9 736.8,524.1 737.7,524.7 738.6,524.7 739.5,524.4 740.4,524.7 741.4,525.0 742.3,524.5 743.2,524.3 744.1,524.9 745.0,524.9 745.9,524.5 746.8,524.6 747.8,524.5 748.7,524.2 749.6,523.9 750.5,524.5 751.4,291.9 752.3,524.7 753.3,524.8 754.2,524.2 755.1,523.8 756.0,155.0 756.9,126.6 757.8,149.1 758.8,183.6 759.7,139.7 760.6,466.0 761.5,337.3 762.4,523.8 763.3,524.4 764.2,524.7 765.2,523.8 766.1,523.8 767.0,524.5 767.9,524.0 768.8,523.9 769.7,524.1 770.6,524.1 771.6,524.7 772.5,524.6 773.4,524.1 774.3,524.6 775.2,523.7 776.1,524.8 777.1,523.8 778.0,524.9 778.9,524.7 779.8,523.8 780.7,524.9 781.6,524.6 782.6,115.4 783.5,117.5 784.4,524.4 785.3,524.2 786.2,524.4 787.2,101.9 788.1,524.1 789.0,524.8 789.9,524.6 790.8,524.7 791.7,523.8 792.7,524.3 793.6,115.8 794.5,523.9 795.4,524.8 796.3,524.6 797.2,524.5 798.1,524.1 799.1,524.8 800.0,524.4 800.9,523.9 801.8,524.7 802.7,524.6 803.6,524.8 804.5,524.1 805.5,524.1 806.4,524.8 807.3,524.0 808.2,524.3 809.1,80.7 810.0,89.1 811.0,95.7 811.9,103.1 812.8,110.2 813.7,117.1 814.6,523.9 815.5,524.3 816.4,524.7 817.4,524.4 818.3,524.2 819.2,524.7 820.1,524.9 821.0,523.9 821.9,524.3 822.8,524.5 823.8,524.6 824.7,524.3 825.6,524.9 826.5,524.3 827.4,524.0 828.3,524.5 829.2,524.7 830.2,524.4 831.1,523.9 832.0,524.3 832.9,524.3 833.8,524.5 834.7,524.3 835.7,523.7 836.6,524.5 837.5,523.8 838.4,524.5 839.3,524.0 840.2,523.9 841.1,524.8 842.1,524.7 843.0,524.1 843.9,524.0 844.8,523.9 845.7,524.1 846.6,524.5 847.5,524.1 848.5,523.8 849.4,524.9 850.3,524.9 851.2,523.8 852.1,524.9 853.0,523.8 853.9,524.8 854.9,524.7 855.8,524.3 856.7,81.9 857.6,420.3 858.5,89.9 859.4,524.8 860.4,97.3 861.3,411.2 862.2,104.3 863.1,451.1 864.0,172.6 864.9,524.2 865.8,524.0 866.8,524.4 867.7,523.9 868.6,524.6 869.5,524.5 870.4,524.9 871.3,524.7 872.2,524.0 873.2,524.5 874.1,524.6 875.0,524.5 875.9,524.9 876.8,524.5 877.7,523.8 878.7,524.2 879.6,523.7 880.5,524.9 881.4,524.3 882.3,524.5 883.2,524.0 884.1,524.5 885.1,524.8 886.0,421.0 886.9,438.3 887.8,215.2 888.7,524.0 889.6,113.6 890.6,524.1 891.5,524.8 892.4,524.8 893.3,524.7 894.2,523.9 895.1,524.9 896.0,524.6 897.0,525.0 897.9,524.4 898.8,524.7 899.7,524.4 900.6,524.3 901.5,524.2 902.5,524.9 903.4,523.7 904.3,524.4 905.2,523.8 906.1,524.3 907.0,524.3 907.9,523.9 908.9,324.0 909.8,121.0 910.7,524.7 911.6,524.6 912.5,524.7 913.4,525.0 914.4,524.6 915.3,524.9 916.2,524.2 917.1,524.1 918.0,131.6 918.9,524.7 919.9,109.5 920.8,524.9 921.7,524.4 922.6,524.2 923.5,524.0 924.5,524.0" fill="none" stroke="blue" stroke-width="1.5" stroke-dasharray="5,3"/>
<polyline points="75.0,165.0 75.9,165.0 76.8,165.0 77.7,165.0 78.7,165.0 79.6,165.0 80.5,165.0 81.4,165.0 82.3,165.0 83.2,165.0 84.2,165.0 85.1,165.0 86.0,165.0 86.9,165.0 87.8,165.0 88.7,165.0 89.7,165.0 90.6,165.0 91.5,165.0 92.4,165.0 93.3,165.0 94.2,165.0 95.1,165.0 96.1,165.0 97.0,165.0 97.9,165.0 98.8,165.0 99.7,165.0 100.6,165.0 101.6,165.0 102.5,165.0 103.4,165.0 104.3,165.0 105.2,165.0 106.1,165.0 107.1,165.0 108.0,165.0 108.9,165.0 109.8,165.0 110.7,165.0 111.6,165.0 112.5,165.0 113.5,165.0 114.4,165.0 115.3,165.0 116.2,165.0 117.1,165.0 118.0,165.0 118.9,165.0 119.9,165.0 120.8,165.0 121.7,165.0 122.6,165.0 123.5,165.0 124.4,165.0 125.3,165.0 126.3,165.0 127.2,165.0 128.1,165.0 129.0,165.0 129.9,165.0 130.8,165.0 131.7,165.0 132.7,165.0 133.6,165.0 134.5,165.0 135.4,165.0 136.3,165.0 137.2,165.0 138.1,165.0 139.1,165.0 140.0,165.0 140.9,165.0 141.8,165.0 142.7,165.0 143.6,165.0 144.5,165.0 145.5,165.0 146.4,165.0 147.3,165.0 148.2,165.0 149.1,165.0 150.0,165.0 151.0,165.0 151.9,165.0 152.8,165.0 153.7,165.0 154.6,165.0 155.5,165.0 156.4,165.0 157.4,165.0 158.3,165.0 159.2,165.0 160.1,165.0 161.0,165.0 161.9,165.0 162.8,165.0 163.8,165.0 164.7,165.0 165.6,165.0 166.5,165.0 167.4,165.0 168.3,165.0 169.2,165.0 170.2,165.0 171.1,165.0 172.0,165.0 172.9,165.0 173.8,165.0 174.7,165.0 175.6,165.0 176.6,165.0 177.5,165.0 178.4,165.0 179.3,165.0 180.2,165.0 181.1,165.0 182.0,165.0 183.0,165.0 183.9,165.0 184.8,165.0 185.7,165.0 186.6,165.0 187.5,165.0 188.4,165.0 189.4,165.0 190.3,165.0 191.2,165.0 192.1,165.0 193.0,165.0 193.9,165.0 194.9,165.0 195.8,165.0 196.7,165.0 197.6,165.0 198.5,165.0 199.4,165.0 200.3,165.0 201.3,165.0 202.2,165.0 203.1,165.0 204.0,165.0 204.9,165.0 205.8,165.0 206.7,165.0 207.7,165.0 208.6,165.0 209.5,165.0 210.4,165.0 211.3,165.0 212.2,165.0 213.1,165.0 214.1,165.0 215.0,165.0 215.9,165.0 216.8,165.0 217.7,165.0 218.6,165.0 219.5,165.0 220.5,165.0 221.4,165.0 222.3,165.0 223.2,165.0 224.1,165.0 225.0,165.0 225.9,165.0 226.9,165.0 227.8,165.0 228.7,165.0 229.6,165.0 230.5,165.0 231.4,165.0 232.3,165.0 233.3,165.0 234.2,165.0 235.1,165.0 236.0,165.0 236.9,165.0 237.8,165.0 238.7,165.0 239.7,165.0 240.6,165.0 241.5,165.0 242.4,165.0 243.3,165.0 244.2,165.0 245.2,165.0 246.1,165.0 247.0,165.0 247.9,165.0 248.8,165.0 249.7,165.0 250.7,165.0 251.6,165.0 252.5,165.0 253.4,165.0 254.3,165.0 255.2,165.0 256.2,165.0 257.1,165.0 258.0,165.0 258.9,165.0 259.8,165.0 260.7,165.0 261.7,165.0 262.6,165.0 263.5,165.0 264.4,165.0 265.3,165.0 266.2,165.0 267.2,165.0 268.1,165.0 269.0,165.0 269.9,165.0 270.8,165.0 271.7,165.0 272.6,165.0 273.6,165.0 274.5,165.0 275.4,165.0 276.3,165.0 277.2,165.0 278.2,165.0 279.1,165.0 280.0,165.0 280.9,165.0 281.8,165.0 282.7,165.0 283.7,165.0 284.6,165.0 285.5,165.0 286.4,165.0 287.3,165.0 288.2,165.0 289.2,165.0 290.1,165.0 291.0,165.0 291.9,165.0 292.8,165.0 293.7,165.0 294.7,165.0 295.6,165.0 296.5,165.0 297.4,165.0 298.3,165.0 299.2,165.0 300.2,165.0 301.1,165.0 302.0,165.0 302.9,165.0 303.8,165.0 304.7,165.0 305.6,165.0 306.6,165.0 307.5,165.0 308.4,165.0 309.3,165.0 310.2,165.0 311.1,165.0 312.1,165.0 313.0,165.0 313.9,165.0 314.8,165.0 315.7,165.0 316.6,165.0 317.5,165.0 318.5,165.0 319.4,165.0 320.3,165.0 321.2,165.0 322.1,165.0 323.0,165.0 323.9,165.0 324.9,165.0 325.8,165.0 326.7,165.0 327.6,165.0 328.5,165.0 329.4,165.0 330.4,165.0 331.3,165.0 332.2,165.0 333.1,165.0 334.0,165.0 334.9,165.0 335.8,165.0 336.8,165.0 337.7,165.0 338.6,165.0 339.5,165.0 340.4,165.0 341.3,165.0 342.2,165.0 343.2,165.0 344.1,165.0 345.0,165.0 345.9,165.0 346.8,165.0 347.7,165.0 348.6,165.0 349.6,165.0 350.5,165.0 351.4,165.0 352.3,165.0 353.2,165.0 354.1,165.0 355.0,165.0 356.0,165.0 356.9,165.0 357.8,165.0 358.7,165.0 359.6,165.0 360.5,165.0 361.5,165.0 362.4,165.0 363.3,165.0 364.2,165.0 365.1,165.0 366.0,165.0 367.0,165.0 367.9,165.0 368.8,165.0 369.7,165.0 370.6,165.0 371.5,165.0 372.5,165.0 373.4,165.0 374.3,165.0 375.2,165.0 376.1,165.0 377.0,165.0 378.0,165.0 378.9,165.0 379.8,165.0 380.7,165.0 381.6,165.0 382.5,165.0 383.4,165.0 384.4,165.0 385.3,165.0 386.2,165.0 387.1,165.0 388.0,165.0 388.9,165.0 389.8,165.0 390.8,165.0 391.7,165.0 392.6,165.0 393.5,165.0 394.4,165.0 395.3,165.0 396.3,165.0 397.2,165.0 398.1,165.0 399.0,165.0 399.9,165.0 400.8,165.0 401.8,165.0 402.7,165.0 403.6,165.0 404.5,165.0 405.4,165.0 406.3,165.0 407.2,165.0 408.2,165.0 409.1,165.0 410.0,165.0 410.9,165.0 411.8,165.0 412.7,165.0 413.7,165.0 414.6,165.0 415.5,165.0 416.4,165.0 417.3,165.0 418.2,165.0 419.2,165.0 420.1,165.0 421.0,165.0 421.9,165.0 422.8,165.0 423.8,165.0 424.7,165.0 425.6,165.0 426.5,165.0 427.4,165.0 428.3,165.0 429.3,165.0 430.2,165.0 431.1,165.0 432.0,165.0 432.9,165.0 433.8,165.0 434.8,165.0 435.7,165.0 436.6,165.0 437.5,165.0 438.4,165.0 439.3,165.0 440.3,165.0 441.2,165.0 442.1,165.0 443.0,165.0 443.9,165.0 444.8,165.0 445.8,165.0 446.7,165.0 447.6,165.0 448.5,165.0 449.4,165.0 450.3,165.0 451.2,165.0 452.2,165.0 453.1,165.0 454.0,165.0 454.9,165.0 455.8,165.0 456.7,165.0 457.7,165.0 458.6,165.0 459.5,165.0 460.4,165.0 461.3,165.0 462.3,165.0 463.2,165.0 464.1,165.0 465.0,165.0 465.9,165.0 466.8,165.0 467.7,165.0 468.7,165.0 469.6,165.0 470.5,165.0 471.4,165.0 472.3,165.0 473.2,165.0 474.2,165.0 475.1,165.0 476.0,165.0 476.9,165.0 477.8,165.0 478.7,165.0 479.7,165.0 480.6,165.0 481.5,165.0 482.4,165.0 483.3,165.0 484.2,165.0 485.2,165.0 486.1,165.0 487.0,165.0 487.9,165.0 488.8,165.0 489.7,165.0 490.7,165.0 491.6,165.0 492.5,226.1 493.4,622.4 494.3,620.9 495.2,621.3 496.1,621.6 497.1,621.1 498.0,622.8 498.9,621.4 499.8,622.5 500.7,623.4 501.6,622.6 502.5,622.8 503.5,621.9 504.4,622.1 505.3,623.5 506.2,621.0 507.1,621.7 508.0,622.5 509.0,623.7 509.9,621.4 510.8,624.3 511.7,621.0 512.6,622.9 513.5,624.2 514.4,620.6 515.4,622.5 516.3,622.0 517.2,622.3 518.1,623.6 519.0,624.1 519.9,620.8 520.8,620.6 521.8,622.1 522.7,623.3 523.6,623.5 524.5,622.8 525.4,623.2 526.3,620.9 527.2,620.8 528.2,624.0 529.1,624.3 530.0,622.3 530.9,624.0 531.8,624.0 532.7,622.6 533.6,623.9 534.6,621.9 535.5,622.8 536.4,621.9 537.3,494.6 538.2,447.0 539.1,612.0 540.1,640.1 541.0,592.8 541.9,545.5 542.8,548.7 543.7,548.4 544.6,548.2 545.5,548.2 546.5,548.7 547.4,548.9 548.3,548.2 549.2,548.2 550.1,548.6 551.0,548.6 552.0,548.6 552.9,548.3 553.8,548.9 554.7,548.3 555.6,548.5 556.5,548.3 557.4,548.4 558.4,548.5 559.3,548.7 560.2,548.8 561.1,548.6 562.0,548.3 562.9,548.2 563.8,548.8 564.8,548.6 565.7,548.4 566.6,548.3 567.5,548.7 568.4,549.0 569.3,548.8 570.2,548.5 571.2,548.2 572.1,548.7 573.0,548.3 573.9,548.9 574.8,548.2 575.7,548.9 576.6,548.1 577.6,548.8 578.5,548.5 579.4,548.4 580.3,548.4 581.2,549.0 582.1,548.7 583.0,549.0 584.0,548.8 584.9,548.3 585.8,548.4 586.7,548.2 587.6,548.4 588.5,647.4 589.5,-127.8 590.4,-121.2 591.3,-118.3 592.2,-129.9 593.1,-121.2 594.0,-125.4 594.9,-142.7 595.9,-129.1 596.8,-117.6 597.7,-141.4 598.6,-129.4 599.5,-138.8 600.4,-131.9 601.4,-130.0 602.3,-130.1 603.2,-132.3 604.1,-139.2 605.0,-119.4 605.9,-143.5 606.8,-127.8 607.8,-137.6 608.7,-128.9 609.6,-130.7 610.5,-129.9 611.4,-122.4 612.3,-132.4 613.2,-139.6 614.2,-139.4 615.1,-141.5 616.0,-124.9 616.9,-138.9 617.8,-128.9 618.7,-120.6 619.6,-118.3 620.6,-124.7 621.5,-122.5 622.4,-142.5 623.3,-124.7 624.2,-117.9 625.1,-133.6 626.0,-128.7 627.0,-127.9 627.9,-125.7 628.8,-133.8 629.7,-140.1 630.6,-125.4 631.5,33.0 632.5,44.5 633.4,44.0 634.3,43.7 635.2,36.1 636.1,42.0 637.0,32.5 637.9,46.5 638.9,40.3 639.8,36.3 640.7,35.5 641.6,33.4 642.5,32.5 643.4,41.9 644.3,36.9 645.3,40.4 646.2,35.2 647.1,30.2 648.0,43.8 648.9,48.5 649.8,37.2 650.8,43.0 651.7,32.7 652.6,39.3 653.5,39.3 654.4,29.9 655.3,41.2 656.2,43.4 657.2,37.8 658.1,45.3 659.0,41.7 659.9,39.5 660.8,37.6 661.7,48.0 662.6,35.4 663.6,46.6 664.5,48.3 665.4,33.7 666.3,31.1 667.2,44.0 668.1,44.8 669.0,38.7 670.0,30.5 670.9,42.3 671.8,44.7 672.7,46.9 673.6,48.1 674.5,32.8 675.4,31.4 676.4,31.2 677.3,-613.7 678.2,-632.1 679.1,-624.7 680.0,-590.1 681.0,813.2 681.9,258.8 682.8,259.3 683.7,261.6 684.6,165.0 685.5,165.0 686.4,165.0 687.4,165.0 688.3,165.0 689.2,165.0 690.1,165.0 691.0,165.0 691.9,165.0 692.8,165.0 693.8,165.0 694.7,165.0 695.6,261.6 696.5,365.8 697.4,1574.6 698.4,1552.5 699.3,1563.1 700.2,1572.7 701.1,427.6 702.0,455.1 702.9,456.4 703.9,465.1 704.8,471.4 705.7,474.9 706.6,979.3 707.5,975.6 708.4,984.8 709.3,983.5 710.3,984.3 711.2,981.5 712.1,968.6 713.0,978.9 713.9,970.9 714.8,975.9 715.7,985.3 716.7,977.2 717.6,976.9 718.5,985.4 719.4,984.8 720.3,979.2 721.2,979.5 722.1,984.3 723.1,975.3 724.0,969.9 724.9,968.6 725.8,976.1 726.7,985.1 727.6,970.3 728.5,986.0 729.5,979.3 730.4,985.5 731.3,973.1 732.2,979.6 733.1,970.4 734.0,976.3 734.9,973.2 735.9,969.2 736.8,980.1 737.7,972.7 738.6,972.5 739.5,976.8 740.4,971.5 741.4,968.2 742.3,975.5 743.2,977.1 744.1,969.0 745.0,969.5 745.9,975.2 746.8,973.1 747.8,974.9 748.7,979.8 749.6,983.9 750.5,975.3 751.4,453.7 752.3,142.2 753.3,70.5 754.2,62.0 755.1,56.7 756.0,568.2 756.9,486.2 757.8,507.1 758.8,499.6 759.7,498.2 760.6,137.9 761.5,458.0 762.4,862.3 763.3,855.1 764.2,852.9 765.2,861.5 766.1,862.1 767.0,854.5 767.9,859.6 768.8,860.4 769.7,858.8 770.6,858.9 771.6,852.1 772.5,853.6 773.4,858.9 774.3,853.9 775.2,862.5 776.1,190.0 777.1,179.2 778.0,190.9 778.9,189.2 779.8,179.6 780.7,190.7 781.6,187.8 782.6,553.5 783.5,548.2 784.4,302.2 785.3,300.8 786.2,301.9 787.2,543.1 788.1,118.5 789.0,286.8 789.9,284.7 790.8,285.9 791.7,278.7 792.7,282.8 793.6,560.4 794.5,358.3 795.4,363.0 796.3,362.3 797.2,165.0 798.1,165.0 799.1,165.0 800.0,165.0 800.9,165.0 801.8,165.0 802.7,165.0 803.6,165.0 804.5,165.0 805.5,165.0 806.4,165.0 807.3,165.0 808.2,165.0 809.1,537.6 810.0,464.0 811.0,471.2 811.9,474.8 812.8,476.9 813.7,478.2 814.6,1071.8 815.5,1065.5 816.4,1058.3 817.4,1063.3 818.3,1068.2 819.2,1058.9 820.1,1055.0 821.0,1071.8 821.9,1066.0 822.8,1061.9 823.8,1060.9 824.7,1065.3 825.6,1055.9 826.5,1065.2 827.4,1070.7 828.3,1062.6 829.2,1059.0 830.2,1064.8 831.1,1072.4 832.0,1066.4 832.9,1066.0 833.8,1062.0 834.7,1066.3 835.7,1075.3 836.6,1063.0 837.5,1074.0 838.4,1062.7 839.3,1070.7 840.2,1072.3 841.1,1057.3 842.1,1058.3 843.0,1068.5 843.9,1070.5 844.8,1072.7 845.7,1069.2 846.6,1062.3 847.5,1068.6 848.5,1074.7 849.4,1055.2 850.3,1056.4 851.2,1075.2 852.1,1055.4 853.0,1074.4 853.9,1056.8 854.9,1058.9 855.8,1066.4 856.7,505.2 857.6,648.4 858.5,540.3 859.4,527.2 860.4,515.2 861.3,454.1 862.2,507.0 863.1,340.8 864.0,500.1 864.9,785.6 865.8,787.7 866.8,783.8 867.7,788.4 868.6,782.6 869.5,783.6 870.4,780.1 871.3,781.5 872.2,787.3 873.2,782.9 874.1,782.2 875.0,783.5 875.9,780.2 876.8,783.0 877.7,789.2 878.7,785.5 879.6,789.5 880.5,780.4 881.4,785.1 882.3,782.8 883.2,787.6 884.1,783.3 885.1,780.9 886.0,410.5 886.9,126.6 887.8,501.2 888.7,592.3 889.6,517.6 890.6,648.5 891.5,655.9 892.4,662.7 893.3,663.1 894.2,666.9 895.1,662.3 896.0,663.6 897.0,662.0 897.9,664.3 898.8,663.2 899.7,664.3 900.6,665.1 901.5,665.2 902.5,1160.5 903.4,907.7 904.3,900.1 905.2,907.0 906.1,900.7 907.0,900.9 907.9,905.5 908.9,454.6 909.8,516.2 910.7,604.3 911.6,604.4 912.5,604.2 913.4,603.6 914.4,604.5 915.3,827.2 916.2,808.0 917.1,808.9 918.0,429.7 918.9,1430.7 919.9,449.5 920.8,1758.8 921.7,1502.9 922.6,1508.9 923.5,1514.0 924.5,1513.9" fill="none" stroke="green" stroke-width="1.2" opacity="0.6"/>
<line x1="75" y1="525" x2="925" y2="525" stroke="#333" stroke-width="2"/>
<line x1="75" y1="75" x2="75" y2="525" stroke="#333" stroke-width="2"/>
<line x1="925" y1="75" x2="925" y2="525" stroke="#333" stroke-width="2"/>
<text x="75.0" y="550" text-anchor="middle" font-family="sans-serif" font-size="12">1s</text>
<text x="245.0" y="550" text-anchor="middle" font-family="sans-serif" font-size="12">465s</text>
<text x="415.0" y="550" text-anchor="middle" font-family="sans-serif" font-size="12">930s</text>
<text x="585.0" y="550" text-anchor="middle" font-family="sans-serif" font-size="12">1395s</text>
<text x="755.0" y="550" text-anchor="middle" font-family="sans-serif" font-size="12">1860s</text>
<text x="925.0" y="550" text-anchor="middle" font-family="sans-serif" font-size="12">2324s</text>
<g transform="translate(800, 60)">
<rect width="140" height="70" fill="white" fill-opacity="0.9" stroke="#ccc"/>
<line x1="10" y1="15" x2="40" y2="15" stroke="red" stroke-width="3"/>
<text x="45" y="20" font-family="sans-serif" font-size="14">Voltage</text>
<line x1="10" y1="35" x2="40" y2="35" stroke="blue" stroke-width="2" stroke-dasharray="5,3"/>
<text x="45" y="40" font-family="sans-serif" font-size="14">Current</text>
<line x1="10" y1="55" x2="40" y2="55" stroke="green" stroke-width="1.2"/>
<text x="45" y="60" font-family="sans-serif" font-size="14">Efficiency</text>
</g>
</svg>