<svg viewBox="0 0 1000 600" xmlns="http://www.w3.org/2000/svg">
<rect width="100%" height="100%" fill="#ffffff"/>
<text x="500.0" y="35" text-anchor="middle" font-family="sans-serif" font-size="22" font-weight="bold">Full Charge Cycle: cloudy</text>
<line x1="75" y1="525.0" x2="925" y2="525.0" stroke="#eee" stroke-width="1"/>
<text x="65" y="529.0" text-anchor="end" font-family="sans-serif" font-size="12" fill="red">12.00V</text>
<line x1="75" y1="435.0000000000001" x2="925" y2="435.0000000000001" stroke="#eee" stroke-width="1"/>
<text x="65" y="439.0000000000001" text-anchor="end" font-family="sans-serif" font-size="12" fill="red">12.35V</text>
<line x1="75" y1="345.00000000000017" x2="925" y2="345.00000000000017" stroke="#eee" stroke-width="1"/>
<text x="65" y="349.00000000000017" text-anchor="end" font-family="sans-serif" font-size="12" fill="red">12.69V</text>
<line x1="75" y1="254.99999999999977" x2="925" y2="254.99999999999977" stroke="#eee" stroke-width="1"/>
<text x="65" y="258.9999999999998" text-anchor="end" font-family="sans-serif" font-size="12" fill="red">13.04V</text>
<line x1="75" y1="164.9999999999999" x2="925" y2="164.9999999999999" stroke="#eee" stroke-width="1"/>
<text x="65" y="168.9999999999999" text-anchor="end" font-family="sans-serif" font-size="12" fill="red">13.39V</text>
<line x1="75" y1="74.99999999999994" x2="925" y2="74.99999999999994" stroke="#eee" stroke-width="1"/>
<text x="65" y="78.99999999999994" text-anchor="end" font-family="sans-serif" font-size="12" fill="red">13.73V</text>
<text x="935" y="529.0" text-anchor="start" font-family="sans-serif" font-size="12" fill="blue">-0.05A</text>
<text x="935" y="439.0" text-anchor="start" font-family="sans-serif" font-size="12" fill="blue">0.11A</text>
<text x="935" y="349.0" text-anchor="start" font-family="sans-serif" font-size="12" fill="blue">0.26A</text>
<text x="935" y="259.0" text-anchor="start" font-family="sans-serif" font-size="12" fill="blue">0.42A</text>
<text x="935" y="169.0" text-anchor="start" font-family="sans-serif" font-size="12" fill="blue">0.58A</text>
<text x="935" y="79.00000000000006" text-anchor="start" font-family="sans-serif" font-size="12" fill="blue">0.74A</text>
<polyline points="75.0,525.0 77.1,136.9 79.2,136.9 81.3,137.0 83.4,137.2 85.5,137.2 87.6,137.2 89.7,137.2 91.8,137.2 93.9,137.4 96.0,137.5 98.1,137.6 100.2,135.2 102.3,132.8 104.4,131.0 106.5,129.6 108.6,128.1 110.7,126.9 112.8,125.9 114.9,124.8 117.0,124.1 119.1,123.6 121.2,123.2 123.3,122.7 125.4,122.2 127.5,121.6 129.6,121.0 131.7,120.6 133.8,120.1 135.9,119.7 138.0,119.3 140.1,118.8 142.2,118.5 144.3,118.0 146.4,117.5 148.5,117.2 150.6,116.7 152.7,116.2 154.8,115.9 156.9,115.6 159.0,115.1 161.1,114.8 163.2,114.4 165.3,114.0 167.4,113.8 169.5,113.2 171.6,113.0 173.7,112.6 175.8,112.1 177.9,111.8 180.0,111.4 182.1,111.3 184.2,110.8 186.3,110.6 188.4,110.3 190.5,109.9 192.6,109.5 194.7,109.2 196.8,108.9 198.9,108.4 201.1,108.1 203.2,107.8 205.3,107.6 207.4,107.2 209.5,106.9 211.6,106.5 213.7,106.2 215.8,106.1 217.9,105.7 220.0,105.4 222.1,105.1 224.2,104.8 226.3,104.4 228.4,104.1 230.5,103.9 232.6,103.6 234.7,103.3 236.8,103.1 238.9,102.7 241.0,102.5 243.1,102.1 245.2,101.7 247.3,101.5 249.4,101.1 251.5,100.8 253.6,100.5 255.7,100.4 257.8,100.1 259.9,99.7 262.0,99.4 264.1,99.1 266.2,99.0 268.3,98.5 270.4,98.2 272.5,97.9 274.6,97.8 276.7,97.4 278.8,97.1 280.9,96.9 283.8,96.7 285.9,96.4 288.0,96.1 290.1,95.8 292.2,95.7 294.3,95.4 296.4,95.2 298.5,94.9 300.6,94.7 302.7,94.4 304.8,94.1 306.9,93.7 309.0,93.5 311.1,93.4 313.2,93.1 315.3,92.7 317.4,92.6 319.5,92.3 321.6,92.1 323.7,91.8 325.8,91.6 327.9,91.3 330.0,91.0 332.1,90.8 334.2,90.5 336.3,90.4 338.4,90.0 340.5,89.8 342.6,89.7 344.7,89.4 346.8,89.2 348.9,88.9 351.1,88.7 353.2,88.5 355.3,88.4 357.4,88.1 359.5,87.9 361.6,87.6 363.7,87.3 365.8,87.2 367.9,87.1 370.0,86.8 372.1,86.4 374.2,86.4 376.3,86.2 378.4,85.8 380.5,85.7 382.6,85.4 384.7,85.4 386.8,85.1 388.9,84.9 391.0,84.6 393.1,84.5 395.2,84.4 397.3,84.2 399.4,83.9 401.5,83.7 403.6,83.5 405.7,83.4 407.8,83.3 409.9,82.9 412.0,82.9 414.1,82.6 416.2,82.5 418.3,82.4 420.4,82.1 422.5,82.1 424.6,81.8 426.7,81.7 428.8,81.5 430.9,81.5 433.0,81.2 435.1,81.1 437.2,80.8 439.3,80.8 441.4,80.7 443.5,80.5 445.6,80.4 447.7,80.1 449.8,79.9 451.9,80.0 454.0,79.7 456.1,79.7 458.2,79.5 460.3,79.4 462.4,79.1 464.5,79.1 466.6,78.9 468.7,78.8 470.8,78.7 472.9,78.6 475.0,78.5 477.1,78.2 479.2,78.2 481.3,78.1 483.4,78.0 485.5,77.8 487.6,77.8 489.7,77.6 491.8,77.6 494.7,77.6 496.8,77.4 498.9,77.2 501.1,77.1 503.2,77.0 505.3,77.0 507.4,77.0 509.5,76.9 511.6,76.8 513.7,76.8 515.8,76.5 517.9,76.6 520.0,76.4 522.1,76.3 524.2,76.3 526.3,76.3 528.4,76.1 530.5,76.2 532.6,76.0 534.7,76.0 536.8,76.0 538.9,75.8 541.0,75.8 543.1,75.9 545.2,75.8 547.3,75.7 549.4,75.7 551.5,75.6 553.6,75.5 555.7,75.5 557.8,75.5 559.9,75.5 562.0,75.4 564.1,75.3 566.2,75.2 568.3,75.4 570.4,75.2 572.5,75.2 574.6,75.3 576.7,75.2 578.8,75.2 580.9,75.2 583.0,75.1 585.1,75.2 587.2,75.1 589.3,75.2 591.4,75.0 593.5,75.0 595.6,75.1 597.7,75.1 599.8,75.2 601.9,75.1 604.0,75.0 606.1,75.1 608.2,75.0 610.3,75.3 612.4,75.3 614.5,75.3 616.6,75.2 618.7,75.1 620.8,75.3 622.9,75.2 625.0,75.2 627.1,75.2 629.2,75.3 631.3,75.3 633.4,75.5 635.5,75.3 637.6,75.6 639.7,75.6 641.8,75.4 643.9,75.6 646.0,75.7 648.1,75.8 650.2,75.7 652.3,75.7 654.4,75.9 656.5,75.9 658.6,75.9 660.7,76.0 662.8,76.0 664.9,76.1 667.0,76.1 669.1,76.1 671.2,76.3 673.3,76.4 675.4,76.5 677.5,76.4 679.6,76.4 681.7,76.5 683.8,76.6 685.9,76.7 688.0,76.7 690.1,76.8 692.2,76.8 694.3,77.1 696.4,77.0 698.5,77.0 700.6,77.1 702.7,77.3 705.7,77.2 707.8,77.5 709.9,77.6 712.0,77.5 714.1,77.7 716.2,77.9 718.3,77.8 720.4,77.9 722.5,78.1 724.6,78.1 726.7,78.1 728.8,78.3 730.9,78.5 733.0,78.6 735.1,78.7 737.2,78.8 739.3,78.7 741.4,79.0 743.5,78.9 745.6,79.0 747.7,79.3 749.8,79.4 751.9,79.3 754.0,79.4 756.1,79.6 758.2,79.7 760.3,79.9 762.4,79.9 764.5,80.0 766.6,80.2 768.7,80.4 770.8,80.2 772.9,80.5 775.0,80.7 777.1,80.6 779.2,80.7 781.3,80.9 783.4,81.0 785.5,81.2 787.6,81.3 789.7,81.4 791.8,81.6 793.9,81.5 796.0,81.7 798.1,81.7 800.2,82.0 802.3,82.1 804.4,82.2 806.5,82.4 808.6,82.5 810.7,82.5 812.8,82.7 814.9,82.8 817.0,82.9 819.1,82.9 821.2,83.2 823.3,83.2 825.4,83.4 827.5,83.6 829.6,83.6 831.7,83.8 833.8,83.8 835.9,83.9 838.0,84.1 840.1,84.2 842.2,84.3 844.3,84.5 846.4,84.5 848.5,84.5 850.6,84.7 852.7,84.8 854.8,84.9 856.9,85.1 859.0,85.2 861.1,85.2 863.2,85.5 865.3,85.6 867.4,85.8 869.5,85.9 871.6,85.8 873.7,85.9 875.8,86.1 877.9,86.2 880.0,86.4 882.1,86.4 884.2,86.5 886.3,86.8 888.4,86.9 890.5,86.9 892.6,87.0 894.7,87.2 896.8,87.3 898.9,87.4 901.1,87.5 903.2,87.4 905.3,87.7 907.4,87.8 909.5,87.7 911.6,88.0 913.7,88.0 916.6,88.1 918.7,88.3 920.8,88.2 922.9,88.4 925.0,88.6" fill="none" stroke="red" stroke-width="2.5" opacity="0.8"/>
<polyline points="75.0,496.0 77.1,524.4 79.2,525.0 81.3,524.0 83.4,524.9 85.5,525.0 87.6,524.3 89.7,524.5 91.8,524.3 93.9,524.6 96.0,525.0 98.1,524.3 100.2,464.5 102.3,406.0 104.4,366.8 106.5,333.6 108.6,306.7 110.7,286.4 112.8,268.4 114.9,253.8 117.0,246.7 119.1,244.1 121.2,242.7 123.3,239.8 125.4,237.8 127.5,235.4 129.6,233.0 131.7,230.8 133.8,229.3 135.9,226.2 138.0,223.8 140.1,222.6 142.2,220.0 144.3,217.5 146.4,216.0 148.5,213.8 150.6,211.2 152.7,209.4 154.8,207.4 156.9,205.3 159.0,202.7 161.1,200.2 163.2,198.8 165.3,196.2 167.4,194.1 169.5,192.2 171.6,190.5 173.7,188.7 175.8,185.9 177.9,184.0 180.0,181.8 182.1,179.7 184.2,178.4 186.3,176.5 188.4,174.8 190.5,172.0 192.6,170.8 194.7,168.9 196.8,166.7 198.9,164.2 201.1,163.2 203.2,160.6 205.3,159.6 207.4,157.1 209.5,156.1 211.6,154.1 213.7,152.2 215.8,149.9 217.9,148.3 220.0,146.7 222.1,144.9 224.2,143.5 226.3,141.2 228.4,140.3 230.5,138.7 232.6,137.0 234.7,135.4 236.8,133.8 238.9,131.6 241.0,130.8 243.1,128.7 245.2,127.4 247.3,126.0 249.4,124.7 251.5,123.3 253.6,121.4 255.7,119.9 257.8,118.3 259.9,117.4 262.0,115.9 264.1,114.5 266.2,113.5 268.3,111.8 270.4,111.1 272.5,110.0 274.6,108.2 276.7,107.5 278.8,106.4 280.9,104.9 283.8,104.0 285.9,102.3 288.0,101.8 290.1,100.2 292.2,99.5 294.3,98.1 296.4,96.9 298.5,96.7 300.6,94.8 302.7,94.3 304.8,93.8 306.9,92.5 309.0,92.1 311.1,90.8 313.2,89.4 315.3,89.4 317.4,87.9 319.5,87.3 321.6,86.5 323.7,85.7 325.8,85.9 327.9,85.2 330.0,83.8 332.1,82.9 334.2,82.7 336.3,82.5 338.4,81.5 340.5,80.7 342.6,80.8 344.7,80.4 346.8,79.9 348.9,79.7 351.1,78.4 353.2,78.5 355.3,78.0 357.4,77.2 359.5,77.5 361.6,77.6 363.7,76.7 365.8,76.1 367.9,76.8 370.0,76.1 372.1,76.1 374.2,76.0 376.3,75.6 378.4,75.1 380.5,75.6 382.6,75.0 384.7,75.0 386.8,75.9 388.9,75.9 391.0,76.0 393.1,75.2 395.2,76.0 397.3,75.6 399.4,76.4 401.5,75.9 403.6,76.2 405.7,76.6 407.8,77.1 409.9,77.2 412.0,77.6 414.1,77.3 416.2,77.6 418.3,77.9 420.4,78.3 422.5,79.0 424.6,79.8 426.7,79.5 428.8,80.5 430.9,80.9 433.0,80.8 435.1,81.4 437.2,82.6 439.3,82.9 441.4,83.1 443.5,84.4 445.6,84.7 447.7,85.8 449.8,86.1 451.9,86.6 454.0,88.0 456.1,88.5 458.2,89.4 460.3,89.9 462.4,91.2 464.5,91.5 466.6,92.3 468.7,94.1 470.8,95.0 472.9,95.0 475.0,96.5 477.1,97.8 479.2,98.9 481.3,99.5 483.4,100.7 485.5,101.9 487.6,103.3 489.7,103.9 491.8,104.8 494.7,106.0 496.8,107.9 498.9,108.5 501.1,109.4 503.2,111.5 505.3,112.6 507.4,113.4 509.5,114.5 511.6,116.7 513.7,117.7 515.8,118.7 517.9,120.1 520.0,121.4 522.1,122.7 524.2,125.1 526.3,126.2 528.4,128.0 530.5,128.8 532.6,130.3 534.7,132.6 536.8,134.1 538.9,135.8 541.0,137.3 543.1,138.2 545.2,139.6 547.3,141.5 549.4,143.2 551.5,144.6 553.6,146.6 555.7,148.6 557.8,149.7 559.9,151.6 562.0,154.0 564.1,155.3 566.2,157.4 568.3,159.0 570.4,160.4 572.5,162.1 574.6,164.8 576.7,166.1 578.8,168.5 580.9,169.6 583.0,172.1 585.1,173.8 587.2,176.4 589.3,178.4 591.4,180.1 593.5,181.5 595.6,183.5 597.7,185.5 599.8,187.9 601.9,189.6 604.0,192.1 606.1,194.1 608.2,195.8 610.3,198.1 612.4,200.2 614.5,201.8 616.6,204.6 618.7,206.8 620.8,208.2 622.9,210.5 625.0,212.3 627.1,214.3 629.2,217.0 631.3,219.4 633.4,221.5 635.5,223.4 637.6,225.9 639.7,228.3 641.8,229.7 643.9,232.1 646.0,234.5 648.1,237.1 650.2,239.0 652.3,241.5 654.4,243.0 656.5,246.1 658.6,247.7 660.7,250.6 662.8,252.8 664.9,254.4 667.0,257.1 669.1,259.1 671.2,261.7 673.3,263.6 675.4,266.1 677.5,268.6 679.6,270.8 681.7,273.3 683.8,275.4 685.9,278.0 688.0,280.2 690.1,282.1 692.2,284.2 694.3,287.4 696.4,289.1 698.5,292.1 700.6,293.6 702.7,295.9 705.7,299.2 707.8,301.1 709.9,303.0 712.0,306.1 714.1,308.0 716.2,309.9 718.3,312.3 720.4,314.9 722.5,317.0 724.6,320.1 726.7,322.4 728.8,324.2 730.9,326.4 733.0,329.2 735.1,330.9 737.2,333.5 739.3,335.7 741.4,338.4 743.5,340.9 745.6,343.0 747.7,344.5 749.8,347.5 751.9,349.3 754.0,351.3 756.1,354.4 758.2,356.0 760.3,358.2 762.4,361.3 764.5,363.1 766.6,365.0 768.7,367.3 770.8,369.8 772.9,371.9 775.0,374.2 777.1,376.6 779.2,378.6 781.3,380.5 783.4,382.6 785.5,385.6 787.6,387.8 789.7,388.9 791.8,392.1 793.9,393.2 796.0,396.3 798.1,398.3 800.2,400.0 802.3,402.0 804.4,404.2 806.5,406.0 808.6,408.1 810.7,409.9 812.8,412.0 814.9,414.2 817.0,416.9 819.1,418.1 821.2,420.4 823.3,422.8 825.4,424.4 827.5,426.3 829.6,428.1 831.7,430.4 833.8,431.5 835.9,434.4 838.0,435.3 840.1,437.3 842.2,439.7 844.3,441.1 846.4,443.6 848.5,445.2 850.6,446.7 852.7,448.5 854.8,450.2 856.9,451.9 859.0,453.5 861.1,455.0 863.2,457.0 865.3,458.8 867.4,460.0 869.5,461.9 871.6,463.7 873.7,465.6 875.8,467.2 877.9,468.5 880.0,470.0 882.1,471.4 884.2,472.4 886.3,474.3 888.4,475.5 890.5,477.5 892.6,478.5 894.7,479.8 896.8,481.8 898.9,483.2 901.1,484.2 903.2,485.8 905.3,486.9 907.4,488.0 909.5,489.2 911.6,490.9 913.7,491.6 916.6,493.2 918.7,494.0 920.8,495.0 922.9,496.7 925.0,497.7" fill="none" stroke="blue" stroke-width="1.5" stroke-dasharray="5,3"/>
<line x1="75" y1="525" x2="925" y2="525" stroke="#333" stroke-width="2"/>
<line x1="75" y1="75" x2="75" y2="525" stroke="#333" stroke-width="2"/>
<line x1="925" y1="75" x2="925" y2="525" stroke="#333" stroke-width="2"/>
<text x="75.0" y="550" text-anchor="middle" font-family="sans-serif" font-size="12">0s</text>
<text x="245.0" y="550" text-anchor="middle" font-family="sans-serif" font-size="12">8s</text>
<text x="415.0" y="550" text-anchor="middle" font-family="sans-serif" font-size="12">16s</text>
<text x="585.0" y="550" text-anchor="middle" font-family="sans-serif" font-size="12">24s</text>
<text x="755.0" y="550" text-anchor="middle" font-family="sans-serif" font-size="12">33s</text>
<text x="925.0" y="550" text-anchor="middle" font-family="sans-serif" font-size="12">41s</text>
<g transform="translate(800, 60)">
<rect width="140" height="70" fill="white" fill-opacity="0.9" stroke="#ccc"/>
<line x1="10" y1="15" x2="40" y2="15" stroke="red" stroke-width="3"/>
<text x="45" y="20" font-family="sans-serif" font-size="14">Voltage</text>
<line x1="10" y1="35" x2="40" y2="35" stroke="blue" stroke-width="2" stroke-dasharray="5,3"/>
<text x="45" y="40" font-family="sans-serif" font-size="14">Current</text>
</g>
</svg>