<svg viewBox="0 0 1000 500" xmlns="http://www.w3.org/2000/svg">
<rect width="100%" height="100%" fill="#ffffff"/>
<text x="500.0" y="35" text-anchor="middle" font-family="sans-serif" font-size="22" font-weight="bold">Outgassing Characterization Detail (Zoom): cold</text>
<line x1="70" y1="430.0" x2="930" y2="430.0" stroke="#eee" stroke-width="1"/>
<text x="65" y="434.0" text-anchor="end" font-family="sans-serif" font-size="12" fill="red">13.66V</text>
<line x1="70" y1="357.99999999999847" x2="930" y2="357.99999999999847" stroke="#eee" stroke-width="1"/>
<text x="65" y="361.99999999999847" text-anchor="end" font-family="sans-serif" font-size="12" fill="red">13.69V</text>
<line x1="70" y1="286.0000000000008" x2="930" y2="286.0000000000008" stroke="#eee" stroke-width="1"/>
<text x="65" y="290.0000000000008" text-anchor="end" font-family="sans-serif" font-size="12" fill="red">13.73V</text>
<line x1="70" y1="213.99999999999923" x2="930" y2="213.99999999999923" stroke="#eee" stroke-width="1"/>
<text x="65" y="217.99999999999923" text-anchor="end" font-family="sans-serif" font-size="12" fill="red">13.76V</text>
<line x1="70" y1="142.00000000000153" x2="930" y2="142.00000000000153" stroke="#eee" stroke-width="1"/>
<text x="65" y="146.00000000000153" text-anchor="end" font-family="sans-serif" font-size="12" fill="red">13.79V</text>
<line x1="70" y1="70.0" x2="930" y2="70.0" stroke="#eee" stroke-width="1"/>
<text x="65" y="74.0" text-anchor="end" font-family="sans-serif" font-size="12" fill="red">13.83V</text>
<text x="935" y="434.0" text-anchor="start" font-family="sans-serif" font-size="12" fill="blue">-0.05A</text>
<text x="935" y="362.0" text-anchor="start" font-family="sans-serif" font-size="12" fill="blue">0.11A</text>
<text x="935" y="290.0" text-anchor="start" font-family="sans-serif" font-size="12" fill="blue">0.26A</text>
<text x="935" y="217.99999999999997" text-anchor="start" font-family="sans-serif" font-size="12" fill="blue">0.42A</text>
<text x="935" y="146.0" text-anchor="start" font-family="sans-serif" font-size="12" fill="blue">0.58A</text>
<text x="935" y="73.99999999999994" text-anchor="start" font-family="sans-serif" font-size="12" fill="blue">0.73A</text>
<polyline points="70.0,430.0 70.8,283.0 71.3,275.4 71.9,269.5 72.5,260.8 73.0,254.5 73.6,247.9 74.1,241.8 74.7,236.2 75.2,229.4 75.8,224.2 76.4,218.7 76.9,213.0 77.5,208.9 78.0,203.9 78.6,199.1 79.1,194.3 79.7,189.7 80.3,184.5 80.8,181.2 81.4,177.9 81.9,174.0 82.5,168.3 83.0,165.9 83.6,306.4 84.1,166.4 84.7,306.6 85.3,168.3 85.8,308.1 86.4,167.7 86.9,306.6 87.5,168.8 88.0,307.9 88.6,167.0 89.2,308.1 89.7,169.0 90.3,307.0 90.8,168.3 91.4,307.0 91.9,168.3 92.5,307.0 93.1,167.7 93.6,306.1 94.2,167.0 94.7,305.1 95.3,167.0 95.8,305.1 96.4,166.2 97.0,304.6 97.5,165.3 98.1,304.8 98.6,164.4 99.2,302.7 99.7,162.2 100.3,303.1 100.9,162.7 101.4,302.4 102.0,161.1 102.5,300.9 103.1,161.4 103.6,300.0 104.2,158.5 104.8,297.4 105.3,158.1 105.9,297.2 106.4,156.6 107.0,295.7 107.5,155.9 108.1,295.5 108.7,155.9 109.2,292.8 109.8,153.1 110.3,292.6 110.9,152.9 111.4,292.2 112.0,150.7 112.6,290.4 113.1,150.2 113.7,288.9 114.2,149.8 114.8,288.5 115.3,148.3 115.9,285.7 116.5,145.4 117.0,285.2 117.6,146.1 118.1,284.3 118.7,143.0 119.2,283.0 119.8,143.3 120.4,281.7 120.9,140.4 121.5,280.9 122.0,138.9 122.6,277.6 123.1,138.9 123.7,276.9 124.3,137.4 124.8,275.4 125.4,135.6 125.9,275.2 126.5,134.1 127.0,272.4 127.6,133.7 128.2,273.0 128.7,131.3 129.3,271.5 129.8,129.7 130.4,269.7 130.9,129.7 131.5,268.2 132.1,127.1 132.6,265.6 133.2,126.5 133.7,265.6 134.3,124.9 134.8,263.8 135.4,124.5 136.0,261.4 136.5,123.2 137.1,261.9 137.6,120.2 138.2,258.6 138.7,119.1 139.3,257.3 139.9,117.5 140.4,256.4 141.0,117.1 141.5,254.7 142.1,116.2 142.6,255.1 143.2,115.6 143.8,252.5 144.3,113.6 144.9,251.9 145.4,111.9 146.0,249.7 146.5,110.3 147.1,249.5 147.7,109.2 148.2,246.8 148.8,107.1 149.3,245.3 149.9,106.4 150.4,244.4 151.0,105.1 151.6,243.1 152.1,102.7 152.7,242.0 153.2,101.8 153.8,239.6 154.3,101.6 154.9,239.2 155.5,100.3 156.0,238.6 156.6,98.3 157.1,237.0 157.7,96.6 158.2,234.6 158.8,94.6 159.4,233.3 159.9,93.1 160.5,232.0 161.0,92.0 161.6,231.1 162.1,91.2 162.7,230.0 163.3,89.2 163.8,227.4 164.4,89.0 164.9,226.1 165.5,86.8 166.0,224.2 166.6,86.1 167.2,223.7 167.7,85.0 168.3,221.3 168.8,82.4 169.4,221.5 169.9,80.5 170.5,219.4 171.1,79.6 171.6,217.6 172.2,78.7 172.7,215.9 173.3,77.4 173.8,216.3 174.4,77.2 175.0,213.5 175.5,74.6 176.1,211.7 176.6,74.4 177.2,210.6 177.7,72.2 178.3,208.9 178.9,70.0 179.4,207.8 180.0,212.2 180.5,215.0 181.1,217.8 181.6,221.1 182.2,223.5 182.8,225.9 183.3,228.7 183.9,231.8 184.4,234.4 185.0,235.7 185.5,236.8 186.1,238.6 186.6,241.0 187.2,243.3 187.8,245.5 188.3,246.2 188.9,249.0 189.4,249.5 190.0,249.7 190.5,253.2 191.1,253.4 191.7,253.6 192.2,255.3 192.8,256.2 193.3,257.5 193.9,260.1 194.4,260.6 195.0,260.8 195.6,261.0 196.1,261.9 196.7,263.2 197.2,264.3 197.8,265.4 198.3,266.5 198.9,266.7 199.5,266.5 200.0,267.1 200.6,267.3 201.1,268.9 201.7,270.4 202.2,270.8 202.8,270.8 203.4,271.3 203.9,271.9 204.5,271.7 205.0,272.8 205.6,273.0 206.1,273.0 206.7,273.4 207.3,275.0 207.8,273.4 208.4,273.7 208.9,276.1 209.5,275.8 210.0,275.0 210.6,276.9 211.2,275.8 211.7,276.1 212.3,276.7 212.8,278.2 213.4,276.9 213.9,278.0 214.5,277.1 215.1,278.5 215.6,278.0 216.2,278.7 216.7,279.3 217.3,278.7 217.8,279.1 218.4,279.3 219.0,280.6 219.5,279.5 220.1,279.3 220.6,280.2 221.2,279.5 221.7,281.1 222.3,280.2 222.9,281.5 223.4,281.1 224.0,281.9 224.5,280.4 225.1,281.1 225.6,281.5 226.2,282.2 226.8,281.3 227.3,281.9 227.9,283.3 228.4,282.2 229.0,283.0 229.5,282.2 230.1,282.8 230.7,283.9 231.2,283.0 231.8,282.4 232.3,283.3 232.9,283.9 233.4,284.8 234.0,284.3 234.6,283.0 235.1,283.9 235.7,284.8 236.2,284.1 236.8,284.3 237.3,284.3 237.9,284.6 238.5,284.1 239.0,285.9 239.6,285.2 240.1,285.4 240.7,285.4 241.2,286.5 241.8,286.3 242.4,285.2 242.9,284.8 243.5,286.3 244.0,285.9 244.6,285.9 245.1,286.7 245.7,285.2 246.3,287.2 246.8,285.9 247.4,286.7 247.9,286.1 248.5,287.6 249.0,287.0 249.6,287.0 250.2,288.0 250.7,288.0 251.3,287.4 251.8,286.7 252.4,288.7 252.9,288.7 253.5,287.8 254.1,287.6 254.6,289.1 255.2,287.6 255.7,288.5 256.3,288.3 256.8,287.8 257.4,289.1 258.0,289.6 258.5,289.4 259.1,289.1 259.6,288.3 260.2,289.8 260.7,288.5 261.3,288.3 261.9,288.7 262.4,289.4 263.0,290.4 263.5,290.0 264.1,290.9 264.6,290.9 265.2,289.8 265.8,290.2 266.3,289.6 266.9,289.8 267.4,290.9 268.0,291.3 268.5,289.8 269.1,291.5 269.7,290.7 270.2,291.5 270.8,292.0 271.3,290.7 271.9,292.4 272.4,291.3 273.0,291.8 273.6,292.0 274.1,290.7 274.7,291.8 275.2,292.0 275.8,291.3 276.3,291.5 276.9,291.5 277.5,291.8 278.0,292.8 278.6,292.8 279.1,293.7 279.7,292.8 280.2,292.8 280.8,292.4 281.4,292.6 281.9,293.9 282.5,293.9 283.0,293.5 283.6,294.2 284.1,293.1 284.7,293.1 285.3,293.9 285.8,294.4 286.4,295.0 286.9,295.0 287.5,294.2 288.0,295.2 288.6,295.0 289.2,294.6 289.7,294.6 290.3,294.4 290.8,294.2 291.4,294.6 291.9,294.6 292.5,295.0 293.0,295.0 293.6,295.0 294.2,296.6 294.7,295.9 295.3,296.3 295.8,295.9 296.4,295.7 296.9,295.2 297.5,296.1 298.1,296.3 298.6,295.9 299.2,296.3 299.7,296.3 300.3,296.1 300.8,297.2 301.4,297.6 302.0,296.6 302.5,297.4 303.1,297.2 303.6,297.2 304.2,297.0 304.7,298.3 305.3,298.5 305.9,296.6 306.4,298.1 307.0,297.0 307.5,299.0 308.1,297.4 308.6,297.2 309.2,297.4 309.8,299.2 310.3,298.5 310.9,298.7 311.4,298.3 312.0,298.5 312.5,299.6 313.1,299.0 313.7,298.3 314.2,299.6 314.8,300.0 315.3,300.5 315.9,300.0 316.4,300.5 317.0,300.0 317.6,300.0 318.1,299.0 318.7,300.5 319.2,301.1 319.8,299.8 320.3,300.3 320.9,300.3 321.5,300.3 322.0,300.0 322.6,301.4 323.1,300.3 323.7,301.8 324.2,300.3 324.8,302.2 325.4,302.0 325.9,301.8 326.5,302.4 327.0,301.4 327.6,301.1 328.1,302.0 328.7,302.4 329.3,302.9 329.8,301.6 330.4,303.1 330.9,303.1 331.5,301.8 332.0,303.1 332.6,303.1 333.2,302.2 333.7,303.1 334.3,302.7 334.8,302.2 335.4,303.7 335.9,302.7 336.5,302.9 337.1,304.2 337.6,302.9 338.2,303.7 338.7,304.2 339.3,303.1 339.8,304.8 340.4,303.3 341.0,303.3 341.5,305.3 342.1,305.5 342.6,304.8 343.2,304.0 343.7,305.3 344.3,304.6 344.9,305.9 345.4,305.3 346.0,304.4 346.5,304.4 347.1,304.6 347.6,304.6 348.2,306.1 348.8,305.5 349.3,306.6 349.9,305.3 350.4,306.1 351.0,307.0 351.5,306.6 352.1,306.6 352.7,306.6 353.2,307.0 353.8,307.5 354.3,307.0 354.9,307.5 355.4,307.9 356.0,307.2 356.6,306.1 357.1,306.4 357.7,308.1 358.2,306.8 358.8,306.8 359.3,306.6 359.9,307.9 360.5,307.7 361.0,307.0 361.6,308.3 362.1,309.0 362.7,308.3 363.2,309.0 363.8,308.1 364.4,307.7 364.9,309.0 365.5,307.7 366.0,308.3 366.6,309.4 367.1,309.9 367.7,310.1 368.3,309.6 368.8,309.2 369.4,309.2 369.9,309.9 370.5,310.7 371.0,309.4 371.6,309.9 372.2,309.6 372.7,310.1 373.3,310.7 373.8,310.5 374.4,310.3 374.9,311.2 375.5,310.1 376.1,311.2 376.6,311.6 377.2,311.2 377.7,310.5 378.3,311.4 378.8,311.2 379.4,312.0 380.0,311.4 380.5,311.6 381.1,312.3 381.6,312.3 382.2,310.7 382.7,310.9 383.3,312.5 383.9,312.7 384.4,311.2 385.0,312.3 385.5,312.9 386.1,312.9 386.6,313.1 387.2,313.6 387.8,313.6 388.3,313.3 388.9,312.3 389.4,312.3 390.0,313.1 390.5,313.8 391.1,314.0 391.7,312.9 392.2,313.6 392.8,313.3 393.3,314.4 393.9,313.1 394.4,314.7 395.0,315.3 395.5,315.3 396.1,314.9 396.7,315.7 397.2,314.9 397.8,315.1 398.3,315.3 398.9,314.7 399.4,316.2 400.0,314.4 400.6,316.2 401.1,316.4 401.7,316.0 402.2,315.7 402.8,316.6 403.3,315.3 403.9,315.7 404.5,317.1 405.0,315.7 405.6,315.3 406.1,316.2 406.7,316.6 407.2,316.8 407.8,317.1 408.4,317.7 408.9,316.2 409.5,316.8 410.0,316.2 410.6,316.6 411.1,317.3 411.7,317.9 412.3,316.4 412.8,318.4 413.4,316.8 413.9,318.8 414.5,318.1 415.0,318.4 415.6,319.0 416.2,319.2 416.7,318.1 417.3,317.7 417.8,319.2 418.4,318.4 418.9,319.7 419.5,319.4 420.1,318.8 420.6,318.1 421.2,319.9 421.7,319.2 422.3,319.2 422.8,319.4 423.4,320.1 424.0,320.1 424.5,320.8 425.1,319.4 425.6,320.8 426.2,321.0 426.7,319.2 427.3,320.8 427.9,321.0 428.4,319.7 429.0,321.0 429.5,321.6 430.1,321.0 430.6,320.1 431.2,321.0 431.8,321.2 432.3,321.6 432.9,321.0 433.4,320.8 434.0,320.5 434.5,321.0 435.1,322.7 435.7,322.7 436.2,322.1 436.8,322.7 437.3,321.8 437.9,321.6 438.4,322.5 439.0,322.9 439.6,321.4 440.1,323.4 440.7,323.4 441.2,323.6 441.8,321.8 442.3,324.0 442.9,324.0 443.5,324.0 444.0,323.6 444.6,323.6 445.1,323.4 445.7,322.9 446.2,323.2 446.8,323.6 447.4,323.4 447.9,323.8 448.5,324.2 449.0,325.3 449.6,324.9 450.1,323.6 450.7,325.1 451.3,324.7 451.8,325.3 452.4,324.7 452.9,324.9 453.5,325.6 454.0,326.2 454.6,325.3 455.2,324.5 455.7,326.4 456.3,324.7 456.8,326.0 457.4,326.9 457.9,325.6 458.5,325.3 459.1,327.3 459.6,325.8 460.2,326.0 460.7,326.4 461.3,327.3 461.8,325.8 462.4,325.8 463.0,327.5 463.5,326.6 464.1,327.5 464.6,328.2 465.2,327.1 465.7,327.1 466.3,326.4 466.9,328.0 467.4,328.6 468.0,327.1 468.5,327.7 469.1,327.1 469.6,328.6 470.2,328.8 470.8,329.5 471.3,329.3 471.9,329.5 472.4,328.0 473.0,328.2 473.5,328.8 474.1,329.7 474.7,329.3 475.2,328.8 475.8,329.7 476.3,329.3 476.9,328.6 477.4,330.6 478.0,328.6 478.6,330.4 479.1,329.0 479.7,330.6 480.2,330.6 480.8,329.9 481.3,329.3 481.9,331.2 482.5,330.4 483.0,330.6 483.6,331.4 484.1,331.0 484.7,331.9 485.2,331.7 485.8,332.1 486.4,332.3 486.9,331.0 487.5,330.4 488.0,331.2 488.6,331.2 489.1,332.1 489.7,330.8 490.3,331.7 490.8,333.0 491.4,333.2 491.9,332.7 492.5,332.5 493.0,332.5 493.6,333.4 494.2,333.8 494.7,332.1 495.3,332.3 495.8,332.3 496.4,332.1 496.9,333.4 497.5,332.3 498.1,333.8 498.6,334.1 499.2,334.7 499.7,334.3 500.3,334.3 500.8,334.5 501.4,334.5 501.9,334.5 502.5,334.7 503.1,333.4 503.6,334.9 504.2,334.9 504.7,334.9 505.3,335.1 505.8,334.1 506.4,336.0 507.0,334.9 507.5,334.7 508.1,335.8 508.6,334.7 509.2,335.1 509.7,334.9 510.3,335.1 510.9,336.0 511.4,336.9 512.0,337.1 512.5,335.8 513.1,337.3 513.6,336.7 514.2,335.4 514.8,336.2 515.3,337.5 515.9,337.3 516.4,337.5 517.0,337.8 517.5,337.5 518.1,338.0 518.7,336.9 519.2,337.1 519.8,338.4 520.3,337.1 520.9,336.7 521.4,338.9 522.0,337.5 522.6,338.4 523.1,338.6 523.7,337.3 524.2,338.2 524.8,338.6 525.3,339.1 525.9,339.1 526.5,338.0 527.0,338.6 527.6,339.7 528.1,338.6 528.7,339.1 529.2,338.6 529.8,338.4 530.4,338.9 530.9,338.4 531.5,340.4 532.0,339.1 532.6,339.5 533.1,340.2 533.7,340.2 534.3,340.6 534.8,340.6 535.4,340.8 535.9,340.8 536.5,340.6 537.0,340.2 537.6,339.9 538.2,341.5 538.7,340.6 539.3,341.9 539.8,341.3 540.4,341.0 540.9,340.6 541.5,341.3 542.1,341.5 542.6,341.7 543.2,341.5 543.7,342.3 544.3,342.1 544.8,342.3 545.4,341.9 546.0,341.5 546.5,343.4 547.1,341.7 547.6,343.4 548.2,343.4 548.7,343.7 549.3,343.9 549.9,344.1 550.4,343.9 551.0,343.7 551.5,343.9 552.1,342.6 552.6,344.5 553.2,343.2 553.8,344.1 554.3,344.1 554.9,343.9 555.4,344.3 556.0,343.9 556.5,343.4 557.1,345.0 557.7,345.4 558.2,343.9 558.8,345.2 559.3,345.0 559.9,345.6 560.4,345.8 561.0,344.5 561.6,344.7 562.1,345.0 562.7,345.0 563.2,345.2 563.8,345.2 564.3,346.3 564.9,345.6 565.5,346.1 566.0,345.6 566.6,346.5 567.1,345.6 567.7,346.7 568.2,346.5 568.8,345.8 569.4,347.1 569.9,346.1 570.5,346.5 571.0,346.3 571.6,347.8 572.1,346.9 572.7,348.0 573.3,347.4 573.8,347.1 574.4,347.4 574.9,347.1 575.5,348.7 576.0,348.0 576.6,347.1 577.2,347.4 577.7,348.7 578.3,349.3 578.8,349.3 579.4,348.9 579.9,348.7 580.5,348.4 581.1,348.4 581.6,348.0 582.2,350.0 582.7,349.8 583.3,350.4 583.8,350.2 584.4,349.5 585.0,350.2 585.5,350.6 586.1,349.3 586.6,348.9 587.2,349.5 587.7,351.1 588.3,350.2 588.9,350.4 589.4,350.6 590.0,350.8 590.5,351.1 591.1,350.0 591.6,351.9 592.2,350.0 592.8,350.6 593.3,350.2 593.9,351.7 594.4,352.4 595.0,351.3 595.5,351.1 596.1,352.4 596.7,351.1 597.2,352.4 597.8,350.8 598.3,352.8 598.9,352.2 599.4,352.6 600.0,352.4 600.6,353.0 601.1,353.2 601.7,353.2 602.2,352.2 602.8,352.4 603.3,353.7 603.9,352.6 604.5,352.8 605.0,353.7 605.6,353.7 606.1,354.3 606.7,352.8 607.2,353.2 607.8,353.7 608.3,353.7 608.9,354.8 609.5,354.6 610.0,353.7 610.6,355.2 611.1,355.0 611.7,354.8 612.2,355.4 612.8,354.8 613.4,354.8 613.9,354.3 614.5,354.1 615.0,356.3 615.6,354.1 616.1,356.1 616.7,354.8 617.3,355.0 617.8,355.6 618.4,355.2 618.9,356.1 619.5,355.2 620.0,357.0 620.6,355.4 621.2,357.4 621.7,357.2 622.3,355.6 622.8,355.6 623.4,356.5 623.9,356.1 624.5,357.0 625.1,356.1 625.6,357.0 626.2,358.0 626.7,358.0 627.3,357.0 627.8,357.8 628.4,358.0 629.0,357.6 629.5,357.8 630.1,358.3 630.6,357.8 631.2,357.2 631.7,358.0 632.3,358.9 632.9,357.4 633.4,359.6 634.0,357.8 634.5,358.5 635.1,357.8 635.6,358.7 636.2,358.0 636.8,358.7 637.3,359.6 637.9,358.9 638.4,360.7 639.0,359.4 639.5,359.1 640.1,359.6 640.7,360.7 641.2,359.4 641.8,359.1 642.3,360.4 642.9,360.7 643.4,360.4 644.0,361.5 644.6,360.7 645.1,360.7 645.7,360.7 646.2,360.4 646.8,361.3 647.3,362.0 647.9,360.2 648.5,361.5 649.0,362.4 649.6,361.5 650.1,361.1 650.7,360.9 651.2,362.6 651.8,362.4 652.4,361.5 652.9,363.3 653.5,362.4 654.0,361.5 654.6,362.8 655.1,363.1 655.7,362.8 656.3,363.3 656.8,362.6 657.4,364.1 657.9,362.6 658.5,363.3 659.0,362.4 659.6,364.6 660.2,363.3 660.7,364.4 661.3,363.1 661.8,363.7 662.4,363.1 662.9,363.7 663.5,364.1 664.1,364.1 664.6,365.5 665.2,364.1 665.7,365.7 666.3,365.2 666.8,365.0 667.4,364.4 668.0,365.5 668.5,365.9 669.1,365.0 669.6,365.0 670.2,365.9 670.7,366.5 671.3,364.8 671.9,365.0 672.4,365.7 673.0,366.5 673.5,367.0 674.1,365.7 674.6,367.2 675.2,365.7 675.8,366.3 676.3,366.3 676.9,365.9 677.4,367.6 678.0,367.2 678.5,366.1 679.1,367.0 679.7,368.3 680.2,366.5 680.8,367.9 681.3,367.9 681.9,368.5 682.4,367.4 683.0,368.7 683.6,368.1 684.1,367.6 684.7,369.2 685.2,368.1 685.8,367.9 686.3,369.2 686.9,368.3 687.5,369.6 688.0,368.3 688.6,368.7 689.1,369.6 689.7,369.8 690.2,368.7 690.8,370.0 691.4,368.9 691.9,368.5 692.5,369.2 693.0,370.7 693.6,369.4 694.1,370.5 694.7,370.7 695.3,370.0 695.8,370.0 696.4,369.4 696.9,371.1 697.5,371.3 698.0,370.5 698.6,371.1 699.2,371.6 699.7,371.6 700.3,371.3 700.8,371.3 701.4,372.0 701.9,371.8 702.5,370.9 703.1,371.1 703.6,372.7 704.2,371.1 704.7,372.2 705.3,371.3 705.8,371.3 706.4,371.8 707.0,372.4 707.5,371.8 708.1,372.4 708.6,371.8 709.2,373.3 709.7,372.2 710.3,373.3 710.8,372.4 711.4,373.5 712.0,373.5 712.5,372.2 713.1,374.0 713.6,373.1 714.2,373.5 714.7,374.0 715.3,374.2 715.9,373.3 716.4,373.5 717.0,374.8 717.5,373.5 718.1,375.5 718.6,374.6 719.2,375.5 719.8,374.4 720.3,375.3 720.9,374.8 721.4,374.2 722.0,375.9 722.5,375.7 723.1,374.6 723.7,374.6 724.2,374.8 724.8,375.1 725.3,374.8 725.9,375.3 726.4,376.4 727.0,375.7 727.6,376.1 728.1,375.7 728.7,376.8 729.2,376.6 729.8,375.9 730.3,377.7 730.9,376.6 731.5,377.5 732.0,377.9 732.6,377.0 733.1,377.7 733.7,378.1 734.2,377.0 734.8,377.7 735.4,377.7 735.9,378.5 736.5,378.3 737.0,378.1 737.6,378.8 738.1,377.2 738.7,378.5 739.3,378.1 739.8,379.4 740.4,377.5 740.9,377.9 741.5,378.8 742.0,378.5 742.6,379.2 743.2,379.8 743.7,379.2 744.3,378.3 744.8,379.0 745.4,379.4 745.9,380.3 746.5,380.1 747.1,379.0 747.6,379.2 748.2,379.0 748.7,379.8 749.3,379.6 749.8,381.2 750.4,380.1 751.0,381.6 751.5,379.8 752.1,379.6 752.6,381.4 753.2,380.1 753.7,380.3 754.3,381.4 754.9,381.2 755.4,382.0 756.0,381.6 756.5,380.7 757.1,380.9 757.6,382.5 758.2,382.0 758.8,382.2 759.3,380.9 759.9,382.0 760.4,381.2 761.0,382.9 761.5,382.2 762.1,383.1 762.7,381.8 763.2,383.6 763.8,382.5 764.3,383.1 764.9,382.5 765.4,383.6 766.0,383.8 766.6,383.3 767.1,384.2 767.7,383.8 768.2,382.9 768.8,384.2 769.3,383.6 769.9,383.3 770.5,384.4 771.0,383.3 771.6,384.9 772.1,385.1 772.7,384.9 773.2,384.9 773.8,384.2 774.4,384.0 774.9,384.9 775.5,385.5 776.0,385.7 776.6,385.1 777.1,384.9 777.7,386.0 778.3,386.4 778.8,386.0 779.4,385.7 779.9,384.9 780.5,385.7 781.0,387.0 781.6,386.8 782.2,386.6 782.7,387.3 783.3,386.0 783.8,387.0 784.4,387.0 784.9,386.8 785.5,387.0 786.1,387.7 786.6,387.0 787.2,387.9 787.7,387.9 788.3,387.3 788.8,388.6 789.4,388.1 790.0,387.5 790.5,387.7 791.1,387.3 791.6,387.9 792.2,387.0 792.7,388.4 793.3,388.6 793.9,388.1 794.4,388.6 795.0,388.1 795.5,389.0 796.1,389.7 796.6,389.7 797.2,389.9 797.8,388.1 798.3,388.4 798.9,388.8 799.4,389.4 800.0,390.3 800.5,390.3 801.1,388.8 801.7,389.4 802.2,389.0 802.8,389.9 803.3,390.3 803.9,389.9 804.4,390.3 805.0,389.9 805.6,389.9 806.1,391.6 806.7,391.6 807.2,390.3 807.8,390.3 808.3,390.8 808.9,392.3 809.5,391.0 810.0,391.8 810.6,392.1 811.1,391.4 811.7,391.8 812.2,391.2 812.8,391.6 813.4,392.5 813.9,391.6 814.5,393.1 815.0,391.6 815.6,391.6 816.1,392.5 816.7,392.5 817.2,392.9 817.8,393.1 818.4,392.3 818.9,392.9 819.5,393.4 820.0,393.8 820.6,392.7 821.1,394.2 821.7,393.8 822.3,392.7 822.8,394.0 823.4,393.6 823.9,393.8 824.5,392.9 825.0,394.2 825.6,394.2 826.2,395.5 826.7,394.5 827.3,395.3 827.8,394.0 828.4,395.1 828.9,394.0 829.5,395.3 830.1,395.8 830.6,396.2 831.2,396.2 831.7,394.5 832.3,394.9 832.8,394.9 833.4,395.5 834.0,395.3 834.5,395.3 835.1,395.5 835.6,395.8 836.2,395.5 836.7,395.8 837.3,397.5 837.9,395.8 838.4,395.5 839.0,395.8 839.5,397.7 840.1,397.9 840.6,397.3 841.2,396.2 841.8,398.2 842.3,397.1 842.9,396.9 843.4,397.3 844.0,397.9 844.5,396.9 845.1,397.9 845.7,398.8 846.2,397.3 846.8,399.0 847.3,397.9 847.9,398.4 848.4,398.6 849.0,399.5 849.8,253.2 850.3,391.4 850.9,392.1 851.5,392.1 852.0,392.9 852.6,391.6 853.1,393.1 853.7,392.9 854.2,394.0 854.8,394.9 855.4,394.9 855.9,394.7 856.5,394.5 857.0,394.7 857.6,395.5 858.1,394.5 858.7,396.6 859.3,396.0 859.8,396.2 860.4,395.5 860.9,396.9 861.5,397.3 862.0,396.4 862.6,397.9 863.2,396.9 863.7,397.3 864.3,397.5 864.8,374.6 865.4,398.2 865.9,396.6 866.5,389.0 867.1,396.9 867.6,373.7 868.2,395.5 868.7,396.6 869.3,387.5 869.8,397.9 870.4,374.0 871.0,396.4 871.5,396.2 872.1,388.4 872.6,396.9 873.2,396.9 873.7,397.1 874.3,397.3 874.9,397.9 875.4,397.3 876.0,398.2 876.5,398.2 877.1,398.8 877.6,397.9 878.2,399.5 878.7,400.1 879.3,399.9 879.9,399.0 880.4,400.3 881.0,399.3 881.5,400.6 882.1,400.8 882.6,400.8 883.2,400.1 883.8,400.3 884.3,401.0 884.9,400.6 885.4,401.7 886.0,401.4 886.5,401.0 887.1,403.0 887.7,403.0 888.2,402.5 888.8,402.3 889.3,403.4 889.9,402.7 890.4,402.1 891.0,378.8 891.6,402.7 892.1,402.5 892.7,401.4 893.2,401.4 893.8,403.4 894.3,403.6 894.9,402.3 895.5,403.0 896.0,402.5 896.6,404.3 897.1,403.8 897.7,404.5 898.2,404.9 898.8,404.3 899.4,403.4 899.9,405.1 900.5,404.7 901.0,403.6 901.6,404.3 902.1,404.7 902.7,404.9 903.3,405.4 903.8,405.1 904.4,406.2 904.9,406.5 905.5,406.5 906.0,406.7 906.6,404.9 907.2,406.2 907.7,405.8 908.3,406.9 908.8,406.7 909.4,407.5 909.9,406.9 910.5,406.7 911.1,406.0 911.6,407.5 912.2,406.9 912.7,407.1 913.3,408.0 913.8,407.1 914.4,408.6 915.0,407.1 915.5,407.1 916.1,407.1 916.6,406.9 917.2,409.1 917.7,408.6 918.3,408.0 918.9,408.0 919.4,408.2 920.0,409.3 920.5,408.2 921.1,409.7 921.6,409.5 922.2,408.8 922.8,410.2 923.3,410.2 923.9,408.8 924.4,409.9 925.0,409.5 925.5,409.5 926.1,410.2 926.7,410.4 927.2,409.5 927.8,409.5 928.3,410.4 928.9,410.8 929.4,410.4 930.0,410.6" fill="none" stroke="red" stroke-width="2.5" opacity="0.8"/>
<polyline points="70.0,429.1 70.8,70.0 71.3,70.1 71.9,70.5 72.5,70.5 73.0,71.1 73.6,70.6 74.1,71.3 74.7,71.0 75.2,71.7 75.8,71.9 76.4,71.5 76.9,72.2 77.5,71.7 78.0,71.9 78.6,72.4 79.1,72.9 79.7,72.9 80.3,73.1 80.8,72.9 81.4,73.0 81.9,72.7 82.5,73.2 83.0,72.9 83.6,429.2 84.1,72.9 84.7,429.4 85.3,73.6 85.8,429.2 86.4,73.2 86.9,429.6 87.5,73.0 88.0,429.8 88.6,73.6 89.2,430.0 89.7,72.7 90.3,429.8 90.8,73.4 91.4,429.6 91.9,72.8 92.5,429.8 93.1,73.3 93.6,429.2 94.2,73.5 94.7,429.7 95.3,73.3 95.8,429.6 96.4,73.6 97.0,429.9 97.5,73.5 98.1,429.8 98.6,73.4 99.2,430.0 99.7,73.4 100.3,429.7 100.9,73.6 101.4,429.9 102.0,73.0 102.5,430.0 103.1,73.6 103.6,429.9 104.2,73.7 104.8,429.5 105.3,73.3 105.9,429.6 106.4,73.0 107.0,429.5 107.5,73.5 108.1,429.4 108.7,73.6 109.2,429.4 109.8,73.4 110.3,429.4 110.9,73.9 111.4,429.6 112.0,73.1 112.6,429.2 113.1,73.6 113.7,429.8 114.2,73.5 114.8,429.7 115.3,73.6 115.9,429.3 116.5,73.8 117.0,429.6 117.6,73.7 118.1,429.8 118.7,73.4 119.2,429.7 119.8,73.5 120.4,429.4 120.9,74.0 121.5,429.1 122.0,73.5 122.6,429.1 123.1,73.7 123.7,429.5 124.3,74.0 124.8,429.7 125.4,73.9 125.9,429.6 126.5,73.6 127.0,429.9 127.6,73.6 128.2,429.4 128.7,74.0 129.3,429.4 129.8,74.3 130.4,429.6 130.9,74.4 131.5,429.5 132.1,74.6 132.6,429.5 133.2,74.6 133.7,429.9 134.3,74.2 134.8,429.8 135.4,74.1 136.0,429.5 136.5,74.5 137.1,429.1 137.6,74.3 138.2,429.5 138.7,74.3 139.3,429.9 139.9,74.8 140.4,429.5 141.0,74.4 141.5,429.6 142.1,74.1 142.6,429.6 143.2,74.9 143.8,429.8 144.3,74.9 144.9,429.7 145.4,74.2 146.0,429.6 146.5,74.8 147.1,429.6 147.7,74.8 148.2,429.1 148.8,74.5 149.3,429.7 149.9,74.7 150.4,429.9 151.0,74.7 151.6,430.0 152.1,75.2 152.7,430.0 153.2,74.8 153.8,429.2 154.3,74.5 154.9,429.8 155.5,75.1 156.0,429.9 156.6,75.2 157.1,429.9 157.7,74.7 158.2,429.5 158.8,75.0 159.4,429.8 159.9,74.8 160.5,429.6 161.0,74.7 161.6,429.1 162.1,75.4 162.7,429.3 163.3,75.4 163.8,429.7 164.4,75.5 164.9,429.1 165.5,74.9 166.0,429.2 166.6,75.6 167.2,429.6 167.7,75.8 168.3,429.6 168.8,75.2 169.4,429.8 169.9,75.5 170.5,429.4 171.1,75.5 171.6,429.9 172.2,75.2 172.7,429.7 173.3,75.6 173.8,429.8 174.4,75.3 175.0,429.2 175.5,75.8 176.1,429.6 176.6,75.8 177.2,429.1 177.7,75.5 178.3,429.4 178.9,76.1 179.4,429.2 180.0,429.8 180.5,429.8 181.1,429.7 181.6,429.5 182.2,429.8 182.8,429.3 183.3,429.5 183.9,429.5 184.4,429.5 185.0,429.7 185.5,429.7 186.1,429.2 186.6,429.7 187.2,430.0 187.8,429.2 188.3,429.7 188.9,429.7 189.4,429.4 190.0,429.6 190.5,429.9 191.1,429.6 191.7,429.9 192.2,429.8 192.8,429.6 193.3,429.7 193.9,429.4 194.4,429.9 195.0,429.8 195.6,429.7 196.1,429.2 196.7,429.1 197.2,429.9 197.8,429.5 198.3,429.1 198.9,429.7 199.5,430.0 200.0,429.8 200.6,430.0 201.1,429.4 201.7,429.1 202.2,429.9 202.8,430.0 203.4,429.9 203.9,429.2 204.5,429.7 205.0,429.7 205.6,429.5 206.1,429.6 206.7,429.8 207.3,429.5 207.8,429.6 208.4,430.0 208.9,429.3 209.5,429.6 210.0,429.6 210.6,429.8 211.2,429.7 211.7,429.3 212.3,429.1 212.8,429.9 213.4,429.5 213.9,429.3 214.5,429.4 215.1,429.4 215.6,429.9 216.2,429.6 216.7,429.4 217.3,429.2 217.8,429.1 218.4,429.3 219.0,429.8 219.5,429.2 220.1,429.5 220.6,429.9 221.2,429.8 221.7,429.5 222.3,429.7 222.9,429.4 223.4,430.0 224.0,429.4 224.5,429.8 225.1,429.3 225.6,429.3 226.2,429.1 226.8,429.6 227.3,429.7 227.9,429.5 228.4,429.4 229.0,429.7 229.5,429.2 230.1,429.9 230.7,429.6 231.2,429.8 231.8,429.9 232.3,429.6 232.9,429.8 233.4,429.2 234.0,429.7 234.6,429.3 235.1,429.9 235.7,429.8 236.2,429.8 236.8,429.3 237.3,429.6 237.9,429.7 238.5,429.7 239.0,430.0 239.6,429.3 240.1,429.8 240.7,429.2 241.2,429.8 241.8,429.6 242.4,429.4 242.9,429.7 243.5,429.1 244.0,429.8 244.6,429.7 245.1,429.9 245.7,429.5 246.3,429.9 246.8,429.9 247.4,429.9 247.9,429.2 248.5,429.9 249.0,429.2 249.6,430.0 250.2,429.3 250.7,429.8 251.3,430.0 251.8,429.9 252.4,429.6 252.9,430.0 253.5,429.5 254.1,429.2 254.6,429.5 255.2,429.1 255.7,429.2 256.3,429.8 256.8,429.4 257.4,429.3 258.0,429.9 258.5,429.3 259.1,429.4 259.6,429.6 260.2,429.1 260.7,430.0 261.3,429.6 261.9,429.9 262.4,429.1 263.0,429.5 263.5,429.2 264.1,429.2 264.6,429.8 265.2,429.7 265.8,429.2 266.3,429.1 266.9,429.2 267.4,429.1 268.0,429.6 268.5,429.4 269.1,429.2 269.7,429.8 270.2,429.5 270.8,429.1 271.3,429.2 271.9,429.5 272.4,429.7 273.0,429.6 273.6,429.2 274.1,429.2 274.7,429.8 275.2,429.7 275.8,429.9 276.3,429.7 276.9,429.2 277.5,429.9 278.0,429.4 278.6,429.6 279.1,429.2 279.7,429.9 280.2,429.3 280.8,429.4 281.4,429.4 281.9,429.3 282.5,429.2 283.0,429.1 283.6,429.8 284.1,429.6 284.7,429.8 285.3,429.2 285.8,429.6 286.4,429.2 286.9,429.1 287.5,429.8 288.0,429.4 288.6,429.7 289.2,429.1 289.7,429.5 290.3,429.1 290.8,429.1 291.4,429.1 291.9,429.6 292.5,429.8 293.0,429.5 293.6,429.9 294.2,429.2 294.7,429.1 295.3,429.8 295.8,429.4 296.4,429.2 296.9,429.6 297.5,429.8 298.1,429.3 298.6,429.9 299.2,429.3 299.7,429.5 300.3,429.9 300.8,429.8 301.4,429.5 302.0,429.6 302.5,429.8 303.1,430.0 303.6,429.3 304.2,429.9 304.7,429.1 305.3,429.8 305.9,429.8 306.4,429.7 307.0,429.2 307.5,429.1 308.1,429.3 308.6,429.2 309.2,430.0 309.8,429.8 310.3,429.6 310.9,429.4 311.4,429.2 312.0,429.8 312.5,429.8 313.1,429.8 313.7,430.0 314.2,429.7 314.8,429.3 315.3,429.2 315.9,429.6 316.4,429.2 317.0,429.5 317.6,430.0 318.1,429.7 318.7,429.3 319.2,429.9 319.8,429.5 320.3,429.5 320.9,429.3 321.5,429.2 322.0,429.9 322.6,429.7 323.1,429.1 323.7,430.0 324.2,429.7 324.8,429.1 325.4,429.4 325.9,429.9 326.5,429.4 327.0,429.5 327.6,429.2 328.1,429.2 328.7,429.3 329.3,429.3 329.8,429.9 330.4,429.1 330.9,429.1 331.5,429.3 332.0,429.2 332.6,429.9 333.2,429.2 333.7,429.5 334.3,429.7 334.8,430.0 335.4,429.1 335.9,429.6 336.5,430.0 337.1,429.5 337.6,429.9 338.2,429.7 338.7,429.7 339.3,429.3 339.8,429.4 340.4,429.9 341.0,429.5 341.5,429.5 342.1,429.1 342.6,429.1 343.2,429.3 343.7,429.2 344.3,429.4 344.9,429.7 345.4,429.2 346.0,429.9 346.5,429.6 347.1,429.8 347.6,429.3 348.2,429.9 348.8,429.1 349.3,429.7 349.9,429.1 350.4,429.8 351.0,429.2 351.5,429.2 352.1,429.3 352.7,429.3 353.2,429.2 353.8,429.9 354.3,429.7 354.9,429.9 355.4,429.8 356.0,429.3 356.6,429.6 357.1,429.5 357.7,429.8 358.2,429.3 358.8,429.9 359.3,429.4 359.9,429.9 360.5,429.3 361.0,429.2 361.6,429.3 362.1,429.8 362.7,429.3 363.2,429.5 363.8,430.0 364.4,429.5 364.9,429.2 365.5,429.5 366.0,429.1 366.6,429.8 367.1,429.6 367.7,429.7 368.3,429.5 368.8,429.6 369.4,429.4 369.9,429.3 370.5,429.3 371.0,429.1 371.6,429.1 372.2,429.4 372.7,429.5 373.3,429.8 373.8,429.3 374.4,429.4 374.9,429.5 375.5,429.5 376.1,429.1 376.6,429.3 377.2,429.9 377.7,429.9 378.3,429.6 378.8,429.5 379.4,429.9 380.0,429.5 380.5,430.0 381.1,429.7 381.6,429.9 382.2,429.9 382.7,429.6 383.3,429.5 383.9,429.8 384.4,429.6 385.0,429.3 385.5,429.9 386.1,429.8 386.6,429.5 387.2,429.4 387.8,430.0 388.3,429.6 388.9,429.8 389.4,429.8 390.0,429.6 390.5,429.7 391.1,429.8 391.7,429.2 392.2,429.9 392.8,429.5 393.3,429.1 393.9,430.0 394.4,429.3 395.0,429.6 395.5,429.8 396.1,429.8 396.7,429.8 397.2,429.5 397.8,429.3 398.3,429.5 398.9,430.0 399.4,429.7 400.0,429.5 400.6,429.5 401.1,429.3 401.7,429.5 402.2,429.4 402.8,429.9 403.3,429.6 403.9,429.1 404.5,429.5 405.0,429.7 405.6,429.9 406.1,429.9 406.7,429.6 407.2,429.2 407.8,429.6 408.4,429.3 408.9,429.2 409.5,429.7 410.0,429.9 410.6,429.2 411.1,429.6 411.7,430.0 412.3,429.9 412.8,429.5 413.4,429.9 413.9,429.2 414.5,429.8 415.0,429.8 415.6,429.2 416.2,429.6 416.7,429.9 417.3,429.3 417.8,429.2 418.4,429.6 418.9,429.8 419.5,429.5 420.1,429.5 420.6,429.6 421.2,429.5 421.7,429.9 422.3,429.7 422.8,429.5 423.4,429.6 424.0,429.5 424.5,429.5 425.1,429.7 425.6,429.7 426.2,429.7 426.7,429.6 427.3,429.9 427.9,429.9 428.4,429.9 429.0,429.4 429.5,429.5 430.1,429.3 430.6,429.9 431.2,429.6 431.8,429.1 432.3,429.5 432.9,429.5 433.4,429.9 434.0,429.5 434.5,429.4 435.1,429.3 435.7,429.4 436.2,429.4 436.8,429.3 437.3,429.4 437.9,429.2 438.4,429.8 439.0,429.1 439.6,429.9 440.1,429.9 440.7,429.2 441.2,429.4 441.8,429.5 442.3,429.5 442.9,429.5 443.5,429.9 444.0,429.4 444.6,429.7 445.1,430.0 445.7,429.5 446.2,429.9 446.8,430.0 447.4,429.6 447.9,429.8 448.5,429.4 449.0,429.2 449.6,429.2 450.1,429.8 450.7,429.5 451.3,429.4 451.8,429.1 452.4,429.3 452.9,429.2 453.5,429.4 454.0,429.4 454.6,429.3 455.2,429.6 455.7,429.1 456.3,429.7 456.8,429.3 457.4,429.5 457.9,429.3 458.5,429.5 459.1,429.8 459.6,429.9 460.2,429.2 460.7,429.7 461.3,429.2 461.8,429.5 462.4,429.3 463.0,429.7 463.5,429.4 464.1,429.8 464.6,429.8 465.2,429.3 465.7,429.8 466.3,429.6 466.9,429.2 467.4,429.8 468.0,429.2 468.5,429.7 469.1,429.5 469.6,429.5 470.2,429.7 470.8,429.1 471.3,429.6 471.9,429.7 472.4,429.9 473.0,429.6 473.5,429.4 474.1,429.4 474.7,429.8 475.2,429.4 475.8,429.3 476.3,429.7 476.9,430.0 477.4,429.4 478.0,429.4 478.6,429.5 479.1,429.9 479.7,430.0 480.2,429.2 480.8,429.3 481.3,429.4 481.9,429.7 482.5,429.5 483.0,429.6 483.6,429.4 484.1,429.4 484.7,429.4 485.2,429.5 485.8,429.4 486.4,429.7 486.9,429.7 487.5,429.6 488.0,429.9 488.6,430.0 489.1,429.3 489.7,429.9 490.3,429.3 490.8,430.0 491.4,429.6 491.9,429.4 492.5,429.8 493.0,429.9 493.6,429.9 494.2,429.2 494.7,429.7 495.3,429.3 495.8,429.8 496.4,429.8 496.9,429.1 497.5,429.2 498.1,429.4 498.6,429.1 499.2,429.7 499.7,429.9 500.3,429.9 500.8,429.3 501.4,429.2 501.9,429.8 502.5,429.8 503.1,429.9 503.6,429.4 504.2,429.1 504.7,429.1 505.3,429.3 505.8,430.0 506.4,429.9 507.0,429.1 507.5,429.4 508.1,429.6 508.6,429.8 509.2,429.7 509.7,429.8 510.3,429.1 510.9,429.5 511.4,429.4 512.0,429.7 512.5,429.2 513.1,429.2 513.6,429.6 514.2,429.7 514.8,429.6 515.3,429.9 515.9,429.8 516.4,429.3 517.0,429.3 517.5,429.5 518.1,429.1 518.7,429.9 519.2,429.9 519.8,429.8 520.3,429.4 520.9,429.4 521.4,429.1 522.0,429.3 522.6,429.4 523.1,429.7 523.7,429.7 524.2,429.5 524.8,429.5 525.3,429.4 525.9,429.6 526.5,429.2 527.0,429.5 527.6,429.6 528.1,429.8 528.7,429.7 529.2,429.2 529.8,429.6 530.4,429.4 530.9,429.5 531.5,429.4 532.0,429.5 532.6,429.4 533.1,429.7 533.7,429.9 534.3,429.6 534.8,429.8 535.4,429.5 535.9,429.5 536.5,429.5 537.0,429.8 537.6,429.6 538.2,429.2 538.7,429.2 539.3,429.3 539.8,429.2 540.4,429.6 540.9,429.2 541.5,429.3 542.1,429.8 542.6,429.9 543.2,429.7 543.7,429.3 544.3,429.5 544.8,429.2 545.4,429.9 546.0,429.5 546.5,429.3 547.1,429.8 547.6,429.3 548.2,429.6 548.7,429.2 549.3,429.9 549.9,429.3 550.4,429.4 551.0,429.5 551.5,430.0 552.1,429.6 552.6,429.6 553.2,430.0 553.8,429.6 554.3,429.4 554.9,429.2 555.4,429.4 556.0,429.5 556.5,429.3 557.1,429.5 557.7,429.7 558.2,429.9 558.8,429.5 559.3,429.2 559.9,429.3 560.4,429.7 561.0,429.7 561.6,429.1 562.1,429.1 562.7,429.5 563.2,429.2 563.8,429.8 564.3,430.0 564.9,429.3 565.5,429.2 566.0,430.0 566.6,429.5 567.1,429.7 567.7,429.3 568.2,429.1 568.8,429.7 569.4,429.3 569.9,429.9 570.5,429.4 571.0,429.5 571.6,429.9 572.1,429.4 572.7,429.1 573.3,429.4 573.8,429.4 574.4,429.5 574.9,429.3 575.5,429.5 576.0,429.7 576.6,429.5 577.2,429.3 577.7,430.0 578.3,429.1 578.8,429.8 579.4,429.1 579.9,429.4 580.5,429.6 581.1,429.2 581.6,429.6 582.2,429.4 582.7,429.6 583.3,429.1 583.8,429.2 584.4,430.0 585.0,429.1 585.5,429.4 586.1,429.8 586.6,429.4 587.2,429.2 587.7,429.4 588.3,429.9 588.9,429.8 589.4,430.0 590.0,429.7 590.5,429.7 591.1,429.3 591.6,429.4 592.2,429.8 592.8,429.5 593.3,429.6 593.9,429.3 594.4,429.5 595.0,430.0 595.5,429.1 596.1,429.1 596.7,429.7 597.2,429.9 597.8,429.7 598.3,429.1 598.9,430.0 599.4,429.5 600.0,429.3 600.6,429.2 601.1,429.8 601.7,429.6 602.2,429.1 602.8,429.2 603.3,429.5 603.9,429.5 604.5,429.2 605.0,429.8 605.6,429.9 606.1,429.6 606.7,429.7 607.2,429.5 607.8,429.4 608.3,429.4 608.9,429.2 609.5,429.4 610.0,429.7 610.6,430.0 611.1,429.2 611.7,429.3 612.2,429.4 612.8,429.5 613.4,429.5 613.9,429.9 614.5,429.7 615.0,429.7 615.6,429.3 616.1,429.7 616.7,429.5 617.3,429.5 617.8,429.4 618.4,430.0 618.9,429.5 619.5,429.4 620.0,429.8 620.6,429.5 621.2,429.7 621.7,429.4 622.3,429.7 622.8,429.1 623.4,429.8 623.9,429.1 624.5,429.3 625.1,429.3 625.6,429.2 626.2,429.9 626.7,429.7 627.3,430.0 627.8,429.5 628.4,430.0 629.0,429.1 629.5,429.6 630.1,429.5 630.6,429.2 631.2,429.2 631.7,429.5 632.3,429.8 632.9,429.9 633.4,429.2 634.0,429.1 634.5,429.1 635.1,429.1 635.6,429.6 636.2,429.6 636.8,429.3 637.3,429.7 637.9,429.1 638.4,429.8 639.0,429.1 639.5,429.8 640.1,429.8 640.7,429.2 641.2,429.9 641.8,429.3 642.3,429.9 642.9,429.8 643.4,429.5 644.0,429.9 644.6,429.8 645.1,429.3 645.7,429.7 646.2,429.7 646.8,429.9 647.3,429.3 647.9,429.2 648.5,429.4 649.0,429.8 649.6,429.3 650.1,429.2 650.7,429.6 651.2,429.4 651.8,429.9 652.4,429.3 652.9,429.7 653.5,429.8 654.0,429.9 654.6,429.6 655.1,429.5 655.7,429.3 656.3,429.2 656.8,429.8 657.4,429.5 657.9,429.9 658.5,429.8 659.0,429.6 659.6,429.4 660.2,429.8 660.7,429.4 661.3,429.1 661.8,429.5 662.4,429.4 662.9,429.7 663.5,429.7 664.1,429.7 664.6,429.9 665.2,429.4 665.7,429.4 666.3,429.1 666.8,429.5 667.4,429.9 668.0,429.4 668.5,429.8 669.1,429.3 669.6,429.2 670.2,429.6 670.7,429.2 671.3,429.8 671.9,429.3 672.4,429.3 673.0,429.8 673.5,429.8 674.1,429.6 674.6,429.4 675.2,429.4 675.8,429.1 676.3,429.7 676.9,429.2 677.4,429.6 678.0,429.9 678.5,429.9 679.1,429.4 679.7,429.4 680.2,429.9 680.8,429.5 681.3,429.3 681.9,429.3 682.4,429.6 683.0,430.0 683.6,430.0 684.1,429.3 684.7,429.8 685.2,429.3 685.8,429.5 686.3,430.0 686.9,429.7 687.5,429.5 688.0,429.4 688.6,429.6 689.1,429.4 689.7,429.3 690.2,429.7 690.8,429.4 691.4,430.0 691.9,429.3 692.5,430.0 693.0,429.3 693.6,429.7 694.1,429.4 694.7,429.6 695.3,429.2 695.8,430.0 696.4,429.5 696.9,429.2 697.5,429.8 698.0,429.5 698.6,429.4 699.2,429.6 699.7,429.4 700.3,429.1 700.8,429.5 701.4,429.7 701.9,429.1 702.5,429.6 703.1,429.7 703.6,429.5 704.2,429.2 704.7,429.5 705.3,429.4 705.8,429.5 706.4,429.3 707.0,429.4 707.5,429.6 708.1,429.8 708.6,429.4 709.2,429.5 709.7,429.9 710.3,429.5 710.8,429.9 711.4,429.8 712.0,429.8 712.5,429.4 713.1,429.7 713.6,429.7 714.2,430.0 714.7,429.8 715.3,429.3 715.9,429.9 716.4,429.1 717.0,429.6 717.5,429.3 718.1,429.8 718.6,429.4 719.2,429.9 719.8,429.7 720.3,429.6 720.9,429.8 721.4,429.6 722.0,429.6 722.5,429.9 723.1,429.8 723.7,429.1 724.2,429.3 724.8,429.4 725.3,429.3 725.9,429.4 726.4,429.6 727.0,429.4 727.6,429.1 728.1,429.4 728.7,429.4 729.2,429.2 729.8,429.2 730.3,429.4 730.9,429.9 731.5,429.8 732.0,429.3 732.6,429.3 733.1,429.5 733.7,429.5 734.2,429.6 734.8,429.5 735.4,429.7 735.9,429.8 736.5,429.3 737.0,429.5 737.6,429.9 738.1,429.2 738.7,429.8 739.3,429.2 739.8,429.2 740.4,429.7 740.9,429.9 741.5,429.5 742.0,429.9 742.6,429.7 743.2,429.3 743.7,429.8 744.3,429.8 744.8,429.5 745.4,430.0 745.9,430.0 746.5,429.8 747.1,430.0 747.6,429.1 748.2,429.3 748.7,429.8 749.3,429.4 749.8,429.2 750.4,429.6 751.0,429.2 751.5,429.2 752.1,429.5 752.6,429.1 753.2,429.3 753.7,429.2 754.3,429.5 754.9,429.7 755.4,429.8 756.0,429.7 756.5,429.8 757.1,429.6 757.6,429.2 758.2,429.8 758.8,429.6 759.3,429.9 759.9,429.9 760.4,429.8 761.0,429.2 761.5,429.7 762.1,430.0 762.7,429.2 763.2,429.4 763.8,429.3 764.3,430.0 764.9,429.6 765.4,429.9 766.0,429.4 766.6,429.6 767.1,429.9 767.7,429.2 768.2,429.9 768.8,429.9 769.3,429.2 769.9,429.6 770.5,429.2 771.0,429.4 771.6,429.9 772.1,429.2 772.7,429.2 773.2,429.7 773.8,429.3 774.4,429.4 774.9,429.3 775.5,429.6 776.0,429.8 776.6,429.2 777.1,429.6 777.7,429.7 778.3,429.6 778.8,429.1 779.4,429.2 779.9,429.3 780.5,429.4 781.0,429.2 781.6,429.7 782.2,429.5 782.7,429.6 783.3,430.0 783.8,429.4 784.4,429.9 784.9,429.1 785.5,429.9 786.1,429.8 786.6,429.7 787.2,429.1 787.7,429.3 788.3,429.1 788.8,429.6 789.4,429.9 790.0,429.3 790.5,429.1 791.1,429.3 791.6,429.9 792.2,429.5 792.7,429.5 793.3,429.2 793.9,429.2 794.4,429.2 795.0,429.5 795.5,429.8 796.1,429.3 796.6,429.1 797.2,429.7 797.8,429.3 798.3,429.6 798.9,429.7 799.4,429.8 800.0,429.5 800.5,430.0 801.1,429.3 801.7,429.1 802.2,429.2 802.8,429.3 803.3,429.5 803.9,429.9 804.4,429.5 805.0,429.9 805.6,429.8 806.1,429.9 806.7,429.4 807.2,429.5 807.8,429.4 808.3,429.7 808.9,429.7 809.5,429.8 810.0,429.6 810.6,429.7 811.1,429.1 811.7,429.4 812.2,429.3 812.8,429.6 813.4,429.8 813.9,429.3 814.5,429.6 815.0,429.7 815.6,429.4 816.1,429.5 816.7,429.3 817.2,429.8 817.8,429.5 818.4,429.1 818.9,429.4 819.5,429.6 820.0,430.0 820.6,429.4 821.1,429.9 821.7,429.1 822.3,429.7 822.8,429.5 823.4,429.2 823.9,429.4 824.5,429.5 825.0,429.5 825.6,429.3 826.2,429.3 826.7,429.4 827.3,429.1 827.8,429.3 828.4,429.4 828.9,429.9 829.5,429.9 830.1,429.1 830.6,429.9 831.2,429.6 831.7,429.5 832.3,429.2 832.8,429.3 833.4,429.7 834.0,429.6 834.5,429.8 835.1,429.9 835.6,429.6 836.2,429.3 836.7,429.7 837.3,429.3 837.9,429.5 838.4,429.5 839.0,429.8 839.5,429.7 840.1,429.6 840.6,429.5 841.2,429.3 841.8,429.3 842.3,429.4 842.9,429.5 843.4,429.8 844.0,429.6 844.5,429.4 845.1,429.5 845.7,429.7 846.2,429.4 846.8,429.3 847.3,429.2 847.9,429.2 848.4,429.4 849.0,429.5 849.8,71.1 850.3,429.2 850.9,429.1 851.5,429.4 852.0,429.4 852.6,429.4 853.1,429.8 853.7,429.1 854.2,429.3 854.8,429.7 855.4,429.1 855.9,429.7 856.5,429.6 857.0,429.9 857.6,429.4 858.1,429.3 858.7,429.4 859.3,429.5 859.8,429.2 860.4,429.7 860.9,429.8 861.5,429.5 862.0,429.8 862.6,429.8 863.2,429.8 863.7,429.9 864.3,429.6 864.8,372.5 865.4,429.5 865.9,429.4 866.5,406.6 867.1,429.5 867.6,372.0 868.2,429.4 868.7,429.4 869.3,406.2 869.8,429.5 870.4,372.8 871.0,429.5 871.5,429.5 872.1,406.3 872.6,429.6 873.2,429.4 873.7,429.7 874.3,429.2 874.9,429.2 875.4,429.3 876.0,430.0 876.5,429.1 877.1,429.1 877.6,429.5 878.2,429.5 878.7,429.3 879.3,429.2 879.9,429.7 880.4,429.4 881.0,429.9 881.5,429.6 882.1,430.0 882.6,429.8 883.2,429.5 883.8,429.4 884.3,429.5 884.9,429.5 885.4,429.6 886.0,429.8 886.5,429.5 887.1,429.4 887.7,429.3 888.2,429.2 888.8,429.4 889.3,429.5 889.9,429.2 890.4,429.2 891.0,372.3 891.6,429.9 892.1,429.1 892.7,429.9 893.2,429.3 893.8,429.4 894.3,429.4 894.9,429.8 895.5,430.0 896.0,429.1 896.6,429.9 897.1,429.6 897.7,429.2 898.2,429.3 898.8,429.1 899.4,429.9 899.9,429.2 900.5,429.6 901.0,429.7 901.6,429.3 902.1,429.2 902.7,429.3 903.3,429.3 903.8,429.9 904.4,429.6 904.9,429.9 905.5,429.6 906.0,429.2 906.6,429.6 907.2,429.9 907.7,429.6 908.3,429.4 908.8,429.7 909.4,429.2 909.9,429.2 910.5,429.4 911.1,429.1 911.6,429.6 912.2,429.6 912.7,429.4 913.3,429.3 913.8,429.6 914.4,429.9 915.0,429.5 915.5,429.9 916.1,429.9 916.6,429.2 917.2,429.7 917.7,429.8 918.3,429.5 918.9,429.7 919.4,429.8 920.0,429.7 920.5,429.2 921.1,429.4 921.6,429.5 922.2,429.1 922.8,429.3 923.3,429.3 923.9,429.2 924.4,429.8 925.0,429.7 925.5,429.2 926.1,429.8 926.7,429.9 927.2,429.5 927.8,429.4 928.3,429.3 928.9,429.5 929.4,429.8 930.0,430.0" fill="none" stroke="blue" stroke-width="1.5" stroke-dasharray="5,3"/>
<line x1="70" y1="430" x2="930" y2="430" stroke="#333" stroke-width="2"/>
<line x1="70" y1="70" x2="70" y2="430" stroke="#333" stroke-width="2"/>
<line x1="930" y1="70" x2="930" y2="430" stroke="#333" stroke-width="2"/>
<text x="70.0" y="450" text-anchor="middle" font-family="sans-serif" font-size="12">60s</text>
<text x="242.00000000000003" y="450" text-anchor="middle" font-family="sans-serif" font-size="12">91s</text>
<text x="413.99999999999994" y="450" text-anchor="middle" font-family="sans-serif" font-size="12">122s</text>
<text x="586.0000000000001" y="450" text-anchor="middle" font-family="sans-serif" font-size="12">153s</text>
<text x="757.9999999999999" y="450" text-anchor="middle" font-family="sans-serif" font-size="12">184s</text>
<text x="930.0" y="450" text-anchor="middle" font-family="sans-serif" font-size="12">215s</text>
<g transform="translate(820, 60)">
<rect width="120" height="50" fill="white" fill-opacity="0.9" stroke="#ccc"/>
<line x1="10" y1="15" x2="40" y2="15" stroke="red" stroke-width="3"/>
<text x="45" y="20" font-family="sans-serif" font-size="14">Voltage</text>
<line x1="10" y1="35" x2="40" y2="35" stroke="blue" stroke-width="2" stroke-dasharray="5,3"/>
<text x="45" y="40" font-family="sans-serif" font-size="14">Current</text>
</g>
</svg>