<svg viewBox="0 0 1000 500" xmlns="http://www.w3.org/2000/svg">
<rect width="100%" height="100%" fill="#ffffff"/>
<text x="500.0" y="35" text-anchor="middle" font-family="sans-serif" font-size="22" font-weight="bold">Full Charge Cycle: cold</text>
<line x1="75" y1="425.0" x2="925" y2="425.0" stroke="#eee" stroke-width="1"/>
<text x="65" y="429.0" text-anchor="end" font-family="sans-serif" font-size="12" fill="red">12.00V</text>
<line x1="75" y1="354.9999999999999" x2="925" y2="354.9999999999999" stroke="#eee" stroke-width="1"/>
<text x="65" y="358.9999999999999" text-anchor="end" font-family="sans-serif" font-size="12" fill="red">12.52V</text>
<line x1="75" y1="285.0" x2="925" y2="285.0" stroke="#eee" stroke-width="1"/>
<text x="65" y="289.0" text-anchor="end" font-family="sans-serif" font-size="12" fill="red">13.05V</text>
<line x1="75" y1="214.99999999999994" x2="925" y2="214.99999999999994" stroke="#eee" stroke-width="1"/>
<text x="65" y="218.99999999999994" text-anchor="end" font-family="sans-serif" font-size="12" fill="red">13.57V</text>
<line x1="75" y1="145.00000000000006" x2="925" y2="145.00000000000006" stroke="#eee" stroke-width="1"/>
<text x="65" y="149.00000000000006" text-anchor="end" font-family="sans-serif" font-size="12" fill="red">14.10V</text>
<line x1="75" y1="75.0" x2="925" y2="75.0" stroke="#eee" stroke-width="1"/>
<text x="65" y="79.0" text-anchor="end" font-family="sans-serif" font-size="12" fill="red">14.62V</text>
<text x="935" y="429.0" text-anchor="start" font-family="sans-serif" font-size="12" fill="blue">-0.05A</text>
<text x="935" y="359.0" text-anchor="start" font-family="sans-serif" font-size="12" fill="blue">0.11A</text>
<text x="935" y="289.0" text-anchor="start" font-family="sans-serif" font-size="12" fill="blue">0.27A</text>
<text x="935" y="219.0" text-anchor="start" font-family="sans-serif" font-size="12" fill="blue">0.43A</text>
<text x="935" y="149.0" text-anchor="start" font-family="sans-serif" font-size="12" fill="blue">0.59A</text>
<text x="935" y="79.0" text-anchor="start" font-family="sans-serif" font-size="12" fill="blue">0.75A</text>
<polyline points="75.0,425.0 78.9,221.5 82.8,212.1 86.7,208.8 90.6,206.5 94.5,204.7 98.4,203.3 102.3,201.9 106.3,200.7 110.2,199.4 114.1,198.2 118.0,197.0 121.9,195.8 125.8,194.6 129.7,193.4 133.6,192.2 137.7,191.1 141.6,189.8 145.5,188.8 149.4,187.5 153.3,186.4 157.2,185.2 161.1,195.7 165.0,198.5 168.9,200.0 172.8,200.8 176.7,201.3 180.6,201.6 184.5,201.7 188.4,201.8 192.3,201.9 196.2,202.0 200.1,202.1 204.0,202.3 207.9,202.3 211.8,202.5 215.7,202.5 219.6,202.5 223.5,202.7 227.4,202.7 231.3,202.8 235.2,202.9 239.1,203.0 243.0,203.1 246.9,203.2 250.8,203.2 254.8,191.4 258.7,187.6 262.6,195.8 266.5,187.2 270.4,195.3 274.3,186.3 278.2,194.4 282.1,185.4 286.0,193.3 289.9,184.2 293.8,192.2 297.7,183.2 301.6,191.1 305.5,182.1 309.4,190.0 313.3,191.7 317.2,192.9 321.1,193.5 325.0,193.9 328.9,194.2 332.8,194.3 336.7,194.5 340.6,194.6 344.5,194.7 348.4,194.8 352.3,194.8 356.2,195.0 360.1,194.9 364.0,195.0 367.9,195.1 371.8,195.2 375.7,195.4 379.6,195.4 383.5,195.6 387.4,195.5 391.3,195.7 395.2,195.8 399.1,195.9 403.0,196.0 406.9,196.0 410.8,196.0 414.7,196.1 418.6,196.2 422.5,196.3 426.5,196.5 430.4,196.5 434.3,196.5 438.2,196.7 442.1,196.7 446.0,196.8 449.9,196.9 453.8,197.0 457.7,197.0 461.6,197.1 465.5,197.2 469.4,197.3 473.3,197.4 477.2,197.5 481.1,197.6 485.1,197.4 489.0,197.5 492.9,197.5 496.8,197.6 500.7,197.7 504.6,197.8 508.5,198.0 512.4,198.1 516.3,198.2 520.2,198.2 524.1,198.2 75.9,225.6 79.8,226.2 83.7,226.5 87.6,226.8 91.5,227.1 95.4,219.6 99.3,214.5 103.2,210.4 107.2,205.3 111.1,199.8 115.0,195.2 118.9,190.9 122.8,187.2 126.7,197.2 130.6,201.3 134.5,201.9 138.4,202.2 142.3,202.6 146.2,202.8 150.1,203.1 154.0,203.4 157.9,203.6 161.8,204.0 165.7,204.1 169.6,204.5 173.5,204.7 177.4,205.0 181.3,205.3 185.2,205.6 189.1,205.9 193.1,206.1 197.0,206.4 200.9,206.7 204.8,206.9 208.7,207.2 212.6,207.5 216.5,207.7 220.5,194.3 224.4,186.9 228.3,195.8 232.2,186.0 236.1,193.6 240.0,182.9 243.9,190.5 247.8,179.8 251.7,187.4 255.6,177.0 259.5,184.6 263.4,186.0 267.3,187.7 271.2,188.1 275.2,170.2 279.1,167.7 283.0,177.7 286.9,167.8 290.8,175.4 294.7,165.4 298.6,173.1 302.5,163.1 306.4,170.7 310.3,160.9 314.2,168.5 318.1,158.8 322.0,166.5 325.9,168.7 329.8,170.0 333.7,170.5 337.6,170.7 341.5,171.0 345.4,171.4 349.3,171.7 353.2,172.0 357.1,172.3 361.0,172.5 364.9,172.9 368.8,173.2 372.7,173.5 376.6,173.8 380.5,174.0 384.4,174.4 388.3,174.6 392.2,175.0 396.1,175.2 400.0,175.5 403.9,175.9 407.8,176.2 411.7,176.5 415.6,176.8 419.5,177.0 423.5,177.3 427.4,177.7 431.3,177.9 435.2,178.1 439.1,178.5 443.0,178.7 446.9,179.0 450.8,179.4 454.7,179.7 458.6,180.0 462.5,180.2 466.4,180.5 470.3,180.8 474.2,181.1 478.1,181.4 482.0,181.7 485.9,181.9 489.8,182.2 493.7,182.5 497.6,182.8 501.5,183.1 505.4,183.3 509.3,183.6 513.2,183.9 517.1,184.3 521.0,184.5 524.9,184.8 528.8,185.0 532.7,185.3 536.6,185.6 540.5,185.9 544.4,186.2 548.3,186.5 552.2,186.7 556.1,187.1 560.0,187.3 563.9,187.6 567.8,187.9 571.7,188.2 575.6,188.5 579.5,188.8 583.4,189.0 587.3,189.3 591.2,189.6 595.1,189.9 599.0,190.2 602.9,190.4 606.8,190.7 610.7,191.0 614.6,191.3 618.5,191.5 622.4,191.9 626.3,192.1 630.2,192.4 634.2,192.0 638.1,192.6 642.0,192.4 645.9,192.9 649.8,193.3 653.7,193.5 657.6,193.9 661.5,194.1 665.4,194.4 669.3,194.7 673.2,194.9 677.1,195.2 681.2,195.6 685.1,195.8 689.0,196.1 692.9,196.4 696.8,196.7 75.0,225.5 78.9,225.7 82.8,225.9 86.7,226.1 90.6,226.2 94.5,221.9 98.4,218.1 102.3,215.3 106.3,212.2 110.2,209.1 114.1,206.6 118.0,204.5 121.9,202.8 125.8,201.4 129.7,200.1 133.6,198.9 137.7,197.7 141.6,196.5 145.5,195.2 149.4,194.0 153.3,192.9 157.2,191.7 161.1,190.6 165.1,189.3 169.0,188.2 172.9,187.0 176.8,185.8 180.7,184.7 184.6,183.5 188.5,182.3 192.4,181.2 196.4,180.0 200.3,178.8 204.2,177.7 208.1,176.5 212.0,175.3 215.9,174.2 219.8,173.0 223.7,171.9 227.7,170.7 231.6,169.6 235.5,168.5 239.4,167.2 243.3,166.1 247.2,165.0 251.1,163.9 255.0,162.8 259.1,161.6 263.0,160.5 266.9,159.3 270.8,158.2 274.7,157.1 278.6,156.0 282.5,154.9 286.5,153.7 290.4,152.6 294.3,151.5 298.2,150.3 302.1,149.2 306.0,148.1 309.9,147.0 313.8,145.9 317.8,144.7 321.7,143.7 325.6,142.6 329.5,141.5 333.4,140.4 337.3,139.2 341.2,138.1 345.1,137.0 349.2,136.0 353.1,134.9 357.0,133.8 360.9,132.6 364.8,131.5 368.7,130.5 372.6,129.4 376.6,128.2 380.5,127.3 384.4,126.2 388.3,125.1 392.2,124.0 396.1,123.0 400.0,121.9 403.9,120.8 407.9,119.7 411.8,118.6 415.7,117.6 419.6,116.5 423.5,115.5 427.4,114.4 431.3,113.3 435.2,112.3 439.2,111.1 443.1,110.2 447.0,109.1 450.9,108.1 454.8,106.9 458.7,105.9 462.6,104.8 466.7,103.7 470.6,102.8 474.5,101.7 478.4,100.6 482.3,99.6 486.2,98.6 490.1,97.6 494.0,96.5 498.0,95.5 501.9,94.4 505.8,93.4 509.7,92.3 513.6,91.4 517.5,90.3 521.4,89.3 525.3,88.2 529.3,87.3 533.2,86.2 537.1,85.3 541.0,93.9 544.9,96.5 548.8,98.0 552.7,98.7 556.6,99.2 560.5,99.5 564.4,99.6 568.3,99.7 572.2,99.9 576.1,100.0 580.0,100.1 583.9,100.2 587.8,100.2 591.7,100.3 595.6,100.4 599.5,100.5 603.4,100.5 607.3,100.7 611.2,100.8 615.1,100.9 619.0,100.9 622.9,100.9 626.8,101.0 630.7,101.1 634.8,91.4 638.7,87.9 642.6,94.7 646.5,87.1 650.4,94.3 654.3,86.4 658.2,93.5 662.1,85.6 666.0,92.6 669.9,84.6 673.8,91.6 677.7,83.7 681.6,90.7 685.5,82.7 689.4,89.7 693.3,90.6 697.2,91.9 701.1,92.6 705.0,93.0 708.9,93.3 712.9,82.7 716.8,79.6 720.7,79.6 724.6,86.9 728.5,79.1 732.4,86.3 736.3,78.4 740.2,85.3 744.1,77.4 748.0,84.4 751.9,76.6 755.8,83.4 759.7,75.6 763.6,82.5 767.5,83.4 771.4,84.7 775.3,85.3 779.2,85.7 783.1,86.1 787.0,86.2 790.9,86.3 794.8,86.4 798.7,86.6 802.6,86.6 806.5,86.7 810.4,86.8 814.3,86.9 818.2,87.0 822.1,87.1 826.0,87.1 829.9,87.2 833.8,87.3 837.9,87.0 841.8,87.2 845.7,87.1 849.6,86.3 853.5,87.4 857.4,87.6 861.3,87.6 865.2,87.8 869.1,87.8 873.0,87.9 876.9,88.0 880.8,88.1 884.7,88.2 888.6,88.2 892.5,88.4 896.4,88.5 900.3,88.5 904.3,88.6 908.2,88.7 912.1,88.7 916.0,88.9 919.9,89.0 923.8,89.0 76.8,225.5 80.7,225.8 84.6,226.0 88.5,226.1 92.4,224.8 96.3,220.7 100.2,219.5 104.1,220.4 108.1,222.3 112.0,223.8 115.9,224.5 119.8,224.8 123.7,225.0 127.6,225.2 131.5,224.9 135.6,221.5 139.5,217.0 143.4,212.4 147.3,208.5 151.2,205.8 155.1,204.9 159.0,205.8 162.9,208.4 166.9,212.1 78.0,225.6 81.9,225.8 85.8,225.1 89.7,224.6 93.6,212.2 97.5,208.8 101.4,206.6 105.4,213.0" fill="none" stroke="red" stroke-width="2.5" opacity="0.8"/>
<polyline points="75.0,402.8 78.9,266.6 82.8,76.9 86.7,77.8 90.6,78.7 94.5,79.6 98.4,80.2 102.3,80.7 106.3,80.8 110.2,81.4 114.1,81.9 118.0,82.5 121.9,83.0 125.8,83.7 129.7,84.1 133.6,84.9 137.7,85.3 141.6,85.6 145.5,86.3 149.4,86.6 153.3,86.8 157.2,87.4 161.1,424.9 165.0,424.4 168.9,424.8 172.8,424.2 176.7,424.6 180.6,425.0 184.5,424.6 188.4,424.8 192.3,424.8 196.2,424.4 200.1,424.4 204.0,424.6 207.9,425.0 211.8,424.8 215.7,424.3 219.6,424.3 223.5,424.5 227.4,424.1 231.3,424.2 235.2,424.5 239.1,424.7 243.0,424.5 246.9,424.9 250.8,424.6 254.8,84.5 258.7,86.8 262.6,424.4 266.5,86.9 270.4,424.2 274.3,86.6 278.2,424.8 282.1,87.6 286.0,424.6 289.9,87.7 293.8,424.5 297.7,87.9 301.6,424.6 305.5,88.3 309.4,424.9 313.3,424.3 317.2,424.4 321.1,424.4 325.0,424.9 328.9,424.9 332.8,424.1 336.7,424.3 340.6,424.7 344.5,424.9 348.4,424.3 352.3,424.5 356.2,424.3 360.1,424.5 364.0,424.5 367.9,424.6 371.8,424.6 375.7,424.4 379.6,424.1 383.5,424.8 387.4,424.4 391.3,425.0 395.2,424.5 399.1,424.7 403.0,424.8 406.9,424.7 410.8,424.5 414.7,424.8 418.6,425.0 422.5,424.2 426.5,424.9 430.4,424.8 434.3,424.5 438.2,424.5 442.1,424.5 446.0,424.2 449.9,424.1 453.8,424.6 457.7,424.9 461.6,424.8 465.5,424.7 469.4,424.2 473.3,424.7 477.2,424.8 481.1,424.9 485.1,425.0 489.0,424.4 492.9,424.8 496.8,424.7 500.7,424.9 504.6,424.8 508.5,424.5 512.4,424.5 516.3,424.9 520.2,424.5 524.1,424.2 75.9,424.3 79.8,424.5 83.7,424.8 87.6,424.6 91.5,424.1 95.4,267.9 99.3,219.4 103.2,195.3 107.2,142.1 111.1,109.8 115.0,93.4 118.9,84.8 122.8,86.3 126.7,424.9 130.6,424.5 134.5,424.2 138.4,424.2 142.3,424.4 146.2,424.3 150.1,424.8 154.0,424.6 157.9,424.9 161.8,424.4 165.7,424.6 169.6,424.2 173.5,424.8 177.4,424.8 181.3,424.9 185.2,424.3 189.1,424.1 193.1,425.0 197.0,425.0 200.9,424.4 204.8,424.9 208.7,424.5 212.6,424.7 216.5,424.1 220.5,83.4 224.4,86.7 228.3,424.5 232.2,87.2 236.1,424.4 240.0,87.9 243.9,424.4 247.8,89.4 251.7,424.3 255.6,90.5 259.5,424.9 263.4,424.7 267.3,424.8 271.2,424.9 275.2,93.3 279.1,94.9 283.0,424.5 286.9,94.1 290.8,424.9 294.7,95.5 298.6,424.3 302.5,95.9 306.4,424.4 310.3,96.8 314.2,424.4 318.1,98.3 322.0,424.5 325.9,424.6 329.8,424.9 333.7,424.2 337.6,424.5 341.5,424.8 345.4,424.8 349.3,424.8 353.2,424.9 357.1,424.3 361.0,424.5 364.9,424.6 368.8,424.4 372.7,424.3 376.6,424.5 380.5,425.0 384.4,424.5 388.3,424.4 392.2,424.2 396.1,424.4 400.0,424.3 403.9,424.2 407.8,425.0 411.7,424.6 415.6,424.6 419.5,424.3 423.5,424.8 427.4,424.3 431.3,424.5 435.2,424.6 439.1,424.6 443.0,424.2 446.9,424.7 450.8,424.2 454.7,425.0 458.6,424.7 462.5,424.7 466.4,424.9 470.3,424.3 474.2,424.5 478.1,424.5 482.0,424.5 485.9,424.9 489.8,424.8 493.7,424.5 497.6,425.0 501.5,424.7 505.4,424.7 509.3,425.0 513.2,424.3 517.1,424.9 521.0,425.0 524.9,424.9 528.8,424.5 532.7,424.7 536.6,424.3 540.5,424.8 544.4,424.5 548.3,425.0 552.2,424.5 556.1,425.0 560.0,424.9 563.9,424.2 567.8,424.7 571.7,424.6 575.6,424.9 579.5,424.2 583.4,424.5 587.3,424.8 591.2,424.7 595.1,424.8 599.0,424.5 602.9,424.6 606.8,424.6 610.7,424.5 614.6,424.6 618.5,424.6 622.4,424.1 626.3,424.5 630.2,424.1 634.2,424.7 638.1,424.3 642.0,424.4 645.9,424.9 649.8,424.7 653.7,424.2 657.6,424.4 661.5,424.3 665.4,424.7 669.3,424.6 673.2,424.6 677.1,424.2 681.2,424.3 685.1,424.5 689.0,424.7 692.9,424.8 696.8,424.2 75.0,424.8 78.9,424.4 82.8,424.4 86.7,424.7 90.6,424.5 94.5,290.0 98.4,226.0 102.3,196.7 106.3,151.4 110.2,111.7 114.1,92.8 118.0,82.7 121.9,79.9 125.8,81.2 129.7,81.0 133.6,81.5 137.7,82.3 141.6,82.6 145.5,83.7 149.4,84.2 153.3,84.8 157.2,85.1 161.1,85.4 165.1,85.5 169.0,86.2 172.9,86.9 176.8,87.5 180.7,87.7 184.6,88.2 188.5,88.7 192.4,89.4 196.4,89.5 200.3,89.8 204.2,90.2 208.1,91.1 212.0,91.7 215.9,91.8 219.8,92.6 223.7,93.1 227.7,93.0 231.6,93.5 235.5,94.1 239.4,94.8 243.3,95.3 247.2,95.5 251.1,96.1 255.0,96.8 259.1,97.2 263.0,97.9 266.9,98.5 270.8,98.2 274.7,99.1 278.6,99.2 282.5,99.8 286.5,100.5 290.4,100.6 294.3,101.4 298.2,101.8 302.1,101.8 306.0,102.7 309.9,103.0 313.8,103.2 317.8,103.9 321.7,104.6 325.6,104.5 329.5,105.5 333.4,106.0 337.3,105.9 341.2,106.7 345.1,106.8 349.2,107.4 353.1,108.0 357.0,108.4 360.9,108.5 364.8,108.9 368.7,109.5 372.6,110.0 376.6,111.0 380.5,110.8 384.4,111.2 388.3,111.8 392.2,112.7 396.1,112.7 400.0,113.6 403.9,113.6 407.9,114.5 411.8,114.7 415.7,115.0 419.6,115.3 423.5,116.3 427.4,116.1 431.3,116.4 435.2,117.4 439.2,117.3 443.1,118.1 447.0,118.3 450.9,119.3 454.8,119.8 458.7,120.1 462.6,120.0 466.7,120.5 470.6,121.5 474.5,121.2 478.4,121.7 482.3,122.7 486.2,123.2 490.1,123.6 494.0,123.8 498.0,123.8 501.9,124.5 505.8,125.2 509.7,125.3 513.6,126.0 517.5,126.1 521.4,126.5 525.3,126.9 529.3,127.7 533.2,127.5 537.1,128.6 541.0,425.0 544.9,424.3 548.8,424.9 552.7,424.5 556.6,424.9 560.5,424.3 564.4,424.2 568.3,424.2 572.2,424.1 576.1,424.8 580.0,424.3 583.9,424.8 587.8,424.6 591.7,424.5 595.6,424.3 599.5,424.5 603.4,424.1 607.3,424.2 611.2,424.7 615.1,424.7 619.0,424.7 622.9,424.9 626.8,424.3 630.7,424.7 634.8,125.3 638.7,127.3 642.6,424.3 646.5,127.3 650.4,424.5 654.3,127.3 658.2,424.2 662.1,128.0 666.0,424.3 669.9,128.2 673.8,424.4 677.7,128.7 681.6,424.4 685.5,128.8 689.4,424.2 693.3,424.6 697.2,424.5 701.1,424.4 705.0,424.9 708.9,424.4 712.9,129.0 716.8,130.9 720.7,130.1 724.6,424.2 728.5,130.6 732.4,424.7 736.3,130.6 740.2,424.7 744.1,131.1 748.0,424.2 751.9,131.9 755.8,424.8 759.7,132.3 763.6,424.5 767.5,424.9 771.4,424.9 775.3,424.4 779.2,424.8 783.1,424.2 787.0,425.0 790.9,424.7 794.8,424.9 798.7,424.4 802.6,424.7 806.5,424.6 810.4,424.9 814.3,424.1 818.2,424.7 822.1,424.9 826.0,424.9 829.9,424.2 833.8,424.9 837.9,424.3 841.8,424.9 845.7,419.2 849.6,390.0 853.5,424.7 857.4,424.3 861.3,424.7 865.2,425.0 869.1,424.6 873.0,424.5 876.9,424.5 880.8,424.2 884.7,425.0 888.6,424.7 892.5,424.5 896.4,424.8 900.3,424.6 904.3,425.0 908.2,424.9 912.1,424.9 916.0,424.5 919.9,424.9 923.8,424.9 76.8,424.2 80.7,424.7 84.6,424.3 88.5,424.2 92.4,375.3 96.3,275.6 100.2,285.8 104.1,338.5 108.1,399.9 112.0,423.3 115.9,423.3 119.8,423.6 123.7,423.0 127.6,422.7 131.5,409.2 135.6,311.5 139.5,215.2 143.4,136.9 147.3,89.5 151.2,79.7 155.1,109.5 159.0,172.3 162.9,259.9 166.9,358.1 78.0,424.9 81.9,424.5 85.8,397.2 89.7,390.5 93.6,76.7 97.5,78.1 101.4,79.0 105.4,389.5" fill="none" stroke="blue" stroke-width="1.5" stroke-dasharray="5,3"/>
<line x1="75" y1="425" x2="925" y2="425" stroke="#333" stroke-width="2"/>
<line x1="75" y1="75" x2="75" y2="425" stroke="#333" stroke-width="2"/>
<line x1="925" y1="75" x2="925" y2="425" stroke="#333" stroke-width="2"/>
<text x="75.0" y="450" text-anchor="middle" font-family="sans-serif" font-size="12">0s</text>
<text x="245.00000000000003" y="450" text-anchor="middle" font-family="sans-serif" font-size="12">57s</text>
<text x="415.00000000000006" y="450" text-anchor="middle" font-family="sans-serif" font-size="12">114s</text>
<text x="585.0" y="450" text-anchor="middle" font-family="sans-serif" font-size="12">170s</text>
<text x="755.0000000000001" y="450" text-anchor="middle" font-family="sans-serif" font-size="12">227s</text>
<text x="925.0" y="450" text-anchor="middle" font-family="sans-serif" font-size="12">283s</text>
<g transform="translate(800, 60)">
<rect width="140" height="50" fill="white" fill-opacity="0.9" stroke="#ccc"/>
<line x1="10" y1="15" x2="40" y2="15" stroke="red" stroke-width="3"/>
<text x="45" y="20" font-family="sans-serif" font-size="14">Voltage</text>
<line x1="10" y1="35" x2="40" y2="35" stroke="blue" stroke-width="2" stroke-dasharray="5,3"/>
<text x="45" y="40" font-family="sans-serif" font-size="14">Current</text>
</g>
</svg>