<svg viewBox="0 0 1000 500" xmlns="http://www.w3.org/2000/svg">
<rect width="100%" height="100%" fill="#ffffff"/>
<text x="500.0" y="35" text-anchor="middle" font-family="sans-serif" font-size="22" font-weight="bold">Outgassing Characterization Detail (Zoom): dropout</text>
<line x1="70" y1="430.0" x2="930" y2="430.0" stroke="#eee" stroke-width="1"/>
<text x="65" y="434.0" text-anchor="end" font-family="sans-serif" font-size="12" fill="red">12.00V</text>
<line x1="70" y1="358.0000000000001" x2="930" y2="358.0000000000001" stroke="#eee" stroke-width="1"/>
<text x="65" y="362.0000000000001" text-anchor="end" font-family="sans-serif" font-size="12" fill="red">12.51V</text>
<line x1="70" y1="285.99999999999994" x2="930" y2="285.99999999999994" stroke="#eee" stroke-width="1"/>
<text x="65" y="289.99999999999994" text-anchor="end" font-family="sans-serif" font-size="12" fill="red">13.02V</text>
<line x1="70" y1="214.00000000000006" x2="930" y2="214.00000000000006" stroke="#eee" stroke-width="1"/>
<text x="65" y="218.00000000000006" text-anchor="end" font-family="sans-serif" font-size="12" fill="red">13.53V</text>
<line x1="70" y1="141.9999999999999" x2="930" y2="141.9999999999999" stroke="#eee" stroke-width="1"/>
<text x="65" y="145.9999999999999" text-anchor="end" font-family="sans-serif" font-size="12" fill="red">14.04V</text>
<line x1="70" y1="70.0" x2="930" y2="70.0" stroke="#eee" stroke-width="1"/>
<text x="65" y="74.0" text-anchor="end" font-family="sans-serif" font-size="12" fill="red">14.55V</text>
<text x="935" y="434.0" text-anchor="start" font-family="sans-serif" font-size="12" fill="blue">-0.05A</text>
<text x="935" y="362.0" text-anchor="start" font-family="sans-serif" font-size="12" fill="blue">0.11A</text>
<text x="935" y="290.0" text-anchor="start" font-family="sans-serif" font-size="12" fill="blue">0.27A</text>
<text x="935" y="218.0" text-anchor="start" font-family="sans-serif" font-size="12" fill="blue">0.43A</text>
<text x="935" y="146.0" text-anchor="start" font-family="sans-serif" font-size="12" fill="blue">0.59A</text>
<text x="935" y="74.0" text-anchor="start" font-family="sans-serif" font-size="12" fill="blue">0.75A</text>
<polyline points="70.0,430.0 71.1,218.9 72.2,219.0 73.3,219.0 74.4,219.1 75.6,219.1 76.7,216.9 77.8,213.1 78.9,210.5 80.0,208.5 81.1,207.1 82.2,206.2 83.3,205.5 84.4,204.8 85.6,204.1 86.7,203.6 87.8,203.1 88.9,202.5 90.0,202.1 91.1,201.5 92.2,201.2 93.3,200.6 94.4,200.3 95.6,199.9 96.7,199.6 97.8,199.3 98.9,198.9 100.0,198.6 101.1,198.3 102.2,198.1 103.3,197.7 104.4,197.4 105.6,197.1 106.7,197.0 107.8,196.7 108.9,196.4 110.0,196.2 111.1,195.9 112.2,195.7 113.3,195.4 114.4,195.3 115.6,195.1 116.7,194.9 117.8,194.6 118.9,194.3 120.0,194.1 121.1,193.9 122.2,193.8 123.3,193.5 124.4,193.2 125.8,193.1 126.9,192.9 128.0,192.7 129.1,192.5 130.2,192.3 131.3,192.1 132.4,191.9 133.6,191.6 134.7,191.5 135.8,191.3 136.9,191.1 138.0,190.8 139.1,190.6 140.2,190.5 141.3,190.4 142.4,190.1 143.6,189.8 144.7,189.7 145.8,189.6 146.9,189.3 148.0,189.1 149.1,188.9 150.2,188.8 151.3,188.6 152.4,188.3 153.6,188.2 154.7,188.0 155.8,187.8 156.9,187.5 158.0,187.4 159.1,187.2 160.2,187.0 161.3,186.9 162.4,186.6 163.6,186.4 164.7,186.2 165.8,186.0 166.9,185.8 168.0,185.6 169.1,185.4 170.2,185.2 171.3,185.0 172.4,184.8 173.6,184.7 174.7,184.5 175.8,184.3 176.9,184.2 178.0,183.9 179.1,183.7 180.2,183.5 181.6,183.3 182.7,183.1 183.8,183.0 184.9,182.7 186.0,182.5 187.1,182.3 188.2,182.2 189.3,182.0 190.4,181.7 191.6,181.5 192.7,181.3 193.8,181.3 194.9,181.0 196.0,180.9 197.1,180.7 198.2,180.4 199.3,180.3 200.4,180.1 201.6,179.9 202.7,179.6 203.8,179.4 204.9,179.3 206.0,179.1 207.1,178.9 208.2,178.7 209.3,178.6 210.4,178.4 211.6,178.2 212.7,178.0 213.8,177.7 214.9,177.5 216.0,177.4 217.1,177.2 218.2,177.0 219.3,176.9 220.4,176.6 221.6,176.5 222.7,176.3 223.8,176.0 224.9,175.8 70.6,221.1 70.6,218.9 71.7,219.1 72.8,219.2 73.9,219.4 75.0,219.4 76.1,219.5 77.2,219.6 78.3,219.7 79.4,219.7 80.6,219.7 81.7,219.8 82.8,219.8 83.9,219.9 85.0,220.0 86.1,220.0 87.2,220.1 88.3,220.1 89.4,220.2 90.6,220.2 91.7,220.3 92.8,220.3 93.9,220.3 95.0,220.4 96.1,220.4 97.2,220.5 98.3,220.6 99.4,220.5 100.6,220.6 101.7,219.5 102.8,218.2 103.9,216.9 105.0,215.5 106.1,214.4 107.2,213.1 108.3,212.2 109.4,211.2 110.6,210.3 111.7,209.5 112.8,208.6 113.9,207.9 115.0,207.2 116.1,206.5 117.2,205.8 118.3,205.3 119.4,204.6 120.6,203.9 121.7,203.4 122.8,202.9 123.9,202.3 125.2,201.5 126.3,200.5 127.4,199.5 128.6,198.6 129.7,197.6 130.8,196.7 131.9,195.8 133.0,194.9 134.1,193.9 135.2,193.1 136.3,192.3 137.4,191.5 138.6,190.6 139.7,189.8 140.8,189.1 141.9,188.4 143.0,187.6 144.1,186.9 145.2,186.2 146.3,185.5 147.4,184.8 148.6,184.1 149.7,183.3 150.8,182.7 151.9,182.1 153.0,181.4 154.1,180.8 155.2,180.2 156.3,179.6 157.4,179.0 158.6,178.5 159.7,177.8 160.8,177.3 161.9,176.8 163.0,176.3 70.0,191.0 70.0,218.9 71.1,219.0 72.2,218.9 73.3,219.0 74.4,219.1 75.6,219.1 76.7,219.1 77.8,219.2 78.9,219.3 80.0,219.2 81.1,219.4 82.2,219.3 83.3,219.4 84.4,219.5 85.6,219.4 86.7,219.5 87.8,219.5 88.9,219.5 90.0,219.5 91.1,219.6 92.2,219.6 93.3,219.7 94.4,219.6 95.6,219.7 96.7,219.7 97.8,219.7 98.9,219.7 100.0,219.7 101.1,219.2 102.2,218.3 103.3,217.3 104.4,216.5 105.6,215.5 106.7,214.8 107.8,214.0 108.9,213.3 110.0,212.7 111.1,212.2 112.2,211.6 113.3,211.1 114.4,210.5 115.6,210.1 116.7,209.6 117.8,209.2 118.9,208.7 120.0,208.4 121.1,208.1 122.2,207.7 123.3,207.3 124.4,207.0 125.8,206.2 126.9,205.6 128.0,205.1 129.1,204.5 130.2,203.8 131.3,203.3 132.4,202.8 133.6,202.4 134.7,201.9 135.8,201.4 136.9,201.0 138.0,200.5 139.1,200.1 140.2,199.8 141.3,199.3 142.4,199.0 143.6,198.6 144.7,198.2 145.8,197.9 146.9,197.6 148.0,197.3 149.1,196.9 150.2,196.7 151.3,196.4 152.4,196.0 153.6,195.8 154.7,195.5 155.8,195.3 156.9,195.0 158.0,194.8 159.1,194.6 160.2,194.3 161.3,194.1 162.4,193.8 163.6,193.7 164.7,193.4 165.8,193.1 166.9,193.0 168.0,192.8 169.1,192.5 170.2,192.4 171.3,192.2 172.4,191.9 173.6,191.7 174.7,191.6 175.8,191.4 176.9,191.1 178.0,190.9 179.1,190.8 180.2,190.5 181.6,190.3 182.7,190.1 183.8,190.0 184.9,189.8 186.0,189.5 187.1,189.3 188.2,189.1 189.3,189.0 190.4,188.8 191.6,188.6 192.7,188.3 193.8,188.1 194.9,188.0 196.0,187.7 197.1,187.6 198.2,187.4 199.3,187.2 200.4,187.0 201.6,186.8 202.7,186.6 203.8,186.5 204.9,186.3 206.0,186.0 207.1,185.8 208.2,185.6 209.3,185.4 210.4,185.3 211.6,185.1 212.7,184.9 213.8,184.7 214.9,184.5 216.0,184.3 217.1,184.0 218.2,183.9 219.3,183.7 220.4,183.6 221.6,183.3 222.7,183.1 223.8,182.9 224.9,182.7 226.0,182.5 227.1,182.4 228.2,182.3 229.3,182.0 230.4,181.8 231.6,181.6 232.7,181.4 233.8,181.2 234.9,181.0 236.0,180.9 237.3,180.6 238.4,180.5 239.6,180.3 240.7,180.0 241.8,179.9 242.9,179.8 244.0,179.5 245.1,179.3 246.2,179.1 247.3,178.9 248.4,178.7 249.6,178.6 250.7,178.4 251.8,178.2 252.9,177.9 254.0,177.7 255.1,177.6 256.2,177.4 257.3,177.2 258.4,177.0 259.6,176.8 260.7,176.6 261.8,176.4 262.9,176.3 264.0,176.1 265.1,175.9 266.2,175.7 267.3,175.5 268.4,175.3 269.6,175.1 270.7,175.0 271.8,174.8 272.9,174.5 274.0,174.4 275.1,174.1 276.2,174.0 277.3,173.8 278.4,173.6 279.6,173.4 280.7,173.2 281.8,173.1 282.9,172.8 284.0,172.6 285.1,172.5 286.2,172.2 287.3,172.1 288.4,171.9 289.6,171.7 290.7,171.5 291.8,171.3 293.1,171.1 294.2,170.9 295.3,170.7 296.4,170.6 297.6,170.4 298.7,170.2 299.8,169.9 300.9,169.8 302.0,169.6 303.1,169.4 304.2,169.3 305.3,169.0 306.4,168.8 307.6,168.6 308.7,168.4 309.8,168.3 310.9,168.1 312.0,167.9 313.1,167.7 314.2,167.5 315.3,167.4 316.4,167.1 317.6,167.0 318.7,166.8 319.8,166.5 320.9,166.4 322.0,166.3 323.1,166.0 324.2,165.9 325.3,165.7 326.4,165.5 327.6,165.2 328.7,165.1 329.8,164.9 330.9,164.7 332.0,164.6 333.1,164.4 334.2,164.2 335.3,164.0 336.4,163.7 337.6,163.6 338.7,163.3 339.8,163.2 340.9,163.1 342.0,162.8 343.1,162.7 344.2,162.5 345.3,162.3 346.4,162.1 347.6,161.9 348.9,161.7 350.0,161.5 351.1,161.4 352.2,161.1 353.3,161.0 354.4,160.8 355.6,160.6 356.7,160.4 357.8,160.2 358.9,160.0 360.0,159.9 361.1,159.7 362.2,159.5 363.3,159.3 364.4,159.0 365.6,158.9 366.7,158.7 367.8,158.6 368.9,158.3 370.0,158.2 371.1,157.9 372.2,157.8 373.3,157.7 374.4,157.5 375.6,157.2 376.7,157.0 377.8,156.9 378.9,156.7 380.0,156.5 381.1,156.3 382.2,156.2 383.3,155.9 384.4,155.8 385.6,155.5 386.7,155.4 387.8,155.2 388.9,155.0 390.0,154.8 391.1,154.6 392.2,154.4 393.3,154.3 394.4,154.1 395.6,153.9 396.7,153.7 397.8,153.6 398.9,153.4 400.0,153.2 401.1,152.9 402.2,152.7 403.3,152.6 404.7,152.4 405.8,152.2 406.9,152.1 408.0,151.8 409.1,151.7 410.2,151.5 411.3,151.4 412.4,151.2 413.6,150.9 414.7,150.8 415.8,150.6 416.9,150.4 418.0,150.2 419.1,150.1 420.2,149.8 421.3,149.6 422.4,149.5 423.6,149.2 424.7,149.1 425.8,148.9 426.9,148.7 428.0,148.5 429.1,148.4 430.2,148.2 431.3,148.0 432.4,147.8 433.6,147.7 434.7,147.5 435.8,147.3 436.9,147.1 438.0,146.8 439.1,146.7 440.2,146.5 441.3,146.3 442.4,146.1 443.6,146.0 444.7,145.7 445.8,145.6 446.9,145.5 448.0,145.2 449.1,145.0 450.2,144.8 451.3,144.6 452.4,144.6 453.6,144.4 454.7,144.2 455.8,143.9 456.9,143.8 458.0,143.5 459.1,143.4 460.4,143.3 461.6,143.0 462.7,142.9 463.8,142.7 464.9,142.5 466.0,142.3 467.1,142.2 468.2,142.0 469.3,141.8 470.4,141.6 471.6,141.5 472.7,141.2 473.8,141.1 474.9,140.9 476.0,140.7 477.1,140.4 478.2,140.3 479.3,140.1 480.4,140.0 481.6,139.8 482.7,139.6 483.8,139.4 484.9,139.2 486.0,139.1 487.1,138.8 488.2,138.6 489.3,138.5 490.4,138.3 491.6,138.2 492.7,137.9 493.8,137.8 494.9,137.5 496.0,137.4 497.1,137.2 498.2,137.1 499.3,136.8 500.4,136.6 501.6,136.5 502.7,136.4 503.8,136.1 504.9,135.9 506.0,135.8 507.1,135.6 508.2,135.4 509.3,135.3 510.4,135.0 511.6,134.9 512.7,134.6 513.8,134.5 514.9,134.4 516.2,134.2 517.3,133.9 518.4,133.7 519.6,133.6 520.7,133.5 521.8,133.2 522.9,133.0 524.0,132.8 525.1,132.7 526.2,132.4 527.3,132.3 528.4,132.1 529.6,132.0 530.7,131.8 531.8,131.6 532.9,131.4 534.0,131.3 535.1,131.1 536.2,130.9 537.3,130.7 538.4,130.5 539.6,130.3 540.7,130.2 541.8,130.0 542.9,129.8 544.0,129.6 545.1,129.5 546.2,129.3 547.3,129.0 548.4,129.0 549.6,128.8 550.7,128.5 551.8,128.5 552.9,128.2 554.0,128.1 555.1,127.8 556.2,127.7 557.3,127.4 558.4,127.2 559.6,127.1 560.7,126.9 561.8,126.8 562.9,126.5 564.0,126.4 565.1,126.2 566.2,126.1 567.3,125.9 568.4,125.6 569.6,125.5 570.7,125.4 572.0,125.1 573.1,125.0 574.2,124.8 575.3,124.6 576.4,124.5 577.6,124.3 578.7,124.1 579.8,123.9 580.9,123.7 582.0,123.6 583.1,123.4 584.2,123.2 585.3,123.0 586.4,122.9 587.6,122.7 588.7,122.5 589.8,122.3 590.9,122.2 592.0,121.9 593.1,121.8 594.2,121.6 595.3,121.5 596.4,121.3 597.6,121.0 598.7,120.9 599.8,120.8 600.9,120.6 602.0,120.3 603.1,120.2 604.2,120.1 605.3,119.8 606.4,119.6 607.6,119.5 608.7,119.2 609.8,119.2 610.9,118.9 612.0,118.7 613.1,118.5 614.2,118.4 615.3,118.3 616.4,118.0 617.6,117.9 618.7,117.7 619.8,117.5 620.9,117.3 622.0,117.2 623.1,117.0 624.2,116.8 625.3,116.7 626.4,116.4 627.8,116.3 628.9,116.1 630.0,115.9 631.1,115.7 632.2,115.6 633.3,115.3 634.4,115.3 635.6,115.0 636.7,114.9 637.8,114.7 638.9,114.5 640.0,114.3 641.1,114.2 642.2,113.9 643.3,113.8 644.4,113.7 645.6,113.4 646.7,113.3 647.8,113.1 648.9,112.9 650.0,112.7 651.1,112.5 652.2,112.4 653.3,112.2 654.4,112.1 655.6,111.9 656.7,111.8 657.8,111.6 658.9,111.4 660.0,111.1 661.1,110.9 662.2,110.8 663.3,110.7 664.4,110.4 665.6,110.4 666.7,110.2 667.8,110.0 668.9,109.8 670.0,109.6 671.1,109.5 672.2,109.3 673.3,109.1 674.4,108.9 675.6,108.7 676.7,108.6 677.8,108.3 678.9,108.2 680.0,108.0 681.1,107.8 682.2,107.7 683.6,107.5 684.7,107.3 685.8,107.1 686.9,107.0 688.0,106.8 689.1,106.6 690.2,106.5 691.3,106.3 692.4,106.2 693.6,106.0 694.7,105.8 695.8,105.6 696.9,105.4 698.0,105.2 699.1,105.1 700.2,104.9 701.3,104.7 702.4,104.5 703.6,104.4 704.7,104.2 705.8,104.1 706.9,103.8 708.0,103.7 709.1,103.5 710.2,103.3 711.3,103.1 712.4,103.0 713.6,102.7 714.7,102.6 715.8,102.5 716.9,102.3 718.0,102.1 719.1,101.9 720.2,101.8 721.3,101.6 722.4,101.4 723.6,101.3 724.7,101.1 725.8,101.0 726.9,100.7 728.0,100.6 729.1,100.3 730.2,100.2 731.3,100.1 732.4,99.9 733.6,99.7 734.7,99.5 735.8,99.3 736.9,99.2 738.0,99.1 739.3,98.9 740.4,98.6 741.6,98.4 742.7,98.3 743.8,98.2 744.9,97.9 746.0,97.8 747.1,97.6 748.2,97.5 749.3,97.3 750.4,97.2 751.6,97.0 752.7,96.7 753.8,96.6 754.9,96.5 756.0,96.3 757.1,96.1 758.2,95.9 759.3,95.7 760.4,95.5 761.6,95.5 762.7,95.2 763.8,95.1 764.9,94.9 766.0,94.7 767.1,94.6 768.2,94.3 769.3,94.2 770.4,94.1 771.6,93.9 772.7,93.7 773.8,93.5 774.9,93.4 776.0,93.2 777.1,93.0 778.2,92.8 779.3,92.6 780.4,92.5 781.6,92.4 782.7,92.1 783.8,92.0 784.9,91.7 786.0,91.7 787.1,91.5 788.2,91.3 789.3,91.2 790.4,91.0 791.6,90.7 792.7,90.6 793.8,90.4 795.1,90.3 796.2,90.1 797.3,90.0 798.4,89.8 799.6,89.6 800.7,89.4 801.8,89.3 802.9,89.0 804.0,88.9 805.1,88.7 806.2,88.5 807.3,88.3 808.4,88.3 809.6,88.0 810.7,87.9 811.8,87.6 812.9,87.6 814.0,87.4 815.1,87.3 816.2,87.0 817.3,86.9 818.4,86.7 819.6,86.5 820.7,86.4 821.8,86.1 822.9,86.0 824.0,85.9 825.1,85.7 826.2,85.5 827.3,85.4 828.4,85.2 829.6,84.9 830.7,84.9 831.8,84.7 832.9,84.5 834.0,84.3 835.1,84.1 836.2,84.0 837.3,83.8 838.4,83.7 839.6,83.5 840.7,83.3 841.8,83.2 842.9,83.0 844.0,82.8 845.1,82.6 846.2,82.5 847.3,82.3 848.4,82.1 849.6,82.0 850.9,81.8 852.0,81.7 853.1,81.5 854.2,81.3 855.3,81.1 856.4,80.9 857.6,80.8 858.7,80.6 859.8,80.4 860.9,80.3 862.0,80.1 863.1,79.9 864.2,79.8 865.3,79.6 866.4,79.4 867.6,79.2 868.7,79.1 869.8,78.9 870.9,78.7 872.0,78.6 873.1,78.5 874.2,78.3 875.3,78.0 876.4,77.9 877.6,77.8 878.7,77.6 879.8,77.5 880.9,77.2 882.0,77.1 883.1,76.9 884.2,76.7 885.3,76.6 886.4,76.4 887.6,76.2 888.7,76.1 889.8,76.0 890.9,75.8 892.0,75.6 893.1,75.4 894.2,75.3 895.3,75.1 896.4,75.0 897.6,74.8 898.7,74.6 899.8,74.4 900.9,74.2 902.0,74.1 903.1,73.9 904.2,73.8 905.3,73.5 906.7,73.5 907.8,73.3 908.9,73.1 910.0,72.9 911.1,72.8 912.2,72.5 913.3,72.4 914.4,72.3 915.6,72.1 916.7,72.0 917.8,71.8 918.9,71.7 920.0,71.4 921.1,71.3 922.2,71.0 923.3,70.9 924.4,70.8 925.6,70.6 926.7,70.4 927.8,70.2 928.9,70.1 930.0,70.0 70.6,218.9 70.6,218.8 71.7,218.9 72.8,219.0 73.9,219.0 75.0,219.1 76.1,219.1 77.2,219.1 78.3,219.3 79.4,219.2 80.6,219.2 81.7,219.4 82.8,219.3 83.9,219.4 85.0,219.4 86.1,219.4 87.2,219.5 88.3,219.5 89.4,219.5 90.6,219.5 91.7,219.5 92.8,219.6 93.9,219.6 95.0,219.7 96.1,219.7 97.2,219.7 98.3,219.7 99.4,219.7 100.6,219.7 101.7,218.9 102.8,217.8 103.9,216.9 105.0,216.2 106.1,215.5 107.2,214.9 108.3,214.3 109.4,213.9 110.6,213.7 111.7,213.2 112.8,213.0 113.9,212.9 115.0,212.7 116.1,212.6 117.2,212.6 118.3,212.7 119.4,212.8 120.6,212.9 121.7,213.0 122.8,213.2 123.9,213.6 125.2,213.8 126.3,213.9 127.4,214.2 128.6,214.6 129.7,214.9 130.8,215.3 131.9,215.8 133.0,216.3 134.1,216.7 135.2,216.8 136.3,217.0 137.4,217.2 138.6,217.3 139.7,217.4 140.8,217.6 141.9,217.6 143.0,217.6 144.1,217.7 145.2,217.9 146.3,217.9 147.4,217.9 148.6,218.1 149.7,218.1 150.8,218.2 151.9,218.1 153.0,218.3 154.1,218.3 155.2,218.2 156.3,218.3 157.4,218.4 158.6,218.3 159.7,218.5 160.8,218.4 161.9,218.4 163.0,218.5 164.1,218.6 165.2,218.6 166.3,218.6 167.4,218.6 168.6,218.7 169.7,218.6 170.8,218.6 171.9,218.7 173.0,218.7 174.1,218.5 175.2,218.1 176.3,217.7 177.4,217.2 178.6,216.6 179.7,216.0 181.0,215.5 182.1,214.8 183.2,214.0 184.3,213.3 185.4,212.6 186.6,212.0 187.7,211.2 188.8,210.4 189.9,209.7 191.0,208.9 192.1,208.1 193.2,207.3 194.3,206.6 195.4,205.9 196.6,205.1 197.7,204.4 198.8,203.8 199.9,203.1 201.0,202.4 202.1,201.8 203.2,201.2 204.3,200.7 205.4,200.2 206.6,199.7 207.7,199.2 208.8,198.9 209.9,198.5 211.0,198.1 212.1,197.9 213.2,197.6 214.3,197.5 215.4,197.3 216.6,197.2 217.7,197.2 218.8,197.3 219.9,197.2 221.0,197.3 222.1,197.5 223.2,197.7 224.3,197.9 225.4,198.2 226.6,198.6 227.7,198.9 228.8,199.2 229.9,199.7 231.0,200.2 232.1,200.6 233.2,201.1 234.3,201.7 235.4,202.3 236.8,203.0 237.9,203.6 239.0,204.1 70.0,206.7 70.0,218.9 71.1,218.9 72.2,218.9 73.3,219.1 74.4,219.1 75.6,219.1 76.7,219.2 77.8,219.1 78.9,219.3 80.0,219.2 81.1,219.3 82.2,219.4 83.3,219.4 84.4,219.2 85.6,219.1 86.7,218.8 87.8,218.7 88.9,218.6 90.0,218.6 91.1,218.5 92.2,218.4 93.3,218.3 94.4,218.2 95.6,218.1 96.7,218.0 97.8,218.1 98.9,208.9 100.0,207.9 101.1,207.1 102.2,206.3 103.3,205.5 104.4,204.8 105.6,204.2 106.7,203.7 107.8,203.1 108.9,202.5 110.0,202.1 111.1,201.6 112.2,201.2 113.3,200.8 114.4,200.4 115.6,200.0 116.7,199.7 117.8,199.3 118.9,199.0 120.0,198.6 121.1,198.4 122.2,198.1 123.3,197.8 124.4,197.6 125.8,197.2" fill="none" stroke="red" stroke-width="2.5" opacity="0.8"/>
<polyline points="70.0,407.2 71.1,429.7 72.2,429.5 73.3,429.3 74.4,429.7 75.6,429.9 76.7,346.0 77.8,215.0 78.9,139.0 80.0,94.0 81.1,70.8 82.2,70.7 83.3,71.6 84.4,71.4 85.6,71.4 86.7,71.6 87.8,71.9 88.9,72.2 90.0,73.0 91.1,73.2 92.2,72.7 93.3,73.2 94.4,72.9 95.6,73.5 96.7,74.0 97.8,73.4 98.9,74.2 100.0,74.0 101.1,74.4 102.2,74.1 103.3,74.8 104.4,74.2 105.6,74.5 106.7,74.7 107.8,74.8 108.9,74.8 110.0,74.6 111.1,74.8 112.2,74.9 113.3,75.5 114.4,75.6 115.6,75.4 116.7,75.7 117.8,75.3 118.9,75.9 120.0,76.0 121.1,75.7 122.2,76.3 123.3,75.8 124.4,75.7 125.8,76.1 126.9,75.9 128.0,76.5 129.1,76.6 130.2,76.5 131.3,76.6 132.4,76.9 133.6,76.5 134.7,76.9 135.8,76.7 136.9,77.4 138.0,77.4 139.1,77.6 140.2,77.1 141.3,77.5 142.4,77.2 143.6,77.7 144.7,78.0 145.8,77.4 146.9,78.1 148.0,77.7 149.1,78.2 150.2,77.6 151.3,78.4 152.4,78.4 153.6,78.2 154.7,77.9 155.8,78.0 156.9,78.3 158.0,78.2 159.1,78.2 160.2,79.0 161.3,78.4 162.4,79.2 163.6,78.9 164.7,79.3 165.8,78.8 166.9,78.7 168.0,79.5 169.1,79.2 170.2,79.6 171.3,79.1 172.4,79.3 173.6,79.8 174.7,79.5 175.8,79.6 176.9,80.1 178.0,79.9 179.1,79.8 180.2,79.8 181.6,80.5 182.7,80.6 183.8,80.1 184.9,79.9 186.0,80.7 187.1,80.6 188.2,80.8 189.3,80.3 190.4,80.6 191.6,80.7 192.7,80.6 193.8,80.9 194.9,81.0 196.0,81.3 197.1,80.8 198.2,81.2 199.3,81.7 200.4,81.1 201.6,81.5 202.7,81.2 203.8,81.8 204.9,81.7 206.0,81.7 207.1,82.0 208.2,81.7 209.3,82.4 210.4,82.0 211.6,82.5 212.7,82.3 213.8,82.0 214.9,82.7 216.0,82.2 217.1,82.2 218.2,82.8 219.3,82.9 220.4,82.5 221.6,82.5 222.7,82.5 223.8,83.3 224.9,83.2 70.6,429.2 70.6,429.9 71.7,429.8 72.8,429.3 73.9,430.0 75.0,429.4 76.1,429.3 77.2,429.4 78.3,429.2 79.4,429.7 80.6,429.3 81.7,429.8 82.8,429.8 83.9,429.8 85.0,429.9 86.1,429.7 87.2,429.3 88.3,430.0 89.4,429.1 90.6,429.2 91.7,429.3 92.8,429.1 93.9,429.3 95.0,429.2 96.1,429.1 97.2,429.6 98.3,429.2 99.4,429.5 100.6,429.5 101.7,393.8 102.8,360.7 103.9,331.6 105.0,310.8 106.1,291.6 107.2,273.8 108.3,262.2 109.4,252.2 110.6,241.6 111.7,237.0 112.8,227.6 113.9,222.9 115.0,218.4 116.1,214.4 117.2,205.6 118.3,205.4 119.4,201.6 120.6,197.8 121.7,194.1 122.8,193.8 123.9,190.0 125.2,182.2 126.3,168.1 127.4,157.6 128.6,147.8 129.7,139.2 130.8,131.1 131.9,125.8 133.0,121.4 134.1,113.8 135.2,111.5 136.3,107.5 137.4,103.8 138.6,99.2 139.7,97.5 140.8,96.2 141.9,92.0 143.0,91.1 144.1,89.2 145.2,87.5 146.3,85.9 147.4,84.2 148.6,83.4 149.7,81.3 150.8,82.2 151.9,80.6 153.0,80.3 154.1,80.6 155.2,81.3 156.3,81.8 157.4,82.2 158.6,81.5 159.7,82.6 160.8,82.1 161.9,82.3 163.0,83.0 70.0,429.8 70.0,429.2 71.1,429.4 72.2,429.6 73.3,429.3 74.4,429.9 75.6,429.7 76.7,429.7 77.8,429.7 78.9,429.6 80.0,429.9 81.1,429.2 82.2,429.2 83.3,429.7 84.4,429.6 85.6,429.4 86.7,429.3 87.8,429.4 88.9,430.0 90.0,429.4 91.1,429.7 92.2,429.3 93.3,429.6 94.4,429.7 95.6,429.9 96.7,429.9 97.8,429.3 98.9,430.0 100.0,429.4 101.1,412.1 102.2,377.6 103.3,346.2 104.4,324.1 105.6,297.0 106.7,285.1 107.8,266.9 108.9,256.3 110.0,245.8 111.1,240.4 112.2,230.4 113.3,225.5 114.4,216.5 115.6,211.7 116.7,207.7 117.8,203.8 118.9,199.5 120.0,199.3 121.1,195.0 122.2,191.4 123.3,191.3 124.4,187.4 125.8,172.1 126.9,161.9 128.0,151.4 129.1,141.9 130.2,133.3 131.3,125.3 132.4,120.3 133.6,114.8 134.7,110.2 135.8,106.1 136.9,101.5 138.0,99.8 139.1,95.0 140.2,93.8 141.3,92.0 142.4,88.1 143.6,86.0 144.7,84.9 145.8,83.1 146.9,81.2 148.0,79.7 149.1,78.0 150.2,78.0 151.3,77.0 152.4,74.7 153.6,75.3 154.7,74.8 155.8,75.2 156.9,75.5 158.0,75.6 159.1,75.8 160.2,76.0 161.3,76.2 162.4,75.9 163.6,75.8 164.7,75.7 165.8,76.2 166.9,76.1 168.0,76.6 169.1,76.3 170.2,76.8 171.3,76.5 172.4,76.4 173.6,76.5 174.7,77.2 175.8,76.6 176.9,77.4 178.0,77.0 179.1,76.8 180.2,76.9 181.6,77.4 182.7,77.1 183.8,77.3 184.9,77.2 186.0,78.0 187.1,78.1 188.2,77.9 189.3,77.6 190.4,78.4 191.6,77.9 192.7,78.2 193.8,78.6 194.9,77.9 196.0,78.6 197.1,78.7 198.2,78.6 199.3,78.7 200.4,78.4 201.6,78.6 202.7,79.0 203.8,79.3 204.9,79.0 206.0,79.4 207.1,79.3 208.2,79.1 209.3,79.4 210.4,79.7 211.6,79.4 212.7,79.1 213.8,79.8 214.9,79.4 216.0,79.7 217.1,80.3 218.2,80.2 219.3,79.6 220.4,80.2 221.6,80.4 222.7,80.1 223.8,80.6 224.9,80.0 226.0,80.1 227.1,80.8 228.2,80.1 229.3,81.0 230.4,80.8 231.6,80.4 232.7,80.9 233.8,80.6 234.9,81.4 236.0,81.2 237.3,80.8 238.4,81.3 239.6,81.7 240.7,81.5 241.8,81.8 242.9,81.4 244.0,81.3 245.1,81.7 246.2,82.1 247.3,81.9 248.4,81.7 249.6,82.3 250.7,82.1 251.8,82.0 252.9,81.9 254.0,82.4 255.1,82.8 256.2,82.6 257.3,82.6 258.4,82.2 259.6,83.1 260.7,82.8 261.8,82.6 262.9,82.7 264.0,82.8 265.1,83.0 266.2,82.8 267.3,83.6 268.4,83.5 269.6,83.4 270.7,83.2 271.8,83.9 272.9,83.3 274.0,83.9 275.1,83.8 276.2,84.0 277.3,83.5 278.4,84.2 279.6,84.2 280.7,84.4 281.8,84.2 282.9,84.0 284.0,84.4 285.1,84.9 286.2,84.6 287.3,84.2 288.4,84.4 289.6,84.7 290.7,84.6 291.8,85.0 293.1,84.7 294.2,85.5 295.3,84.8 296.4,85.0 297.6,84.9 298.7,85.2 299.8,85.0 300.9,85.8 302.0,85.5 303.1,86.0 304.2,85.5 305.3,85.9 306.4,85.5 307.6,86.1 308.7,85.9 309.8,86.4 310.9,86.3 312.0,86.7 313.1,85.9 314.2,86.3 315.3,86.6 316.4,86.1 317.6,86.4 318.7,86.6 319.8,86.3 320.9,87.1 322.0,87.3 323.1,86.6 324.2,87.2 325.3,87.3 326.4,87.0 327.6,86.9 328.7,87.5 329.8,87.0 330.9,87.4 332.0,87.4 333.1,87.2 334.2,87.7 335.3,87.9 336.4,88.3 337.6,87.9 338.7,88.0 339.8,88.1 340.9,88.1 342.0,88.3 343.1,88.7 344.2,88.4 345.3,88.0 346.4,88.9 347.6,88.9 348.9,88.8 350.0,88.5 351.1,89.1 352.2,89.3 353.3,89.4 354.4,89.0 355.6,89.4 356.7,89.4 357.8,89.3 358.9,89.5 360.0,89.5 361.1,89.5 362.2,90.0 363.3,89.2 364.4,89.3 365.6,90.1 366.7,90.0 367.8,89.6 368.9,90.2 370.0,89.7 371.1,90.5 372.2,90.3 373.3,90.1 374.4,90.6 375.6,90.2 376.7,90.9 377.8,90.9 378.9,90.8 380.0,90.5 381.1,91.1 382.2,91.3 383.3,91.3 384.4,91.2 385.6,90.7 386.7,91.6 387.8,91.7 388.9,91.3 390.0,91.0 391.1,91.4 392.2,91.3 393.3,92.0 394.4,92.1 395.6,92.1 396.7,91.4 397.8,91.9 398.9,92.4 400.0,92.0 401.1,92.2 402.2,92.5 403.3,92.0 404.7,92.4 405.8,92.1 406.9,92.3 408.0,92.3 409.1,92.4 410.2,93.0 411.3,92.8 412.4,93.2 413.6,93.4 414.7,93.0 415.8,93.1 416.9,93.1 418.0,93.4 419.1,92.9 420.2,93.2 421.3,93.3 422.4,93.3 423.6,93.5 424.7,93.5 425.8,93.5 426.9,94.0 428.0,93.7 429.1,94.1 430.2,94.4 431.3,94.0 432.4,93.9 433.6,94.2 434.7,93.9 435.8,94.6 436.9,94.1 438.0,94.7 439.1,94.8 440.2,94.5 441.3,95.0 442.4,94.8 443.6,94.5 444.7,94.6 445.8,94.7 446.9,95.4 448.0,95.1 449.1,95.2 450.2,95.5 451.3,95.2 452.4,95.3 453.6,95.7 454.7,95.4 455.8,95.8 456.9,96.1 458.0,95.6 459.1,96.2 460.4,95.8 461.6,95.7 462.7,96.1 463.8,96.3 464.9,96.6 466.0,96.8 467.1,96.7 468.2,96.4 469.3,96.6 470.4,96.6 471.6,96.8 472.7,97.1 473.8,96.6 474.9,97.4 476.0,97.1 477.1,97.5 478.2,97.3 479.3,97.0 480.4,97.3 481.6,97.0 482.7,97.6 483.8,97.1 484.9,98.0 486.0,98.0 487.1,98.1 488.2,98.2 489.3,97.9 490.4,98.1 491.6,97.9 492.7,97.8 493.8,98.6 494.9,98.2 496.0,98.2 497.1,98.2 498.2,98.8 499.3,98.7 500.4,98.5 501.6,99.1 502.7,99.0 503.8,99.0 504.9,98.8 506.0,99.1 507.1,98.9 508.2,99.5 509.3,98.8 510.4,98.8 511.6,99.2 512.7,99.4 513.8,99.8 514.9,99.7 516.2,99.7 517.3,99.9 518.4,99.8 519.6,100.2 520.7,99.6 521.8,100.1 522.9,99.8 524.0,100.3 525.1,100.6 526.2,99.9 527.3,100.3 528.4,100.8 529.6,100.6 530.7,100.6 531.8,100.4 532.9,101.1 534.0,101.1 535.1,100.9 536.2,101.2 537.3,100.8 538.4,101.0 539.6,101.5 540.7,101.0 541.8,100.8 542.9,101.7 544.0,101.2 545.1,101.1 546.2,101.4 547.3,102.0 548.4,101.7 549.6,101.4 550.7,101.5 551.8,101.8 552.9,102.3 554.0,102.3 555.1,102.2 556.2,102.2 557.3,102.3 558.4,102.5 559.6,102.7 560.7,102.1 561.8,102.4 562.9,103.0 564.0,102.3 565.1,102.7 566.2,103.1 567.3,102.8 568.4,102.6 569.6,103.3 570.7,102.9 572.0,102.8 573.1,103.6 574.2,103.0 575.3,103.0 576.4,103.4 577.6,103.2 578.7,104.0 579.8,103.2 580.9,103.4 582.0,104.1 583.1,104.1 584.2,104.3 585.3,103.7 586.4,104.0 587.6,104.2 588.7,104.6 589.8,104.3 590.9,104.2 592.0,104.4 593.1,104.3 594.2,104.2 595.3,104.3 596.4,104.3 597.6,104.7 598.7,105.3 599.8,104.8 600.9,105.2 602.0,104.9 603.1,105.3 604.2,105.6 605.3,105.5 606.4,105.6 607.6,105.6 608.7,105.4 609.8,105.2 610.9,105.2 612.0,106.0 613.1,105.8 614.2,106.2 615.3,106.2 616.4,106.4 617.6,105.8 618.7,105.8 619.8,106.6 620.9,106.1 622.0,106.6 623.1,106.2 624.2,106.6 625.3,106.7 626.4,106.3 627.8,106.6 628.9,106.4 630.0,107.1 631.1,106.6 632.2,107.3 633.3,107.0 634.4,107.3 635.6,106.9 636.7,107.4 637.8,106.9 638.9,107.1 640.0,107.7 641.1,107.8 642.2,107.6 643.3,107.3 644.4,107.4 645.6,107.9 646.7,108.1 647.8,108.0 648.9,108.4 650.0,108.4 651.1,108.6 652.2,108.0 653.3,108.3 654.4,108.1 655.6,108.7 656.7,108.7 657.8,108.7 658.9,108.8 660.0,109.1 661.1,109.0 662.2,108.8 663.3,109.0 664.4,109.2 665.6,109.2 666.7,108.7 667.8,109.0 668.9,109.1 670.0,108.9 671.1,109.3 672.2,109.0 673.3,109.5 674.4,109.4 675.6,110.1 676.7,109.5 677.8,109.8 678.9,110.2 680.0,110.2 681.1,110.0 682.2,110.5 683.6,110.5 684.7,110.4 685.8,110.7 686.9,110.6 688.0,110.8 689.1,110.9 690.2,111.0 691.3,111.1 692.4,110.4 693.6,111.2 694.7,110.8 695.8,111.3 696.9,110.6 698.0,111.1 699.1,111.3 700.2,111.2 701.3,111.3 702.4,111.0 703.6,111.2 704.7,111.5 705.8,112.0 706.9,111.6 708.0,111.4 709.1,111.7 710.2,112.3 711.3,112.1 712.4,111.6 713.6,112.4 714.7,112.5 715.8,111.9 716.9,112.2 718.0,112.6 719.1,112.1 720.2,112.2 721.3,112.5 722.4,112.6 723.6,112.3 724.7,112.7 725.8,113.2 726.9,113.0 728.0,113.0 729.1,112.8 730.2,112.9 731.3,112.7 732.4,113.4 733.6,113.2 734.7,113.8 735.8,113.1 736.9,113.6 738.0,113.5 739.3,113.9 740.4,113.4 741.6,114.2 742.7,113.9 743.8,113.7 744.9,113.5 746.0,114.4 747.1,114.4 748.2,114.1 749.3,114.2 750.4,114.2 751.6,114.1 752.7,114.5 753.8,114.2 754.9,114.5 756.0,114.6 757.1,114.4 758.2,114.5 759.3,114.6 760.4,114.9 761.6,115.3 762.7,114.6 763.8,114.7 764.9,115.4 766.0,115.3 767.1,115.6 768.2,115.1 769.3,115.9 770.4,115.7 771.6,115.6 772.7,115.4 773.8,115.6 774.9,116.2 776.0,115.7 777.1,116.0 778.2,116.0 779.3,116.2 780.4,115.8 781.6,116.6 782.7,116.5 783.8,116.2 784.9,116.3 786.0,116.9 787.1,116.2 788.2,117.0 789.3,116.8 790.4,117.0 791.6,117.2 792.7,116.9 793.8,117.0 795.1,116.7 796.2,117.2 797.3,117.0 798.4,117.6 799.6,117.5 800.7,117.0 801.8,117.2 802.9,117.5 804.0,117.5 805.1,117.3 806.2,117.2 807.3,118.0 808.4,117.6 809.6,117.7 810.7,117.8 811.8,117.8 812.9,117.8 814.0,117.8 815.1,118.3 816.2,118.2 817.3,118.0 818.4,118.3 819.6,118.2 820.7,118.8 821.8,118.8 822.9,119.0 824.0,119.0 825.1,119.2 826.2,119.3 827.3,119.3 828.4,119.2 829.6,118.9 830.7,119.2 831.8,119.5 832.9,119.5 834.0,119.5 835.1,119.2 836.2,119.7 837.3,120.0 838.4,119.3 839.6,120.0 840.7,119.5 841.8,119.7 842.9,119.6 844.0,120.1 845.1,120.1 846.2,120.0 847.3,120.2 848.4,120.1 849.6,120.4 850.9,120.2 852.0,120.3 853.1,120.7 854.2,120.9 855.3,120.5 856.4,120.4 857.6,120.4 858.7,121.0 859.8,121.3 860.9,120.6 862.0,120.6 863.1,121.0 864.2,121.2 865.3,121.2 866.4,121.7 867.6,121.4 868.7,121.5 869.8,121.4 870.9,121.3 872.0,121.8 873.1,121.8 874.2,121.7 875.3,122.2 876.4,122.1 877.6,121.9 878.7,122.2 879.8,122.3 880.9,122.4 882.0,122.5 883.1,122.6 884.2,122.1 885.3,122.3 886.4,122.1 887.6,122.3 888.7,122.2 889.8,122.4 890.9,122.5 892.0,122.8 893.1,122.5 894.2,123.1 895.3,123.4 896.4,123.1 897.6,123.1 898.7,123.3 899.8,123.2 900.9,123.4 902.0,123.2 903.1,123.9 904.2,123.9 905.3,123.9 906.7,123.6 907.8,123.7 908.9,124.2 910.0,124.2 911.1,124.2 912.2,124.0 913.3,124.2 914.4,124.3 915.6,124.2 916.7,124.2 917.8,124.4 918.9,124.3 920.0,124.2 921.1,124.5 922.2,124.3 923.3,125.1 924.4,124.4 925.6,124.9 926.7,125.0 927.8,124.7 928.9,125.4 930.0,124.6 70.6,429.3 70.6,429.9 71.7,429.3 72.8,429.2 73.9,429.9 75.0,429.3 76.1,429.4 77.2,429.7 78.3,429.4 79.4,429.8 80.6,429.6 81.7,429.3 82.8,429.6 83.9,429.9 85.0,429.5 86.1,430.0 87.2,429.1 88.3,429.8 89.4,429.2 90.6,429.7 91.7,429.3 92.8,429.8 93.9,429.3 95.0,429.6 96.1,429.9 97.2,429.5 98.3,429.5 99.4,429.5 100.6,429.2 101.7,395.2 102.8,363.6 103.9,335.0 105.0,317.4 106.1,301.8 107.2,293.4 108.3,281.3 109.4,276.8 110.6,277.4 111.7,274.2 112.8,273.0 113.9,276.7 115.0,280.7 116.1,285.7 117.2,291.4 118.3,297.3 119.4,305.0 120.6,312.1 121.7,322.5 122.8,331.0 123.9,341.5 125.2,347.4 126.3,355.4 127.4,363.7 128.6,374.1 129.7,385.9 130.8,397.8 131.9,410.4 133.0,422.3 134.1,427.9 135.2,428.2 136.3,428.1 137.4,427.9 138.6,428.3 139.7,428.4 140.8,428.3 141.9,427.8 143.0,428.1 144.1,428.2 145.2,428.3 146.3,428.4 147.4,428.1 148.6,428.1 149.7,428.1 150.8,428.2 151.9,427.8 153.0,428.3 154.1,427.9 155.2,428.2 156.3,428.3 157.4,428.4 158.6,427.8 159.7,428.2 160.8,427.7 161.9,427.7 163.0,428.1 164.1,428.4 165.2,427.9 166.3,427.8 167.4,428.1 168.6,427.7 169.7,428.1 170.8,428.1 171.9,427.8 173.0,428.2 174.1,421.2 175.2,406.5 176.3,391.6 177.4,376.4 178.6,360.6 179.7,344.6 181.0,329.3 182.1,313.0 183.2,296.9 184.3,281.8 185.4,265.9 186.6,250.6 187.7,236.4 188.8,221.4 189.9,207.4 191.0,193.7 192.1,180.5 193.2,168.1 194.3,156.3 195.4,144.8 196.6,134.2 197.7,124.1 198.8,115.0 199.9,106.9 201.0,100.2 202.1,93.3 203.2,88.0 204.3,83.4 205.4,79.0 206.6,76.2 207.7,75.0 208.8,74.0 209.9,74.4 211.0,75.0 212.1,77.5 213.2,80.6 214.3,84.0 215.4,89.3 216.6,95.4 217.7,101.6 218.8,108.9 219.9,117.9 221.0,126.8 222.1,136.7 223.2,147.1 224.3,158.3 225.4,170.3 226.6,183.1 227.7,195.8 228.8,209.7 229.9,223.8 231.0,238.7 232.1,253.2 233.2,267.9 234.3,283.9 235.4,298.8 236.8,314.7 237.9,330.0 239.0,346.0 70.0,430.0 70.0,429.3 71.1,429.7 72.2,429.6 73.3,429.8 74.4,429.4 75.6,429.2 76.7,429.6 77.8,429.3 78.9,429.7 80.0,429.4 81.1,429.5 82.2,429.5 83.3,429.7 84.4,421.5 85.6,415.2 86.7,410.2 87.8,407.2 88.9,403.7 90.0,401.3 91.1,399.5 92.2,398.6 93.3,397.0 94.4,396.4 95.6,394.9 96.7,394.4 97.8,394.1 98.9,71.0 100.0,70.0 101.1,71.0 102.2,71.3 103.3,71.5 104.4,71.3 105.6,72.0 106.7,72.4 107.8,72.3 108.9,72.4 110.0,72.7 111.1,72.6 112.2,73.1 113.3,73.4 114.4,73.6 115.6,73.1 116.7,74.0 117.8,73.5 118.9,74.0 120.0,74.4 121.1,74.5 122.2,74.3 123.3,74.0 124.4,74.1 125.8,74.4" fill="none" stroke="blue" stroke-width="1.5" stroke-dasharray="5,3"/>
<line x1="70" y1="430" x2="930" y2="430" stroke="#333" stroke-width="2"/>
<line x1="70" y1="70" x2="70" y2="430" stroke="#333" stroke-width="2"/>
<line x1="930" y1="70" x2="930" y2="430" stroke="#333" stroke-width="2"/>
<text x="70.0" y="450" text-anchor="middle" font-family="sans-serif" font-size="12">0s</text>
<text x="242.0" y="450" text-anchor="middle" font-family="sans-serif" font-size="12">31s</text>
<text x="414.0" y="450" text-anchor="middle" font-family="sans-serif" font-size="12">62s</text>
<text x="586.0" y="450" text-anchor="middle" font-family="sans-serif" font-size="12">93s</text>
<text x="758.0" y="450" text-anchor="middle" font-family="sans-serif" font-size="12">124s</text>
<text x="929.9999999999999" y="450" text-anchor="middle" font-family="sans-serif" font-size="12">155s</text>
<g transform="translate(820, 60)">
<rect width="120" height="50" fill="white" fill-opacity="0.9" stroke="#ccc"/>
<line x1="10" y1="15" x2="40" y2="15" stroke="red" stroke-width="3"/>
<text x="45" y="20" font-family="sans-serif" font-size="14">Voltage</text>
<line x1="10" y1="35" x2="40" y2="35" stroke="blue" stroke-width="2" stroke-dasharray="5,3"/>
<text x="45" y="40" font-family="sans-serif" font-size="14">Current</text>
</g>
</svg>