<svg viewBox="0 0 1000 600" xmlns="http://www.w3.org/2000/svg">
<rect width="100%" height="100%" fill="#ffffff"/>
<text x="500.0" y="35" text-anchor="middle" font-family="sans-serif" font-size="22" font-weight="bold">Outgassing Characterization Detail (Zoom): dropout</text>
<line x1="75" y1="525.0" x2="925" y2="525.0" stroke="#eee" stroke-width="1"/>
<text x="65" y="529.0" text-anchor="end" font-family="sans-serif" font-size="12" fill="red">12.00V</text>
<line x1="75" y1="435.0" x2="925" y2="435.0" stroke="#eee" stroke-width="1"/>
<text x="65" y="439.0" text-anchor="end" font-family="sans-serif" font-size="12" fill="red">12.33V</text>
<line x1="75" y1="345.0" x2="925" y2="345.0" stroke="#eee" stroke-width="1"/>
<text x="65" y="349.0" text-anchor="end" font-family="sans-serif" font-size="12" fill="red">12.66V</text>
<line x1="75" y1="255.0" x2="925" y2="255.0" stroke="#eee" stroke-width="1"/>
<text x="65" y="259.0" text-anchor="end" font-family="sans-serif" font-size="12" fill="red">12.99V</text>
<line x1="75" y1="165.0" x2="925" y2="165.0" stroke="#eee" stroke-width="1"/>
<text x="65" y="169.0" text-anchor="end" font-family="sans-serif" font-size="12" fill="red">13.32V</text>
<line x1="75" y1="74.99999999999994" x2="925" y2="74.99999999999994" stroke="#eee" stroke-width="1"/>
<text x="65" y="78.99999999999994" text-anchor="end" font-family="sans-serif" font-size="12" fill="red">13.65V</text>
<text x="935" y="529.0" text-anchor="start" font-family="sans-serif" font-size="12" fill="blue">-0.05A</text>
<text x="935" y="439.0" text-anchor="start" font-family="sans-serif" font-size="12" fill="blue">0.11A</text>
<text x="935" y="349.0" text-anchor="start" font-family="sans-serif" font-size="12" fill="blue">0.27A</text>
<text x="935" y="259.0" text-anchor="start" font-family="sans-serif" font-size="12" fill="blue">0.43A</text>
<text x="935" y="169.0" text-anchor="start" font-family="sans-serif" font-size="12" fill="blue">0.59A</text>
<text x="935" y="79.0" text-anchor="start" font-family="sans-serif" font-size="12" fill="blue">0.75A</text>
<line x1="75" y1="345.0" x2="925" y2="345.0" stroke="green" stroke-width="0.5" stroke-dasharray="2,2" opacity="0.3"/>
<text x="115" y="343.0" text-anchor="start" font-family="sans-serif" font-size="10" fill="green">Eff:0.50</text>
<line x1="75" y1="255.0" x2="925" y2="255.0" stroke="green" stroke-width="0.5" stroke-dasharray="2,2" opacity="0.3"/>
<text x="115" y="253.0" text-anchor="start" font-family="sans-serif" font-size="10" fill="green">Eff:0.75</text>
<line x1="75" y1="165.0" x2="925" y2="165.0" stroke="green" stroke-width="0.5" stroke-dasharray="2,2" opacity="0.3"/>
<text x="115" y="163.0" text-anchor="start" font-family="sans-serif" font-size="10" fill="green">Eff:1.00</text>
<polyline points="75.0,525.0 83.4,117.1 91.8,117.3 100.1,117.4 108.5,117.5 116.9,117.4 125.3,117.6 133.7,117.7 142.1,117.7 150.4,117.8 158.8,117.6 167.2,117.8 175.6,117.3 184.0,117.0 192.4,116.8 200.7,116.4 209.1,116.2 217.5,116.1 225.9,115.9 234.3,115.7 242.7,115.6 251.0,115.6 259.4,115.6 267.8,115.6 276.2,115.5 284.6,115.6 292.9,115.4 301.3,115.5 309.7,115.2 318.1,115.3 326.5,115.3 334.9,115.3 343.2,115.3 351.6,115.2 360.0,115.0 368.4,115.2 376.8,115.2 385.2,115.0 393.5,115.0 401.9,115.0 410.3,115.0 418.7,114.9 427.1,115.0 435.5,114.9 443.8,114.8 452.2,114.7 460.6,114.9 469.0,114.9 477.4,114.9 485.7,114.8 494.1,114.8 502.5,98.0 510.9,97.2 519.3,96.2 527.7,95.4 536.0,94.6 544.4,93.8 552.8,92.9 561.2,92.3 569.6,91.7 578.0,91.0 586.3,90.3 594.7,89.7 603.1,89.1 611.5,88.4 619.9,87.9 628.3,87.2 636.6,86.7 645.0,86.2 653.4,85.7 661.8,85.3 670.2,84.7 678.6,84.4 686.9,83.9 695.3,83.3 703.7,83.0 712.1,82.5 720.5,82.1 728.8,81.8 737.2,81.5 745.6,81.0 754.0,80.8 762.4,80.3 770.8,80.0 779.1,79.7 787.5,79.4 795.9,79.0 804.3,78.7 812.7,78.4 821.1,78.1 829.4,77.7 837.8,77.5 846.2,77.1 854.6,77.0 863.0,76.6 871.4,76.5 879.7,76.1 888.1,75.9 896.5,75.6 908.2,75.3 916.6,75.0 925.0,91.5" fill="none" stroke="red" stroke-width="2.5" opacity="0.8"/>
<polyline points="75.0,496.6 83.4,524.5 91.8,524.6 100.1,525.0 108.5,524.9 116.9,524.5 125.3,524.8 133.7,524.4 142.1,524.9 150.4,524.3 158.8,524.3 167.2,524.5 175.6,513.9 184.0,503.4 192.4,496.9 200.7,492.6 209.1,488.1 217.5,485.2 225.9,482.3 234.3,479.9 242.7,479.0 251.0,478.8 259.4,479.1 267.8,478.7 276.2,479.4 284.6,479.7 292.9,479.5 301.3,479.2 309.7,479.2 318.1,479.5 326.5,479.5 334.9,479.0 343.2,479.0 351.6,479.4 360.0,479.2 368.4,478.8 376.8,479.5 385.2,479.6 393.5,479.7 401.9,479.0 410.3,479.2 418.7,479.5 427.1,479.3 435.5,478.8 443.8,479.1 452.2,479.0 460.6,479.2 469.0,479.2 477.4,479.2 485.7,479.4 494.1,479.5 502.5,75.1 510.9,75.1 519.3,75.7 527.7,75.0 536.0,75.9 544.4,75.7 552.8,76.2 561.2,76.6 569.6,76.2 578.0,76.7 586.3,77.2 594.7,76.7 603.1,77.5 611.5,77.5 619.9,77.9 628.3,77.8 636.6,77.8 645.0,77.8 653.4,78.4 661.8,77.9 670.2,77.8 678.6,78.5 686.9,78.8 695.3,78.3 703.7,78.3 712.1,78.4 720.5,78.9 728.8,79.3 737.2,79.4 745.6,79.2 754.0,78.9 762.4,79.1 770.8,79.8 779.1,79.4 787.5,80.1 795.9,79.7 804.3,79.6 812.7,80.5 821.1,80.2 829.4,80.3 837.8,80.0 846.2,80.1 854.6,79.8 863.0,80.4 871.4,80.5 879.7,80.8 888.1,80.3 896.5,81.0 908.2,81.1 916.6,81.1 925.0,479.7" fill="none" stroke="blue" stroke-width="1.5" stroke-dasharray="5,3"/>
<polyline points="75.0,165.0 83.4,165.0 91.8,165.0 100.1,165.0 108.5,165.0 116.9,165.0 125.3,165.0 133.7,165.0 142.1,165.0 150.4,165.0 158.8,165.0 167.2,165.0 175.6,165.0 184.0,165.0 192.4,165.0 200.7,165.0 209.1,165.0 217.5,165.0 225.9,165.0 234.3,165.0 242.7,165.0 251.0,165.0 259.4,165.0 267.8,165.0 276.2,165.0 284.6,165.0 292.9,165.0 301.3,165.0 309.7,165.0 318.1,165.0 326.5,165.0 334.9,165.0 343.2,165.0 351.6,165.0 360.0,165.0 368.4,165.0 376.8,165.0 385.2,165.0 393.5,165.0 401.9,165.0 410.3,165.0 418.7,165.0 427.1,165.0 435.5,165.0 443.8,165.0 452.2,165.0 460.6,165.0 469.0,165.0 477.4,165.0 485.7,165.0 494.1,165.0 502.5,165.0 510.9,165.0 519.3,165.0 527.7,165.0 536.0,165.0 544.4,165.0 552.8,165.0 561.2,165.0 569.6,165.0 578.0,165.0 586.3,165.0 594.7,165.0 603.1,165.0 611.5,165.0 619.9,165.0 628.3,165.0 636.6,165.0 645.0,165.0 653.4,165.0 661.8,165.0 670.2,165.0 678.6,165.0 686.9,165.0 695.3,165.0 703.7,165.0 712.1,165.0 720.5,165.0 728.8,165.0 737.2,165.0 745.6,165.0 754.0,165.0 762.4,165.0 770.8,165.0 779.1,165.0 787.5,165.0 795.9,165.0 804.3,165.0 812.7,165.0 821.1,165.0 829.4,165.0 837.8,165.0 846.2,165.0 854.6,165.0 863.0,165.0 871.4,165.0 879.7,165.0 888.1,165.0 896.5,165.0 908.2,165.0 916.6,165.0 925.0,165.0" fill="none" stroke="green" stroke-width="1.2" opacity="0.6"/>
<line x1="75" y1="525" x2="925" y2="525" stroke="#333" stroke-width="2"/>
<line x1="75" y1="75" x2="75" y2="525" stroke="#333" stroke-width="2"/>
<line x1="925" y1="75" x2="925" y2="525" stroke="#333" stroke-width="2"/>
<text x="75.0" y="550" text-anchor="middle" font-family="sans-serif" font-size="12">0s</text>
<text x="245.0" y="550" text-anchor="middle" font-family="sans-serif" font-size="12">2s</text>
<text x="415.0" y="550" text-anchor="middle" font-family="sans-serif" font-size="12">4s</text>
<text x="585.0" y="550" text-anchor="middle" font-family="sans-serif" font-size="12">6s</text>
<text x="755.0" y="550" text-anchor="middle" font-family="sans-serif" font-size="12">8s</text>
<text x="925.0" y="550" text-anchor="middle" font-family="sans-serif" font-size="12">10s</text>
<g transform="translate(800, 60)">
<rect width="140" height="70" fill="white" fill-opacity="0.9" stroke="#ccc"/>
<line x1="10" y1="15" x2="40" y2="15" stroke="red" stroke-width="3"/>
<text x="45" y="20" font-family="sans-serif" font-size="14">Voltage</text>
<line x1="10" y1="35" x2="40" y2="35" stroke="blue" stroke-width="2" stroke-dasharray="5,3"/>
<text x="45" y="40" font-family="sans-serif" font-size="14">Current</text>
<line x1="10" y1="55" x2="40" y2="55" stroke="green" stroke-width="1.2"/>
<text x="45" y="60" font-family="sans-serif" font-size="14">Efficiency</text>
</g>
</svg>