<svg viewBox="0 0 1000 500" xmlns="http://www.w3.org/2000/svg">
<rect width="100%" height="100%" fill="#ffffff"/>
<text x="500.0" y="35" text-anchor="middle" font-family="sans-serif" font-size="22" font-weight="bold">Outgassing Characterization Detail (Zoom): healthy</text>
<line x1="70" y1="430.0" x2="930" y2="430.0" stroke="#eee" stroke-width="1"/>
<text x="65" y="434.0" text-anchor="end" font-family="sans-serif" font-size="12" fill="red">13.66V</text>
<line x1="70" y1="358.0" x2="930" y2="358.0" stroke="#eee" stroke-width="1"/>
<text x="65" y="362.0" text-anchor="end" font-family="sans-serif" font-size="12" fill="red">13.69V</text>
<line x1="70" y1="286.0" x2="930" y2="286.0" stroke="#eee" stroke-width="1"/>
<text x="65" y="290.0" text-anchor="end" font-family="sans-serif" font-size="12" fill="red">13.73V</text>
<line x1="70" y1="214.0" x2="930" y2="214.0" stroke="#eee" stroke-width="1"/>
<text x="65" y="218.0" text-anchor="end" font-family="sans-serif" font-size="12" fill="red">13.76V</text>
<line x1="70" y1="142.0" x2="930" y2="142.0" stroke="#eee" stroke-width="1"/>
<text x="65" y="146.0" text-anchor="end" font-family="sans-serif" font-size="12" fill="red">13.79V</text>
<line x1="70" y1="70.0" x2="930" y2="70.0" stroke="#eee" stroke-width="1"/>
<text x="65" y="74.0" text-anchor="end" font-family="sans-serif" font-size="12" fill="red">13.83V</text>
<text x="935" y="434.0" text-anchor="start" font-family="sans-serif" font-size="12" fill="blue">-0.05A</text>
<text x="935" y="362.0" text-anchor="start" font-family="sans-serif" font-size="12" fill="blue">0.11A</text>
<text x="935" y="290.0" text-anchor="start" font-family="sans-serif" font-size="12" fill="blue">0.26A</text>
<text x="935" y="218.00000000000003" text-anchor="start" font-family="sans-serif" font-size="12" fill="blue">0.42A</text>
<text x="935" y="146.0" text-anchor="start" font-family="sans-serif" font-size="12" fill="blue">0.58A</text>
<text x="935" y="74.0" text-anchor="start" font-family="sans-serif" font-size="12" fill="blue">0.73A</text>
<polyline points="70.0,430.0 71.9,283.1 73.2,277.4 74.6,268.6 75.9,261.6 77.3,255.7 78.6,247.1 80.0,241.9 81.3,234.4 82.7,229.6 84.0,223.7 85.4,218.2 86.7,213.4 88.1,207.0 89.4,202.0 90.8,197.2 92.1,192.8 93.5,189.5 94.8,183.8 96.2,180.9 97.5,177.0 98.9,172.6 100.2,169.8 101.6,164.5 102.9,306.6 104.2,166.5 105.6,307.4 106.9,167.1 108.3,306.3 109.6,166.0 111.0,307.4 112.3,167.8 113.7,306.8 115.0,168.0 116.4,307.0 117.7,168.4 119.1,307.7 120.4,167.6 121.8,307.7 123.1,165.8 124.5,307.2 125.8,165.6 127.2,306.3 128.5,166.2 129.9,306.6 131.2,164.9 132.6,304.8 133.9,164.3 135.3,303.9 136.6,165.2 138.0,303.3 139.3,162.7 140.7,304.4 142.0,162.5 143.4,303.1 144.7,161.4 146.0,300.6 147.4,159.9 148.7,300.9 150.1,159.0 151.4,299.8 152.8,159.0 154.1,298.7 155.5,156.6 156.8,296.5 158.2,157.5 159.5,297.1 160.9,156.2 162.2,294.1 163.6,154.8 164.9,293.8 166.3,152.9 167.6,291.7 169.0,151.1 170.3,292.5 171.7,150.2 173.0,289.5 174.4,150.2 175.7,288.6 177.1,147.6 178.4,287.7 179.8,147.6 181.1,286.4 182.5,144.8 183.8,284.6 185.2,144.5 186.5,283.8 187.8,142.6 189.2,283.1 190.5,141.7 191.9,280.7 193.2,139.5 194.6,281.1 195.9,139.7 197.3,278.1 198.6,138.2 200.0,276.3 201.3,135.6 202.7,276.1 204.0,134.7 205.4,275.4 206.7,134.9 208.1,273.5 209.4,133.1 210.8,271.5 212.1,130.7 213.5,271.3 214.8,129.2 216.2,268.9 217.5,128.3 218.9,267.8 220.2,127.7 221.6,265.6 222.9,126.3 224.3,265.8 225.6,125.2 227.0,264.7 228.3,123.5 229.6,262.5 231.0,121.7 232.3,260.3 233.7,119.3 235.0,259.2 236.4,118.9 237.7,258.1 239.1,117.8 240.4,257.5 241.8,115.8 243.1,255.0 244.5,115.6 245.8,254.8 247.2,114.5 248.5,253.5 249.9,111.0 251.2,251.5 252.6,110.8 253.9,250.4 255.3,109.0 256.6,248.5 258.0,107.3 259.3,246.9 260.7,106.4 262.0,244.7 263.4,105.7 264.7,244.7 266.1,103.3 267.4,243.6 268.8,101.8 270.1,241.2 271.4,100.3 272.8,240.8 274.1,100.0 275.5,239.7 276.8,97.8 278.2,236.6 279.5,97.8 280.9,235.5 282.2,95.9 283.6,235.1 284.9,94.1 286.3,232.5 287.6,93.9 289.0,232.2 290.3,92.1 291.7,230.0 293.0,90.0 294.4,229.4 295.7,88.9 297.1,227.6 298.4,87.8 299.8,226.1 301.1,84.9 302.5,225.7 303.8,84.5 305.2,223.0 306.5,83.2 307.9,222.6 309.2,81.8 310.6,220.2 311.9,79.9 313.2,218.9 314.6,79.4 315.9,216.9 317.3,77.7 318.6,217.3 320.0,76.8 321.3,215.6 322.7,74.2 324.0,212.9 325.4,72.9 326.7,212.1 328.1,71.3 329.4,210.1 330.8,70.0 332.1,209.7 333.5,212.7 334.8,216.9 336.2,219.1 337.5,222.2 338.9,224.8 340.2,226.8 341.6,229.2 342.9,231.6 344.3,234.2 345.6,237.5 347.0,238.2 348.3,240.4 349.7,241.7 351.0,244.5 352.4,246.7 353.7,246.7 355.0,248.2 356.4,250.4 357.7,251.5 359.1,254.4 360.4,254.8 361.8,256.8 363.1,256.6 364.5,257.7 365.8,259.9 367.2,260.7 368.5,262.1 369.9,262.9 371.2,264.0 372.6,264.7 373.9,264.5 375.3,265.1 376.6,265.8 378.0,266.7 379.3,267.8 380.7,269.1 382.0,269.3 383.4,270.6 384.7,269.3 386.1,270.6 387.4,271.5 388.8,272.6 390.1,272.4 391.5,272.1 392.8,272.6 394.2,273.5 395.5,274.1 396.8,273.7 398.2,275.4 399.5,276.3 400.9,275.7 402.2,275.9 403.6,277.0 404.9,276.3 406.3,277.8 407.6,277.6 409.0,277.4 410.3,277.6 411.7,278.7 413.0,279.4 414.4,277.8 415.7,279.4 417.1,278.5 418.4,278.9 419.8,279.4 421.1,280.5 422.5,280.3 423.8,281.1 425.2,279.8 426.5,280.9 427.9,281.4 429.2,280.7 430.6,281.4 431.9,280.9 433.3,282.7 434.6,281.6 436.0,281.6 437.3,283.3 438.6,281.6 440.0,283.1 441.3,282.9 442.7,282.0 444.0,284.0 445.4,283.8 446.7,284.0 448.1,284.4 449.4,284.4 450.8,283.8 452.1,283.1 453.5,283.3 454.8,283.5 456.2,285.1 457.5,284.0 458.9,285.7 460.2,284.6 461.6,284.9 462.9,286.2 464.3,286.0 465.6,285.5 467.0,286.4 468.3,285.7 469.7,286.0 471.0,285.5 472.4,286.2 473.7,287.1 475.1,287.3 476.4,286.0 477.8,287.3 479.1,287.5 480.4,286.2 481.8,287.9 483.1,286.4 484.5,286.6 485.8,286.2 487.2,287.5 488.5,286.6 489.9,288.4 491.2,287.9 492.6,288.1 493.9,288.4 495.3,287.9 496.6,287.5 498.0,288.8 499.3,289.2 500.7,288.1 502.0,287.7 503.4,288.8 504.7,288.4 506.1,289.7 507.4,289.5 508.8,289.9 510.1,288.8 511.5,288.4 512.8,288.4 514.2,289.0 515.5,289.7 516.9,289.2 518.2,290.1 519.6,289.0 520.9,290.1 522.2,289.9 523.6,289.7 524.9,290.3 526.3,289.5 527.6,289.7 529.0,291.7 530.3,290.8 531.7,290.6 533.0,291.7 534.4,290.1 535.7,292.3 537.1,290.8 538.4,291.4 539.8,291.9 541.1,291.9 542.5,291.4 543.8,291.7 545.2,292.1 546.5,292.1 547.9,291.4 549.2,291.7 550.6,293.0 551.9,292.5 553.3,293.2 554.6,292.8 556.0,293.4 557.3,294.1 558.7,293.4 560.0,294.3 561.4,293.4 562.7,293.4 564.0,293.8 565.4,292.5 566.7,293.6 568.1,293.2 569.4,293.4 570.8,293.4 572.1,294.7 573.5,293.6 574.8,293.4 576.2,294.9 577.5,294.3 578.9,294.3 580.2,293.8 581.6,294.7 582.9,294.1 584.3,294.5 585.6,294.1 587.0,294.7 588.3,296.5 589.7,295.2 591.0,296.5 592.4,296.5 593.7,294.9 595.1,296.9 596.4,296.7 597.8,296.7 599.1,295.4 600.5,295.4 601.8,295.8 603.2,296.7 604.5,296.9 605.8,297.6 607.2,297.4 608.5,296.7 609.9,296.0 611.2,296.0 612.6,296.7 613.9,298.0 615.3,296.5 616.6,296.7 618.0,298.5 619.3,297.1 620.7,298.9 622.0,298.0 623.4,297.1 624.7,298.5 626.1,299.3 627.4,298.5 628.8,299.5 630.1,299.5 631.5,298.0 632.8,299.8 634.2,299.3 635.5,298.2 636.9,299.8 638.2,298.2 639.6,300.0 640.9,298.7 642.3,298.9 643.6,298.9 645.0,299.8 646.3,298.9 647.6,300.0 649.0,300.9 650.3,299.5 651.7,299.3 653.0,301.3 654.4,300.0 655.7,300.2 657.1,301.7 658.4,300.0 659.8,300.9 661.1,300.0 662.5,301.1 663.8,301.7 665.2,300.2 666.5,300.9 667.9,301.1 669.2,301.3 670.6,300.6 671.9,302.4 673.3,302.0 674.6,302.2 676.0,301.7 677.3,302.4 678.7,301.5 680.0,302.2 681.4,302.4 682.7,303.3 684.1,303.5 685.4,302.0 686.8,302.4 688.1,302.4 689.4,303.1 690.8,304.2 692.1,303.5 693.5,302.6 694.8,303.7 696.2,304.4 697.5,304.4 698.9,304.4 700.8,159.2 702.1,296.3 703.5,295.8 704.8,297.1 706.2,298.0 707.5,296.9 708.9,298.9 710.2,297.6 711.6,298.9 712.9,298.9 714.3,298.7 715.6,298.7 717.0,300.0 718.3,299.8 719.7,299.8 721.0,301.7 722.3,302.0 723.7,301.3 725.0,302.4 726.4,302.4 727.7,302.8 729.1,303.1 730.4,301.7 731.8,301.7 733.1,303.7 734.5,303.9 735.8,303.5 737.2,288.4 738.5,303.3 739.9,292.8 741.2,303.3 742.6,286.0 743.9,303.1 745.3,302.4 746.6,282.0 748.0,302.0 749.3,301.3 750.7,288.4 752.0,300.6 753.4,290.3 754.7,301.7 756.1,283.3 757.4,300.4 758.8,301.5 760.1,302.4 761.5,302.4 762.8,302.4 764.1,303.5 765.5,303.3 766.8,302.6 768.2,303.5 769.5,303.3 770.9,303.7 772.2,303.9 773.6,303.5 774.9,304.2 776.3,305.9 777.6,305.9 779.0,305.2 780.3,305.9 781.7,306.6 783.0,305.0 784.4,306.3 785.7,306.8 787.1,305.9 788.4,306.8 789.8,306.6 791.1,307.2 792.5,306.1 793.8,308.3 795.2,307.0 796.5,307.2 797.9,307.0 799.2,309.0 800.6,309.0 801.9,308.3 803.3,307.9 804.6,309.2 805.9,308.5 807.3,309.6 808.6,307.9 810.0,308.5 811.3,309.0 812.7,309.0 814.0,309.9 815.4,310.5 816.7,310.5 818.1,310.3 819.4,309.9 820.8,309.0 822.1,309.4 823.5,309.9 824.8,310.1 826.2,309.6 827.5,310.5 828.9,311.4 830.2,310.3 831.6,310.7 832.9,310.7 834.3,311.0 835.6,311.8 837.0,311.8 838.3,311.4 839.7,311.6 841.0,311.0 842.4,311.2 843.7,312.0 845.1,313.1 846.4,313.1 847.7,312.3 849.1,312.3 850.4,312.5 851.8,312.3 853.1,313.8 854.5,312.3 855.8,313.6 857.2,312.5 858.5,314.0 859.9,312.7 861.2,313.1 862.6,313.4 863.9,312.9 865.3,313.8 866.6,313.4 868.0,313.4 869.3,313.6 870.7,314.0 872.0,315.3 873.4,314.0 874.7,313.6 876.1,315.1 877.4,314.9 878.8,315.3 880.1,315.6 881.5,315.3 882.8,314.7 884.2,315.8 885.5,315.1 886.9,315.3 888.2,314.9 889.5,315.1 890.9,315.8 892.2,316.4 893.6,315.1 894.9,315.3 896.3,316.2 897.6,315.6 899.0,315.3 900.3,317.1 901.7,317.3 903.0,316.7 904.4,317.3 905.7,317.7 907.1,316.2 908.4,317.3 909.8,318.4 911.1,317.3 912.5,317.7 913.8,318.2 915.2,317.1 916.5,318.4 917.9,318.0 919.2,318.6 920.6,318.6 921.9,317.5 923.3,317.3 924.6,318.0 926.0,318.8 927.3,318.8 928.7,317.7 930.0,319.1" fill="none" stroke="red" stroke-width="2.5" opacity="0.8"/>
<polyline points="70.0,429.4 71.9,70.5 73.2,70.0 74.6,70.2 75.9,71.2 77.3,70.7 78.6,71.2 80.0,71.5 81.3,71.5 82.7,71.2 84.0,72.0 85.4,72.3 86.7,72.3 88.1,72.5 89.4,72.3 90.8,72.3 92.1,72.4 93.5,72.9 94.8,73.3 96.2,73.1 97.5,73.5 98.9,73.6 100.2,73.6 101.6,73.3 102.9,429.6 104.2,73.3 105.6,429.7 106.9,73.5 108.3,429.6 109.6,73.3 111.0,429.6 112.3,73.5 113.7,429.7 115.0,72.9 116.4,429.2 117.7,73.6 119.1,429.4 120.4,73.6 121.8,429.3 123.1,73.2 124.5,429.9 125.8,73.0 127.2,429.4 128.5,73.5 129.9,429.7 131.2,73.3 132.6,429.7 133.9,73.1 135.3,429.1 136.6,73.2 138.0,429.2 139.3,73.7 140.7,430.0 142.0,73.1 143.4,429.5 144.7,73.4 146.0,429.4 147.4,73.6 148.7,429.9 150.1,73.3 151.4,429.5 152.8,73.1 154.1,429.1 155.5,73.3 156.8,429.5 158.2,73.9 159.5,429.2 160.9,74.0 162.2,429.1 163.6,73.5 164.9,429.2 166.3,73.9 167.6,429.6 169.0,73.8 170.3,430.0 171.7,73.4 173.0,429.6 174.4,73.3 175.7,429.9 177.1,73.9 178.4,429.6 179.8,73.8 181.1,429.8 182.5,73.5 183.8,429.8 185.2,74.2 186.5,429.3 187.8,74.3 189.2,429.7 190.5,74.2 191.9,429.8 193.2,73.7 194.6,429.1 195.9,74.1 197.3,429.6 198.6,74.2 200.0,429.1 201.3,74.3 202.7,429.8 204.0,74.4 205.4,429.8 206.7,73.9 208.1,429.5 209.4,74.6 210.8,429.7 212.1,74.0 213.5,429.7 214.8,73.9 216.2,429.8 217.5,74.2 218.9,429.2 220.2,74.7 221.6,430.0 222.9,74.1 224.3,429.9 225.6,74.0 227.0,429.9 228.3,74.9 229.6,430.0 231.0,74.0 232.3,429.1 233.7,75.0 235.0,429.7 236.4,74.5 237.7,429.5 239.1,74.5 240.4,430.0 241.8,74.8 243.1,429.7 244.5,74.4 245.8,429.5 247.2,74.9 248.5,429.7 249.9,75.0 251.2,429.3 252.6,74.6 253.9,429.7 255.3,74.9 256.6,429.3 258.0,74.9 259.3,429.4 260.7,74.7 262.0,429.5 263.4,74.6 264.7,429.9 266.1,75.0 267.4,430.0 268.8,74.6 270.1,429.1 271.4,75.4 272.8,429.5 274.1,74.8 275.5,429.9 276.8,74.9 278.2,429.6 279.5,75.5 280.9,429.4 282.2,74.9 283.6,429.6 284.9,74.9 286.3,429.8 287.6,75.1 289.0,429.8 290.3,75.3 291.7,429.5 293.0,75.7 294.4,429.4 295.7,75.7 297.1,429.5 298.4,75.0 299.8,429.2 301.1,75.3 302.5,429.9 303.8,75.0 305.2,429.1 306.5,75.7 307.9,429.1 309.2,75.8 310.6,429.4 311.9,75.3 313.2,429.1 314.6,75.8 315.9,429.9 317.3,75.2 318.6,429.5 320.0,75.3 321.3,429.6 322.7,75.3 324.0,430.0 325.4,75.7 326.7,429.4 328.1,75.7 329.4,429.7 330.8,75.5 332.1,429.3 333.5,429.9 334.8,429.8 336.2,429.6 337.5,429.2 338.9,429.5 340.2,429.5 341.6,429.5 342.9,429.4 344.3,429.4 345.6,429.7 347.0,429.4 348.3,429.3 349.7,429.8 351.0,429.3 352.4,429.7 353.7,429.6 355.0,429.4 356.4,429.6 357.7,429.5 359.1,429.3 360.4,429.2 361.8,429.6 363.1,429.1 364.5,429.6 365.8,429.9 367.2,429.2 368.5,429.6 369.9,429.8 371.2,429.2 372.6,429.9 373.9,429.5 375.3,429.6 376.6,429.8 378.0,429.6 379.3,429.2 380.7,429.5 382.0,429.2 383.4,429.5 384.7,429.4 386.1,429.7 387.4,429.4 388.8,429.3 390.1,429.5 391.5,429.5 392.8,429.8 394.2,429.9 395.5,429.6 396.8,429.9 398.2,429.2 399.5,429.4 400.9,429.7 402.2,429.5 403.6,429.4 404.9,429.7 406.3,429.5 407.6,429.6 409.0,429.3 410.3,429.6 411.7,429.7 413.0,429.9 414.4,429.3 415.7,429.1 417.1,429.4 418.4,429.8 419.8,429.7 421.1,429.2 422.5,429.1 423.8,429.2 425.2,429.3 426.5,429.1 427.9,429.9 429.2,429.9 430.6,429.5 431.9,429.6 433.3,429.9 434.6,429.7 436.0,429.5 437.3,429.2 438.6,429.9 440.0,429.3 441.3,429.8 442.7,429.7 444.0,429.9 445.4,429.8 446.7,429.4 448.1,429.4 449.4,429.7 450.8,429.7 452.1,429.2 453.5,429.1 454.8,429.9 456.2,429.9 457.5,429.4 458.9,429.7 460.2,429.9 461.6,429.3 462.9,429.2 464.3,430.0 465.6,429.3 467.0,429.4 468.3,429.6 469.7,429.1 471.0,430.0 472.4,429.5 473.7,430.0 475.1,429.3 476.4,429.1 477.8,429.7 479.1,429.9 480.4,430.0 481.8,429.1 483.1,429.4 484.5,429.2 485.8,429.9 487.2,429.1 488.5,429.5 489.9,429.6 491.2,429.9 492.6,429.2 493.9,429.8 495.3,429.4 496.6,429.5 498.0,429.3 499.3,429.4 500.7,429.8 502.0,430.0 503.4,429.4 504.7,429.5 506.1,429.5 507.4,429.2 508.8,429.1 510.1,429.5 511.5,429.6 512.8,429.4 514.2,429.3 515.5,429.6 516.9,429.2 518.2,429.2 519.6,429.3 520.9,429.5 522.2,429.3 523.6,429.8 524.9,429.7 526.3,429.6 527.6,429.4 529.0,429.3 530.3,429.3 531.7,429.1 533.0,429.6 534.4,429.4 535.7,429.1 537.1,429.5 538.4,429.7 539.8,429.3 541.1,429.7 542.5,429.6 543.8,429.9 545.2,429.3 546.5,429.3 547.9,429.8 549.2,429.5 550.6,429.8 551.9,429.4 553.3,429.7 554.6,429.1 556.0,429.5 557.3,430.0 558.7,429.1 560.0,429.6 561.4,429.8 562.7,429.9 564.0,429.5 565.4,429.2 566.7,429.2 568.1,429.3 569.4,429.6 570.8,430.0 572.1,429.5 573.5,429.9 574.8,429.8 576.2,429.5 577.5,429.4 578.9,429.2 580.2,429.8 581.6,429.6 582.9,429.6 584.3,429.4 585.6,429.7 587.0,429.3 588.3,429.6 589.7,429.6 591.0,429.2 592.4,429.4 593.7,429.4 595.1,429.3 596.4,429.1 597.8,429.5 599.1,429.8 600.5,430.0 601.8,429.2 603.2,429.3 604.5,429.6 605.8,429.9 607.2,429.1 608.5,429.4 609.9,429.1 611.2,429.8 612.6,429.6 613.9,429.9 615.3,429.3 616.6,429.2 618.0,429.5 619.3,429.6 620.7,429.9 622.0,429.3 623.4,429.6 624.7,429.8 626.1,429.6 627.4,429.5 628.8,429.2 630.1,429.9 631.5,429.1 632.8,429.9 634.2,430.0 635.5,429.7 636.9,429.4 638.2,429.6 639.6,429.7 640.9,429.1 642.3,430.0 643.6,429.4 645.0,429.1 646.3,429.9 647.6,429.9 649.0,429.4 650.3,429.8 651.7,429.4 653.0,429.1 654.4,429.6 655.7,429.1 657.1,429.8 658.4,429.3 659.8,429.8 661.1,429.6 662.5,429.6 663.8,429.2 665.2,429.2 666.5,429.9 667.9,429.3 669.2,429.2 670.6,429.5 671.9,430.0 673.3,429.8 674.6,430.0 676.0,429.4 677.3,429.9 678.7,429.2 680.0,430.0 681.4,429.5 682.7,430.0 684.1,429.4 685.4,429.5 686.8,429.1 688.1,429.2 689.4,429.1 690.8,430.0 692.1,430.0 693.5,429.3 694.8,429.9 696.2,429.8 697.5,429.5 698.9,429.2 700.8,73.5 702.1,429.4 703.5,429.9 704.8,430.0 706.2,429.4 707.5,429.6 708.9,429.6 710.2,429.4 711.6,429.2 712.9,429.3 714.3,429.3 715.6,429.2 717.0,429.2 718.3,429.4 719.7,429.8 721.0,429.4 722.3,429.9 723.7,429.3 725.0,429.2 726.4,429.5 727.7,429.4 729.1,429.5 730.4,429.1 731.8,429.4 733.1,430.0 734.5,429.2 735.8,430.0 737.2,393.8 738.5,429.3 739.9,402.4 741.2,429.9 742.6,385.8 743.9,429.2 745.3,429.8 746.6,376.8 748.0,429.1 749.3,429.7 750.7,393.7 752.0,429.8 753.4,402.8 754.7,429.7 756.1,385.6 757.4,429.6 758.8,429.9 760.1,429.6 761.5,429.1 762.8,429.2 764.1,429.7 765.5,430.0 766.8,429.6 768.2,429.7 769.5,429.3 770.9,429.4 772.2,429.4 773.6,429.7 774.9,429.1 776.3,429.8 777.6,429.4 779.0,429.9 780.3,429.4 781.7,429.6 783.0,429.6 784.4,429.8 785.7,429.7 787.1,429.2 788.4,429.8 789.8,430.0 791.1,429.8 792.5,429.5 793.8,429.6 795.2,429.7 796.5,429.5 797.9,429.4 799.2,429.9 800.6,429.3 801.9,429.5 803.3,429.1 804.6,429.6 805.9,429.2 807.3,429.3 808.6,429.2 810.0,429.8 811.3,429.3 812.7,429.8 814.0,429.2 815.4,429.8 816.7,429.1 818.1,429.8 819.4,429.3 820.8,429.3 822.1,429.9 823.5,429.2 824.8,429.7 826.2,429.9 827.5,429.5 828.9,429.8 830.2,429.5 831.6,429.6 832.9,429.2 834.3,429.9 835.6,429.6 837.0,429.8 838.3,429.5 839.7,429.7 841.0,429.4 842.4,429.9 843.7,429.2 845.1,429.5 846.4,429.9 847.7,430.0 849.1,429.6 850.4,429.8 851.8,429.3 853.1,429.3 854.5,429.5 855.8,429.3 857.2,429.5 858.5,429.3 859.9,429.3 861.2,429.3 862.6,429.3 863.9,429.8 865.3,429.7 866.6,429.1 868.0,429.4 869.3,429.6 870.7,430.0 872.0,429.4 873.4,429.7 874.7,429.5 876.1,429.9 877.4,429.8 878.8,430.0 880.1,429.6 881.5,429.1 882.8,429.5 884.2,429.2 885.5,429.5 886.9,429.4 888.2,429.9 889.5,429.5 890.9,429.2 892.2,429.1 893.6,429.9 894.9,429.6 896.3,429.8 897.6,429.2 899.0,429.5 900.3,429.6 901.7,429.6 903.0,429.4 904.4,429.3 905.7,429.3 907.1,429.4 908.4,430.0 909.8,429.2 911.1,429.8 912.5,429.4 913.8,429.8 915.2,429.8 916.5,429.5 917.9,429.8 919.2,429.3 920.6,429.5 921.9,429.8 923.3,429.3 924.6,429.1 926.0,429.9 927.3,429.9 928.7,429.5 930.0,429.8" fill="none" stroke="blue" stroke-width="1.5" stroke-dasharray="5,3"/>
<line x1="70" y1="430" x2="930" y2="430" stroke="#333" stroke-width="2"/>
<line x1="70" y1="70" x2="70" y2="430" stroke="#333" stroke-width="2"/>
<line x1="930" y1="70" x2="930" y2="430" stroke="#333" stroke-width="2"/>
<text x="70.0" y="450" text-anchor="middle" font-family="sans-serif" font-size="12">60s</text>
<text x="241.99999999999991" y="450" text-anchor="middle" font-family="sans-serif" font-size="12">73s</text>
<text x="413.99999999999994" y="450" text-anchor="middle" font-family="sans-serif" font-size="12">86s</text>
<text x="586.0" y="450" text-anchor="middle" font-family="sans-serif" font-size="12">98s</text>
<text x="757.9999999999999" y="450" text-anchor="middle" font-family="sans-serif" font-size="12">111s</text>
<text x="930.0" y="450" text-anchor="middle" font-family="sans-serif" font-size="12">124s</text>
<g transform="translate(820, 60)">
<rect width="120" height="50" fill="white" fill-opacity="0.9" stroke="#ccc"/>
<line x1="10" y1="15" x2="40" y2="15" stroke="red" stroke-width="3"/>
<text x="45" y="20" font-family="sans-serif" font-size="14">Voltage</text>
<line x1="10" y1="35" x2="40" y2="35" stroke="blue" stroke-width="2" stroke-dasharray="5,3"/>
<text x="45" y="40" font-family="sans-serif" font-size="14">Current</text>
</g>
</svg>