<svg viewBox="0 0 1000 500" xmlns="http://www.w3.org/2000/svg">
<rect width="100%" height="100%" fill="#ffffff"/>
<text x="500.0" y="35" text-anchor="middle" font-family="sans-serif" font-size="22" font-weight="bold">Outgassing Characterization Detail (Zoom): healthy</text>
<line x1="70" y1="430.0" x2="930" y2="430.0" stroke="#eee" stroke-width="1"/>
<text x="65" y="434.0" text-anchor="end" font-family="sans-serif" font-size="12" fill="red">13.66V</text>
<line x1="70" y1="358.0000000000017" x2="930" y2="358.0000000000017" stroke="#eee" stroke-width="1"/>
<text x="65" y="362.0000000000017" text-anchor="end" font-family="sans-serif" font-size="12" fill="red">13.69V</text>
<line x1="70" y1="285.99999999999915" x2="930" y2="285.99999999999915" stroke="#eee" stroke-width="1"/>
<text x="65" y="289.99999999999915" text-anchor="end" font-family="sans-serif" font-size="12" fill="red">13.72V</text>
<line x1="70" y1="214.00000000000085" x2="930" y2="214.00000000000085" stroke="#eee" stroke-width="1"/>
<text x="65" y="218.00000000000085" text-anchor="end" font-family="sans-serif" font-size="12" fill="red">13.75V</text>
<line x1="70" y1="141.9999999999983" x2="930" y2="141.9999999999983" stroke="#eee" stroke-width="1"/>
<text x="65" y="145.9999999999983" text-anchor="end" font-family="sans-serif" font-size="12" fill="red">13.78V</text>
<line x1="70" y1="70.0" x2="930" y2="70.0" stroke="#eee" stroke-width="1"/>
<text x="65" y="74.0" text-anchor="end" font-family="sans-serif" font-size="12" fill="red">13.81V</text>
<text x="935" y="434.0" text-anchor="start" font-family="sans-serif" font-size="12" fill="blue">-0.05A</text>
<text x="935" y="362.0" text-anchor="start" font-family="sans-serif" font-size="12" fill="blue">0.11A</text>
<text x="935" y="290.0" text-anchor="start" font-family="sans-serif" font-size="12" fill="blue">0.26A</text>
<text x="935" y="218.0" text-anchor="start" font-family="sans-serif" font-size="12" fill="blue">0.42A</text>
<text x="935" y="146.0" text-anchor="start" font-family="sans-serif" font-size="12" fill="blue">0.58A</text>
<text x="935" y="74.0" text-anchor="start" font-family="sans-serif" font-size="12" fill="blue">0.73A</text>
<polyline points="70.0,430.0 72.1,272.6 73.7,262.2 75.2,255.3 76.7,248.5 78.2,238.5 79.7,233.5 81.3,225.0 82.8,220.0 84.3,212.2 85.8,205.1 87.3,200.6 88.9,193.9 90.4,188.7 91.9,183.8 93.4,179.3 95.0,173.3 96.5,169.5 98.0,163.6 99.5,158.6 101.0,156.5 102.6,151.3 104.1,147.0 105.6,143.2 107.1,296.1 108.6,143.2 110.2,295.9 111.7,143.5 113.2,297.8 114.7,144.4 116.3,297.0 117.8,145.4 119.3,297.8 120.8,144.9 122.3,296.8 123.9,145.1 125.4,296.3 126.9,144.4 128.4,297.5 130.0,144.9 131.5,296.6 133.0,143.9 134.5,296.3 136.0,145.1 137.6,294.7 139.1,144.2 140.6,295.9 142.1,142.3 143.6,293.5 145.2,141.1 146.7,293.7 148.2,141.6 149.7,293.0 151.3,139.4 152.8,291.8 154.3,139.4 155.8,291.4 157.3,137.5 158.9,288.7 160.4,136.8 161.9,287.6 163.4,134.9 164.9,286.1 166.5,135.2 168.0,285.7 169.5,132.6 171.0,285.4 172.6,132.1 174.1,282.8 175.6,130.2 177.1,283.1 178.6,129.2 180.2,280.0 181.7,128.5 183.2,280.5 184.7,126.9 186.2,279.0 187.8,125.9 189.3,277.6 190.8,123.6 192.3,276.0 193.9,124.3 195.4,273.8 196.9,122.4 198.4,272.6 199.9,121.2 201.5,271.2 203.0,118.8 204.5,269.6 206.0,118.3 207.6,267.4 209.1,116.5 210.6,266.9 212.1,115.0 213.6,266.0 215.2,112.4 216.7,263.9 218.2,113.4 219.7,262.9 221.2,109.6 222.8,261.3 224.3,109.6 225.8,260.5 227.3,107.9 228.9,257.5 230.4,107.2 231.9,256.3 233.4,105.1 234.9,255.1 236.5,103.2 238.0,253.9 239.5,102.9 241.0,252.5 242.5,99.9 244.1,250.8 245.6,99.6 247.1,250.6 248.6,96.8 250.2,247.5 251.7,96.5 253.2,247.0 254.7,93.9 256.2,245.9 257.8,92.5 259.3,243.7 260.8,91.6 262.3,241.1 263.8,91.3 265.4,239.7 266.9,89.2 268.4,238.7 269.9,88.0 271.5,237.6 273.0,85.9 274.5,235.7 276.0,83.7 277.5,234.2 279.1,82.6 280.6,232.3 282.1,82.1 283.6,230.7 285.2,79.7 286.7,229.5 288.2,77.1 289.7,228.3 291.2,77.3 292.8,226.7 294.3,75.9 295.8,224.8 297.3,74.3 298.8,224.3 300.4,73.3 301.9,222.2 303.4,70.0 304.9,221.0 306.5,225.0 308.0,227.4 309.5,232.1 311.0,234.0 312.5,238.0 314.1,241.1 315.6,242.8 317.1,245.6 318.6,248.7 320.1,250.4 321.7,253.2 323.2,254.9 324.7,255.8 326.2,258.7 327.8,261.7 329.3,262.9 330.8,264.8 332.3,265.5 333.8,266.9 335.4,269.3 336.9,270.7 338.4,272.2 339.9,273.6 341.5,272.9 343.0,276.0 344.5,276.4 346.0,276.9 347.5,278.1 349.1,278.8 350.6,279.3 352.1,279.7 353.6,283.1 355.1,282.6 356.7,282.6 358.2,284.0 359.7,285.9 361.2,284.5 362.8,286.9 364.3,286.6 365.8,287.8 367.3,286.9 368.8,289.2 370.4,289.2 371.9,289.7 373.4,290.2 374.9,290.2 376.4,290.6 378.0,291.6 379.5,292.8 381.0,291.6 382.5,294.0 384.1,292.8 385.6,292.5 387.1,294.4 388.6,294.9 390.1,293.5 391.7,295.1 393.2,294.7 394.7,294.9 396.2,295.4 397.7,296.3 399.3,296.1 400.8,296.1 402.3,296.1 403.8,296.1 405.4,296.6 406.9,297.0 408.4,297.8 409.9,298.0 411.4,298.5 413.0,298.5 414.5,299.9 416.0,300.1 417.5,298.5 419.1,300.4 420.6,299.7 422.1,299.7 423.6,300.4 425.1,298.9 426.7,300.6 428.2,300.8 429.7,300.6 431.2,299.9 432.7,301.5 434.3,300.8 435.8,300.6 437.3,301.5 438.8,301.1 440.4,302.5 441.9,302.5 443.4,303.2 444.9,302.5 446.4,303.7 448.0,302.3 449.5,302.5 451.0,303.0 452.5,302.3 454.0,302.5 455.6,303.0 457.1,303.0 458.6,303.4 460.1,304.4 461.7,304.9 463.2,304.2 464.7,304.6 466.2,305.1 467.7,303.2 469.3,304.9 470.8,305.3 472.3,303.7 473.8,305.1 475.4,305.6 476.9,305.3 478.4,306.3 479.9,305.3 481.4,304.4 483.0,304.6 484.5,306.5 486.0,304.9 487.5,305.6 489.0,305.1 490.6,306.1 492.1,307.0 493.6,306.5 495.1,307.2 496.7,307.0 498.2,306.1 499.7,307.0 501.2,307.9 502.7,307.2 504.3,308.4 505.8,306.5 507.3,307.7 508.8,307.9 510.3,307.7 511.9,308.2 513.4,308.2 514.9,308.7 516.4,308.2 518.0,308.9 519.5,307.7 521.0,309.4 522.5,309.6 524.0,309.6 525.6,308.9 527.1,309.4 528.6,309.6 530.1,308.2 531.6,308.9 533.2,310.6 534.7,310.3 536.2,308.9 537.7,310.8 539.3,308.9 540.8,309.8 542.3,309.1 543.8,309.6 545.3,309.8 546.9,310.1 548.4,310.6 549.9,309.6 551.4,312.0 553.0,310.8 554.5,310.3 556.0,311.5 557.5,312.0 559.0,311.5 560.6,311.5 562.1,312.0 563.6,312.0 565.1,312.0 566.6,312.7 568.2,312.9 569.7,311.7 571.2,311.5 572.7,312.4 574.3,311.7 575.8,312.2 577.3,311.7 578.8,313.6 580.3,313.9 581.9,312.4 583.4,312.4 584.9,313.4 586.4,312.9 587.9,313.4 589.5,314.3 591.0,313.9 592.5,315.1 594.0,313.9 595.6,314.1 597.1,313.6 598.6,315.1 600.1,313.6 601.6,313.6 603.2,315.5 604.7,313.9 606.2,315.1 607.7,314.1 609.2,314.3 610.8,316.0 612.3,314.8 613.8,314.3 615.3,316.5 616.9,316.2 618.4,314.6 619.9,316.5 621.4,315.5 622.9,316.7 624.5,315.3 626.0,316.2 627.5,315.5 629.0,316.2 630.6,315.5 632.1,316.5 633.6,316.5 635.1,316.7 636.6,318.1 638.2,316.2 639.7,318.4 641.2,316.5 642.7,316.5 644.2,318.4 645.8,317.7 647.3,318.1 648.8,317.9 650.3,317.9 651.9,318.1 653.4,318.6 654.9,317.4 656.4,318.8 657.9,319.8 659.5,319.1 661.0,319.8 663.1,163.1 664.6,309.8 666.2,311.3 667.7,310.8 669.2,312.4 670.7,311.5 672.2,312.2 673.8,313.2 675.3,313.2 676.8,312.7 678.3,314.3 679.9,313.4 681.4,314.8 682.9,314.3 684.4,316.2 685.9,316.5 687.5,315.1 689.0,316.5 690.5,315.5 692.0,315.8 693.5,316.5 695.1,317.2 696.6,316.5 698.1,317.2 699.6,318.8 701.2,318.1 702.7,314.3 704.2,302.3 705.7,316.5 707.2,309.1 708.8,316.5 710.3,291.4 711.8,316.5 713.3,317.0 714.8,308.4 716.4,316.7 717.9,290.6 719.4,316.5 720.9,316.5 722.5,309.1 724.0,312.0 725.5,305.3 727.0,315.5 728.5,316.7 730.1,316.5 731.6,317.9 733.1,317.0 734.6,318.6 736.2,318.8 737.7,317.4 739.2,319.3 740.7,318.4 742.2,320.3 743.8,319.6 745.3,319.3 746.8,319.6 748.3,319.6 749.8,320.7 751.4,321.2 752.9,320.5 754.4,320.3 755.9,320.0 757.5,320.3 759.0,322.4 760.5,321.9 762.0,322.6 763.5,321.7 765.1,323.4 766.6,323.6 768.1,321.9 769.6,321.9 771.1,321.9 772.7,323.8 774.2,323.4 775.7,323.8 777.2,323.4 778.8,323.8 780.3,322.9 781.8,323.1 783.3,325.2 784.8,323.1 786.4,324.5 787.9,323.6 789.4,325.7 790.9,324.1 792.4,325.0 794.0,324.8 795.5,326.2 797.0,325.5 798.5,325.0 800.1,325.0 801.6,325.5 803.1,325.0 804.6,326.2 806.1,327.4 807.7,326.0 809.2,326.4 810.7,326.9 812.2,326.7 813.8,326.0 815.3,327.1 816.8,326.7 818.3,326.4 819.8,326.2 822.0,326.9 823.5,326.9 825.0,328.6 826.5,328.8 828.1,328.6 829.6,328.1 831.1,328.3 832.6,327.9 834.1,328.6 835.7,328.3 837.2,328.8 838.7,328.3 840.2,329.3 841.7,329.3 843.3,328.8 844.8,328.3 846.3,329.3 847.8,328.3 849.4,330.0 850.9,328.3 852.4,329.0 853.9,328.8 855.4,328.8 857.0,330.5 858.5,330.5 860.0,330.9 861.5,330.7 863.1,331.4 864.6,330.2 866.1,331.6 867.6,331.6 869.1,329.3 870.7,332.1 872.2,331.2 873.7,330.2 875.2,332.1 876.7,331.6 878.3,330.7 879.8,331.2 881.3,331.6 882.8,332.6 884.4,333.1 885.9,332.6 887.4,331.2 888.9,332.8 890.4,333.5 892.0,333.1 893.5,333.8 895.0,332.6 896.5,333.8 898.0,334.3 899.6,333.5 901.1,332.8 902.6,333.1 904.1,333.5 905.7,333.5 907.2,335.0 908.7,334.3 910.2,333.1 911.7,334.5 913.3,335.4 914.8,335.4 916.3,333.5 917.8,335.2 919.3,335.7 920.9,335.4 922.4,334.3 923.9,335.2 925.4,335.7 927.0,334.7 928.5,334.7 930.0,335.4" fill="none" stroke="red" stroke-width="2.5" opacity="0.8"/>
<polyline points="70.0,429.4 72.1,70.0 73.7,70.7 75.2,70.7 76.7,71.0 78.2,71.3 79.7,71.2 81.3,71.8 82.8,71.6 84.3,71.2 85.8,72.0 87.3,72.2 88.9,71.9 90.4,72.7 91.9,72.7 93.4,72.6 95.0,72.8 96.5,72.7 98.0,73.0 99.5,72.8 101.0,73.3 102.6,73.1 104.1,73.2 105.6,73.6 107.1,429.6 108.6,73.7 110.2,429.5 111.7,72.9 113.2,430.0 114.7,72.9 116.3,429.2 117.8,73.5 119.3,429.2 120.8,73.8 122.3,429.3 123.9,73.7 125.4,430.0 126.9,73.8 128.4,429.5 130.0,73.2 131.5,429.4 133.0,73.8 134.5,429.8 136.0,73.8 137.6,429.9 139.1,73.1 140.6,429.4 142.1,73.1 143.6,429.8 145.2,73.8 146.7,429.2 148.2,73.5 149.7,429.8 151.3,73.1 152.8,429.7 154.3,73.7 155.8,429.7 157.3,73.8 158.9,429.7 160.4,74.0 161.9,429.4 163.4,73.2 164.9,429.5 166.5,73.2 168.0,429.9 169.5,73.8 171.0,429.9 172.6,73.6 174.1,429.3 175.6,73.6 177.1,429.8 178.6,73.4 180.2,429.2 181.7,73.5 183.2,429.5 184.7,73.6 186.2,429.8 187.8,73.5 189.3,429.8 190.8,73.9 192.3,429.7 193.9,74.2 195.4,429.2 196.9,74.0 198.4,429.1 199.9,74.3 201.5,429.1 203.0,73.9 204.5,429.4 206.0,74.4 207.6,430.0 209.1,73.6 210.6,429.2 212.1,74.3 213.6,429.3 215.2,74.3 216.7,429.3 218.2,74.5 219.7,429.9 221.2,74.1 222.8,429.6 224.3,74.5 225.8,429.5 227.3,74.1 228.9,429.7 230.4,74.7 231.9,429.5 233.4,74.2 234.9,429.1 236.5,74.3 238.0,429.2 239.5,74.6 241.0,429.6 242.5,74.0 244.1,429.7 245.6,74.3 247.1,429.2 248.6,74.2 250.2,429.6 251.7,74.1 253.2,429.4 254.7,74.5 256.2,429.1 257.8,74.3 259.3,429.6 260.8,74.5 262.3,429.7 263.8,74.4 265.4,429.2 266.9,75.1 268.4,429.1 269.9,75.2 271.5,429.3 273.0,74.6 274.5,429.3 276.0,74.5 277.5,429.9 279.1,75.0 280.6,429.8 282.1,75.3 283.6,429.5 285.2,74.6 286.7,429.8 288.2,74.8 289.7,429.1 291.2,74.9 292.8,429.4 294.3,75.5 295.8,429.7 297.3,75.5 298.8,429.4 300.4,75.2 301.9,429.3 303.4,74.9 304.9,429.6 306.5,429.9 308.0,429.9 309.5,429.2 311.0,429.4 312.5,429.6 314.1,429.4 315.6,429.6 317.1,430.0 318.6,429.1 320.1,429.4 321.7,429.5 323.2,429.5 324.7,429.2 326.2,429.2 327.8,429.8 329.3,429.7 330.8,429.5 332.3,429.7 333.8,429.1 335.4,429.9 336.9,429.2 338.4,429.6 339.9,429.3 341.5,429.7 343.0,430.0 344.5,429.5 346.0,429.3 347.5,429.5 349.1,429.5 350.6,429.9 352.1,429.3 353.6,429.8 355.1,429.6 356.7,429.1 358.2,429.3 359.7,429.9 361.2,429.4 362.8,429.8 364.3,429.7 365.8,429.5 367.3,429.1 368.8,429.9 370.4,430.0 371.9,429.3 373.4,429.8 374.9,429.7 376.4,429.8 378.0,429.3 379.5,429.5 381.0,429.8 382.5,429.6 384.1,429.8 385.6,429.5 387.1,429.7 388.6,429.8 390.1,429.4 391.7,429.5 393.2,429.5 394.7,429.1 396.2,430.0 397.7,429.6 399.3,429.2 400.8,429.3 402.3,429.7 403.8,429.6 405.4,429.4 406.9,429.7 408.4,429.6 409.9,429.7 411.4,430.0 413.0,429.8 414.5,429.6 416.0,429.5 417.5,429.3 419.1,429.4 420.6,429.5 422.1,429.7 423.6,429.5 425.1,429.3 426.7,429.3 428.2,429.3 429.7,429.2 431.2,429.7 432.7,429.3 434.3,429.2 435.8,429.7 437.3,429.2 438.8,429.2 440.4,429.5 441.9,429.7 443.4,429.6 444.9,429.9 446.4,429.3 448.0,429.8 449.5,429.8 451.0,429.2 452.5,429.7 454.0,429.1 455.6,429.9 457.1,429.4 458.6,429.9 460.1,429.7 461.7,429.6 463.2,429.8 464.7,429.7 466.2,429.1 467.7,429.4 469.3,429.5 470.8,430.0 472.3,429.6 473.8,429.5 475.4,429.9 476.9,429.3 478.4,429.7 479.9,429.8 481.4,429.2 483.0,429.7 484.5,429.8 486.0,429.9 487.5,429.9 489.0,429.9 490.6,429.3 492.1,429.7 493.6,429.2 495.1,429.2 496.7,429.7 498.2,429.3 499.7,430.0 501.2,429.9 502.7,429.4 504.3,429.3 505.8,429.5 507.3,429.8 508.8,429.4 510.3,429.5 511.9,429.1 513.4,429.5 514.9,429.2 516.4,429.2 518.0,429.5 519.5,429.8 521.0,429.8 522.5,429.9 524.0,429.1 525.6,429.1 527.1,430.0 528.6,429.9 530.1,429.2 531.6,429.9 533.2,429.3 534.7,429.5 536.2,429.8 537.7,429.3 539.3,429.3 540.8,429.5 542.3,429.6 543.8,429.6 545.3,429.9 546.9,429.4 548.4,429.3 549.9,429.6 551.4,429.1 553.0,429.6 554.5,429.8 556.0,430.0 557.5,429.8 559.0,429.9 560.6,429.8 562.1,429.4 563.6,429.8 565.1,429.6 566.6,429.1 568.2,429.1 569.7,429.8 571.2,429.8 572.7,429.3 574.3,429.8 575.8,430.0 577.3,429.8 578.8,429.8 580.3,429.6 581.9,429.9 583.4,429.5 584.9,429.2 586.4,429.4 587.9,429.4 589.5,429.7 591.0,429.8 592.5,429.2 594.0,429.3 595.6,429.5 597.1,429.1 598.6,429.4 600.1,429.6 601.6,429.6 603.2,429.3 604.7,429.8 606.2,429.1 607.7,429.7 609.2,429.1 610.8,429.1 612.3,429.9 613.8,429.7 615.3,429.6 616.9,429.7 618.4,429.5 619.9,429.9 621.4,429.4 622.9,429.1 624.5,430.0 626.0,429.3 627.5,429.9 629.0,429.7 630.6,429.2 632.1,429.2 633.6,429.7 635.1,429.3 636.6,429.5 638.2,429.9 639.7,429.6 641.2,429.8 642.7,429.3 644.2,429.5 645.8,429.9 647.3,429.8 648.8,429.9 650.3,429.4 651.9,429.6 653.4,429.9 654.9,429.1 656.4,429.9 657.9,429.7 659.5,429.4 661.0,429.2 663.1,72.8 664.6,429.6 666.2,429.8 667.7,429.4 669.2,429.1 670.7,429.3 672.2,429.2 673.8,429.5 675.3,429.1 676.8,429.6 678.3,429.5 679.9,429.9 681.4,429.7 682.9,429.4 684.4,429.5 685.9,429.2 687.5,429.7 689.0,429.4 690.5,429.8 692.0,429.7 693.5,429.5 695.1,429.6 696.6,429.7 698.1,429.1 699.6,429.2 701.2,429.8 702.7,419.5 704.2,392.3 705.7,429.9 707.2,410.2 708.8,428.8 710.3,368.4 711.8,429.5 713.3,429.5 714.8,410.3 716.4,428.7 717.9,368.4 719.4,429.6 720.9,430.0 722.5,410.1 724.0,419.0 725.5,401.5 727.0,429.3 728.5,429.2 730.1,430.0 731.6,429.5 733.1,429.5 734.6,429.9 736.2,430.0 737.7,429.5 739.2,429.5 740.7,429.6 742.2,429.3 743.8,429.6 745.3,429.8 746.8,429.9 748.3,429.7 749.8,429.5 751.4,429.8 752.9,429.3 754.4,429.8 755.9,429.8 757.5,429.4 759.0,429.5 760.5,429.3 762.0,429.1 763.5,429.9 765.1,429.6 766.6,429.6 768.1,429.9 769.6,429.4 771.1,429.5 772.7,429.7 774.2,429.9 775.7,429.4 777.2,429.6 778.8,429.5 780.3,429.2 781.8,429.7 783.3,429.2 784.8,429.5 786.4,429.5 787.9,429.4 789.4,429.7 790.9,430.0 792.4,429.2 794.0,429.8 795.5,429.8 797.0,429.5 798.5,429.4 800.1,429.6 801.6,429.6 803.1,430.0 804.6,430.0 806.1,429.8 807.7,429.5 809.2,429.5 810.7,429.6 812.2,429.7 813.8,429.7 815.3,429.5 816.8,429.6 818.3,429.4 819.8,429.8 822.0,429.2 823.5,429.6 825.0,429.3 826.5,429.2 828.1,429.4 829.6,429.4 831.1,429.9 832.6,429.3 834.1,429.4 835.7,429.8 837.2,429.2 838.7,430.0 840.2,428.1 841.7,429.1 843.3,429.3 844.8,429.2 846.3,429.5 847.8,429.2 849.4,429.8 850.9,427.7 852.4,429.9 853.9,429.4 855.4,427.9 857.0,429.3 858.5,429.2 860.0,429.5 861.5,429.5 863.1,430.0 864.6,428.1 866.1,429.2 867.6,430.0 869.1,428.3 870.7,429.5 872.2,429.8 873.7,428.3 875.2,429.1 876.7,429.1 878.3,429.2 879.8,429.7 881.3,427.4 882.8,429.7 884.4,429.9 885.9,430.0 887.4,429.8 888.9,430.0 890.4,429.7 892.0,429.3 893.5,429.4 895.0,429.9 896.5,429.6 898.0,429.3 899.6,429.9 901.1,429.5 902.6,429.4 904.1,429.2 905.7,429.8 907.2,429.8 908.7,429.4 910.2,429.2 911.7,430.0 913.3,429.3 914.8,429.5 916.3,429.6 917.8,429.2 919.3,429.5 920.9,429.8 922.4,429.3 923.9,429.4 925.4,430.0 927.0,429.3 928.5,429.5 930.0,429.9" fill="none" stroke="blue" stroke-width="1.5" stroke-dasharray="5,3"/>
<line x1="70" y1="430" x2="930" y2="430" stroke="#333" stroke-width="2"/>
<line x1="70" y1="70" x2="70" y2="430" stroke="#333" stroke-width="2"/>
<line x1="930" y1="70" x2="930" y2="430" stroke="#333" stroke-width="2"/>
<text x="70.0" y="450" text-anchor="middle" font-family="sans-serif" font-size="12">60s</text>
<text x="242.00000000000006" y="450" text-anchor="middle" font-family="sans-serif" font-size="12">72s</text>
<text x="414.0000000000001" y="450" text-anchor="middle" font-family="sans-serif" font-size="12">83s</text>
<text x="586.0000000000001" y="450" text-anchor="middle" font-family="sans-serif" font-size="12">94s</text>
<text x="758.0" y="450" text-anchor="middle" font-family="sans-serif" font-size="12">105s</text>
<text x="930.0" y="450" text-anchor="middle" font-family="sans-serif" font-size="12">117s</text>
<g transform="translate(820, 60)">
<rect width="120" height="50" fill="white" fill-opacity="0.9" stroke="#ccc"/>
<line x1="10" y1="15" x2="40" y2="15" stroke="red" stroke-width="3"/>
<text x="45" y="20" font-family="sans-serif" font-size="14">Voltage</text>
<line x1="10" y1="35" x2="40" y2="35" stroke="blue" stroke-width="2" stroke-dasharray="5,3"/>
<text x="45" y="40" font-family="sans-serif" font-size="14">Current</text>
</g>
</svg>