<svg viewBox="0 0 1000 500" xmlns="http://www.w3.org/2000/svg">
<rect width="100%" height="100%" fill="#ffffff"/>
<text x="500.0" y="35" text-anchor="middle" font-family="sans-serif" font-size="22" font-weight="bold">Full Charge Cycle: high_r</text>
<line x1="70" y1="430.0" x2="930" y2="430.0" stroke="#eee" stroke-width="1"/>
<text x="65" y="434.0" text-anchor="end" font-family="sans-serif" font-size="12" fill="red">12.00V</text>
<line x1="70" y1="357.99999999999994" x2="930" y2="357.99999999999994" stroke="#eee" stroke-width="1"/>
<text x="65" y="361.99999999999994" text-anchor="end" font-family="sans-serif" font-size="12" fill="red">12.52V</text>
<line x1="70" y1="285.9999999999999" x2="930" y2="285.9999999999999" stroke="#eee" stroke-width="1"/>
<text x="65" y="289.9999999999999" text-anchor="end" font-family="sans-serif" font-size="12" fill="red">13.05V</text>
<line x1="70" y1="214.0000000000001" x2="930" y2="214.0000000000001" stroke="#eee" stroke-width="1"/>
<text x="65" y="218.0000000000001" text-anchor="end" font-family="sans-serif" font-size="12" fill="red">13.57V</text>
<line x1="70" y1="142.00000000000006" x2="930" y2="142.00000000000006" stroke="#eee" stroke-width="1"/>
<text x="65" y="146.00000000000006" text-anchor="end" font-family="sans-serif" font-size="12" fill="red">14.09V</text>
<line x1="70" y1="70.0" x2="930" y2="70.0" stroke="#eee" stroke-width="1"/>
<text x="65" y="74.0" text-anchor="end" font-family="sans-serif" font-size="12" fill="red">14.62V</text>
<text x="935" y="434.0" text-anchor="start" font-family="sans-serif" font-size="12" fill="blue">-0.05A</text>
<text x="935" y="362.0" text-anchor="start" font-family="sans-serif" font-size="12" fill="blue">0.11A</text>
<text x="935" y="290.0" text-anchor="start" font-family="sans-serif" font-size="12" fill="blue">0.27A</text>
<text x="935" y="218.0" text-anchor="start" font-family="sans-serif" font-size="12" fill="blue">0.43A</text>
<text x="935" y="146.0" text-anchor="start" font-family="sans-serif" font-size="12" fill="blue">0.59A</text>
<text x="935" y="74.0" text-anchor="start" font-family="sans-serif" font-size="12" fill="blue">0.75A</text>
<polyline points="73.2,430.0 75.5,224.4 77.7,218.6 80.0,212.4 82.2,209.9 84.5,208.2 86.7,206.6 89.0,205.3 91.3,204.3 93.5,203.2 95.8,202.4 98.0,201.6 100.3,200.9 102.7,200.0 104.9,199.4 107.2,198.7 109.4,198.0 111.7,197.3 113.9,196.6 116.2,196.0 118.4,195.3 120.7,194.6 122.9,194.0 125.2,193.3 127.5,192.7 129.7,192.0 132.0,191.3 134.4,190.7 136.6,190.0 138.9,189.4 141.1,188.7 143.4,188.1 145.6,187.5 147.9,186.7 150.1,186.1 152.4,185.5 154.6,184.8 156.9,184.1 159.1,183.5 161.4,182.9 166.9,191.7 169.1,194.0 171.4,195.7 173.6,197.0 175.9,197.7 178.2,198.3 180.4,198.8 182.7,199.0 184.9,199.3 187.2,199.5 189.4,199.7 191.7,199.8 193.9,199.9 196.2,200.0 198.4,200.0 200.7,200.1 203.0,200.2 205.2,200.3 207.5,200.2 209.7,200.4 212.0,200.3 214.2,200.4 216.5,200.4 218.7,200.6 221.0,200.6 223.2,200.5 225.5,200.6 227.8,200.7 230.0,200.7 232.3,200.8 234.5,200.9 236.8,200.8 239.0,200.9 241.3,200.9 243.5,201.0 245.8,201.1 248.0,201.1 250.3,201.2 252.6,201.3 254.8,201.3 257.1,201.3 259.3,201.4 261.6,201.4 264.0,192.3 266.2,189.3 268.5,186.9 270.7,185.1 273.0,184.9 275.2,193.8 277.5,184.9 279.7,193.5 282.0,184.5 284.2,193.1 286.5,184.0 288.8,192.7 291.0,183.5 293.3,192.1 295.5,182.9 297.8,191.4 300.0,182.4 302.3,190.8 304.5,181.8 306.8,190.2 309.0,181.2 311.3,189.6 313.6,180.6 315.8,189.1 318.1,179.9 320.3,188.4 322.6,179.4 324.8,187.8 327.1,188.2 329.3,189.3 331.6,190.1 333.8,190.6 336.1,191.1 338.4,191.4 340.6,191.6 342.9,191.8 345.1,191.9 347.4,192.0 349.6,192.1 351.9,192.2 354.1,192.3 356.4,192.4 358.6,192.4 360.9,192.4 363.2,192.5 365.4,192.6 367.7,192.6 369.9,192.6 372.2,192.7 374.4,192.7 376.7,192.8 378.9,192.8 381.2,192.8 383.4,192.9 385.7,193.0 388.0,193.0 390.2,193.0 392.5,193.1 394.7,193.1 397.0,193.1 399.2,193.2 401.5,193.3 403.7,193.4 406.0,193.3 408.2,193.4 410.5,193.5 412.8,193.4 415.0,193.6 417.3,193.5 419.5,193.6 421.8,193.7 424.0,193.7 426.3,193.7 428.5,193.8 430.8,193.8 433.0,193.9 435.3,193.9 437.5,194.0 439.8,194.1 442.1,194.1 444.3,194.1 446.6,194.2 448.8,194.3 451.1,194.3 453.3,194.3 455.6,194.4 457.8,194.4 460.1,194.5 462.3,194.5 464.6,194.6 466.9,194.6 469.1,194.6 471.4,194.6 473.6,194.8 475.9,194.8 478.1,194.8 480.4,194.9 482.6,194.9 484.9,194.9 487.1,195.0 489.4,195.1 491.7,195.1 493.9,195.1 496.2,195.2 498.4,195.2 500.7,195.3 502.9,195.3 505.2,195.3 507.4,195.4 509.7,195.5 511.9,195.5 514.2,195.5 516.5,195.7 518.7,195.7 521.0,195.7 523.2,195.7 525.5,195.8 527.7,195.9 530.0,195.8 532.2,195.9 534.5,196.0 536.7,196.0 539.0,196.1 541.3,196.1 543.5,196.1 545.8,196.2 548.0,196.3 550.3,196.3 552.5,196.3 554.8,196.4 557.0,196.4 559.3,196.5 561.5,196.5 563.8,196.6 566.1,196.6 568.3,196.6 570.6,196.8 572.8,196.8 575.1,196.8 577.3,196.9 579.6,196.9 581.8,196.9 584.1,196.9 586.3,197.0 588.6,197.0 590.9,197.1 593.1,197.1 595.4,197.2 597.6,197.2 599.9,197.3 602.1,197.4 604.4,197.4 606.6,197.5 608.9,197.5 611.1,197.5 613.4,197.6 615.7,197.6 617.9,197.7 620.2,197.7 622.4,197.7 624.7,197.8 626.9,197.8 629.2,197.9 631.4,197.9 633.7,197.9 635.9,198.0 638.2,198.0 640.5,198.2 642.7,198.1 645.0,198.1 647.2,198.3 649.5,198.2 651.7,198.4 654.0,198.4 656.2,198.5 658.5,198.5 660.7,198.5 663.0,198.5 665.3,198.6 667.5,198.6 669.8,198.7 672.0,198.8 674.3,198.7 676.5,198.9 678.8,198.9 681.0,199.0 683.3,199.0 685.5,199.0 687.8,199.1 690.1,199.1 692.3,199.2 694.6,199.3 696.8,199.3 699.1,199.3 701.3,199.3 703.6,199.4 705.8,199.5 708.1,199.5 710.3,199.5 712.6,199.6 715.0,199.2 717.2,199.3 719.5,199.5 721.7,199.5 724.0,198.3 726.3,199.5 728.5,199.6 730.8,199.7 733.0,199.7 735.3,199.8 737.5,199.9 739.8,199.9 742.0,200.0 744.3,200.1 746.5,200.0 748.8,200.1 751.1,200.1 753.3,200.2 755.6,200.2 757.8,200.3 760.1,200.4 762.3,200.4 764.6,200.5 766.8,200.5 769.1,200.6 771.3,200.6 773.6,200.6 775.9,200.7 778.1,200.7 780.4,200.7 782.6,200.8 784.9,200.9 787.1,200.9 789.4,200.9 71.3,224.6 73.5,224.9 75.8,225.2 78.1,225.3 80.3,225.5 82.6,225.6 84.8,225.8 87.1,226.0 89.3,222.9 91.6,218.8 93.8,215.6 96.1,213.0 98.3,210.6 100.6,208.6 103.0,205.9 105.2,202.6 107.5,199.6 109.7,196.7 112.0,194.2 114.3,191.8 116.5,189.3 118.8,187.2 121.0,185.2 123.3,183.2 128.7,195.2 131.0,198.3 133.3,199.5 135.5,200.0 137.8,200.1 140.0,200.4 142.3,200.5 144.5,200.6 146.8,200.9 149.0,200.9 151.3,201.1 153.5,201.2 155.8,201.5 158.1,201.6 160.3,201.7 162.6,201.8 164.8,202.0 167.1,202.2 169.3,202.4 171.6,202.4 173.8,202.6 176.1,202.9 178.3,202.9 180.6,203.2 182.9,203.3 185.1,203.4 187.4,203.5 189.6,203.7 191.9,203.9 194.1,204.0 196.4,204.1 198.6,204.3 200.9,204.5 203.1,204.6 205.4,204.8 207.7,205.0 209.9,205.1 212.2,205.3 214.4,205.4 216.7,205.5 218.9,205.7 221.2,205.8 223.4,206.0 225.8,193.1 228.1,187.5 230.3,184.4 232.6,192.4 234.8,184.2 237.1,193.3 239.3,183.2 241.6,191.8 243.9,181.6 246.1,190.1 248.4,179.8 250.6,188.4 252.9,178.2 255.1,186.7 257.4,176.6 259.6,185.0 261.9,175.0 264.1,183.4 266.4,173.4 268.7,181.9 270.9,181.7 273.2,184.2 275.4,185.1 277.7,185.4 279.9,185.7 282.3,172.1 284.6,167.7 286.8,165.2 289.1,164.8 291.3,175.0 293.6,165.7 295.8,174.3 298.1,164.5 300.3,173.0 302.6,163.2 304.9,171.7 307.1,162.0 309.4,170.4 311.6,160.6 313.9,169.1 316.1,159.4 318.4,167.8 320.6,158.2 322.9,166.7 325.1,157.0 327.4,165.4 329.7,155.8 331.9,164.3 334.2,154.6 336.4,163.1 338.7,165.3 340.9,166.6 343.2,167.1 345.4,167.3 347.7,167.6 349.9,167.7 352.2,167.9 354.5,168.0 356.7,168.2 359.0,168.4 361.2,168.6 363.5,168.8 365.7,168.9 368.0,169.1 370.2,169.2 372.5,169.4 374.7,169.6 377.0,169.7 379.3,169.9 381.5,170.1 383.8,170.3 386.0,170.3 388.3,170.6 390.5,170.7 392.8,171.0 395.0,171.1 397.3,171.2 399.5,171.5 401.8,171.5 404.1,171.7 406.3,171.9 408.6,172.1 410.8,172.2 413.1,172.3 415.3,172.5 417.6,172.7 419.8,172.8 422.1,173.0 424.3,173.2 426.6,173.3 428.9,173.5 431.1,173.7 433.4,173.9 435.6,174.0 437.9,174.2 440.1,174.3 442.4,174.5 444.6,174.7 446.9,174.9 449.1,175.0 451.4,175.2 453.7,175.4 455.9,175.5 458.2,175.6 460.4,175.8 462.7,175.9 464.9,176.2 467.2,176.3 469.4,176.5 471.7,176.6 473.9,176.7 476.2,177.0 478.5,177.1 480.7,177.2 483.0,177.4 485.2,177.6 487.5,177.7 489.7,178.0 492.0,178.0 494.2,178.3 496.5,178.3 498.7,178.5 501.0,178.7 503.3,178.8 505.5,179.1 507.8,179.2 510.0,179.4 512.3,179.5 514.5,179.7 516.8,179.8 519.0,179.9 521.3,180.1 523.5,180.3 525.8,180.4 528.1,180.6 530.3,180.7 532.6,181.0 534.8,181.1 537.1,181.3 539.3,181.4 541.6,181.5 543.8,181.7 546.1,181.9 548.3,182.0 550.6,182.2 552.9,182.3 555.1,182.5 557.4,182.7 559.6,182.9 561.9,182.9 564.1,183.1 566.4,183.3 568.6,183.5 570.9,183.5 573.1,183.8 575.4,183.9 577.7,184.1 579.9,184.2 582.2,184.3 584.4,184.5 586.7,184.7 588.9,184.8 591.2,185.0 593.4,185.1 595.7,185.3 597.9,185.4 600.2,185.6 602.5,185.8 604.7,186.0 607.0,186.1 609.2,186.3 611.5,186.5 613.7,186.5 616.0,186.7 618.2,186.8 620.5,187.0 622.7,187.1 625.0,187.3 627.3,187.5 629.5,187.7 631.8,187.9 634.0,187.9 636.3,188.2 638.5,188.3 640.8,188.5 643.0,188.6 645.3,188.8 647.5,188.9 649.8,189.0 652.1,189.2 654.3,189.3 656.6,189.6 658.8,189.7 661.1,189.8 663.3,190.0 665.6,190.2 667.8,190.3 670.1,190.5 672.3,190.5 674.6,190.7 676.9,191.0 679.1,191.0 681.4,191.2 683.6,191.4 685.9,191.6 688.1,191.7 690.4,191.9 692.6,191.9 694.9,192.2 697.1,192.2 699.4,192.5 701.7,192.7 703.9,192.8 706.2,193.0 708.4,193.0 710.7,193.2 712.9,193.3 715.2,193.5 717.4,193.7 719.7,193.9 721.9,194.0 724.2,194.2 726.6,193.5 728.8,194.1 731.1,194.3 733.3,192.9 735.6,193.2 737.9,194.0 740.1,194.6 742.4,194.8 744.6,195.0 746.9,195.2 749.1,195.3 751.4,195.5 753.6,195.6 755.9,195.8 758.1,196.0 760.4,196.1 762.7,196.3 764.9,196.5 767.2,196.5 769.4,196.7 771.7,196.9 773.9,197.0 776.3,197.0 778.6,197.2 780.8,197.4 783.1,197.6 785.3,197.8 787.6,198.0 789.8,198.0 792.1,198.2 794.3,198.4 796.6,198.6 798.9,198.7 801.1,198.9 803.4,199.0 805.6,199.1 807.9,199.3 810.1,199.5 70.0,224.3 72.3,224.4 74.5,224.6 76.8,224.8 79.0,224.9 81.3,224.9 83.5,225.0 85.8,225.0 88.0,224.7 90.3,221.4 92.5,219.0 94.8,216.9 97.1,215.2 99.3,213.8 101.6,212.7 103.9,210.5 106.2,208.7 108.5,207.1 110.7,205.7 113.0,204.5 115.2,203.2 117.5,202.2 119.7,201.3 122.0,200.5 124.2,199.7 126.5,198.9 128.7,198.3 131.0,197.6 133.3,196.9 135.6,196.2 137.9,195.5 140.1,194.8 142.4,194.1 144.7,193.6 146.9,192.8 149.2,192.1 151.4,191.6 153.7,190.8 155.9,190.2 158.2,189.6 160.4,188.9 162.7,188.3 164.9,187.6 167.3,187.0 169.6,186.2 171.8,185.6 174.1,184.9 176.3,184.4 178.6,183.7 180.9,183.0 183.1,182.4 185.4,181.8 187.6,181.1 189.9,180.4 192.1,179.8 194.4,179.1 196.6,178.5 199.0,177.9 201.3,177.2 203.5,176.6 205.8,176.0 208.0,175.3 210.3,174.7 212.5,174.0 214.8,173.3 217.1,172.8 219.3,172.1 221.6,171.4 223.8,170.8 226.1,170.2 228.3,169.5 230.6,168.8 233.0,168.3 235.2,167.6 237.5,167.0 239.7,166.4 242.0,165.7 244.2,165.1 246.5,164.4 248.8,163.8 251.0,163.2 253.3,162.5 255.5,161.9 257.8,161.2 260.0,160.6 262.3,160.0 264.7,159.3 266.9,158.8 269.2,158.0 271.4,157.5 273.7,156.9 275.9,156.2 278.2,155.6 280.4,155.0 282.7,154.3 285.0,153.7 287.2,153.0 289.5,152.5 291.7,151.9 294.0,151.2 296.4,150.6 298.6,150.0 300.9,149.3 303.1,148.8 305.4,148.1 307.6,147.4 309.9,146.9 312.1,146.2 314.4,145.6 316.6,145.0 318.9,144.4 321.2,143.8 323.4,143.1 325.7,142.5 327.9,141.9 330.3,141.3 332.6,140.7 334.8,140.1 337.1,139.5 339.3,138.9 341.6,138.2 343.8,137.6 346.1,137.0 348.3,136.4 350.6,135.8 352.8,135.2 355.1,134.6 357.4,133.9 359.6,133.4 362.0,132.8 364.2,132.2 366.5,131.5 368.8,130.9 371.0,130.3 373.3,129.7 375.5,129.1 377.8,128.4 380.0,127.9 382.3,127.2 384.5,126.6 386.8,126.1 389.0,125.4 391.3,124.8 393.7,124.3 395.9,123.7 398.2,123.0 400.4,122.4 402.7,121.8 405.0,121.2 407.2,120.6 409.5,120.1 411.7,119.4 414.0,118.8 416.2,118.2 418.5,117.7 420.7,117.0 423.0,116.5 425.4,115.9 427.6,115.3 429.9,114.7 432.1,114.1 434.4,113.5 436.6,112.9 438.9,112.4 441.2,111.8 443.4,111.1 445.7,110.6 447.9,109.9 450.2,109.4 452.4,108.8 454.7,108.1 456.9,107.6 459.3,107.1 461.6,106.5 463.8,105.8 466.1,105.2 468.3,104.7 470.6,104.1 472.8,103.5 475.1,102.9 477.4,102.4 479.6,101.7 481.9,101.2 484.1,100.5 486.4,100.0 488.6,99.4 491.0,98.8 493.3,98.2 495.5,97.6 497.8,97.1 500.0,96.5 502.3,95.9 504.5,95.3 506.8,94.8 509.1,94.2 511.3,93.6 513.6,93.0 515.8,92.5 518.1,91.9 520.3,91.3 522.7,90.7 525.0,90.1 527.2,89.6 529.5,89.0 531.7,88.4 534.0,87.9 536.2,87.3 538.5,86.8 540.7,86.2 543.0,85.6 545.3,85.0 547.5,84.4 549.8,83.8 552.0,83.3 554.3,82.7 556.7,82.1 558.9,81.6 561.2,81.0 563.4,80.5 565.7,79.9 567.9,79.4 573.4,88.4 575.7,90.2 577.9,91.4 580.2,92.3 582.4,92.9 584.7,93.4 586.9,93.7 589.2,94.0 591.4,94.3 593.7,94.3 595.9,94.4 598.2,94.6 600.5,94.6 602.7,94.7 605.0,94.7 607.2,94.9 609.5,95.0 611.7,95.0 614.0,95.1 616.2,95.1 618.5,95.1 620.7,95.2 623.0,95.1 625.3,95.2 627.5,95.3 629.8,95.4 632.0,95.3 634.3,95.5 636.5,95.5 638.8,95.5 641.0,95.6 643.3,95.6 645.5,95.6 647.8,95.7 650.1,95.7 652.3,95.9 654.6,95.8 656.8,95.9 659.1,95.9 661.3,96.0 663.6,96.1 665.8,96.0 668.1,96.1 670.5,86.9 672.7,84.5 675.0,82.6 677.2,81.6 679.5,89.5 681.7,81.7 684.0,89.4 686.3,81.4 688.5,89.0 690.8,81.1 693.0,88.6 695.3,80.6 697.5,88.2 699.8,80.2 702.0,87.5 704.3,79.6 706.5,87.0 708.8,79.1 711.1,86.6 713.3,78.6 715.6,86.0 717.8,78.1 720.1,85.5 722.3,77.6 724.6,85.0 726.8,77.0 729.1,84.5 731.3,85.3 733.6,86.0 735.9,86.7 738.1,87.2 740.4,87.6 742.6,87.8 744.9,87.9 747.1,88.2 749.4,88.3 751.6,88.3 754.0,79.2 756.3,76.8 758.5,75.0 760.8,74.0 763.0,81.8 765.3,74.1 767.5,81.7 769.8,73.9 772.1,81.4 774.3,73.6 776.6,81.0 778.8,73.0 781.1,80.5 783.3,72.6 785.6,80.0 787.8,72.1 790.1,79.5 792.3,71.6 794.6,79.0 796.9,71.1 799.1,78.5 801.4,70.6 803.6,78.0 805.9,70.0 808.1,77.4 810.4,77.4 812.6,78.5 814.9,79.2 817.1,79.8 819.4,80.1 821.7,80.5 823.9,80.6 826.2,80.9 828.4,81.0 830.7,81.0 832.9,81.2 835.2,81.3 837.4,81.4 839.7,81.4 841.9,81.5 844.2,81.4 846.5,81.6 848.7,81.5 851.0,81.6 853.2,81.7 855.5,81.7 857.7,81.7 860.0,81.8 862.2,81.9 864.5,82.0 866.7,81.9 869.0,82.0 871.3,82.0 873.5,82.1 875.8,82.2 878.0,82.3 880.3,82.2 882.5,82.3 884.9,74.5 887.2,82.1 889.4,82.1 891.7,82.3 893.9,81.5 896.2,82.3 898.4,82.2 900.7,82.3 902.9,82.4 905.2,82.6 907.5,82.5 909.7,82.6 912.0,82.7 914.2,82.7 916.5,82.8 918.7,82.9 921.0,82.8 923.2,83.0 925.5,83.0 927.7,83.0 930.0,83.1 70.3,224.3 71.9,224.4 74.2,224.6 76.4,224.7 78.7,224.8 81.0,224.9 83.2,225.0 85.5,225.0 87.7,225.2 90.0,221.9 92.2,219.8 94.5,218.6 96.7,218.2 99.0,218.3 101.2,219.1 103.6,219.9 105.9,221.3 108.1,222.4 110.4,222.9 112.6,223.2 114.9,223.5 117.2,223.6 119.4,223.8 121.7,223.8 123.9,224.0 126.2,224.1 128.4,224.1 130.7,223.8 132.9,222.1 135.3,219.9 137.6,217.5 139.8,214.9 142.1,212.3 144.3,209.8 146.6,207.7 148.8,205.8 151.1,204.4 153.4,203.5 155.6,203.1 157.9,203.4 160.1,204.1 162.4,205.4 164.6,207.0 167.0,209.0 70.0,212.7 71.6,224.4 73.9,224.6 76.1,224.8 78.4,224.6 80.6,224.1 82.9,223.7 85.1,223.6 87.4,213.7 89.6,211.0 91.9,208.9 94.2,207.2 96.4,205.9 98.7,204.8 100.9,203.8" fill="none" stroke="red" stroke-width="2.5" opacity="0.8"/>
<polyline points="73.2,407.2 75.5,429.1 77.7,214.5 80.0,71.2 82.2,71.5 84.5,72.3 86.7,73.3 89.0,74.1 91.3,74.5 93.5,74.6 95.8,75.0 98.0,75.4 100.3,75.6 102.7,75.8 104.9,75.9 107.2,76.4 109.4,76.8 111.7,77.3 113.9,77.5 116.2,77.8 118.4,77.9 120.7,77.8 122.9,78.7 125.2,79.0 127.5,79.1 129.7,79.4 132.0,79.8 134.4,79.4 136.6,80.2 138.9,80.6 141.1,80.6 143.4,80.8 145.6,81.2 147.9,81.7 150.1,81.7 152.4,81.5 154.6,82.5 156.9,82.4 159.1,82.3 161.4,83.3 166.9,429.6 169.1,429.8 171.4,429.3 173.6,429.8 175.9,429.7 178.2,429.3 180.4,429.3 182.7,429.2 184.9,429.2 187.2,429.8 189.4,429.7 191.7,429.4 193.9,429.9 196.2,429.9 198.4,429.9 200.7,429.4 203.0,429.6 205.2,429.9 207.5,429.1 209.7,429.4 212.0,429.6 214.2,429.3 216.5,429.2 218.7,429.8 221.0,429.8 223.2,429.6 225.5,429.5 227.8,429.9 230.0,429.4 232.3,429.1 234.5,429.6 236.8,429.9 239.0,429.4 241.3,429.4 243.5,429.2 245.8,429.6 248.0,429.6 250.3,429.9 252.6,430.0 254.8,429.8 257.1,429.1 259.3,429.6 261.6,429.1 264.0,78.8 266.2,80.2 268.5,81.2 270.7,82.0 273.0,82.4 275.2,429.6 277.5,82.0 279.7,429.4 282.0,82.4 284.2,429.4 286.5,82.8 288.8,429.1 291.0,82.5 293.3,429.1 295.5,82.7 297.8,429.8 300.0,83.4 302.3,429.2 304.5,83.4 306.8,429.6 309.0,83.1 311.3,429.2 313.6,83.5 315.8,429.1 318.1,84.4 320.3,429.7 322.6,84.1 324.8,429.6 327.1,429.6 329.3,429.4 331.6,429.3 333.8,429.6 336.1,429.8 338.4,429.4 340.6,429.5 342.9,429.6 345.1,429.7 347.4,429.6 349.6,429.7 351.9,429.8 354.1,429.5 356.4,429.1 358.6,429.9 360.9,429.7 363.2,429.8 365.4,429.7 367.7,429.2 369.9,429.3 372.2,429.9 374.4,429.9 376.7,429.8 378.9,429.5 381.2,429.4 383.4,429.5 385.7,429.5 388.0,429.4 390.2,429.8 392.5,429.2 394.7,429.9 397.0,429.6 399.2,429.5 401.5,429.2 403.7,429.1 406.0,429.1 408.2,430.0 410.5,429.3 412.8,429.9 415.0,429.3 417.3,430.0 419.5,429.6 421.8,429.7 424.0,429.4 426.3,429.3 428.5,429.2 430.8,429.9 433.0,429.8 435.3,429.4 437.5,429.8 439.8,429.7 442.1,429.2 444.3,429.6 446.6,429.4 448.8,429.3 451.1,429.6 453.3,429.4 455.6,429.8 457.8,429.9 460.1,429.6 462.3,429.4 464.6,429.1 466.9,429.6 469.1,429.3 471.4,429.8 473.6,429.7 475.9,429.4 478.1,429.7 480.4,429.2 482.6,429.1 484.9,429.4 487.1,429.7 489.4,429.6 491.7,429.7 493.9,429.7 496.2,429.6 498.4,429.2 500.7,429.2 502.9,429.3 505.2,429.3 507.4,429.7 509.7,429.9 511.9,429.5 514.2,429.1 516.5,429.2 518.7,429.4 521.0,429.7 523.2,429.7 525.5,429.4 527.7,429.7 530.0,429.2 532.2,429.5 534.5,429.3 536.7,429.4 539.0,430.0 541.3,429.6 543.5,429.2 545.8,429.2 548.0,429.7 550.3,429.9 552.5,429.2 554.8,429.6 557.0,429.7 559.3,429.5 561.5,429.3 563.8,429.1 566.1,429.9 568.3,429.6 570.6,429.7 572.8,429.7 575.1,429.3 577.3,429.3 579.6,429.9 581.8,429.6 584.1,429.9 586.3,429.8 588.6,429.9 590.9,429.9 593.1,429.5 595.4,429.5 597.6,429.3 599.9,429.5 602.1,429.9 604.4,430.0 606.6,429.3 608.9,429.8 611.1,429.1 613.4,429.4 615.7,429.8 617.9,429.6 620.2,429.6 622.4,429.7 624.7,429.6 626.9,429.8 629.2,429.9 631.4,429.2 633.7,429.1 635.9,429.7 638.2,429.8 640.5,429.1 642.7,429.7 645.0,429.7 647.2,429.1 649.5,429.2 651.7,429.2 654.0,429.9 656.2,429.7 658.5,429.3 660.7,429.7 663.0,429.3 665.3,429.7 667.5,429.7 669.8,429.8 672.0,429.6 674.3,429.2 676.5,429.3 678.8,429.3 681.0,429.6 683.3,429.4 685.5,429.3 687.8,429.4 690.1,429.4 692.3,429.7 694.6,429.5 696.8,429.6 699.1,429.8 701.3,429.4 703.6,429.5 705.8,430.0 708.1,429.9 710.3,429.7 712.6,429.9 715.0,429.3 717.2,430.0 719.5,429.6 721.7,429.5 724.0,381.8 726.3,429.2 728.5,429.9 730.8,429.4 733.0,429.3 735.3,429.5 737.5,429.3 739.8,429.6 742.0,429.8 744.3,429.3 746.5,429.7 748.8,429.8 751.1,429.7 753.3,429.9 755.6,429.1 757.8,429.5 760.1,429.9 762.3,429.2 764.6,429.5 766.8,429.9 769.1,429.3 771.3,429.1 773.6,429.1 775.9,429.6 778.1,429.4 780.4,429.9 782.6,429.5 784.9,429.2 787.1,429.4 789.4,429.4 71.3,429.2 73.5,429.8 75.8,429.7 78.1,429.8 80.3,429.2 82.6,429.7 84.8,429.8 87.1,429.1 89.3,346.1 91.6,273.7 93.8,242.1 96.1,218.6 98.3,201.3 100.6,194.0 103.0,161.1 105.2,130.8 107.5,114.6 109.7,99.4 112.0,93.0 114.3,85.7 116.5,81.9 118.8,81.5 121.0,81.6 123.3,82.4 128.7,429.1 131.0,430.0 133.3,429.8 135.5,429.8 137.8,429.7 140.0,429.4 142.3,429.2 144.5,429.2 146.8,429.5 149.0,429.8 151.3,429.3 153.5,429.8 155.8,429.6 158.1,430.0 160.3,430.0 162.6,429.8 164.8,429.7 167.1,429.4 169.3,429.2 171.6,429.4 173.8,429.6 176.1,429.2 178.3,429.7 180.6,429.7 182.9,429.2 185.1,429.1 187.4,429.1 189.6,429.4 191.9,429.1 194.1,429.5 196.4,429.2 198.6,429.7 200.9,429.9 203.1,429.8 205.4,429.8 207.7,429.8 209.9,429.7 212.2,429.3 214.4,429.2 216.7,429.7 218.9,429.6 221.2,429.2 223.4,429.1 225.8,78.7 228.1,80.8 230.3,82.1 232.6,429.8 234.8,81.8 237.1,429.9 239.3,82.5 241.6,429.5 243.9,82.7 246.1,429.5 248.4,83.6 250.6,430.0 252.9,84.4 255.1,429.4 257.4,84.8 259.6,429.7 261.9,85.6 264.1,429.3 266.4,86.1 268.7,429.7 270.9,430.0 273.2,429.6 275.4,429.6 277.7,429.9 279.9,429.9 282.3,86.8 284.6,89.1 286.8,90.3 289.1,89.8 291.3,429.4 293.6,89.9 295.8,429.3 298.1,90.5 300.3,429.9 302.6,90.3 304.9,429.3 307.1,91.4 309.4,429.7 311.6,91.5 313.9,430.0 316.1,92.3 318.4,429.6 320.6,92.4 322.9,429.3 325.1,93.2 327.4,429.5 329.7,93.5 331.9,429.9 334.2,94.3 336.4,429.3 338.7,429.5 340.9,429.2 343.2,429.7 345.4,429.9 347.7,429.2 349.9,429.3 352.2,429.4 354.5,429.3 356.7,429.9 359.0,430.0 361.2,429.2 363.5,429.2 365.7,429.2 368.0,429.7 370.2,429.5 372.5,429.5 374.7,429.4 377.0,430.0 379.3,429.7 381.5,429.9 383.8,429.6 386.0,429.3 388.3,429.5 390.5,429.9 392.8,429.3 395.0,429.6 397.3,429.9 399.5,429.5 401.8,429.7 404.1,429.9 406.3,429.3 408.6,429.4 410.8,429.7 413.1,429.1 415.3,429.9 417.6,429.5 419.8,429.3 422.1,429.7 424.3,429.4 426.6,429.7 428.9,429.7 431.1,429.6 433.4,429.7 435.6,429.3 437.9,429.5 440.1,429.3 442.4,429.8 444.6,430.0 446.9,429.2 449.1,429.8 451.4,429.9 453.7,429.9 455.9,429.2 458.2,429.9 460.4,429.7 462.7,429.9 464.9,429.2 467.2,429.8 469.4,429.9 471.7,429.3 473.9,429.1 476.2,429.1 478.5,429.4 480.7,429.8 483.0,429.3 485.2,429.8 487.5,429.8 489.7,429.4 492.0,429.2 494.2,429.8 496.5,429.6 498.7,429.6 501.0,429.8 503.3,429.2 505.5,429.5 507.8,429.6 510.0,429.5 512.3,429.4 514.5,429.2 516.8,429.4 519.0,429.6 521.3,429.2 523.5,429.7 525.8,429.7 528.1,429.4 530.3,429.7 532.6,429.4 534.8,429.7 537.1,430.0 539.3,429.4 541.6,430.0 543.8,429.2 546.1,429.3 548.3,429.5 550.6,429.2 552.9,429.3 555.1,429.8 557.4,430.0 559.6,429.5 561.9,429.9 564.1,429.7 566.4,429.6 568.6,429.2 570.9,429.4 573.1,429.9 575.4,429.4 577.7,429.1 579.9,429.3 582.2,429.5 584.4,429.7 586.7,430.0 588.9,430.0 591.2,429.4 593.4,429.2 595.7,429.1 597.9,429.5 600.2,429.2 602.5,429.6 604.7,429.5 607.0,429.6 609.2,429.8 611.5,429.4 613.7,429.7 616.0,429.5 618.2,429.2 620.5,429.7 622.7,429.6 625.0,429.6 627.3,429.7 629.5,429.1 631.8,429.8 634.0,429.8 636.3,429.3 638.5,429.5 640.8,430.0 643.0,429.4 645.3,429.1 647.5,430.0 649.8,429.5 652.1,429.5 654.3,429.9 656.6,429.6 658.8,429.3 661.1,429.9 663.3,429.5 665.6,429.5 667.8,429.8 670.1,429.2 672.3,430.0 674.6,429.2 676.9,430.0 679.1,429.9 681.4,429.5 683.6,429.3 685.9,429.4 688.1,429.3 690.4,429.2 692.6,429.4 694.9,429.4 697.1,429.7 699.4,430.0 701.7,429.6 703.9,429.5 706.2,429.7 708.4,429.5 710.7,429.6 712.9,429.6 715.2,429.4 717.4,429.5 719.7,430.0 721.9,429.6 724.2,429.9 726.6,429.8 728.8,429.8 731.1,429.9 733.3,377.6 735.6,394.0 737.9,420.4 740.1,429.2 742.4,429.4 744.6,430.0 746.9,429.5 749.1,429.7 751.4,429.3 753.6,429.9 755.9,429.1 758.1,429.8 760.4,429.9 762.7,429.3 764.9,429.3 767.2,429.3 769.4,429.9 771.7,429.8 773.9,429.9 776.3,429.3 778.6,429.5 780.8,429.8 783.1,429.2 785.3,429.8 787.6,429.5 789.8,429.6 792.1,429.4 794.3,429.2 796.6,429.1 798.9,429.7 801.1,429.8 803.4,429.9 805.6,429.8 807.9,429.7 810.1,429.6 70.0,429.7 72.3,429.3 74.5,429.3 76.8,430.0 79.0,429.2 81.3,430.0 83.5,430.0 85.8,429.2 88.0,411.8 90.3,310.5 92.5,256.4 94.8,225.2 97.1,208.1 99.3,195.3 101.6,187.3 103.9,144.8 106.2,120.5 108.5,103.7 110.7,93.4 113.0,86.3 115.2,79.7 117.5,75.4 119.7,75.7 122.0,75.9 124.2,76.5 126.5,76.7 128.7,77.0 131.0,77.1 133.3,77.0 135.6,77.9 137.9,77.7 140.1,78.0 142.4,78.2 144.7,78.5 146.9,78.6 149.2,79.1 151.4,79.9 153.7,80.1 155.9,79.9 158.2,80.5 160.4,80.4 162.7,80.4 164.9,81.3 167.3,81.0 169.6,81.2 171.8,81.4 174.1,81.8 176.3,82.5 178.6,82.4 180.9,83.3 183.1,83.4 185.4,83.3 187.6,83.6 189.9,83.9 192.1,84.6 194.4,84.4 196.6,85.0 199.0,85.3 201.3,85.6 203.5,85.4 205.8,86.2 208.0,86.1 210.3,86.1 212.5,86.7 214.8,87.2 217.1,86.7 219.3,87.2 221.6,87.4 223.8,87.5 226.1,88.3 228.3,88.7 230.6,88.8 233.0,88.8 235.2,89.4 237.5,89.7 239.7,89.5 242.0,90.3 244.2,89.8 246.5,90.7 248.8,90.4 251.0,91.1 253.3,91.6 255.5,91.1 257.8,92.2 260.0,92.3 262.3,92.6 264.7,92.8 266.9,93.1 269.2,93.1 271.4,93.1 273.7,93.9 275.9,94.0 278.2,93.9 280.4,94.6 282.7,94.2 285.0,94.9 287.2,95.3 289.5,95.4 291.7,95.6 294.0,96.2 296.4,95.7 298.6,95.9 300.9,96.5 303.1,96.5 305.4,96.9 307.6,97.6 309.9,97.5 312.1,98.1 314.4,98.4 316.6,98.1 318.9,99.0 321.2,98.5 323.4,98.8 325.7,99.3 327.9,99.2 330.3,100.2 332.6,100.6 334.8,100.1 337.1,101.0 339.3,101.2 341.6,100.8 343.8,101.0 346.1,101.2 348.3,102.3 350.6,102.3 352.8,102.0 355.1,102.8 357.4,102.5 359.6,102.7 362.0,103.3 364.2,103.7 366.5,104.3 368.8,103.8 371.0,104.4 373.3,104.7 375.5,104.7 377.8,104.8 380.0,105.1 382.3,105.2 384.5,106.1 386.8,105.8 389.0,106.7 391.3,106.5 393.7,106.5 395.9,107.2 398.2,107.0 400.4,107.2 402.7,108.1 405.0,107.7 407.2,107.9 409.5,108.5 411.7,109.0 414.0,108.8 416.2,109.0 418.5,109.2 420.7,110.1 423.0,110.2 425.4,110.4 427.6,110.1 429.9,110.7 432.1,111.4 434.4,110.8 436.6,111.1 438.9,111.3 441.2,112.2 443.4,111.9 445.7,112.3 447.9,112.9 450.2,112.8 452.4,113.0 454.7,113.7 456.9,113.6 459.3,114.0 461.6,114.1 463.8,113.9 466.1,114.5 468.3,114.7 470.6,114.9 472.8,115.5 475.1,115.4 477.4,115.4 479.6,116.2 481.9,116.3 484.1,116.2 486.4,116.8 488.6,116.8 491.0,117.0 493.3,117.5 495.5,117.8 497.8,117.4 500.0,118.3 502.3,118.1 504.5,118.6 506.8,118.7 509.1,119.0 511.3,119.3 513.6,119.8 515.8,119.9 518.1,119.7 520.3,120.0 522.7,120.3 525.0,120.8 527.2,121.2 529.5,121.1 531.7,121.7 534.0,121.3 536.2,121.9 538.5,121.8 540.7,121.9 543.0,122.5 545.3,122.8 547.5,123.0 549.8,123.4 552.0,123.2 554.3,123.9 556.7,124.4 558.9,123.8 561.2,124.6 563.4,124.7 565.7,124.6 567.9,125.5 573.4,429.7 575.7,429.2 577.9,429.9 580.2,429.7 582.4,430.0 584.7,429.6 586.9,429.7 589.2,429.9 591.4,429.4 593.7,429.6 595.9,429.5 598.2,430.0 600.5,429.4 602.7,429.1 605.0,429.9 607.2,429.6 609.5,429.9 611.7,429.6 614.0,430.0 616.2,429.5 618.5,429.2 620.7,429.8 623.0,429.8 625.3,429.2 627.5,430.0 629.8,429.5 632.0,429.7 634.3,429.8 636.5,429.6 638.8,429.5 641.0,429.5 643.3,429.4 645.5,429.6 647.8,429.7 650.1,429.3 652.3,429.8 654.6,429.5 656.8,429.7 659.1,429.1 661.3,429.2 663.6,429.3 665.8,429.7 668.1,430.0 670.5,122.0 672.7,122.5 675.0,123.9 677.2,124.5 679.5,429.9 681.7,124.2 684.0,429.7 686.3,124.2 688.5,429.1 690.8,124.5 693.0,429.8 695.3,124.7 697.5,429.3 699.8,124.7 702.0,429.4 704.3,125.0 706.5,429.3 708.8,124.9 711.1,429.9 713.3,124.9 715.6,429.3 717.8,125.8 720.1,429.4 722.3,125.9 724.6,429.2 726.8,126.3 729.1,430.0 731.3,429.4 733.6,429.4 735.9,429.5 738.1,429.3 740.4,429.7 742.6,429.9 744.9,429.4 747.1,429.8 749.4,429.2 751.6,429.2 754.0,124.7 756.3,126.3 758.5,126.3 760.8,127.3 763.0,429.5 765.3,127.5 767.5,429.8 769.8,127.4 772.1,429.7 774.3,127.4 776.6,429.1 778.8,127.8 781.1,429.3 783.3,128.1 785.6,429.7 787.8,127.6 790.1,429.5 792.3,128.4 794.6,429.5 796.9,128.6 799.1,429.4 801.4,128.4 803.6,429.7 805.9,129.0 808.1,429.9 810.4,429.2 812.6,429.3 814.9,429.5 817.1,429.4 819.4,429.6 821.7,429.9 823.9,429.9 826.2,429.1 828.4,429.9 830.7,429.2 832.9,429.5 835.2,429.4 837.4,429.5 839.7,429.1 841.9,429.2 844.2,429.5 846.5,429.3 848.7,429.9 851.0,429.2 853.2,429.3 855.5,429.4 857.7,429.1 860.0,429.5 862.2,429.2 864.5,429.3 866.7,429.7 869.0,429.8 871.3,429.3 873.5,429.9 875.8,429.4 878.0,429.5 880.3,429.2 882.5,429.2 884.9,127.0 887.2,429.8 889.4,429.4 891.7,429.1 893.9,400.7 896.2,429.1 898.4,429.2 900.7,429.9 902.9,429.2 905.2,429.9 907.5,429.6 909.7,429.9 912.0,429.2 914.2,429.4 916.5,429.6 918.7,430.0 921.0,429.4 923.2,429.1 925.5,429.2 927.7,429.5 930.0,429.2 70.3,430.0 71.9,429.2 74.2,429.1 76.4,429.5 78.7,429.6 81.0,429.4 83.2,429.1 85.5,429.9 87.7,429.7 90.0,323.0 92.2,281.4 94.5,274.0 96.7,285.5 99.0,309.6 101.2,341.5 103.6,369.3 105.9,409.8 108.1,428.0 110.4,428.1 112.6,428.3 114.9,428.5 117.2,428.4 119.4,428.4 121.7,427.9 123.9,427.8 126.2,428.2 128.4,428.3 130.7,414.0 132.9,360.7 135.3,304.8 137.6,251.0 139.8,200.4 142.1,155.6 144.3,119.9 146.6,93.3 148.8,77.8 151.1,74.4 153.4,82.3 155.6,101.9 157.9,131.6 160.1,170.5 162.4,216.7 164.6,268.1 167.0,322.1 70.0,429.9 71.6,429.2 73.9,429.6 76.1,429.8 78.4,421.7 80.6,404.7 82.9,398.2 85.1,395.2 87.4,70.0 89.6,71.3 91.9,72.2 94.2,73.4 96.4,73.6 98.7,74.0 100.9,74.6" fill="none" stroke="blue" stroke-width="1.5" stroke-dasharray="5,3"/>
<line x1="70" y1="430" x2="930" y2="430" stroke="#333" stroke-width="2"/>
<line x1="70" y1="70" x2="70" y2="430" stroke="#333" stroke-width="2"/>
<line x1="930" y1="70" x2="930" y2="430" stroke="#333" stroke-width="2"/>
<text x="70.0" y="450" text-anchor="middle" font-family="sans-serif" font-size="12">0s</text>
<text x="242.0" y="450" text-anchor="middle" font-family="sans-serif" font-size="12">54s</text>
<text x="414.0" y="450" text-anchor="middle" font-family="sans-serif" font-size="12">107s</text>
<text x="586.0000000000001" y="450" text-anchor="middle" font-family="sans-serif" font-size="12">160s</text>
<text x="758.0" y="450" text-anchor="middle" font-family="sans-serif" font-size="12">214s</text>
<text x="930.0" y="450" text-anchor="middle" font-family="sans-serif" font-size="12">267s</text>
<g transform="translate(820, 60)">
<rect width="120" height="50" fill="white" fill-opacity="0.9" stroke="#ccc"/>
<line x1="10" y1="15" x2="40" y2="15" stroke="red" stroke-width="3"/>
<text x="45" y="20" font-family="sans-serif" font-size="14">Voltage</text>
<line x1="10" y1="35" x2="40" y2="35" stroke="blue" stroke-width="2" stroke-dasharray="5,3"/>
<text x="45" y="40" font-family="sans-serif" font-size="14">Current</text>
</g>
</svg>