<svg viewBox="0 0 1000 600" xmlns="http://www.w3.org/2000/svg">
<rect width="100%" height="100%" fill="#ffffff"/>
<text x="500.0" y="35" text-anchor="middle" font-family="sans-serif" font-size="22" font-weight="bold">Outgassing Characterization Detail (Zoom): high_r</text>
<line x1="75" y1="525.0" x2="925" y2="525.0" stroke="#eee" stroke-width="1"/>
<text x="65" y="529.0" text-anchor="end" font-family="sans-serif" font-size="12" fill="red">13.37V</text>
<line x1="75" y1="434.99999999999943" x2="925" y2="434.99999999999943" stroke="#eee" stroke-width="1"/>
<text x="65" y="438.99999999999943" text-anchor="end" font-family="sans-serif" font-size="12" fill="red">13.49V</text>
<line x1="75" y1="345.0000000000002" x2="925" y2="345.0000000000002" stroke="#eee" stroke-width="1"/>
<text x="65" y="349.0000000000002" text-anchor="end" font-family="sans-serif" font-size="12" fill="red">13.61V</text>
<line x1="75" y1="254.99999999999972" x2="925" y2="254.99999999999972" stroke="#eee" stroke-width="1"/>
<text x="65" y="258.9999999999997" text-anchor="end" font-family="sans-serif" font-size="12" fill="red">13.72V</text>
<line x1="75" y1="165.0000000000005" x2="925" y2="165.0000000000005" stroke="#eee" stroke-width="1"/>
<text x="65" y="169.0000000000005" text-anchor="end" font-family="sans-serif" font-size="12" fill="red">13.84V</text>
<line x1="75" y1="75.00000000000006" x2="925" y2="75.00000000000006" stroke="#eee" stroke-width="1"/>
<text x="65" y="79.00000000000006" text-anchor="end" font-family="sans-serif" font-size="12" fill="red">13.96V</text>
<text x="935" y="529.0" text-anchor="start" font-family="sans-serif" font-size="12" fill="blue">-0.05A</text>
<text x="935" y="439.0" text-anchor="start" font-family="sans-serif" font-size="12" fill="blue">0.11A</text>
<text x="935" y="349.0" text-anchor="start" font-family="sans-serif" font-size="12" fill="blue">0.26A</text>
<text x="935" y="259.0" text-anchor="start" font-family="sans-serif" font-size="12" fill="blue">0.42A</text>
<text x="935" y="169.0" text-anchor="start" font-family="sans-serif" font-size="12" fill="blue">0.58A</text>
<text x="935" y="79.0" text-anchor="start" font-family="sans-serif" font-size="12" fill="blue">0.73A</text>
<line x1="75" y1="345.0" x2="925" y2="345.0" stroke="green" stroke-width="0.5" stroke-dasharray="2,2" opacity="0.3"/>
<text x="115" y="343.0" text-anchor="start" font-family="sans-serif" font-size="10" fill="green">Eff:0.50</text>
<line x1="75" y1="255.0" x2="925" y2="255.0" stroke="green" stroke-width="0.5" stroke-dasharray="2,2" opacity="0.3"/>
<text x="115" y="253.0" text-anchor="start" font-family="sans-serif" font-size="10" fill="green">Eff:0.75</text>
<line x1="75" y1="165.0" x2="925" y2="165.0" stroke="green" stroke-width="0.5" stroke-dasharray="2,2" opacity="0.3"/>
<text x="115" y="163.0" text-anchor="start" font-family="sans-serif" font-size="10" fill="green">Eff:1.00</text>
<polyline points="75.0,428.6 76.0,431.2 77.1,433.1 78.1,435.2 79.2,437.0 80.2,439.2 81.3,441.0 82.3,442.2 83.3,443.5 84.4,445.1 85.4,446.7 86.5,447.5 87.5,449.2 88.6,449.7 89.6,451.4 90.6,452.2 91.7,453.4 92.7,453.9 93.8,454.9 94.8,455.4 95.9,456.1 96.9,456.6 97.9,457.8 99.0,458.0 100.0,459.2 101.1,459.5 102.1,460.3 103.1,460.7 104.2,461.5 105.2,461.5 106.3,462.5 107.3,462.9 108.4,463.0 109.4,463.5 110.4,463.9 111.5,464.2 112.5,465.1 113.6,465.2 114.6,465.5 115.7,466.5 116.7,466.2 117.7,467.2 118.8,466.6 119.8,467.1 120.9,466.9 121.9,468.0 123.0,467.9 124.0,468.2 125.0,468.9 126.1,469.4 127.1,469.3 128.2,470.1 129.2,470.1 130.3,470.6 131.3,470.9 132.3,471.3 133.4,471.9 134.4,471.9 135.5,471.9 136.5,472.8 137.6,472.7 138.6,473.1 139.6,473.3 140.7,474.1 141.7,474.3 142.8,474.9 143.8,474.6 144.9,475.2 145.9,475.2 146.9,476.0 148.0,476.3 149.0,476.4 150.1,476.9 151.1,476.8 152.1,477.0 153.2,477.4 154.2,478.0 155.3,478.6 156.3,478.8 157.4,478.5 158.4,479.1 159.4,479.3 160.5,479.6 161.5,479.7 162.6,479.9 163.6,480.4 164.7,481.2 165.7,481.2 166.7,481.6 167.8,481.4 168.8,481.7 169.9,482.1 170.9,482.7 172.0,482.7 173.0,483.1 174.0,483.3 175.1,484.1 176.1,484.5 177.2,484.2 178.2,484.4 179.3,485.0 180.3,485.3 181.3,485.6 182.4,485.7 183.4,486.4 184.5,486.1 185.5,486.5 186.6,487.1 187.6,487.5 188.6,487.4 189.7,488.2 190.7,488.6 191.8,488.4 192.8,488.8 193.9,489.1 194.9,489.1 195.9,489.9 197.0,490.1 198.0,490.6 199.1,490.9 200.1,491.3 201.1,491.5 202.2,491.4 203.2,492.1 204.3,492.0 205.3,492.5 206.4,492.8 207.4,493.0 208.4,493.2 209.5,493.8 210.5,493.8 211.6,494.2 212.6,494.2 213.7,494.6 214.7,495.2 215.7,494.9 216.8,495.8 217.8,496.0 218.9,495.9 219.9,496.1 221.0,496.9 222.0,496.7 223.0,497.6 224.1,497.7 225.1,498.2 226.2,498.6 227.2,498.7 228.3,498.9 229.3,499.2 230.3,499.7 231.4,499.8 232.4,500.3 233.5,500.0 234.5,500.6 235.6,500.8 236.6,501.0 237.6,501.4 238.7,501.9 239.7,502.4 240.8,502.6 241.8,502.6 242.9,502.9 243.9,503.5 244.9,503.1 246.0,503.7 247.0,503.8 248.1,504.7 249.1,504.6 250.2,505.3 251.2,505.1 252.2,505.8 253.3,505.9 254.3,506.5 255.4,506.7 256.4,506.3 257.4,507.3 258.5,507.2 259.5,507.5 260.6,507.6 261.6,508.6 262.7,508.3 263.7,508.5 264.7,509.0 265.8,509.6 266.8,509.7 267.9,509.7 268.9,510.1 270.0,510.6 271.0,510.9 272.0,511.2 273.1,511.1 274.1,511.8 275.2,510.9 276.2,466.6 277.3,482.1 278.3,509.3 279.3,509.4 280.4,510.0 281.4,510.4 282.5,510.6 283.5,511.4 284.6,511.8 285.6,512.4 286.6,512.7 287.7,513.0 288.7,513.6 289.8,514.2 290.8,514.2 291.9,514.9 292.9,514.8 293.9,515.6 295.0,515.7 296.0,515.8 297.1,516.4 298.1,517.1 299.2,517.3 300.2,517.4 301.2,517.7 302.3,518.4 303.3,518.3 304.4,518.7 305.4,519.5 306.4,519.8 307.5,520.0 308.5,520.5 309.6,520.3 310.6,520.6 311.7,521.1 312.7,521.5 313.7,521.9 314.8,522.0 315.8,522.7 316.9,522.5 317.9,523.1 319.0,523.1 320.0,523.6 321.0,524.2 322.1,524.4 323.1,524.2 324.2,524.7 325.3,269.2 326.3,248.5 327.4,229.0 328.4,460.1 329.4,453.4 330.5,446.7 331.5,440.4 332.6,433.8 333.6,428.7 334.6,423.0 335.7,418.2 336.7,413.1 337.8,408.3 338.8,404.1 339.9,399.8 340.9,396.0 341.9,392.1 343.0,388.3 344.0,384.5 345.1,381.0 346.1,377.6 347.2,374.7 348.2,371.8 349.2,368.4 350.3,365.9 351.3,362.8 352.4,360.5 353.4,357.5 354.5,355.0 355.5,352.4 356.5,350.4 357.6,347.8 358.6,345.3 359.7,343.0 360.7,340.3 361.8,338.5 362.8,335.9 363.8,333.8 364.9,331.3 365.9,329.4 367.0,326.8 368.0,325.1 369.1,325.7 370.1,334.5 371.1,343.0 372.2,350.6 373.2,357.5 374.3,363.9 375.3,370.2 376.4,375.8 377.4,381.0 378.4,385.8 379.5,390.0 380.5,394.1 381.6,397.8 382.6,401.2 383.7,404.9 384.7,407.9 385.7,411.0 386.8,413.7 387.8,415.8 388.9,418.1 389.9,420.1 390.9,422.5 392.0,424.6 393.0,425.8 394.1,427.9 395.1,428.9 396.2,430.9 397.2,431.8 398.2,433.2 399.3,434.2 400.3,435.7 401.4,436.9 402.4,437.6 403.5,438.5 404.5,439.6 405.5,440.2 406.6,441.5 407.6,442.3 408.7,442.6 409.7,443.5 410.8,444.0 411.8,445.0 412.8,445.6 413.9,446.0 414.9,446.3 416.0,446.7 417.0,447.4 418.1,447.9 419.1,448.4 420.1,449.2 421.2,449.6 422.2,449.8 423.3,450.7 424.3,451.0 425.4,451.4 426.4,451.8 427.4,452.3 428.5,452.1 429.5,453.1 430.6,452.9 431.6,453.6 432.7,453.8 433.7,454.2 434.7,454.7 435.8,455.2 436.8,455.7 437.9,455.9 438.9,456.1 439.9,456.6 441.0,456.5 442.0,457.3 443.1,457.6 444.1,457.5 445.2,457.8 446.2,458.0 447.2,458.6 448.3,458.6 449.3,459.3 450.4,459.2 451.4,459.5 452.5,460.0 453.5,460.6 454.5,460.9 455.6,461.1 456.6,461.3 457.7,461.3 458.7,461.8 459.8,462.1 460.8,462.2 461.8,462.5 462.9,463.5 463.9,463.3 465.0,463.6 466.0,463.7 467.1,464.5 468.1,464.6 469.1,465.2 470.2,465.1 471.2,465.3 472.3,466.1 473.3,466.0 474.4,466.4 475.4,466.6 476.4,467.1 477.5,467.0 478.5,467.6 479.6,468.2 480.6,467.9 481.7,468.6 482.7,468.5 483.7,468.9 484.8,469.2 485.8,469.8 486.9,470.2 487.9,470.5 488.9,470.4 490.0,470.9 491.0,471.5 492.1,471.1 493.1,471.4 494.2,471.7 495.2,472.0 496.2,472.8 497.3,472.6 498.3,473.0 499.4,473.4 500.4,473.8 501.5,474.3 502.5,474.0 503.5,474.5 504.6,475.3 505.6,475.0 506.7,475.4 507.7,475.7 508.8,476.4 509.8,476.7 510.8,476.4 511.9,477.3 512.9,477.1 514.0,477.9 515.0,478.1 516.1,478.2 517.1,478.5 518.1,479.0 519.2,478.8 520.2,479.7 521.3,479.7 522.3,480.0 523.4,480.0 524.4,480.3 525.4,481.0 526.5,478.4 527.6,479.1 528.6,444.0 529.7,478.5 530.7,478.3 531.7,477.8 532.8,470.3 533.8,477.4 534.9,478.3 535.9,478.3 537.0,479.6 538.0,480.1 539.0,480.1 540.1,480.8 541.1,481.0 542.2,481.8 543.2,482.3 544.3,482.6 545.3,483.1 546.3,483.9 547.4,484.1 548.4,484.2 549.5,484.7 550.5,485.4 551.6,485.3 552.6,486.1 553.6,486.3 554.7,486.1 555.8,484.3 556.8,485.4 557.9,482.7 558.9,453.4 559.9,470.2 561.0,481.8 562.0,483.2 563.1,483.7 564.1,484.5 565.2,485.4 566.2,485.8 567.2,486.6 568.3,486.8 569.3,487.3 570.4,487.7 571.4,488.4 572.5,488.9 573.5,489.5 574.5,489.8 575.6,489.9 576.6,490.3 577.7,491.2 578.7,491.1 579.8,491.5 580.8,492.2 581.8,492.7 582.9,493.2 583.9,493.3 585.0,493.8 586.0,493.8 587.1,494.2 588.1,495.2 589.1,495.5 590.2,495.2 591.2,496.0 592.3,496.2 593.3,496.3 594.4,496.9 595.4,497.0 596.4,497.5 597.5,497.6 598.5,497.9 599.6,498.6 600.6,498.9 601.6,499.4 602.7,499.6 603.7,499.9 604.8,500.4 605.8,500.0 606.9,500.9 607.9,501.0 608.9,500.9 610.0,501.8 611.0,501.7 612.1,501.8 613.1,502.2 614.2,502.9 615.2,503.1 616.2,503.7 617.3,503.4 618.3,503.8 619.4,504.3 620.4,504.4 621.5,504.5 622.5,505.1 623.5,505.8 624.6,505.5 625.6,506.3 626.7,506.6 627.7,506.5 628.8,506.7 629.8,507.4 630.8,507.7 631.9,507.7 632.9,508.3 634.0,508.4 635.1,256.0 636.1,234.9 637.1,215.9 638.2,205.5 639.2,198.8 640.3,192.0 641.3,185.9 642.4,180.2 643.4,174.7 644.4,170.0 645.5,165.1 646.5,160.6 647.6,156.0 648.6,151.7 649.7,148.1 650.7,144.2 651.7,140.0 652.8,136.7 653.8,133.5 654.9,130.1 655.9,126.6 657.0,123.6 658.0,121.0 659.0,118.1 660.1,115.3 661.1,112.6 662.2,109.7 663.2,107.8 664.3,104.7 665.3,102.4 666.3,100.4 667.4,98.2 668.4,95.9 669.5,93.0 670.5,91.3 671.6,89.3 672.6,87.0 673.6,85.1 674.7,82.6 675.7,80.8 676.8,79.0 677.8,76.5 678.9,308.7 679.9,318.4 680.9,326.1 682.0,333.6 683.0,340.6 684.1,347.7 685.1,353.3 686.1,359.2 687.2,364.2 688.2,369.4 689.3,373.9 690.3,377.5 691.4,381.7 692.4,384.9 693.4,388.5 694.5,391.7 695.5,394.4 696.6,397.5 697.6,399.5 698.7,402.2 699.7,403.9 700.7,406.3 701.8,408.1 702.8,410.3 703.9,411.2 704.9,413.0 706.0,414.7 707.0,415.7 708.0,417.0 709.1,418.1 710.1,419.5 711.2,420.4 712.2,421.8 713.3,422.3 714.3,423.1 715.3,424.7 716.4,425.4 717.4,426.1 718.5,426.9 719.5,427.0 720.6,428.3 721.6,428.8 722.6,429.6 723.7,430.2 724.7,430.6 725.8,431.2 726.8,431.4 727.9,431.7 728.9,432.2 729.9,432.8 731.0,433.2 732.0,433.7 733.1,434.7 734.1,434.7 735.1,435.4 736.2,435.6 737.2,436.1 738.3,436.6 739.3,437.2 740.4,437.2 741.4,437.7 742.4,437.8 743.5,438.5 744.5,438.9 745.6,439.1 746.6,439.6 747.7,439.7 748.7,440.1 749.7,440.5 750.8,440.5 751.8,441.1 752.9,441.4 753.9,441.8 755.0,442.3 756.0,442.0 757.0,442.6 758.1,442.8 759.1,443.5 760.2,443.6 761.2,443.7 762.3,444.2 763.3,444.8 764.3,444.7 765.4,444.7 766.4,445.5 767.5,445.8 768.5,446.0 769.6,446.6 770.6,446.7 771.6,447.0 772.7,446.9 773.7,447.4 774.8,447.7 775.8,448.0 776.9,448.3 777.9,448.5 778.9,448.6 780.0,449.1 781.0,449.7 782.1,449.7 783.1,450.1 784.2,450.4 785.2,451.0 786.2,451.2 787.3,451.4 788.3,451.6 789.4,451.7 790.4,452.2 791.4,452.8 792.5,453.0 793.5,453.3 794.6,453.1 795.6,453.8 796.7,454.2 797.7,454.3 798.7,454.2 799.8,454.9 800.8,455.1 801.9,455.7 802.9,455.5 804.0,456.0 805.0,456.4 806.0,456.3 807.1,457.3 808.1,457.3 809.2,457.9 810.2,457.9 811.3,458.0 812.3,458.6 813.3,458.5 814.4,459.3 815.4,459.4 816.5,459.4 817.5,460.0 818.6,460.2 819.6,460.1 820.6,460.5 821.7,461.3 822.7,460.9 823.8,461.8 824.8,462.3 825.9,462.2 826.9,462.2 827.9,462.5 829.0,462.7 830.0,463.5 831.1,463.5 832.1,464.2 833.2,464.2 834.2,464.5 835.2,464.9 836.3,462.5 837.4,462.5 838.4,440.0 839.5,462.7 840.5,462.1 841.5,427.9 842.6,450.1 843.6,460.9 844.7,461.8 845.7,462.2 846.8,463.2 847.8,464.0 848.8,464.2 849.9,464.5 850.9,464.9 852.0,465.4 853.0,466.2 854.1,466.9 855.1,467.4 856.1,467.6 857.2,467.6 858.2,467.9 859.3,469.0 860.3,469.3 861.4,469.3 862.4,469.9 863.4,470.3 864.5,470.6 865.6,451.7 866.6,469.3 867.7,468.5 868.7,468.1 869.7,449.7 870.8,467.1 871.8,467.2 872.9,467.7 873.9,468.9 875.0,468.8 876.0,469.3 877.0,470.6 878.1,471.0 879.1,471.1 880.2,471.6 881.2,472.3 882.3,472.5 883.3,473.4 884.3,473.9 885.4,474.3 886.4,474.4 887.5,475.0 888.5,475.5 889.6,475.8 890.6,476.5 891.6,476.8 892.7,477.0 893.7,477.7 894.8,478.0 895.8,478.3 896.9,478.3 897.9,479.1 898.9,478.9 900.0,479.4 901.0,479.4 902.1,480.1 903.1,480.5 904.1,480.7 905.2,480.8 906.2,481.6 907.3,482.1 908.3,482.1 909.4,482.3 910.4,482.7 911.4,483.0 912.5,483.2 913.5,483.6 914.6,484.3 915.6,484.3 916.7,484.4 917.7,485.2 918.7,484.9 919.8,485.5 920.8,485.6 921.9,485.9 922.9,486.6 924.0,486.9 925.0,486.7" fill="none" stroke="red" stroke-width="2.5" opacity="0.8"/>
<polyline points="75.0,524.3 76.0,524.1 77.1,524.2 78.1,524.8 79.2,524.9 80.2,524.2 81.3,524.6 82.3,524.9 83.3,524.5 84.4,524.2 85.4,525.0 86.5,524.8 87.5,524.5 88.6,524.7 89.6,524.7 90.6,524.0 91.7,524.0 92.7,524.2 93.8,524.1 94.8,524.8 95.9,524.0 96.9,524.3 97.9,524.2 99.0,524.5 100.0,524.8 101.1,524.2 102.1,524.5 103.1,524.4 104.2,524.7 105.2,523.9 106.3,523.9 107.3,524.6 108.4,524.1 109.4,523.9 110.4,525.0 111.5,524.4 112.5,524.9 113.6,523.9 114.6,524.9 115.7,524.0 116.7,524.8 117.7,524.1 118.8,524.5 119.8,524.7 120.9,524.8 121.9,523.9 123.0,524.4 124.0,524.0 125.0,524.8 126.1,524.7 127.1,524.6 128.2,524.9 129.2,524.9 130.3,524.7 131.3,524.8 132.3,524.7 133.4,524.1 134.4,524.8 135.5,524.6 136.5,523.9 137.6,523.9 138.6,524.4 139.6,524.9 140.7,524.8 141.7,524.1 142.8,524.4 143.8,524.5 144.9,525.0 145.9,524.8 146.9,524.4 148.0,524.7 149.0,525.0 150.1,524.2 151.1,524.5 152.1,524.6 153.2,524.7 154.2,524.4 155.3,524.9 156.3,524.9 157.4,525.0 158.4,524.4 159.4,525.0 160.5,524.0 161.5,524.8 162.6,524.9 163.6,523.9 164.7,524.8 165.7,524.1 166.7,524.5 167.8,523.9 168.8,524.2 169.9,524.9 170.9,524.7 172.0,524.2 173.0,524.6 174.0,523.9 175.1,524.6 176.1,524.4 177.2,524.6 178.2,524.8 179.3,524.7 180.3,524.1 181.3,524.1 182.4,524.1 183.4,525.0 184.5,524.0 185.5,524.6 186.6,524.6 187.6,524.4 188.6,524.2 189.7,524.0 190.7,524.0 191.8,524.9 192.8,524.3 193.9,524.1 194.9,524.9 195.9,524.4 197.0,525.0 198.0,524.5 199.1,524.2 200.1,524.5 201.1,524.5 202.2,524.5 203.2,524.0 204.3,524.1 205.3,524.0 206.4,524.1 207.4,524.6 208.4,524.4 209.5,524.6 210.5,524.0 211.6,524.6 212.6,524.0 213.7,524.0 214.7,524.0 215.7,524.7 216.8,525.0 217.8,523.9 218.9,524.3 219.9,524.9 221.0,525.0 222.0,524.4 223.0,524.5 224.1,524.0 225.1,524.0 226.2,524.9 227.2,524.0 228.3,524.9 229.3,524.2 230.3,524.6 231.4,524.2 232.4,524.3 233.5,524.8 234.5,524.7 235.6,525.0 236.6,524.6 237.6,524.7 238.7,524.2 239.7,524.5 240.8,524.7 241.8,524.9 242.9,524.8 243.9,524.6 244.9,524.3 246.0,524.0 247.0,524.5 248.1,523.9 249.1,524.8 250.2,524.2 251.2,524.1 252.2,524.9 253.3,524.7 254.3,524.9 255.4,524.6 256.4,524.5 257.4,524.7 258.5,524.1 259.5,524.7 260.6,523.9 261.6,524.5 262.7,524.8 263.7,524.6 264.7,524.7 265.8,524.1 266.8,524.2 267.9,524.5 268.9,524.6 270.0,524.4 271.0,524.7 272.0,524.9 273.1,524.9 274.1,524.9 275.2,524.6 276.2,444.8 277.3,474.7 278.3,524.3 279.3,524.5 280.4,524.0 281.4,524.1 282.5,524.6 283.5,524.9 284.6,523.9 285.6,524.7 286.6,524.4 287.7,524.2 288.7,524.8 289.8,524.3 290.8,524.1 291.9,524.6 292.9,524.6 293.9,524.8 295.0,524.1 296.0,524.9 297.1,524.0 298.1,523.9 299.2,524.1 300.2,524.8 301.2,524.1 302.3,524.9 303.3,524.5 304.4,523.9 305.4,524.1 306.4,524.0 307.5,524.1 308.5,523.9 309.6,524.6 310.6,524.8 311.7,524.0 312.7,524.8 313.7,524.6 314.8,524.1 315.8,524.7 316.9,524.1 317.9,524.6 319.0,525.0 320.0,524.2 321.0,524.7 322.1,523.9 323.1,524.7 324.2,524.8 325.3,76.5 326.3,78.5 327.4,79.9 328.4,524.7 329.4,524.9 330.5,524.6 331.5,524.9 332.6,524.5 333.6,523.9 334.6,524.7 335.7,525.0 336.7,525.0 337.8,524.9 338.8,524.1 339.9,525.0 340.9,524.3 341.9,524.1 343.0,524.7 344.0,524.5 345.1,524.0 346.1,523.9 347.2,524.0 348.2,524.6 349.2,524.7 350.3,524.5 351.3,523.9 352.4,524.5 353.4,524.8 354.5,524.5 355.5,524.5 356.5,523.9 357.6,524.2 358.6,524.0 359.7,524.1 360.7,524.2 361.8,524.8 362.8,524.2 363.8,524.9 364.9,523.9 365.9,525.0 367.0,524.8 368.0,524.2 369.1,524.8 370.1,524.0 371.1,524.4 372.2,524.4 373.2,524.9 374.3,524.6 375.3,524.2 376.4,524.9 377.4,524.2 378.4,524.1 379.5,524.8 380.5,524.7 381.6,524.2 382.6,524.8 383.7,524.2 384.7,525.0 385.7,524.2 386.8,524.3 387.8,524.2 388.9,524.0 389.9,524.4 390.9,524.8 392.0,524.5 393.0,523.9 394.1,524.1 395.1,524.4 396.2,524.1 397.2,524.5 398.2,524.3 399.3,524.3 400.3,523.9 401.4,524.0 402.4,524.8 403.5,524.6 404.5,524.6 405.5,524.4 406.6,524.4 407.6,524.2 408.7,524.7 409.7,524.2 410.8,524.2 411.8,524.1 412.8,524.6 413.9,524.6 414.9,524.2 416.0,524.6 417.0,524.8 418.1,524.3 419.1,524.9 420.1,524.9 421.2,524.2 422.2,524.3 423.3,524.6 424.3,524.0 425.4,524.2 426.4,524.7 427.4,524.6 428.5,524.5 429.5,524.6 430.6,524.1 431.6,524.7 432.7,524.5 433.7,524.5 434.7,524.5 435.8,524.3 436.8,524.7 437.9,524.5 438.9,524.8 439.9,524.5 441.0,524.4 442.0,524.6 443.1,524.8 444.1,524.2 445.2,524.2 446.2,524.4 447.2,524.1 448.3,524.4 449.3,523.9 450.4,524.6 451.4,524.5 452.5,524.9 453.5,524.2 454.5,524.5 455.6,523.9 456.6,524.2 457.7,524.1 458.7,524.2 459.8,523.9 460.8,524.8 461.8,524.1 462.9,524.9 463.9,524.3 465.0,524.6 466.0,524.6 467.1,524.0 468.1,524.1 469.1,524.8 470.2,524.6 471.2,524.1 472.3,524.4 473.3,524.6 474.4,524.0 475.4,524.2 476.4,524.5 477.5,525.0 478.5,524.3 479.6,524.8 480.6,524.3 481.7,524.2 482.7,524.9 483.7,524.0 484.8,524.3 485.8,524.7 486.9,524.7 487.9,523.9 488.9,524.4 490.0,524.2 491.0,525.0 492.1,524.1 493.1,524.2 494.2,524.4 495.2,524.8 496.2,525.0 497.3,524.3 498.3,524.1 499.4,524.2 500.4,524.8 501.5,524.9 502.5,523.9 503.5,524.6 504.6,524.0 505.6,524.5 506.7,524.3 507.7,524.7 508.8,524.4 509.8,524.6 510.8,524.4 511.9,524.9 512.9,524.0 514.0,523.9 515.0,524.0 516.1,524.5 517.1,524.0 518.1,525.0 519.2,524.0 520.2,524.5 521.3,524.7 522.3,523.9 523.4,523.9 524.4,524.4 525.4,524.9 526.5,524.5 527.6,524.1 528.6,459.0 529.7,524.9 530.7,524.8 531.7,524.4 532.8,511.6 533.8,524.0 534.9,524.7 535.9,524.5 537.0,524.7 538.0,524.8 539.0,524.9 540.1,524.9 541.1,524.1 542.2,524.7 543.2,524.3 544.3,524.1 545.3,524.8 546.3,524.3 547.4,524.3 548.4,523.9 549.5,524.4 550.5,524.7 551.6,525.0 552.6,524.5 553.6,524.7 554.7,524.3 555.8,521.1 556.8,524.3 557.9,521.6 558.9,468.4 559.9,499.3 561.0,521.6 562.0,523.9 563.1,524.2 564.1,524.9 565.2,523.9 566.2,524.7 567.2,524.2 568.3,524.0 569.3,524.6 570.4,524.2 571.4,524.1 572.5,525.0 573.5,524.8 574.5,524.0 575.6,523.9 576.6,525.0 577.7,524.3 578.7,524.2 579.8,524.0 580.8,524.2 581.8,523.9 582.9,524.4 583.9,524.3 585.0,524.3 586.0,524.9 587.1,524.8 588.1,524.8 589.1,524.1 590.2,523.9 591.2,524.6 592.3,524.7 593.3,524.8 594.4,524.9 595.4,524.6 596.4,524.9 597.5,524.5 598.5,524.9 599.6,524.9 600.6,524.4 601.6,524.8 602.7,524.7 603.7,524.9 604.8,524.6 605.8,523.9 606.9,525.0 607.9,524.0 608.9,524.2 610.0,524.5 611.0,524.3 612.1,524.6 613.1,524.0 614.2,524.2 615.2,524.5 616.2,524.7 617.3,524.3 618.3,525.0 619.4,524.7 620.4,524.7 621.5,524.0 622.5,524.2 623.5,524.7 624.6,524.9 625.6,524.6 626.7,524.8 627.7,524.6 628.8,524.6 629.8,524.8 630.8,524.0 631.9,524.5 632.9,524.4 634.0,525.0 635.1,77.4 636.1,79.1 637.1,81.2 638.2,82.4 639.2,82.8 640.3,83.2 641.3,84.1 642.4,84.6 643.4,84.9 644.4,85.2 645.5,85.9 646.5,86.1 647.6,86.6 648.6,87.5 649.7,87.5 650.7,88.2 651.7,88.8 652.8,88.8 653.8,89.4 654.9,89.8 655.9,89.9 657.0,90.0 658.0,89.9 659.0,90.3 660.1,91.2 661.1,91.0 662.2,91.3 663.2,91.7 664.3,91.9 665.3,91.9 666.3,92.0 667.4,92.7 668.4,92.1 669.5,92.4 670.5,93.1 671.6,93.2 672.6,93.0 673.6,93.2 674.7,94.1 675.7,94.0 676.8,94.3 677.8,94.8 678.9,524.0 679.9,523.9 680.9,523.9 682.0,524.0 683.0,524.4 684.1,523.9 685.1,524.5 686.1,524.5 687.2,523.9 688.2,524.6 689.3,524.8 690.3,524.8 691.4,524.7 692.4,524.5 693.4,524.0 694.5,524.9 695.5,524.1 696.6,524.3 697.6,524.9 698.7,524.3 699.7,524.9 700.7,524.8 701.8,524.4 702.8,524.2 703.9,524.3 704.9,525.0 706.0,524.6 707.0,524.6 708.0,524.7 709.1,524.1 710.1,524.9 711.2,524.9 712.2,524.0 713.3,524.8 714.3,524.3 715.3,524.0 716.4,524.8 717.4,524.9 718.5,524.8 719.5,524.5 720.6,524.7 721.6,524.7 722.6,524.8 723.7,525.0 724.7,524.4 725.8,524.6 726.8,524.2 727.9,524.2 728.9,524.2 729.9,524.9 731.0,524.8 732.0,524.0 733.1,524.2 734.1,524.5 735.1,524.4 736.2,524.7 737.2,524.1 738.3,524.0 739.3,525.0 740.4,524.4 741.4,524.1 742.4,524.4 743.5,524.5 744.5,524.6 745.6,523.9 746.6,524.8 747.7,524.4 748.7,525.0 749.7,524.7 750.8,524.6 751.8,523.9 752.9,524.0 753.9,524.0 755.0,523.9 756.0,524.8 757.0,523.9 758.1,524.9 759.1,524.1 760.2,524.7 761.2,524.2 762.3,525.0 763.3,524.7 764.3,524.1 765.4,524.7 766.4,524.8 767.5,524.5 768.5,524.0 769.6,524.8 770.6,524.9 771.6,524.5 772.7,524.7 773.7,525.0 774.8,524.5 775.8,524.1 776.9,524.9 777.9,523.9 778.9,523.9 780.0,524.9 781.0,524.7 782.1,524.3 783.1,523.9 784.2,524.8 785.2,523.9 786.2,524.5 787.3,524.3 788.3,524.4 789.4,524.3 790.4,524.1 791.4,524.3 792.5,524.3 793.5,524.3 794.6,524.2 795.6,524.4 796.7,524.2 797.7,525.0 798.7,524.9 799.8,524.0 800.8,524.3 801.9,524.3 802.9,524.3 804.0,524.9 805.0,524.9 806.0,524.1 807.1,524.9 808.1,524.7 809.2,524.6 810.2,524.4 811.3,524.4 812.3,524.2 813.3,524.8 814.4,524.4 815.4,524.5 816.5,525.0 817.5,524.5 818.6,524.0 819.6,524.6 820.6,524.0 821.7,523.9 822.7,524.6 823.8,524.9 824.8,524.7 825.9,525.0 826.9,524.0 827.9,524.7 829.0,523.9 830.0,525.0 831.1,524.9 832.1,524.4 833.2,524.3 834.2,524.6 835.2,524.4 836.3,524.8 837.4,524.1 838.4,482.7 839.5,523.9 840.5,524.9 841.5,462.3 842.6,503.4 843.6,524.9 844.7,524.3 845.7,524.6 846.8,524.8 847.8,524.5 848.8,524.2 849.9,524.6 850.9,524.3 852.0,524.4 853.0,524.1 854.1,524.4 855.1,525.0 856.1,524.3 857.2,524.2 858.2,524.0 859.3,524.8 860.3,524.7 861.4,524.5 862.4,524.4 863.4,524.7 864.5,523.9 865.6,491.6 866.6,524.4 867.7,524.5 868.7,524.5 869.7,491.4 870.8,524.8 871.8,524.9 872.9,524.6 873.9,524.7 875.0,524.8 876.0,524.4 877.0,523.9 878.1,523.9 879.1,524.6 880.2,524.8 881.2,524.8 882.3,524.1 883.3,524.1 884.3,524.7 885.4,524.2 886.4,524.7 887.5,524.3 888.5,524.9 889.6,524.9 890.6,524.0 891.6,524.5 892.7,524.2 893.7,523.9 894.8,524.1 895.8,524.2 896.9,524.9 897.9,524.6 898.9,524.4 900.0,524.3 901.0,524.4 902.1,524.8 903.1,524.4 904.1,523.9 905.2,525.0 906.2,524.9 907.3,524.8 908.3,524.2 909.4,524.1 910.4,524.9 911.4,524.2 912.5,524.7 913.5,524.7 914.6,524.5 915.6,523.9 916.7,524.6 917.7,524.1 918.7,524.7 919.8,524.4 920.8,524.5 921.9,524.5 922.9,524.1 924.0,524.3 925.0,524.7" fill="none" stroke="blue" stroke-width="1.5" stroke-dasharray="5,3"/>
<polyline points="75.0,165.0 76.0,165.0 77.1,165.0 78.1,165.0 79.2,165.0 80.2,165.0 81.3,165.0 82.3,165.0 83.3,165.0 84.4,165.0 85.4,165.0 86.5,165.0 87.5,165.0 88.6,165.0 89.6,165.0 90.6,165.0 91.7,165.0 92.7,165.0 93.8,165.0 94.8,165.0 95.9,165.0 96.9,165.0 97.9,165.0 99.0,165.0 100.0,165.0 101.1,165.0 102.1,165.0 103.1,165.0 104.2,165.0 105.2,165.0 106.3,165.0 107.3,165.0 108.4,165.0 109.4,165.0 110.4,165.0 111.5,165.0 112.5,165.0 113.6,165.0 114.6,165.0 115.7,165.0 116.7,165.0 117.7,165.0 118.8,165.0 119.8,165.0 120.9,165.0 121.9,165.0 123.0,165.0 124.0,165.0 125.0,165.0 126.1,165.0 127.1,165.0 128.2,165.0 129.2,165.0 130.3,165.0 131.3,165.0 132.3,165.0 133.4,165.0 134.4,165.0 135.5,165.0 136.5,165.0 137.6,165.0 138.6,165.0 139.6,165.0 140.7,165.0 141.7,165.0 142.8,165.0 143.8,165.0 144.9,165.0 145.9,165.0 146.9,165.0 148.0,165.0 149.0,165.0 150.1,165.0 151.1,165.0 152.1,165.0 153.2,165.0 154.2,165.0 155.3,165.0 156.3,165.0 157.4,165.0 158.4,165.0 159.4,165.0 160.5,165.0 161.5,165.0 162.6,165.0 163.6,165.0 164.7,165.0 165.7,165.0 166.7,165.0 167.8,165.0 168.8,165.0 169.9,165.0 170.9,165.0 172.0,165.0 173.0,165.0 174.0,165.0 175.1,165.0 176.1,165.0 177.2,165.0 178.2,165.0 179.3,165.0 180.3,165.0 181.3,165.0 182.4,165.0 183.4,165.0 184.5,165.0 185.5,165.0 186.6,165.0 187.6,165.0 188.6,165.0 189.7,165.0 190.7,165.0 191.8,165.0 192.8,165.0 193.9,165.0 194.9,165.0 195.9,165.0 197.0,165.0 198.0,165.0 199.1,165.0 200.1,165.0 201.1,165.0 202.2,165.0 203.2,165.0 204.3,165.0 205.3,165.0 206.4,165.0 207.4,165.0 208.4,165.0 209.5,165.0 210.5,165.0 211.6,165.0 212.6,165.0 213.7,165.0 214.7,165.0 215.7,165.0 216.8,165.0 217.8,165.0 218.9,165.0 219.9,165.0 221.0,165.0 222.0,165.0 223.0,165.0 224.1,165.0 225.1,165.0 226.2,165.0 227.2,165.0 228.3,165.0 229.3,165.0 230.3,165.0 231.4,165.0 232.4,165.0 233.5,165.0 234.5,165.0 235.6,165.0 236.6,165.0 237.6,165.0 238.7,165.0 239.7,165.0 240.8,165.0 241.8,165.0 242.9,165.0 243.9,165.0 244.9,165.0 246.0,165.0 247.0,165.0 248.1,165.0 249.1,165.0 250.2,165.0 251.2,165.0 252.2,165.0 253.3,165.0 254.3,165.0 255.4,165.0 256.4,165.0 257.4,165.0 258.5,165.0 259.5,165.0 260.6,165.0 261.6,165.0 262.7,165.0 263.7,165.0 264.7,165.0 265.8,165.0 266.8,165.0 267.9,165.0 268.9,165.0 270.0,165.0 271.0,165.0 272.0,165.0 273.1,165.0 274.1,165.0 275.2,165.0 276.2,165.0 277.3,165.0 278.3,525.0 279.3,525.0 280.4,525.0 281.4,525.0 282.5,525.0 283.5,525.0 284.6,165.0 285.6,165.0 286.6,165.0 287.7,165.0 288.7,165.0 289.8,165.0 290.8,165.0 291.9,165.0 292.9,165.0 293.9,165.0 295.0,165.0 296.0,165.0 297.1,165.0 298.1,165.0 299.2,165.0 300.2,165.0 301.2,165.0 302.3,165.0 303.3,165.0 304.4,165.0 305.4,165.0 306.4,165.0 307.5,165.0 308.5,165.0 309.6,165.0 310.6,165.0 311.7,165.0 312.7,165.0 313.7,165.0 314.8,165.0 315.8,165.0 316.9,165.0 317.9,165.0 319.0,165.0 320.0,165.0 321.0,165.0 322.1,165.0 323.1,165.0 324.2,165.0 325.3,525.0 326.3,525.0 327.4,525.0 328.4,576.1 329.4,580.5 330.5,573.5 331.5,565.1 332.6,559.2 333.6,554.8 334.6,550.0 335.7,546.9 336.7,544.5 337.8,542.7 338.8,541.8 339.9,540.0 340.9,539.3 341.9,538.5 343.0,537.5 344.0,536.8 345.1,536.4 346.1,536.0 347.2,535.4 348.2,534.8 349.2,534.4 350.3,534.0 351.3,533.8 352.4,533.3 353.4,532.9 354.5,532.7 355.5,532.5 356.5,532.5 357.6,532.2 358.6,532.0 359.7,531.8 360.7,531.6 361.8,531.3 362.8,531.3 363.8,531.1 364.9,531.2 365.9,530.8 367.0,530.7 368.0,530.8 369.1,530.6 370.1,530.8 371.1,530.7 372.2,530.7 373.2,530.6 374.3,530.6 375.3,530.7 376.4,530.6 377.4,530.7 378.4,530.7 379.5,530.6 380.5,530.6 381.6,530.7 382.6,530.6 383.7,530.7 384.7,530.6 385.7,530.7 386.8,530.7 387.8,530.7 388.9,530.8 389.9,530.7 390.9,530.6 392.0,530.7 393.0,530.8 394.1,530.7 395.1,530.7 396.2,530.7 397.2,530.7 398.2,530.7 399.3,530.7 400.3,530.8 401.4,530.8 402.4,530.6 403.5,530.7 404.5,530.6 405.5,530.7 406.6,530.7 407.6,530.7 408.7,530.6 409.7,530.7 410.8,530.7 411.8,530.7 412.8,530.7 413.9,530.7 414.9,530.7 416.0,530.6 417.0,530.6 418.1,530.7 419.1,530.6 420.1,530.6 421.2,530.7 422.2,530.7 423.3,530.6 424.3,530.8 425.4,530.7 426.4,530.6 427.4,530.6 428.5,530.7 429.5,530.7 430.6,530.7 431.6,530.6 432.7,530.7 433.7,530.7 434.7,530.7 435.8,530.7 436.8,530.6 437.9,530.7 438.9,530.6 439.9,530.7 441.0,530.7 442.0,530.6 443.1,530.6 444.1,530.7 445.2,530.7 446.2,530.7 447.2,530.7 448.3,530.7 449.3,530.8 450.4,530.7 451.4,530.7 452.5,530.6 453.5,530.7 454.5,530.7 455.6,530.8 456.6,530.7 457.7,530.7 458.7,530.7 459.8,530.8 460.8,530.6 461.8,530.7 462.9,530.6 463.9,530.7 465.0,530.6 466.0,530.6 467.1,530.8 468.1,530.7 469.1,530.6 470.2,530.6 471.2,530.8 472.3,530.7 473.3,530.6 474.4,530.8 475.4,530.7 476.4,530.7 477.5,530.6 478.5,530.7 479.6,530.6 480.6,530.7 481.7,530.7 482.7,530.6 483.7,530.8 484.8,530.7 485.8,530.6 486.9,530.6 487.9,530.8 488.9,530.7 490.0,530.7 491.0,530.6 492.1,530.7 493.1,530.7 494.2,530.7 495.2,530.6 496.2,530.6 497.3,530.7 498.3,530.7 499.4,530.7 500.4,530.6 501.5,530.6 502.5,530.8 503.5,530.6 504.6,530.8 505.6,530.7 506.7,530.7 507.7,530.6 508.8,530.7 509.8,530.6 510.8,530.7 511.9,530.6 512.9,530.8 514.0,530.8 515.0,530.8 516.1,530.7 517.1,530.8 518.1,530.6 519.2,530.8 520.2,530.7 521.3,530.6 522.3,530.8 523.4,530.8 524.4,530.7 525.4,530.6 526.5,530.7 527.6,530.8 528.6,526.8 529.7,490.7 530.7,478.9 531.7,486.9 532.8,480.2 533.8,503.0 534.9,503.5 535.9,503.4 537.0,503.5 538.0,503.6 539.0,503.7 540.1,503.7 541.1,503.0 542.2,503.5 543.2,503.2 544.3,503.1 545.3,503.6 546.3,503.2 547.4,503.2 548.4,502.9 549.5,503.3 550.5,503.5 551.6,503.7 552.6,503.4 553.6,503.5 554.7,503.2 555.8,500.5 556.8,503.3 557.9,511.2 558.9,534.3 559.9,479.0 561.0,521.5 562.0,523.2 563.1,523.3 564.1,523.3 565.2,523.2 566.2,523.3 567.2,523.3 568.3,523.3 569.3,523.3 570.4,523.3 571.4,523.3 572.5,523.3 573.5,523.3 574.5,523.3 575.6,523.2 576.6,523.3 577.7,523.3 578.7,523.3 579.8,523.3 580.8,523.3 581.8,523.2 582.9,523.3 583.9,523.3 585.0,523.3 586.0,523.3 587.1,523.3 588.1,523.3 589.1,523.3 590.2,523.2 591.2,523.3 592.3,523.3 593.3,523.3 594.4,165.0 595.4,165.0 596.4,165.0 597.5,165.0 598.5,165.0 599.6,165.0 600.6,165.0 601.6,165.0 602.7,165.0 603.7,165.0 604.8,165.0 605.8,165.0 606.9,165.0 607.9,165.0 608.9,165.0 610.0,165.0 611.0,165.0 612.1,165.0 613.1,165.0 614.2,165.0 615.2,165.0 616.2,165.0 617.3,165.0 618.3,165.0 619.4,165.0 620.4,165.0 621.5,165.0 622.5,165.0 623.5,165.0 624.6,165.0 625.6,165.0 626.7,165.0 627.7,165.0 628.8,165.0 629.8,165.0 630.8,165.0 631.9,165.0 632.9,165.0 634.0,165.0 635.1,525.1 636.1,525.1 637.1,525.1 638.2,523.6 639.2,523.7 640.3,523.7 641.3,523.6 642.4,523.6 643.4,523.6 644.4,523.7 645.5,523.7 646.5,523.8 647.6,523.8 648.6,523.9 649.7,524.0 650.7,524.0 651.7,524.1 652.8,524.1 653.8,524.2 654.9,524.2 655.9,524.2 657.0,524.3 658.0,524.3 659.0,524.3 660.1,524.4 661.1,524.4 662.2,524.4 663.2,524.4 664.3,524.4 665.3,524.5 666.3,524.5 667.4,524.5 668.4,524.5 669.5,524.5 670.5,524.5 671.6,524.5 672.6,524.6 673.6,524.6 674.7,524.6 675.7,524.6 676.8,524.6 677.8,524.6 678.9,530.7 679.9,530.7 680.9,530.7 682.0,530.7 683.0,530.6 684.1,530.7 685.1,530.6 686.1,530.6 687.2,530.7 688.2,530.6 689.3,530.5 690.3,530.5 691.4,530.5 692.4,530.6 693.4,530.7 694.5,530.5 695.5,530.7 696.6,530.6 697.6,530.5 698.7,530.6 699.7,530.5 700.7,530.5 701.8,530.6 702.8,530.6 703.9,530.6 704.9,530.5 706.0,530.5 707.0,530.6 708.0,530.5 709.1,530.7 710.1,530.5 711.2,530.5 712.2,530.7 713.3,530.5 714.3,530.6 715.3,530.7 716.4,530.5 717.4,530.5 718.5,530.5 719.5,530.6 720.6,530.5 721.6,530.5 722.6,530.5 723.7,530.5 724.7,530.6 725.8,530.6 726.8,530.6 727.9,530.6 728.9,530.6 729.9,530.5 731.0,530.5 732.0,530.7 733.1,530.6 734.1,530.6 735.1,530.6 736.2,530.5 737.2,530.6 738.3,530.7 739.3,530.5 740.4,530.6 741.4,530.7 742.4,530.6 743.5,530.6 744.5,530.5 745.6,530.7 746.6,530.5 747.7,530.6 748.7,530.5 749.7,530.5 750.8,530.5 751.8,530.7 752.9,530.7 753.9,530.7 755.0,530.7 756.0,530.5 757.0,530.7 758.1,530.5 759.1,530.7 760.2,530.5 761.2,530.6 762.3,530.5 763.3,530.5 764.3,530.7 765.4,530.5 766.4,530.5 767.5,530.6 768.5,530.7 769.6,530.5 770.6,530.5 771.6,530.6 772.7,530.5 773.7,530.5 774.8,530.6 775.8,530.7 776.9,530.5 777.9,530.7 778.9,530.7 780.0,530.5 781.0,530.5 782.1,530.6 783.1,530.7 784.2,530.5 785.2,530.7 786.2,530.6 787.3,530.6 788.3,530.6 789.4,530.6 790.4,530.7 791.4,530.6 792.5,530.6 793.5,530.6 794.6,530.6 795.6,530.6 796.7,530.6 797.7,530.5 798.7,530.5 799.8,530.7 800.8,530.6 801.9,530.6 802.9,530.6 804.0,530.5 805.0,530.5 806.0,530.6 807.1,530.5 808.1,530.5 809.2,530.6 810.2,530.6 811.3,530.6 812.3,530.6 813.3,530.5 814.4,530.6 815.4,530.6 816.5,530.5 817.5,530.6 818.6,530.7 819.6,530.6 820.6,530.7 821.7,530.7 822.7,530.5 823.8,530.5 824.8,530.5 825.9,530.5 826.9,530.7 827.9,530.5 829.0,530.7 830.0,530.5 831.1,530.5 832.1,530.6 833.2,530.6 834.2,530.5 835.2,530.6 836.3,530.5 837.4,530.6 838.4,526.2 839.5,493.2 840.5,478.7 841.5,559.4 842.6,424.5 843.6,503.5 844.7,503.0 845.7,503.2 846.8,503.4 847.8,503.2 848.8,502.9 849.9,503.3 850.9,503.0 852.0,503.1 853.0,502.9 854.1,503.1 855.1,503.5 856.1,503.0 857.2,502.9 858.2,502.8 859.3,503.4 860.3,503.3 861.4,503.2 862.4,503.1 863.4,503.3 864.5,502.7 865.6,676.3 866.6,503.1 867.7,520.4 868.7,519.7 869.7,550.5 870.8,522.8 871.8,523.8 872.9,523.7 873.9,523.7 875.0,523.8 876.0,523.7 877.0,523.7 878.1,523.7 879.1,523.7 880.2,523.7 881.2,523.8 882.3,523.7 883.3,523.7 884.3,523.7 885.4,523.7 886.4,523.7 887.5,523.7 888.5,523.8 889.6,523.8 890.6,523.7 891.6,523.7 892.7,523.7 893.7,523.7 894.8,523.7 895.8,523.7 896.9,523.8 897.9,523.7 898.9,523.7 900.0,523.7 901.0,523.7 902.1,523.7 903.1,523.7 904.1,523.7 905.2,523.8 906.2,523.8 907.3,523.7 908.3,523.7 909.4,523.7 910.4,523.8 911.4,523.7 912.5,523.7 913.5,523.7 914.6,523.7 915.6,523.7 916.7,523.7 917.7,523.7 918.7,523.7 919.8,523.7 920.8,523.7 921.9,523.7 922.9,523.7 924.0,523.7 925.0,523.7" fill="none" stroke="green" stroke-width="1.2" opacity="0.6"/>
<line x1="75" y1="525" x2="925" y2="525" stroke="#333" stroke-width="2"/>
<line x1="75" y1="75" x2="75" y2="525" stroke="#333" stroke-width="2"/>
<line x1="925" y1="75" x2="925" y2="525" stroke="#333" stroke-width="2"/>
<text x="75.0" y="550" text-anchor="middle" font-family="sans-serif" font-size="12">2s</text>
<text x="245.0" y="550" text-anchor="middle" font-family="sans-serif" font-size="12">133s</text>
<text x="415.0" y="550" text-anchor="middle" font-family="sans-serif" font-size="12">263s</text>
<text x="585.0" y="550" text-anchor="middle" font-family="sans-serif" font-size="12">394s</text>
<text x="755.0" y="550" text-anchor="middle" font-family="sans-serif" font-size="12">524s</text>
<text x="925.0" y="550" text-anchor="middle" font-family="sans-serif" font-size="12">655s</text>
<g transform="translate(800, 60)">
<rect width="140" height="70" fill="white" fill-opacity="0.9" stroke="#ccc"/>
<line x1="10" y1="15" x2="40" y2="15" stroke="red" stroke-width="3"/>
<text x="45" y="20" font-family="sans-serif" font-size="14">Voltage</text>
<line x1="10" y1="35" x2="40" y2="35" stroke="blue" stroke-width="2" stroke-dasharray="5,3"/>
<text x="45" y="40" font-family="sans-serif" font-size="14">Current</text>
<line x1="10" y1="55" x2="40" y2="55" stroke="green" stroke-width="1.2"/>
<text x="45" y="60" font-family="sans-serif" font-size="14">Efficiency</text>
</g>
</svg>