<svg viewBox="0 0 1000 500" xmlns="http://www.w3.org/2000/svg">
<rect width="100%" height="100%" fill="#ffffff"/>
<text x="500.0" y="35" text-anchor="middle" font-family="sans-serif" font-size="22" font-weight="bold">Outgassing Characterization Detail (Zoom): hot</text>
<line x1="70" y1="430.0" x2="930" y2="430.0" stroke="#eee" stroke-width="1"/>
<text x="65" y="434.0" text-anchor="end" font-family="sans-serif" font-size="12" fill="red">13.65V</text>
<line x1="70" y1="358.0" x2="930" y2="358.0" stroke="#eee" stroke-width="1"/>
<text x="65" y="362.0" text-anchor="end" font-family="sans-serif" font-size="12" fill="red">13.69V</text>
<line x1="70" y1="286.0" x2="930" y2="286.0" stroke="#eee" stroke-width="1"/>
<text x="65" y="290.0" text-anchor="end" font-family="sans-serif" font-size="12" fill="red">13.72V</text>
<line x1="70" y1="214.0" x2="930" y2="214.0" stroke="#eee" stroke-width="1"/>
<text x="65" y="218.0" text-anchor="end" font-family="sans-serif" font-size="12" fill="red">13.75V</text>
<line x1="70" y1="142.0" x2="930" y2="142.0" stroke="#eee" stroke-width="1"/>
<text x="65" y="146.0" text-anchor="end" font-family="sans-serif" font-size="12" fill="red">13.78V</text>
<line x1="70" y1="70.0" x2="930" y2="70.0" stroke="#eee" stroke-width="1"/>
<text x="65" y="74.0" text-anchor="end" font-family="sans-serif" font-size="12" fill="red">13.81V</text>
<text x="935" y="434.0" text-anchor="start" font-family="sans-serif" font-size="12" fill="blue">-0.05A</text>
<text x="935" y="362.0" text-anchor="start" font-family="sans-serif" font-size="12" fill="blue">0.11A</text>
<text x="935" y="290.0" text-anchor="start" font-family="sans-serif" font-size="12" fill="blue">0.26A</text>
<text x="935" y="218.00000000000003" text-anchor="start" font-family="sans-serif" font-size="12" fill="blue">0.42A</text>
<text x="935" y="146.0" text-anchor="start" font-family="sans-serif" font-size="12" fill="blue">0.58A</text>
<text x="935" y="74.0" text-anchor="start" font-family="sans-serif" font-size="12" fill="blue">0.73A</text>
<polyline points="70.0,414.6 70.8,261.8 71.4,254.7 71.9,246.9 72.5,239.8 73.1,232.2 73.7,224.6 74.2,218.0 74.8,212.2 75.4,205.5 75.9,199.3 76.5,194.5 77.1,188.3 77.7,183.5 78.2,177.1 78.8,172.2 79.4,168.6 79.9,164.4 80.5,159.6 81.1,155.0 81.7,150.4 82.2,146.0 82.8,141.2 83.4,138.2 83.9,286.4 84.5,138.7 85.1,286.0 85.7,138.7 86.2,286.2 86.8,139.2 87.4,288.0 87.9,141.4 88.5,288.7 89.1,139.8 89.7,287.1 90.2,139.8 90.8,287.1 91.4,139.6 91.9,287.1 92.5,141.0 93.1,286.9 93.7,138.9 94.2,286.4 94.8,139.6 95.4,286.2 95.9,137.8 96.5,284.6 97.1,138.9 97.7,285.3 98.2,137.3 98.8,284.3 99.4,135.7 99.9,282.5 100.5,136.4 101.1,282.0 101.7,133.6 102.2,280.9 102.8,134.6 103.4,279.5 103.9,131.6 104.5,280.0 105.1,131.1 105.7,278.4 106.2,130.0 106.8,277.5 107.4,129.5 107.9,275.4 108.5,127.7 109.1,274.7 109.7,127.2 110.2,273.1 110.8,126.1 111.4,272.4 111.9,123.3 112.5,269.6 113.1,122.2 113.7,270.3 114.2,121.5 114.8,269.2 115.4,121.0 115.9,266.0 116.5,119.6 117.1,264.6 117.7,117.6 118.2,263.0 118.8,116.4 119.4,261.8 119.9,114.3 120.5,261.6 121.1,113.4 121.7,259.1 122.2,113.0 122.8,259.3 123.4,111.6 124.0,256.3 124.5,109.1 125.1,255.2 125.7,109.1 126.2,254.3 126.8,106.5 127.4,253.3 128.0,105.8 128.5,251.0 129.1,103.5 129.7,250.8 130.2,103.3 130.8,248.5 131.4,102.2 132.0,246.2 132.5,98.7 133.1,246.0 133.7,97.8 134.2,243.5 134.8,96.4 135.4,242.5 136.0,96.0 136.5,241.2 137.1,94.8 137.7,240.2 138.2,92.1 138.8,239.3 139.4,90.9 140.0,236.8 140.5,89.5 141.1,235.2 141.7,89.5 142.2,234.7 142.8,87.5 143.4,231.7 144.0,84.5 144.5,232.2 145.1,84.9 145.7,229.4 146.2,81.7 146.8,229.7 147.4,81.5 148.0,226.9 148.5,79.4 149.1,226.0 149.7,78.7 150.2,223.5 150.8,76.9 151.4,222.3 152.0,76.2 152.5,221.6 153.1,74.1 153.7,219.3 154.2,72.3 154.8,219.3 155.4,71.6 156.0,216.8 156.5,70.0 157.1,216.1 157.7,218.2 158.2,223.2 158.8,224.4 159.4,227.8 160.0,232.0 160.5,233.1 161.1,235.9 161.7,238.9 162.2,241.4 162.8,244.6 163.4,245.3 164.0,249.2 164.5,249.4 165.1,251.3 165.7,254.7 166.2,255.2 166.8,256.5 167.4,259.5 168.0,259.5 168.5,261.8 169.1,263.0 169.7,264.8 170.2,265.3 170.8,266.2 171.4,267.8 172.0,269.2 172.5,268.7 173.1,271.3 173.7,271.5 174.2,272.9 174.8,272.9 175.4,274.9 176.0,276.1 176.5,274.7 177.1,276.8 177.7,277.5 178.2,276.8 178.8,277.7 179.4,278.1 180.0,279.3 180.5,280.2 181.1,279.8 181.7,281.1 182.2,281.4 182.8,281.4 183.4,282.5 184.0,283.9 184.5,283.0 185.1,284.6 185.7,283.7 186.2,286.0 186.8,286.4 187.4,285.5 188.0,286.6 188.5,286.4 189.1,286.0 189.7,287.1 190.2,286.4 190.8,286.9 191.4,287.6 192.0,288.0 192.5,287.3 193.1,288.7 193.7,289.4 194.2,288.3 194.8,288.3 195.4,289.6 196.0,288.9 196.5,290.3 197.1,290.1 197.7,290.5 198.2,291.0 198.8,291.5 199.4,290.8 200.0,290.5 200.5,290.5 201.1,290.8 201.7,292.4 202.2,291.9 202.8,292.8 203.4,291.5 204.0,292.4 204.5,293.1 205.1,291.9 205.7,292.8 206.2,292.4 206.8,292.4 207.4,294.7 208.0,293.3 208.5,294.2 209.1,293.8 209.7,294.2 210.2,295.4 210.8,294.5 211.4,294.2 212.0,293.8 212.5,295.4 213.1,294.2 213.7,296.1 214.2,295.1 214.8,294.9 215.4,296.5 216.0,294.9 216.5,296.5 217.1,296.3 217.7,295.6 218.2,296.5 218.8,296.1 219.4,296.3 220.0,296.1 220.5,295.6 221.1,295.8 221.7,297.9 222.2,298.1 222.8,297.0 223.4,296.8 224.0,297.4 224.5,296.8 225.1,297.2 225.7,298.4 226.2,298.8 226.8,297.9 227.4,297.0 228.0,297.4 228.5,297.2 229.1,298.4 229.7,297.7 230.2,298.8 230.8,299.5 231.4,299.0 232.0,298.1 232.5,298.8 233.1,299.5 233.7,298.1 234.3,300.4 234.8,298.6 235.4,300.4 236.0,299.3 236.5,299.5 237.1,300.2 237.7,299.0 238.3,299.7 238.8,299.7 239.4,300.4 240.0,300.9 240.5,301.3 241.1,300.7 241.7,301.8 242.3,299.7 242.8,302.0 243.4,301.1 244.0,300.2 244.5,301.8 245.1,301.3 245.7,300.9 246.3,301.6 246.8,301.8 247.4,300.9 248.0,302.3 248.5,301.8 249.1,302.5 249.7,303.2 250.3,303.2 250.8,303.6 251.4,303.4 252.0,302.5 252.5,303.0 253.1,302.7 253.7,303.4 254.3,302.7 254.8,302.7 255.4,304.1 256.0,302.7 256.5,304.1 257.1,303.6 257.7,305.0 258.3,304.1 258.8,303.2 259.4,305.0 260.0,304.3 260.5,305.5 261.1,303.9 261.7,305.7 262.3,305.9 262.8,304.8 263.4,304.3 264.0,305.7 264.5,304.8 265.1,306.4 265.7,305.0 266.3,304.6 266.8,305.0 267.4,305.9 268.0,306.9 268.5,306.4 269.1,305.3 269.7,307.1 270.3,307.3 270.8,306.6 271.4,307.3 272.0,306.9 272.5,306.9 273.1,308.0 273.7,306.4 274.3,306.6 274.8,306.9 275.4,308.0 276.0,306.4 276.5,308.5 277.1,308.7 277.7,306.9 278.3,308.0 278.8,306.9 279.4,308.5 280.0,308.9 280.5,309.2 281.1,308.7 281.7,308.9 282.3,309.4 282.8,308.7 283.4,308.0 284.0,308.0 284.5,308.0 285.1,309.6 285.7,308.7 286.3,308.7 286.8,308.5 287.4,310.1 288.0,309.8 288.5,310.3 289.1,310.5 289.7,310.8 290.3,309.4 290.8,309.2 291.4,310.5 292.0,310.5 292.5,311.5 293.1,311.7 293.7,311.9 294.3,310.1 294.8,311.5 295.4,311.2 296.0,310.5 296.5,312.4 297.1,311.9 297.7,311.2 298.3,312.1 298.8,311.9 299.4,311.9 300.0,311.9 300.5,311.0 301.1,313.1 301.7,313.1 302.3,311.5 302.8,311.7 303.4,312.4 304.0,311.9 304.5,312.4 305.1,311.9 305.7,313.1 306.3,312.8 306.8,312.1 307.4,312.6 308.0,312.4 308.5,313.1 309.1,314.7 309.7,314.4 310.3,314.9 310.8,314.9 311.4,313.1 312.0,314.9 312.5,313.3 313.1,313.5 313.7,315.4 314.3,315.4 314.8,314.0 315.4,315.1 316.0,314.7 316.5,315.1 317.1,316.0 317.7,315.6 318.3,316.3 318.8,314.7 319.4,316.0 320.0,315.1 320.5,317.0 321.1,316.5 321.7,315.8 322.3,316.7 322.8,316.5 323.4,317.0 324.0,316.7 324.5,315.6 325.1,316.7 325.7,316.0 326.3,316.5 326.8,316.0 327.4,318.1 328.0,316.3 328.5,318.3 329.1,316.7 329.7,317.7 330.3,318.1 330.8,317.4 331.4,318.6 332.0,317.2 332.5,318.1 333.1,317.4 333.7,319.0 334.3,318.6 334.8,319.3 335.4,320.0 336.0,318.6 336.5,318.6 337.1,319.0 337.7,318.3 338.3,319.5 338.8,319.5 339.4,318.6 340.0,320.0 340.6,320.9 341.1,320.0 341.7,319.7 342.3,319.0 342.8,319.0 343.4,320.9 344.0,320.6 344.6,321.1 345.1,319.5 345.7,321.3 346.3,321.1 346.8,320.0 347.4,320.6 348.0,320.9 348.6,321.8 349.1,322.5 349.7,321.1 350.3,321.6 350.8,321.8 351.4,322.5 352.0,320.9 352.6,322.3 353.1,321.3 353.7,322.7 354.3,322.0 354.8,322.7 355.4,323.4 356.0,322.7 356.6,322.3 357.1,322.0 357.7,322.9 358.3,324.1 358.8,323.4 359.4,323.4 360.0,323.4 360.6,322.5 361.1,324.6 361.7,323.2 362.3,323.9 362.8,323.9 363.4,323.9 364.0,325.0 364.6,324.6 365.1,325.5 365.7,324.3 366.3,324.3 366.8,325.2 367.4,324.8 368.0,324.1 368.6,324.6 369.1,324.3 369.7,325.0 370.3,325.9 370.8,325.5 371.4,325.0 372.0,326.4 372.6,324.8 373.1,326.2 373.7,326.2 374.3,325.5 374.8,325.5 375.4,325.5 376.0,325.9 376.6,327.5 377.1,326.2 377.7,327.5 378.3,326.2 378.8,328.0 379.4,328.0 380.0,327.5 380.6,326.8 381.1,328.5 381.7,328.2 382.3,327.3 382.8,327.8 383.4,328.7 384.0,328.9 384.6,327.1 385.1,327.5 385.7,329.1 386.3,329.4 386.8,327.5 387.4,328.2 388.0,328.0 388.6,329.4 389.1,329.1 389.7,329.1 390.3,328.9 390.8,328.5 391.4,328.5 392.0,330.1 392.6,330.5 393.1,329.8 393.7,331.0 394.3,329.4 394.8,330.1 395.4,329.8 396.0,329.4 396.6,330.5 397.1,331.2 397.7,331.2 398.3,331.9 398.8,330.3 399.4,331.4 400.0,331.4 400.6,330.3 401.1,331.0 401.7,331.0 402.3,332.1 402.8,331.2 403.4,332.1 404.0,331.4 404.6,332.8 405.1,331.4 405.7,332.4 406.3,333.3 406.8,333.1 407.4,333.1 408.0,333.3 408.6,333.3 409.1,332.1 409.7,332.1 410.3,332.1 410.8,332.6 411.4,334.4 412.0,332.4 412.6,333.5 413.1,333.1 413.7,334.2 414.3,334.9 414.8,334.4 415.4,333.7 416.0,334.0 416.6,333.3 417.1,334.2 417.7,334.0 418.3,333.7 418.8,334.9 419.4,335.1 420.0,334.9 420.6,334.9 421.1,335.8 421.7,335.6 422.3,335.1 422.8,336.0 423.4,335.1 424.0,336.5 424.6,336.5 425.1,335.6 425.7,335.3 426.3,335.6 426.8,336.0 427.4,335.8 428.0,337.0 428.6,336.5 429.1,336.5 429.7,337.2 430.3,336.7 430.8,336.0 431.4,336.3 432.0,338.3 432.6,337.0 433.1,337.4 433.7,337.9 434.3,338.3 434.8,338.6 435.4,337.0 436.0,338.6 436.6,338.3 437.1,338.3 437.7,338.8 438.3,339.0 438.8,338.1 439.4,337.6 440.0,337.9 440.6,338.1 441.1,338.8 441.7,338.6 442.3,339.5 442.8,339.5 443.4,338.6 444.0,338.6 444.6,340.6 445.1,340.2 445.7,340.2 446.3,339.9 446.9,340.4 447.4,341.3 448.0,340.4 448.6,339.3 449.1,340.4 449.7,341.6 450.3,341.6 450.9,339.7 451.4,341.1 452.0,341.1 452.6,342.0 453.1,340.9 453.7,340.9 454.3,341.6 454.9,341.8 455.4,341.6 456.0,342.5 456.6,341.3 457.1,342.9 457.7,341.6 458.3,341.1 458.9,341.8 459.4,343.2 460.0,342.5 460.6,343.2 461.1,343.2 461.7,344.1 462.3,342.2 462.9,342.7 463.4,342.9 464.0,344.3 464.6,344.1 465.1,343.4 465.7,342.7 466.3,343.6 466.9,343.8 467.4,344.1 468.0,345.0 468.6,343.6 469.1,344.8 469.7,344.1 470.3,343.8 470.9,345.2 471.4,345.5 472.0,344.1 472.6,344.5 473.1,344.1 473.7,346.1 474.3,346.1 474.9,346.4 475.4,345.9 476.0,345.9 476.6,345.2 477.1,345.0 477.7,345.5 478.3,345.0 478.9,346.8 479.4,347.3 480.0,346.6 480.6,346.6 481.1,346.8 481.7,346.8 482.3,346.8 482.9,346.8 483.4,347.3 484.0,346.8 484.6,348.0 485.1,347.1 485.7,347.5 486.3,347.8 486.9,348.7 487.4,348.7 488.0,347.3 488.6,347.3 489.1,348.4 489.7,347.3 490.3,348.7 490.9,348.7 491.4,349.6 492.0,348.2 492.6,349.1 493.1,349.4 493.7,350.1 494.3,349.8 494.9,348.4 495.4,348.7 496.0,349.1 496.6,348.4 497.1,350.1 497.7,350.1 498.3,350.3 498.9,351.0 499.4,349.1 500.0,350.7 500.6,350.3 501.1,351.0 501.7,349.4 502.3,350.7 502.9,351.4 503.4,350.5 504.0,351.7 504.6,351.0 505.1,350.5 505.7,352.1 506.3,350.3 506.9,350.7 507.4,351.4 508.0,352.1 508.6,351.0 509.1,352.3 509.7,353.0 510.3,353.3 510.9,352.3 511.4,352.8 512.0,352.1 512.6,353.5 513.1,352.3 513.7,353.0 514.3,353.7 514.9,352.8 515.4,352.3 516.0,354.4 516.6,353.3 517.1,352.8 517.7,354.4 518.3,353.0 518.9,352.8 519.4,354.2 520.0,353.7 520.6,354.6 521.1,354.2 521.7,354.9 522.3,353.7 522.9,354.0 523.4,353.7 524.0,354.4 524.6,355.3 525.1,355.3 525.7,356.3 526.3,355.8 526.9,355.8 527.4,355.6 528.0,354.6 528.6,354.9 529.1,355.6 529.7,356.5 530.3,354.9 530.9,356.5 531.4,355.6 532.0,355.8 532.6,356.0 533.1,356.5 533.7,357.4 534.3,357.2 534.9,356.5 535.4,356.5 536.0,358.1 536.6,357.2 537.1,357.4 537.7,357.9 538.3,357.6 538.9,358.1 539.4,357.4 540.0,359.0 540.6,358.6 541.1,359.0 541.7,358.1 542.3,359.0 542.9,357.4 543.4,359.7 544.0,358.6 544.6,359.5 545.1,359.2 545.7,359.9 546.3,358.1 546.9,358.1 547.4,359.2 548.0,359.5 548.6,359.7 549.1,358.6 549.7,360.4 550.3,359.2 550.9,360.4 551.4,359.2 552.0,359.7 552.6,359.9 553.1,360.4 553.7,361.3 554.3,360.4 554.9,361.8 555.4,360.4 556.0,359.9 556.6,360.2 557.2,362.0 557.7,361.1 558.3,362.0 558.9,361.5 559.4,360.6 560.0,361.3 560.6,361.1 561.2,362.9 561.7,363.1 562.3,362.0 562.9,361.3 563.4,361.8 564.0,361.8 564.6,363.4 565.2,362.2 565.7,362.5 566.3,362.9 566.9,362.7 567.4,362.5 568.0,362.7 568.6,362.9 569.2,362.5 569.7,363.4 570.3,362.5 570.9,364.1 571.4,362.7 572.0,362.9 572.6,364.3 573.2,363.6 573.7,365.2 574.3,363.1 574.9,365.4 575.4,364.8 576.0,363.6 576.6,364.1 577.2,366.1 577.7,365.0 578.3,365.2 578.9,365.7 579.4,366.1 580.0,365.7 580.6,365.2 581.2,364.8 581.7,365.0 582.3,365.2 582.9,366.6 583.4,365.4 584.0,367.3 584.6,366.6 585.2,366.4 585.7,367.1 586.3,367.5 586.9,366.8 587.4,366.1 588.0,367.7 588.6,366.4 589.2,367.3 589.7,367.7 590.3,367.3 590.9,366.6 591.4,368.7 592.0,367.5 592.6,368.0 593.2,367.5 593.7,368.2 594.3,368.4 594.9,368.9 595.4,368.4 596.0,367.5 596.6,368.4 597.2,368.2 597.7,369.6 598.3,369.6 598.9,368.0 599.4,370.0 600.0,370.0 600.6,370.5 601.2,368.7 601.7,369.1 602.3,369.1 602.9,369.8 603.4,370.7 604.0,369.3 604.6,369.8 605.2,371.4 605.7,370.0 606.3,371.0 606.9,370.7 607.4,370.5 608.0,370.5 608.6,370.3 609.2,371.0 609.7,372.3 610.3,370.5 610.9,372.1 611.4,371.9 612.0,371.2 612.6,372.1 613.2,372.3 613.7,371.2 614.3,371.6 614.9,372.8 615.4,372.6 616.0,372.3 616.6,372.3 617.2,371.6 617.7,372.6 618.3,373.3 618.9,372.1 619.4,373.3 620.0,373.3 620.6,374.2 621.2,372.3 621.7,373.7 622.3,373.7 622.9,373.7 623.4,374.2 624.0,373.0 624.6,374.4 625.2,375.1 625.7,374.6 626.3,374.4 626.9,375.1 627.4,374.2 628.0,374.9 628.6,375.8 629.2,375.6 629.7,374.4 630.3,374.9 630.9,373.9 631.4,376.0 632.0,376.5 632.6,374.9 633.2,375.3 633.7,376.7 634.3,374.6 634.9,375.6 635.4,376.2 636.0,375.6 636.6,376.0 637.2,376.9 637.7,376.2 638.3,376.0 638.9,375.6 639.4,376.7 640.0,376.2 640.6,377.2 641.2,376.2 641.7,378.3 642.3,377.4 642.9,378.5 643.4,376.9 644.0,378.3 644.6,377.8 645.2,376.9 645.7,377.8 646.3,377.8 646.9,379.2 647.4,378.5 648.0,379.5 648.6,379.5 649.2,378.1 649.7,379.9 650.3,378.1 650.9,378.3 651.4,379.2 652.0,379.2 652.6,380.1 653.2,380.6 653.7,380.4 654.3,380.8 654.9,379.0 655.4,379.7 656.0,380.4 656.6,379.0 657.2,379.5 657.7,380.8 658.3,379.7 658.9,380.8 659.4,381.5 660.0,381.5 660.6,380.1 661.2,380.8 661.7,381.3 662.3,380.1 662.9,380.6 663.5,380.6 664.0,382.2 664.6,382.4 665.2,381.8 665.7,381.8 666.3,382.4 666.9,381.3 667.5,382.2 668.0,381.8 668.6,382.4 669.2,382.9 669.7,382.7 670.3,382.7 670.9,382.0 671.5,383.4 672.0,383.1 672.6,382.4 673.2,383.1 673.7,383.8 674.3,382.4 674.9,384.1 675.5,384.5 676.0,382.7 676.6,383.6 677.2,382.9 677.7,384.7 678.3,385.0 678.9,384.1 679.5,383.8 680.0,385.7 680.6,384.1 681.2,385.4 681.7,384.3 682.3,385.7 682.9,384.7 683.5,386.3 684.0,384.3 684.6,384.7 685.2,386.3 685.7,385.0 686.3,386.6 686.9,386.8 687.5,386.8 688.0,386.3 688.6,387.3 689.2,387.3 689.7,386.1 690.3,386.3 690.9,387.5 691.5,387.5 692.0,387.7 692.6,386.8 693.2,386.3 693.7,386.3 694.3,388.2 694.9,388.4 695.5,387.5 696.0,388.2 696.6,388.4 697.2,388.2 697.7,387.5 698.3,388.6 698.9,387.3 699.5,388.0 700.0,389.3 700.6,389.6 701.2,388.4 701.7,388.4 702.3,388.2 702.9,389.1 703.5,389.1 704.0,389.3 704.6,389.3 705.2,390.5 705.7,389.8 706.3,390.5 706.9,388.6 707.5,389.6 708.0,388.9 708.6,389.1 709.2,389.6 709.7,390.5 710.3,390.7 710.9,391.2 711.5,391.6 712.0,390.9 712.6,390.3 713.2,391.4 713.7,390.0 714.3,390.0 714.9,392.1 715.5,390.5 716.0,390.7 716.6,391.2 717.2,390.9 717.7,392.1 718.3,391.9 718.9,392.6 719.5,392.1 720.0,392.1 720.6,392.1 721.2,392.6 721.7,393.5 722.3,393.2 722.9,393.7 723.5,391.9 724.0,393.2 724.6,392.6 725.2,393.9 725.7,393.7 726.3,393.7 726.9,393.2 727.5,393.5 728.0,394.9 728.6,393.0 729.2,393.0 729.7,393.5 730.3,394.2 730.9,393.9 731.5,393.7 732.0,394.9 732.6,394.9 733.2,395.8 733.7,396.0 734.3,394.9 734.9,395.3 735.5,395.5 736.0,395.8 736.6,394.2 737.2,394.4 737.7,394.6 738.3,395.1 738.9,395.5 739.5,396.5 740.0,395.8 740.6,395.1 741.2,395.5 741.7,396.7 742.3,397.4 742.9,396.2 743.5,397.1 744.0,397.4 744.6,397.6 745.2,396.0 745.7,397.4 746.3,396.2 746.9,398.3 747.5,397.8 748.0,398.3 748.6,397.4 749.2,397.1 749.7,397.8 750.3,397.4 750.9,397.8 751.5,398.3 752.0,398.8 752.6,399.4 753.2,398.1 753.7,398.8 754.3,399.7 754.9,398.8 755.5,398.8 756.0,398.5 756.6,399.2 757.2,398.5 757.7,400.1 758.3,398.5 758.9,399.9 759.5,400.1 760.0,400.1 760.6,399.9 761.2,399.7 761.7,400.1 762.3,399.7 762.9,400.4 763.5,401.5 764.0,400.8 764.6,401.7 765.2,400.4 765.7,401.1 766.3,401.7 766.9,401.5 767.5,401.7 768.0,400.6 768.6,402.0 769.2,402.4 769.8,402.4 770.3,401.1 770.9,402.2 771.5,402.9 772.0,402.4 772.6,403.4 773.2,401.7 773.8,402.9 774.3,401.5 774.9,402.2 775.5,402.9 776.0,403.6 776.6,403.1 777.2,404.0 777.8,404.0 778.3,403.6 778.9,403.6 779.5,404.0 780.0,403.1 780.6,403.6 781.2,403.8 781.8,403.6 782.3,404.0 782.9,403.1 783.5,403.6 784.0,403.6 784.6,403.8 785.2,405.4 785.8,404.3 786.3,405.9 786.9,404.7 787.5,404.0 788.0,404.7 788.6,404.3 789.2,405.2 789.8,405.4 790.3,406.8 790.9,406.1 791.5,405.4 792.0,405.0 792.6,406.8 793.2,406.6 793.8,406.1 794.3,406.8 794.9,406.6 795.5,406.8 796.0,405.6 796.6,407.3 797.2,406.1 797.8,407.3 798.3,406.1 798.9,407.9 799.5,407.3 800.0,407.7 800.6,408.4 801.2,408.6 801.8,407.0 802.3,406.8 802.9,407.0 803.5,407.9 804.0,407.3 804.6,409.1 805.2,409.6 805.8,409.1 806.3,409.8 806.9,408.6 807.5,409.8 808.0,409.8 808.6,408.6 809.2,409.8 809.8,410.2 810.3,409.6 810.9,410.2 811.5,409.1 812.0,410.7 812.6,408.9 813.2,410.5 813.8,408.9 814.3,410.5 814.9,409.8 815.5,410.2 816.0,410.2 816.6,410.2 817.2,411.6 817.8,410.0 818.3,410.5 818.9,412.1 819.5,410.5 820.0,410.2 820.6,412.3 821.2,411.2 821.8,412.5 822.3,410.7 822.9,412.1 823.5,411.9 824.0,412.5 824.6,411.2 825.2,412.1 825.8,413.0 826.3,411.6 826.9,413.0 827.5,411.9 828.0,412.1 828.6,412.1 829.2,412.8 829.8,413.5 830.3,413.2 830.9,413.2 831.5,413.7 832.0,413.5 832.6,414.1 833.2,414.8 833.8,413.9 834.3,413.5 834.9,414.1 835.5,413.7 836.0,413.7 836.6,413.5 837.2,415.3 837.8,413.7 838.3,415.1 838.9,414.4 839.5,413.9 840.0,415.1 840.6,415.3 841.2,415.8 841.8,414.6 842.3,415.8 842.9,415.1 843.5,416.2 844.0,416.0 844.8,263.9 845.4,407.0 846.0,408.2 846.6,409.6 847.1,408.6 847.7,410.5 848.3,409.8 848.8,411.2 849.4,410.9 850.0,410.9 850.6,411.6 851.1,411.9 851.7,411.4 852.3,411.4 852.8,412.1 853.4,413.2 854.0,413.2 854.6,413.0 855.1,413.2 855.7,412.8 856.3,413.9 856.8,413.5 857.4,413.7 858.0,415.5 858.6,415.8 859.1,414.8 859.7,415.8 860.3,390.3 860.8,414.8 861.4,414.8 862.0,405.0 862.6,415.1 863.1,393.2 863.7,414.6 864.3,414.8 864.8,397.1 865.4,413.0 866.0,412.1 866.6,396.7 867.1,412.8 867.7,411.2 868.3,396.5 868.8,413.2 869.4,412.5 870.0,412.8 870.6,413.5 871.1,413.5 871.7,414.1 872.3,414.4 872.8,415.5 873.4,415.5 874.0,414.6 874.6,416.4 875.1,416.2 875.7,416.4 876.3,416.7 876.9,416.4 877.4,417.4 878.0,417.6 878.6,417.6 879.1,418.5 879.7,418.1 880.3,418.7 880.9,418.5 881.4,419.0 882.0,418.5 882.6,418.1 883.1,418.1 883.7,419.2 884.3,418.7 884.9,418.5 885.4,420.8 886.0,420.6 886.6,420.6 887.1,419.4 887.7,420.6 888.3,421.0 888.9,421.5 889.4,421.5 890.0,420.6 890.6,420.4 891.1,420.1 891.7,422.0 892.3,422.0 892.9,422.2 893.4,422.6 894.0,422.9 894.6,422.6 895.1,421.7 895.7,421.5 896.3,422.9 896.9,422.0 897.4,422.2 898.0,421.7 898.6,423.1 899.1,422.0 899.7,423.6 900.3,422.9 900.9,424.5 901.4,422.9 902.0,423.1 902.6,424.3 903.1,424.3 903.7,424.5 904.3,423.8 904.9,424.9 905.4,423.8 906.0,423.8 906.6,425.6 907.1,425.4 907.7,425.4 908.3,424.9 908.9,424.5 909.4,424.7 910.0,424.3 910.6,425.6 911.1,425.2 911.7,424.9 912.3,426.3 912.9,426.6 913.4,425.6 914.0,427.2 914.6,425.6 915.1,425.6 915.7,426.8 916.3,425.6 916.9,426.6 917.4,425.6 918.0,426.8 918.6,426.6 919.1,427.7 919.7,426.3 920.3,427.0 920.9,427.0 921.4,427.2 922.0,426.8 922.6,427.7 923.1,427.9 923.7,427.7 924.3,427.9 924.9,428.2 925.4,428.2 926.0,428.9 926.6,428.4 927.1,429.1 927.7,428.2 928.3,429.3 928.9,430.0 929.4,429.1 930.0,429.5" fill="none" stroke="red" stroke-width="2.5" opacity="0.8"/>
<polyline points="70.0,429.4 70.8,70.2 71.4,70.5 71.9,70.7 72.5,70.3 73.1,70.9 73.7,71.2 74.2,71.3 74.8,71.6 75.4,71.5 75.9,71.4 76.5,71.5 77.1,71.7 77.7,71.8 78.2,72.3 78.8,72.4 79.4,72.5 79.9,72.8 80.5,72.7 81.1,73.0 81.7,72.7 82.2,73.1 82.8,72.9 83.4,73.0 83.9,429.6 84.5,73.3 85.1,429.2 85.7,73.0 86.2,429.1 86.8,72.8 87.4,429.3 87.9,73.2 88.5,429.4 89.1,72.7 89.7,429.4 90.2,72.9 90.8,429.5 91.4,73.4 91.9,429.3 92.5,73.4 93.1,429.7 93.7,73.0 94.2,429.1 94.8,72.9 95.4,429.5 95.9,73.3 96.5,429.5 97.1,72.7 97.7,429.3 98.2,73.3 98.8,429.8 99.4,73.1 99.9,429.6 100.5,73.3 101.1,429.4 101.7,73.2 102.2,430.0 102.8,72.8 103.4,429.7 103.9,72.8 104.5,429.2 105.1,73.5 105.7,429.2 106.2,73.7 106.8,429.8 107.4,73.5 107.9,429.8 108.5,73.4 109.1,429.7 109.7,73.0 110.2,429.8 110.8,73.9 111.4,429.8 111.9,73.8 112.5,429.6 113.1,73.6 113.7,429.5 114.2,73.5 114.8,429.5 115.4,73.8 115.9,429.9 116.5,73.9 117.1,429.9 117.7,74.0 118.2,429.3 118.8,74.1 119.4,429.3 119.9,73.3 120.5,429.5 121.1,74.1 121.7,429.5 122.2,73.3 122.8,429.6 123.4,73.4 124.0,429.4 124.5,74.1 125.1,429.7 125.7,74.1 126.2,429.7 126.8,74.3 127.4,429.8 128.0,73.9 128.5,430.0 129.1,73.8 129.7,429.2 130.2,74.4 130.8,429.4 131.4,73.6 132.0,429.6 132.5,74.0 133.1,429.8 133.7,73.9 134.2,429.7 134.8,73.8 135.4,429.3 136.0,74.2 136.5,430.0 137.1,74.1 137.7,429.9 138.2,74.2 138.8,429.3 139.4,74.4 140.0,429.5 140.5,74.3 141.1,429.3 141.7,74.1 142.2,429.6 142.8,74.4 143.4,429.5 144.0,74.8 144.5,429.3 145.1,74.1 145.7,429.9 146.2,74.4 146.8,429.3 147.4,74.7 148.0,429.1 148.5,74.9 149.1,429.7 149.7,74.5 150.2,429.7 150.8,74.4 151.4,429.9 152.0,74.2 152.5,429.5 153.1,74.8 153.7,430.0 154.2,75.1 154.8,429.2 155.4,74.8 156.0,430.0 156.5,74.4 157.1,429.5 157.7,429.9 158.2,429.8 158.8,429.5 159.4,429.6 160.0,429.7 160.5,429.7 161.1,429.3 161.7,429.6 162.2,429.6 162.8,429.5 163.4,429.9 164.0,429.1 164.5,429.8 165.1,429.5 165.7,429.6 166.2,429.2 166.8,429.4 167.4,429.7 168.0,429.8 168.5,429.4 169.1,429.7 169.7,429.5 170.2,429.7 170.8,429.1 171.4,429.3 172.0,430.0 172.5,429.1 173.1,429.6 173.7,429.3 174.2,429.2 174.8,429.7 175.4,429.6 176.0,429.2 176.5,429.5 177.1,429.8 177.7,429.3 178.2,429.3 178.8,429.9 179.4,429.6 180.0,429.2 180.5,429.3 181.1,429.6 181.7,429.7 182.2,429.7 182.8,429.8 183.4,429.7 184.0,429.3 184.5,429.6 185.1,429.2 185.7,429.9 186.2,429.1 186.8,429.2 187.4,429.4 188.0,429.3 188.5,429.6 189.1,429.7 189.7,429.7 190.2,429.6 190.8,429.8 191.4,429.3 192.0,429.6 192.5,429.4 193.1,429.4 193.7,429.9 194.2,429.6 194.8,429.3 195.4,429.9 196.0,429.3 196.5,429.9 197.1,429.8 197.7,429.7 198.2,429.3 198.8,429.7 199.4,429.9 200.0,429.1 200.5,429.1 201.1,429.6 201.7,429.5 202.2,429.2 202.8,429.3 203.4,429.9 204.0,429.5 204.5,429.6 205.1,429.1 205.7,429.7 206.2,429.8 206.8,430.0 207.4,430.0 208.0,430.0 208.5,429.8 209.1,429.2 209.7,429.8 210.2,429.7 210.8,429.2 211.4,429.9 212.0,429.4 212.5,429.6 213.1,429.9 213.7,429.4 214.2,429.4 214.8,429.5 215.4,429.5 216.0,429.1 216.5,429.9 217.1,429.8 217.7,430.0 218.2,429.6 218.8,429.8 219.4,429.4 220.0,429.7 220.5,429.2 221.1,429.4 221.7,429.6 222.2,429.2 222.8,429.2 223.4,429.7 224.0,429.5 224.5,429.5 225.1,429.6 225.7,429.7 226.2,429.8 226.8,429.3 227.4,430.0 228.0,429.3 228.5,429.7 229.1,429.5 229.7,429.8 230.2,429.6 230.8,429.1 231.4,429.8 232.0,429.5 232.5,429.6 233.1,429.5 233.7,429.7 234.3,429.1 234.8,429.3 235.4,429.4 236.0,429.1 236.5,429.4 237.1,429.9 237.7,429.7 238.3,429.7 238.8,429.8 239.4,429.8 240.0,429.4 240.5,429.9 241.1,429.9 241.7,429.3 242.3,429.7 242.8,429.6 243.4,429.5 244.0,429.6 244.5,429.7 245.1,429.8 245.7,429.4 246.3,429.2 246.8,429.1 247.4,429.6 248.0,429.4 248.5,429.8 249.1,429.8 249.7,429.6 250.3,429.4 250.8,429.2 251.4,429.6 252.0,429.7 252.5,429.5 253.1,429.7 253.7,429.4 254.3,429.6 254.8,429.3 255.4,429.3 256.0,429.3 256.5,429.9 257.1,429.9 257.7,429.8 258.3,429.1 258.8,429.6 259.4,429.3 260.0,429.9 260.5,429.6 261.1,429.9 261.7,429.5 262.3,429.9 262.8,429.2 263.4,429.6 264.0,429.4 264.5,429.7 265.1,429.9 265.7,429.1 266.3,429.5 266.8,429.4 267.4,429.1 268.0,429.1 268.5,429.8 269.1,429.1 269.7,429.1 270.3,429.5 270.8,429.8 271.4,429.1 272.0,429.4 272.5,429.5 273.1,429.3 273.7,429.3 274.3,429.4 274.8,429.2 275.4,429.8 276.0,429.1 276.5,430.0 277.1,429.9 277.7,429.8 278.3,429.4 278.8,429.4 279.4,429.5 280.0,429.8 280.5,429.1 281.1,429.3 281.7,429.3 282.3,429.2 282.8,429.1 283.4,429.4 284.0,429.2 284.5,429.9 285.1,429.4 285.7,429.4 286.3,429.4 286.8,429.7 287.4,429.4 288.0,429.4 288.5,429.6 289.1,429.3 289.7,429.4 290.3,429.5 290.8,429.3 291.4,429.5 292.0,429.8 292.5,429.6 293.1,429.8 293.7,429.6 294.3,429.9 294.8,429.7 295.4,429.6 296.0,429.5 296.5,429.2 297.1,429.7 297.7,429.2 298.3,429.2 298.8,429.4 299.4,429.4 300.0,429.5 300.5,429.8 301.1,429.2 301.7,429.4 302.3,429.1 302.8,429.5 303.4,429.7 304.0,429.4 304.5,429.8 305.1,429.4 305.7,429.1 306.3,429.8 306.8,429.8 307.4,429.9 308.0,429.9 308.5,429.9 309.1,429.9 309.7,430.0 310.3,429.9 310.8,429.9 311.4,430.0 312.0,429.7 312.5,429.6 313.1,429.2 313.7,429.2 314.3,429.4 314.8,429.6 315.4,429.1 316.0,429.2 316.5,429.9 317.1,429.2 317.7,429.9 318.3,429.3 318.8,429.5 319.4,429.4 320.0,429.6 320.5,429.8 321.1,429.4 321.7,429.9 322.3,429.3 322.8,429.9 323.4,429.6 324.0,429.2 324.5,429.8 325.1,429.2 325.7,429.4 326.3,429.9 326.8,429.7 327.4,429.3 328.0,429.8 328.5,429.2 329.1,430.0 329.7,429.6 330.3,429.6 330.8,429.9 331.4,430.0 332.0,429.4 332.5,429.9 333.1,429.8 333.7,429.9 334.3,429.6 334.8,429.9 335.4,430.0 336.0,429.7 336.5,429.6 337.1,429.8 337.7,429.3 338.3,429.6 338.8,429.8 339.4,429.2 340.0,429.2 340.6,429.4 341.1,429.5 341.7,430.0 342.3,429.6 342.8,429.6 343.4,429.4 344.0,429.5 344.6,429.4 345.1,429.8 345.7,429.2 346.3,429.8 346.8,429.2 347.4,429.3 348.0,429.7 348.6,429.8 349.1,429.5 349.7,429.9 350.3,429.5 350.8,429.8 351.4,429.8 352.0,429.4 352.6,429.3 353.1,429.1 353.7,430.0 354.3,429.9 354.8,429.1 355.4,429.4 356.0,429.4 356.6,430.0 357.1,429.5 357.7,429.2 358.3,429.4 358.8,429.8 359.4,429.9 360.0,429.4 360.6,429.8 361.1,429.1 361.7,430.0 362.3,429.8 362.8,429.2 363.4,429.8 364.0,429.3 364.6,429.1 365.1,429.5 365.7,429.7 366.3,429.5 366.8,429.5 367.4,429.8 368.0,429.9 368.6,429.2 369.1,429.5 369.7,429.9 370.3,429.1 370.8,429.2 371.4,429.5 372.0,429.2 372.6,429.7 373.1,429.7 373.7,429.7 374.3,429.4 374.8,429.5 375.4,429.6 376.0,429.6 376.6,429.2 377.1,429.4 377.7,429.8 378.3,430.0 378.8,429.6 379.4,429.4 380.0,429.3 380.6,429.5 381.1,429.4 381.7,429.6 382.3,429.3 382.8,429.6 383.4,429.5 384.0,429.3 384.6,429.8 385.1,429.8 385.7,429.3 386.3,429.7 386.8,429.6 387.4,429.5 388.0,429.2 388.6,429.1 389.1,429.7 389.7,429.4 390.3,429.7 390.8,429.4 391.4,429.7 392.0,429.1 392.6,429.6 393.1,429.4 393.7,429.9 394.3,429.6 394.8,429.7 395.4,429.8 396.0,430.0 396.6,429.3 397.1,429.6 397.7,429.2 398.3,429.4 398.8,430.0 399.4,429.3 400.0,429.3 400.6,429.1 401.1,429.6 401.7,429.8 402.3,429.7 402.8,429.8 403.4,429.1 404.0,429.1 404.6,430.0 405.1,429.3 405.7,429.6 406.3,429.1 406.8,430.0 407.4,429.6 408.0,429.7 408.6,429.8 409.1,429.6 409.7,429.2 410.3,430.0 410.8,429.6 411.4,429.5 412.0,429.3 412.6,429.8 413.1,429.4 413.7,429.2 414.3,429.8 414.8,429.4 415.4,429.2 416.0,429.7 416.6,429.9 417.1,430.0 417.7,429.8 418.3,429.5 418.8,429.4 419.4,429.9 420.0,429.8 420.6,429.5 421.1,429.9 421.7,429.3 422.3,429.8 422.8,429.2 423.4,429.1 424.0,429.5 424.6,429.5 425.1,429.6 425.7,429.1 426.3,429.2 426.8,429.8 427.4,429.9 428.0,429.5 428.6,429.2 429.1,429.8 429.7,429.6 430.3,429.8 430.8,429.7 431.4,429.9 432.0,429.5 432.6,429.7 433.1,429.8 433.7,429.8 434.3,429.4 434.8,429.6 435.4,429.6 436.0,429.9 436.6,429.3 437.1,429.9 437.7,429.8 438.3,429.7 438.8,429.7 439.4,429.4 440.0,429.5 440.6,429.1 441.1,429.3 441.7,429.1 442.3,430.0 442.8,429.1 443.4,429.5 444.0,429.3 444.6,429.4 445.1,430.0 445.7,429.1 446.3,429.9 446.9,429.7 447.4,429.3 448.0,429.7 448.6,429.5 449.1,429.6 449.7,429.7 450.3,429.4 450.9,429.3 451.4,430.0 452.0,429.2 452.6,429.3 453.1,429.8 453.7,429.5 454.3,429.2 454.9,429.5 455.4,429.4 456.0,429.5 456.6,429.5 457.1,429.9 457.7,429.4 458.3,429.9 458.9,429.3 459.4,429.7 460.0,429.6 460.6,429.7 461.1,429.2 461.7,429.2 462.3,429.9 462.9,429.5 463.4,429.4 464.0,429.3 464.6,429.6 465.1,429.9 465.7,429.8 466.3,429.8 466.9,429.3 467.4,429.8 468.0,429.2 468.6,429.3 469.1,429.6 469.7,429.7 470.3,429.9 470.9,429.2 471.4,429.8 472.0,429.4 472.6,430.0 473.1,430.0 473.7,429.3 474.3,429.1 474.9,429.5 475.4,430.0 476.0,429.1 476.6,429.8 477.1,429.7 477.7,429.3 478.3,429.4 478.9,429.8 479.4,429.4 480.0,429.4 480.6,429.6 481.1,429.4 481.7,429.7 482.3,429.4 482.9,429.2 483.4,429.7 484.0,429.5 484.6,429.2 485.1,429.8 485.7,429.8 486.3,429.7 486.9,429.2 487.4,429.7 488.0,429.4 488.6,429.7 489.1,429.1 489.7,429.7 490.3,430.0 490.9,429.2 491.4,429.3 492.0,429.5 492.6,429.7 493.1,429.7 493.7,429.9 494.3,429.7 494.9,429.3 495.4,429.4 496.0,429.2 496.6,429.7 497.1,429.4 497.7,429.2 498.3,429.1 498.9,429.1 499.4,429.4 500.0,429.2 500.6,429.4 501.1,429.4 501.7,429.5 502.3,429.9 502.9,429.7 503.4,429.6 504.0,429.7 504.6,429.7 505.1,429.9 505.7,429.8 506.3,429.7 506.9,429.6 507.4,429.9 508.0,429.6 508.6,429.9 509.1,429.8 509.7,429.7 510.3,429.2 510.9,429.8 511.4,429.4 512.0,429.1 512.6,429.7 513.1,429.2 513.7,429.3 514.3,429.7 514.9,429.2 515.4,429.3 516.0,429.5 516.6,429.5 517.1,429.9 517.7,429.4 518.3,429.2 518.9,429.5 519.4,429.1 520.0,429.7 520.6,429.7 521.1,429.5 521.7,429.8 522.3,429.3 522.9,429.9 523.4,429.3 524.0,429.5 524.6,429.2 525.1,429.3 525.7,429.8 526.3,429.3 526.9,429.5 527.4,429.6 528.0,429.3 528.6,429.9 529.1,429.9 529.7,429.4 530.3,429.1 530.9,429.4 531.4,429.4 532.0,429.2 532.6,429.5 533.1,429.4 533.7,429.8 534.3,429.1 534.9,429.4 535.4,429.6 536.0,430.0 536.6,429.8 537.1,429.6 537.7,429.2 538.3,429.2 538.9,429.4 539.4,429.5 540.0,429.2 540.6,429.3 541.1,429.2 541.7,429.5 542.3,429.8 542.9,429.3 543.4,429.5 544.0,429.3 544.6,430.0 545.1,429.7 545.7,430.0 546.3,429.4 546.9,429.6 547.4,429.6 548.0,429.9 548.6,429.4 549.1,429.8 549.7,429.2 550.3,429.4 550.9,429.3 551.4,429.2 552.0,429.7 552.6,429.5 553.1,429.7 553.7,429.1 554.3,429.9 554.9,430.0 555.4,429.5 556.0,429.7 556.6,429.3 557.2,429.9 557.7,429.8 558.3,429.8 558.9,429.8 559.4,429.3 560.0,429.2 560.6,429.8 561.2,429.5 561.7,430.0 562.3,429.8 562.9,429.2 563.4,429.5 564.0,430.0 564.6,429.1 565.2,429.5 565.7,429.7 566.3,429.9 566.9,429.2 567.4,429.8 568.0,429.6 568.6,429.3 569.2,429.3 569.7,429.8 570.3,429.9 570.9,429.2 571.4,429.7 572.0,429.6 572.6,429.9 573.2,429.1 573.7,429.3 574.3,429.8 574.9,429.5 575.4,429.2 576.0,429.6 576.6,429.3 577.2,429.7 577.7,429.7 578.3,429.9 578.9,429.9 579.4,429.2 580.0,429.7 580.6,429.8 581.2,429.5 581.7,429.6 582.3,429.2 582.9,429.4 583.4,429.1 584.0,429.4 584.6,429.9 585.2,429.9 585.7,429.2 586.3,429.1 586.9,429.2 587.4,429.2 588.0,429.2 588.6,429.3 589.2,429.1 589.7,429.5 590.3,430.0 590.9,430.0 591.4,429.8 592.0,429.7 592.6,429.5 593.2,429.4 593.7,429.5 594.3,429.8 594.9,429.7 595.4,429.6 596.0,429.2 596.6,429.6 597.2,429.3 597.7,429.2 598.3,429.9 598.9,429.9 599.4,429.7 600.0,429.7 600.6,429.3 601.2,429.5 601.7,429.2 602.3,429.3 602.9,429.9 603.4,429.1 604.0,429.2 604.6,429.1 605.2,429.8 605.7,430.0 606.3,429.3 606.9,429.6 607.4,429.9 608.0,429.5 608.6,429.8 609.2,429.4 609.7,429.9 610.3,429.7 610.9,429.6 611.4,429.8 612.0,429.6 612.6,429.9 613.2,430.0 613.7,429.9 614.3,429.2 614.9,429.6 615.4,430.0 616.0,429.3 616.6,429.4 617.2,429.1 617.7,430.0 618.3,429.8 618.9,429.6 619.4,430.0 620.0,429.4 620.6,429.2 621.2,429.1 621.7,429.2 622.3,429.6 622.9,429.5 623.4,429.4 624.0,429.5 624.6,429.1 625.2,429.8 625.7,429.7 626.3,429.8 626.9,429.8 627.4,429.3 628.0,429.3 628.6,429.1 629.2,429.5 629.7,429.2 630.3,429.8 630.9,429.7 631.4,429.5 632.0,429.7 632.6,429.6 633.2,429.5 633.7,429.2 634.3,429.1 634.9,429.3 635.4,429.7 636.0,429.7 636.6,429.9 637.2,429.6 637.7,429.6 638.3,429.6 638.9,429.6 639.4,429.1 640.0,429.8 640.6,429.9 641.2,429.7 641.7,429.5 642.3,429.2 642.9,429.5 643.4,429.3 644.0,429.3 644.6,429.5 645.2,429.6 645.7,429.4 646.3,429.8 646.9,429.3 647.4,429.9 648.0,429.7 648.6,429.3 649.2,429.9 649.7,429.7 650.3,429.6 650.9,430.0 651.4,429.8 652.0,429.8 652.6,429.5 653.2,429.4 653.7,429.5 654.3,429.5 654.9,429.9 655.4,429.6 656.0,429.7 656.6,429.6 657.2,429.9 657.7,429.8 658.3,429.9 658.9,429.7 659.4,429.7 660.0,429.9 660.6,429.5 661.2,429.6 661.7,429.9 662.3,429.5 662.9,429.2 663.5,429.6 664.0,429.2 664.6,429.2 665.2,429.3 665.7,429.1 666.3,429.8 666.9,429.2 667.5,429.1 668.0,429.3 668.6,429.6 669.2,429.3 669.7,429.9 670.3,429.5 670.9,429.7 671.5,429.4 672.0,429.4 672.6,429.3 673.2,429.1 673.7,429.3 674.3,429.3 674.9,429.8 675.5,429.8 676.0,429.6 676.6,429.7 677.2,429.4 677.7,429.2 678.3,429.8 678.9,429.8 679.5,429.2 680.0,429.2 680.6,429.2 681.2,429.5 681.7,429.3 682.3,429.8 682.9,429.9 683.5,429.4 684.0,429.1 684.6,429.6 685.2,429.2 685.7,429.5 686.3,429.6 686.9,429.8 687.5,429.4 688.0,429.1 688.6,429.8 689.2,429.9 689.7,429.8 690.3,429.2 690.9,429.3 691.5,430.0 692.0,429.4 692.6,429.8 693.2,429.8 693.7,429.6 694.3,429.2 694.9,430.0 695.5,429.4 696.0,429.5 696.6,429.5 697.2,429.2 697.7,429.6 698.3,429.1 698.9,429.9 699.5,429.9 700.0,429.9 700.6,429.3 701.2,429.6 701.7,429.1 702.3,430.0 702.9,429.7 703.5,429.7 704.0,429.4 704.6,429.6 705.2,429.6 705.7,429.2 706.3,429.1 706.9,429.3 707.5,430.0 708.0,429.1 708.6,430.0 709.2,429.9 709.7,429.3 710.3,429.5 710.9,429.9 711.5,429.4 712.0,429.4 712.6,429.4 713.2,429.8 713.7,429.1 714.3,429.3 714.9,429.6 715.5,429.8 716.0,429.9 716.6,430.0 717.2,429.5 717.7,429.8 718.3,429.7 718.9,429.8 719.5,429.6 720.0,429.8 720.6,429.4 721.2,429.4 721.7,429.6 722.3,429.2 722.9,429.4 723.5,429.8 724.0,429.6 724.6,429.7 725.2,429.6 725.7,429.4 726.3,429.1 726.9,429.3 727.5,429.6 728.0,429.9 728.6,429.2 729.2,429.4 729.7,429.9 730.3,429.9 730.9,429.5 731.5,429.3 732.0,429.7 732.6,429.2 733.2,429.8 733.7,429.2 734.3,429.6 734.9,429.5 735.5,429.2 736.0,429.5 736.6,429.4 737.2,429.9 737.7,429.6 738.3,429.2 738.9,429.9 739.5,429.4 740.0,430.0 740.6,429.6 741.2,429.7 741.7,429.4 742.3,429.6 742.9,429.5 743.5,429.5 744.0,429.9 744.6,429.7 745.2,429.1 745.7,429.1 746.3,429.6 746.9,429.6 747.5,429.7 748.0,429.1 748.6,430.0 749.2,429.7 749.7,429.7 750.3,429.2 750.9,429.6 751.5,429.9 752.0,429.2 752.6,429.7 753.2,429.2 753.7,429.7 754.3,429.8 754.9,429.5 755.5,429.7 756.0,429.2 756.6,429.5 757.2,429.3 757.7,429.2 758.3,429.4 758.9,429.5 759.5,429.1 760.0,429.2 760.6,429.8 761.2,429.5 761.7,429.2 762.3,429.7 762.9,429.4 763.5,430.0 764.0,430.0 764.6,429.8 765.2,429.2 765.7,429.8 766.3,429.9 766.9,430.0 767.5,429.8 768.0,429.6 768.6,429.7 769.2,429.5 769.8,429.7 770.3,429.9 770.9,429.8 771.5,429.4 772.0,429.2 772.6,429.5 773.2,430.0 773.8,429.5 774.3,429.4 774.9,429.5 775.5,429.6 776.0,429.9 776.6,429.4 777.2,429.1 777.8,429.7 778.3,429.6 778.9,429.8 779.5,429.4 780.0,429.7 780.6,429.5 781.2,429.8 781.8,429.6 782.3,429.9 782.9,429.8 783.5,429.8 784.0,429.8 784.6,429.6 785.2,429.1 785.8,429.6 786.3,429.5 786.9,429.1 787.5,429.8 788.0,429.6 788.6,429.4 789.2,429.1 789.8,429.1 790.3,430.0 790.9,429.1 791.5,429.4 792.0,429.9 792.6,429.1 793.2,429.3 793.8,429.7 794.3,429.7 794.9,429.8 795.5,429.4 796.0,429.3 796.6,429.8 797.2,429.8 797.8,429.4 798.3,429.6 798.9,429.3 799.5,429.5 800.0,429.4 800.6,429.8 801.2,429.8 801.8,429.4 802.3,429.2 802.9,429.7 803.5,429.4 804.0,429.5 804.6,429.4 805.2,429.3 805.8,429.3 806.3,429.2 806.9,429.2 807.5,429.1 808.0,429.9 808.6,429.7 809.2,429.3 809.8,429.3 810.3,429.7 810.9,430.0 811.5,429.6 812.0,429.4 812.6,429.9 813.2,429.6 813.8,429.3 814.3,429.1 814.9,429.3 815.5,429.6 816.0,429.4 816.6,429.1 817.2,429.6 817.8,429.2 818.3,429.8 818.9,429.3 819.5,429.8 820.0,429.1 820.6,429.8 821.2,429.7 821.8,429.7 822.3,429.8 822.9,429.6 823.5,430.0 824.0,429.7 824.6,429.6 825.2,429.7 825.8,429.2 826.3,429.2 826.9,429.3 827.5,429.3 828.0,429.3 828.6,429.6 829.2,429.1 829.8,429.4 830.3,429.3 830.9,429.3 831.5,429.8 832.0,429.6 832.6,429.9 833.2,429.1 833.8,429.6 834.3,430.0 834.9,429.2 835.5,429.8 836.0,429.5 836.6,429.4 837.2,429.4 837.8,429.9 838.3,429.9 838.9,429.7 839.5,429.8 840.0,429.5 840.6,429.4 841.2,429.4 841.8,429.7 842.3,429.6 842.9,429.9 843.5,429.4 844.0,429.2 844.8,70.0 845.4,429.5 846.0,429.2 846.6,429.9 847.1,429.9 847.7,429.4 848.3,429.7 848.8,429.9 849.4,429.6 850.0,429.3 850.6,429.9 851.1,429.7 851.7,429.6 852.3,429.9 852.8,429.5 853.4,429.5 854.0,429.5 854.6,429.4 855.1,429.4 855.7,429.1 856.3,429.4 856.8,429.5 857.4,429.1 858.0,429.4 858.6,429.2 859.1,429.6 859.7,429.4 860.3,370.9 860.8,429.9 861.4,429.8 862.0,404.8 862.6,429.9 863.1,379.3 863.7,429.2 864.3,429.7 864.8,387.3 865.4,429.5 866.0,422.6 866.6,387.2 867.1,429.9 867.7,423.2 868.3,387.2 868.8,429.9 869.4,429.1 870.0,429.8 870.6,429.7 871.1,429.5 871.7,429.7 872.3,429.2 872.8,429.2 873.4,429.2 874.0,429.4 874.6,429.5 875.1,429.3 875.7,429.3 876.3,429.2 876.9,429.2 877.4,429.2 878.0,429.4 878.6,430.0 879.1,429.6 879.7,429.2 880.3,429.8 880.9,429.5 881.4,429.7 882.0,429.4 882.6,429.6 883.1,429.3 883.7,429.6 884.3,429.4 884.9,429.8 885.4,429.6 886.0,429.3 886.6,429.9 887.1,429.5 887.7,429.5 888.3,429.2 888.9,429.6 889.4,429.6 890.0,429.7 890.6,429.2 891.1,429.3 891.7,429.4 892.3,430.0 892.9,429.7 893.4,429.6 894.0,429.7 894.6,429.5 895.1,430.0 895.7,429.2 896.3,429.1 896.9,429.2 897.4,429.6 898.0,430.0 898.6,429.4 899.1,429.4 899.7,429.4 900.3,429.2 900.9,429.7 901.4,429.9 902.0,429.2 902.6,429.4 903.1,429.3 903.7,429.4 904.3,429.9 904.9,429.9 905.4,429.8 906.0,429.9 906.6,429.9 907.1,429.7 907.7,429.4 908.3,429.9 908.9,429.5 909.4,429.4 910.0,429.8 910.6,429.4 911.1,429.8 911.7,429.2 912.3,429.9 912.9,429.6 913.4,429.6 914.0,429.7 914.6,429.5 915.1,429.1 915.7,430.0 916.3,429.5 916.9,429.8 917.4,429.1 918.0,429.1 918.6,429.4 919.1,429.3 919.7,429.8 920.3,429.1 920.9,429.2 921.4,429.7 922.0,429.4 922.6,429.6 923.1,429.7 923.7,429.7 924.3,429.3 924.9,429.4 925.4,429.4 926.0,429.5 926.6,429.4 927.1,429.5 927.7,429.3 928.3,429.7 928.9,429.6 929.4,430.0 930.0,429.5" fill="none" stroke="blue" stroke-width="1.5" stroke-dasharray="5,3"/>
<line x1="70" y1="430" x2="930" y2="430" stroke="#333" stroke-width="2"/>
<line x1="70" y1="70" x2="70" y2="430" stroke="#333" stroke-width="2"/>
<line x1="930" y1="70" x2="930" y2="430" stroke="#333" stroke-width="2"/>
<text x="70.0" y="450" text-anchor="middle" font-family="sans-serif" font-size="12">60s</text>
<text x="242.0" y="450" text-anchor="middle" font-family="sans-serif" font-size="12">90s</text>
<text x="413.99999999999994" y="450" text-anchor="middle" font-family="sans-serif" font-size="12">120s</text>
<text x="585.9999999999999" y="450" text-anchor="middle" font-family="sans-serif" font-size="12">150s</text>
<text x="758.0" y="450" text-anchor="middle" font-family="sans-serif" font-size="12">181s</text>
<text x="930.0" y="450" text-anchor="middle" font-family="sans-serif" font-size="12">211s</text>
<g transform="translate(820, 60)">
<rect width="120" height="50" fill="white" fill-opacity="0.9" stroke="#ccc"/>
<line x1="10" y1="15" x2="40" y2="15" stroke="red" stroke-width="3"/>
<text x="45" y="20" font-family="sans-serif" font-size="14">Voltage</text>
<line x1="10" y1="35" x2="40" y2="35" stroke="blue" stroke-width="2" stroke-dasharray="5,3"/>
<text x="45" y="40" font-family="sans-serif" font-size="14">Current</text>
</g>
</svg>