<svg viewBox="0 0 1000 500" xmlns="http://www.w3.org/2000/svg">
<rect width="100%" height="100%" fill="#ffffff"/>
<text x="500.0" y="35" text-anchor="middle" font-family="sans-serif" font-size="22" font-weight="bold">Outgassing Characterization Detail (Zoom): hot</text>
<line x1="70" y1="430.0" x2="930" y2="430.0" stroke="#eee" stroke-width="1"/>
<text x="65" y="434.0" text-anchor="end" font-family="sans-serif" font-size="12" fill="red">13.66V</text>
<line x1="70" y1="357.9999999999986" x2="930" y2="357.9999999999986" stroke="#eee" stroke-width="1"/>
<text x="65" y="361.9999999999986" text-anchor="end" font-family="sans-serif" font-size="12" fill="red">13.70V</text>
<line x1="70" y1="286.0000000000007" x2="930" y2="286.0000000000007" stroke="#eee" stroke-width="1"/>
<text x="65" y="290.0000000000007" text-anchor="end" font-family="sans-serif" font-size="12" fill="red">13.73V</text>
<line x1="70" y1="213.9999999999993" x2="930" y2="213.9999999999993" stroke="#eee" stroke-width="1"/>
<text x="65" y="217.9999999999993" text-anchor="end" font-family="sans-serif" font-size="12" fill="red">13.77V</text>
<line x1="70" y1="142.00000000000142" x2="930" y2="142.00000000000142" stroke="#eee" stroke-width="1"/>
<text x="65" y="146.00000000000142" text-anchor="end" font-family="sans-serif" font-size="12" fill="red">13.81V</text>
<line x1="70" y1="70.0" x2="930" y2="70.0" stroke="#eee" stroke-width="1"/>
<text x="65" y="74.0" text-anchor="end" font-family="sans-serif" font-size="12" fill="red">13.84V</text>
<text x="935" y="434.0" text-anchor="start" font-family="sans-serif" font-size="12" fill="blue">-0.05A</text>
<text x="935" y="362.0" text-anchor="start" font-family="sans-serif" font-size="12" fill="blue">0.11A</text>
<text x="935" y="290.0" text-anchor="start" font-family="sans-serif" font-size="12" fill="blue">0.26A</text>
<text x="935" y="217.99999999999997" text-anchor="start" font-family="sans-serif" font-size="12" fill="blue">0.42A</text>
<text x="935" y="146.0" text-anchor="start" font-family="sans-serif" font-size="12" fill="blue">0.58A</text>
<text x="935" y="74.0" text-anchor="start" font-family="sans-serif" font-size="12" fill="blue">0.73A</text>
<polyline points="70.0,430.0 70.7,297.6 71.2,290.9 71.8,283.1 72.3,275.9 72.8,270.3 73.3,264.4 73.8,258.0 74.4,253.2 74.9,246.2 75.4,241.2 75.9,235.8 76.4,231.9 76.9,226.9 77.5,222.3 78.0,219.1 78.5,214.1 79.0,209.7 79.5,205.3 80.0,202.2 80.6,198.4 81.1,195.0 81.6,192.2 82.1,187.4 82.6,317.4 83.2,189.2 83.7,317.4 84.2,189.6 84.7,318.2 85.2,189.4 85.7,318.8 86.3,190.4 86.8,319.0 87.3,190.8 87.8,318.2 88.3,189.6 88.9,318.4 89.4,189.4 89.9,318.0 90.4,188.8 90.9,317.8 91.4,189.6 92.0,317.4 92.5,189.2 93.0,318.0 93.5,189.0 94.0,316.2 94.6,188.4 95.1,315.8 95.6,187.6 96.1,316.2 96.6,187.0 97.1,313.8 97.7,185.6 98.2,314.2 98.7,184.6 99.2,313.4 99.7,183.4 100.3,312.8 100.8,183.0 101.3,311.8 101.8,181.6 102.3,310.8 102.8,181.8 103.4,310.0 103.9,180.2 104.4,309.0 104.9,179.0 105.4,307.6 105.9,178.4 106.5,306.4 107.0,177.4 107.5,305.6 108.0,176.6 108.5,303.4 109.1,174.5 109.6,302.4 110.1,172.9 110.6,302.2 111.1,173.3 111.6,300.2 112.2,171.7 112.7,299.2 113.2,170.5 113.7,297.2 114.2,169.3 114.8,298.0 115.3,167.5 115.8,296.2 116.3,167.1 116.8,294.5 117.3,165.9 117.9,293.1 118.4,164.1 118.9,292.5 119.4,163.1 119.9,290.9 120.5,161.7 121.0,290.5 121.5,161.3 122.0,287.7 122.5,159.3 123.0,286.3 123.6,158.9 124.1,285.3 124.6,157.3 125.1,284.9 125.6,287.5 126.2,290.1 126.7,292.7 127.2,295.8 127.7,298.6 128.2,301.6 128.7,302.8 129.3,305.2 129.8,308.0 130.3,310.6 130.8,312.2 131.3,313.0 131.9,315.6 132.4,316.8 132.9,317.6 133.4,319.8 133.9,320.8 134.4,322.2 135.0,323.4 135.5,324.6 136.0,325.5 136.5,326.9 137.0,328.1 137.5,329.1 138.1,331.7 138.6,331.7 139.1,333.1 139.6,334.3 140.1,333.7 140.7,335.1 141.2,335.9 141.7,336.9 142.2,336.7 142.7,337.5 143.2,337.7 143.8,338.9 144.3,339.3 144.8,339.9 145.3,340.5 145.8,341.1 146.4,342.3 146.9,341.5 147.4,342.9 147.9,343.7 148.4,343.7 148.9,342.9 149.5,343.7 150.0,345.1 150.5,345.9 151.0,346.1 151.5,345.1 152.1,346.1 152.6,347.1 153.1,345.9 153.6,347.7 154.1,346.9 154.6,348.1 155.2,348.9 155.7,347.5 156.2,348.3 156.7,347.9 157.2,349.3 157.8,348.9 158.3,350.3 158.8,349.5 159.3,350.3 159.8,349.1 160.3,349.5 160.9,351.1 161.4,351.3 161.9,351.7 162.4,350.3 162.9,351.1 163.4,352.1 164.0,351.5 164.5,350.5 165.0,352.5 165.5,351.7 166.0,352.7 166.6,352.3 167.1,351.5 167.6,352.3 168.3,219.3 168.8,213.9 169.4,206.5 169.9,200.2 170.4,192.6 170.9,188.2 171.4,181.2 171.9,176.6 172.5,171.1 173.0,165.9 173.5,161.3 174.0,154.9 174.5,150.9 175.1,147.5 175.6,142.0 176.1,138.6 176.6,135.0 177.1,130.6 177.6,125.6 178.2,123.4 178.7,118.6 179.2,115.4 179.7,113.1 180.2,241.0 180.8,114.1 181.3,241.2 181.8,113.1 182.3,241.0 182.8,114.3 183.3,242.6 183.9,115.2 184.4,243.2 184.9,114.3 185.4,242.4 185.9,114.5 186.4,242.4 187.0,113.7 187.5,242.2 188.0,113.5 188.5,242.2 189.0,114.3 189.6,241.6 190.1,112.7 190.6,241.4 191.1,112.7 191.6,241.2 192.1,113.1 192.7,240.6 193.2,111.5 193.7,239.4 194.2,110.9 194.7,237.4 195.3,109.9 195.8,237.2 196.3,108.7 196.8,236.6 197.3,109.1 197.8,236.8 198.4,108.1 198.9,236.0 199.4,105.9 199.9,233.3 200.4,105.1 201.0,233.3 201.5,104.9 202.0,232.1 202.5,104.9 203.0,231.1 203.5,103.3 204.1,230.5 204.6,101.5 205.1,228.1 205.6,99.9 206.1,227.7 206.7,99.9 207.2,227.3 207.7,97.7 208.2,224.9 208.7,98.3 209.2,224.1 209.8,97.1 210.3,224.1 210.8,94.7 211.3,222.1 211.8,94.7 212.3,220.5 212.9,92.5 213.4,218.7 213.9,92.1 214.4,218.7 214.9,90.5 215.5,218.1 216.0,90.3 216.5,216.1 217.0,89.1 217.5,215.5 218.0,85.9 218.6,214.5 219.1,86.1 219.6,212.3 220.1,84.0 220.6,210.7 221.2,82.4 221.7,209.9 222.2,81.0 222.7,208.1 223.2,81.4 223.7,206.9 224.3,78.8 224.8,205.5 225.3,78.6 225.8,206.1 226.3,76.4 226.9,203.6 227.4,76.0 227.9,203.0 228.4,73.8 228.9,201.6 229.4,72.4 230.0,201.0 230.5,71.8 231.0,197.8 231.5,70.0 232.0,197.0 232.6,199.6 233.1,203.0 233.6,207.1 234.1,208.1 234.6,212.3 235.1,213.1 235.7,215.3 236.2,218.5 236.7,219.5 237.2,223.1 237.7,224.5 238.2,226.9 238.8,227.9 239.3,229.1 239.8,229.9 240.3,231.9 240.8,232.9 241.4,236.2 241.9,236.2 242.4,238.4 242.9,238.6 243.4,240.8 243.9,240.6 244.5,241.8 245.0,243.4 245.5,244.6 246.0,245.2 246.5,246.2 247.1,246.4 247.6,247.2 248.1,248.6 248.6,249.0 249.1,249.8 249.6,249.8 250.2,250.4 250.7,251.8 251.2,253.0 251.7,252.6 252.2,252.0 252.8,252.8 253.3,254.6 253.8,254.2 254.3,255.2 254.8,255.8 255.3,255.0 255.9,255.8 256.4,256.0 256.9,256.8 257.4,257.2 257.9,258.4 258.5,257.0 259.0,259.2 259.5,259.6 260.0,258.2 260.5,259.0 261.0,259.8 261.6,259.6 262.1,259.4 262.6,260.6 263.1,261.0 263.6,260.2 264.2,262.0 264.7,261.4 265.2,262.2 265.7,261.4 266.2,262.2 266.7,262.0 267.3,263.0 267.8,263.0 268.3,263.0 268.8,263.6 269.3,262.4 269.8,262.6 270.4,264.0 270.9,263.8 271.4,262.8 271.9,264.8 272.4,264.0 273.0,264.8 273.5,264.8 274.0,264.2 274.5,263.8 275.0,264.4 275.5,264.2 276.1,264.2 276.6,266.3 277.1,265.1 277.6,266.5 278.1,266.1 278.7,265.7 279.2,266.1 279.7,267.1 280.2,266.9 280.7,266.1 281.2,265.7 281.8,266.7 282.3,266.3 282.8,266.7 283.3,267.7 283.8,267.5 284.4,266.7 284.9,267.5 285.4,268.3 285.9,268.1 286.4,267.1 286.9,268.5 287.5,267.9 288.0,268.9 288.5,267.3 289.0,267.7 289.5,268.3 290.1,268.7 290.6,269.3 291.1,268.7 291.6,268.9 292.1,268.3 292.6,268.5 293.2,269.5 293.7,269.3 294.2,269.5 294.7,269.3 295.2,269.7 295.7,268.5 296.3,269.7 296.8,269.5 297.3,269.3 297.8,269.9 298.3,269.5 298.9,269.9 299.4,271.1 299.9,269.5 300.4,269.9 300.9,269.9 301.4,269.7 302.0,270.7 302.5,271.5 303.0,270.9 303.5,270.1 304.0,271.1 304.6,271.1 305.1,272.1 305.6,271.3 306.1,270.9 306.6,271.3 307.1,272.1 307.7,271.5 308.2,271.1 308.7,272.9 309.2,272.5 309.7,271.5 310.3,271.7 310.8,272.1 311.3,272.7 311.8,271.7 312.3,273.5 312.8,271.9 313.4,273.1 313.9,272.7 314.4,273.1 314.9,273.9 315.4,272.3 316.0,272.5 316.5,272.9 317.0,273.9 317.5,274.1 318.0,273.9 318.5,274.7 319.1,274.7 319.6,273.5 320.1,274.3 320.6,275.1 321.1,274.9 321.6,274.5 322.2,275.1 322.7,274.1 323.2,275.7 323.7,274.3 324.2,274.1 324.8,275.5 325.3,274.3 325.8,274.5 326.3,274.5 326.8,274.5 327.3,275.1 327.9,275.3 328.4,276.1 328.9,275.5 329.4,275.9 329.9,275.7 330.5,276.1 331.0,275.3 331.5,275.5 332.0,276.9 332.5,277.1 333.0,276.7 333.6,275.9 334.1,277.5 334.6,277.5 335.1,276.7 335.6,275.9 336.2,276.3 336.7,277.9 337.2,276.7 337.7,277.7 338.2,277.5 338.7,276.9 339.3,276.9 339.8,278.5 340.3,278.5 340.8,278.7 341.3,278.9 341.9,277.1 342.4,278.1 342.9,278.7 343.4,278.1 343.9,279.5 344.4,277.7 345.0,278.1 345.5,278.3 346.0,279.5 346.5,279.5 347.0,279.9 347.5,280.1 348.1,279.7 348.6,278.9 349.1,278.9 349.6,279.5 350.1,280.7 350.7,278.9 351.2,279.1 351.7,280.7 352.2,279.3 352.7,279.3 353.2,279.9 353.8,279.9 354.3,281.1 354.8,280.3 355.3,279.9 355.8,280.1 356.4,281.7 356.9,280.1 357.4,280.7 357.9,281.1 358.4,282.1 358.9,280.9 359.5,281.5 360.0,282.1 360.5,281.3 361.0,280.7 361.5,281.5 362.1,281.9 362.6,282.9 363.1,282.7 363.6,281.7 364.1,282.1 364.6,282.3 365.2,281.7 365.7,283.5 366.2,282.5 366.7,281.7 367.2,281.9 367.8,282.3 368.3,282.3 368.8,284.1 369.3,282.5 369.8,282.5 370.3,283.3 370.9,284.1 371.4,284.3 371.9,284.3 372.4,284.7 372.9,284.1 373.5,283.1 374.0,284.7 374.5,285.1 375.0,284.1 375.5,284.9 376.0,284.5 376.6,284.9 377.1,284.1 377.6,283.7 378.1,284.3 378.6,285.3 379.1,285.9 379.7,285.3 380.2,285.5 380.7,286.1 381.2,285.9 381.7,285.5 382.3,286.1 382.8,284.9 383.3,284.9 383.8,286.3 384.3,285.9 384.8,285.9 385.4,285.5 385.9,285.5 386.4,285.3 386.9,285.7 387.4,286.7 388.0,286.9 388.5,287.1 389.0,286.9 389.5,286.3 390.0,286.9 390.5,286.7 391.1,286.5 391.6,287.7 392.1,286.7 392.6,288.1 393.1,286.9 393.7,287.7 394.2,288.1 394.7,288.5 395.2,288.5 395.7,288.9 396.2,287.9 396.8,288.9 397.3,288.7 397.8,288.9 398.3,288.9 398.8,288.1 399.4,289.1 399.9,287.9 400.4,288.7 400.9,288.5 401.4,289.3 401.9,288.9 402.5,289.3 403.0,289.3 403.5,289.5 404.0,289.9 404.5,290.5 405.0,289.1 405.6,290.3 406.1,290.3 406.6,289.7 407.1,289.9 407.6,290.7 408.2,290.9 408.7,291.1 409.2,291.3 409.7,291.1 410.2,290.5 410.7,290.7 411.3,291.5 411.8,291.3 412.3,290.3 412.8,291.1 413.3,290.9 413.9,292.1 414.4,291.9 414.9,291.7 415.4,292.1 415.9,292.1 416.4,291.7 417.0,291.7 417.5,292.1 418.0,292.5 418.5,292.5 419.0,291.7 419.6,291.5 420.1,293.3 420.6,291.9 421.1,292.9 421.6,291.9 422.1,292.1 422.7,292.1 423.2,293.3 423.7,293.3 424.2,292.3 424.7,293.9 425.3,294.1 425.8,293.9 426.3,292.7 426.8,294.1 427.3,293.7 427.8,293.1 428.4,294.7 428.9,294.9 429.4,294.9 429.9,293.5 430.4,293.9 430.9,294.3 431.5,294.5 432.0,295.2 432.5,295.8 433.0,294.7 433.5,293.9 434.1,295.8 434.6,294.3 435.1,295.8 435.6,296.2 436.1,294.7 436.6,294.5 437.2,296.6 437.7,296.4 438.2,296.2 438.7,296.2 439.2,296.6 439.8,295.2 440.3,296.2 440.8,297.2 441.3,295.8 441.8,296.0 442.3,297.6 442.9,297.0 443.4,297.6 443.9,297.2 444.4,296.4 444.9,297.0 445.5,296.8 446.0,296.8 446.5,297.2 447.0,297.2 447.5,298.4 448.0,297.2 448.6,297.2 449.1,297.6 449.6,299.0 450.1,298.8 450.6,298.8 451.2,298.6 451.7,297.4 452.2,298.0 452.7,298.4 453.2,298.4 453.7,298.4 454.3,298.2 454.8,298.0 455.3,298.2 455.8,299.6 456.3,299.2 456.8,300.2 457.4,299.4 457.9,299.6 458.4,300.2 458.9,299.6 459.4,299.6 460.0,299.0 460.5,300.0 461.0,300.0 461.5,300.2 462.0,301.0 462.5,299.6 463.1,299.4 463.6,300.2 464.1,299.8 464.6,301.0 465.1,300.0 465.7,300.4 466.2,300.4 466.7,302.0 467.2,300.6 467.7,300.4 468.2,302.0 468.8,301.6 469.3,301.2 469.8,302.4 470.3,301.8 470.8,302.0 471.4,301.4 471.9,302.4 472.4,301.2 472.9,301.4 473.4,301.4 473.9,302.2 474.5,303.0 475.0,302.2 475.5,302.6 476.0,302.2 476.5,302.2 477.1,302.8 477.6,302.6 478.1,303.8 478.6,303.0 479.1,302.6 479.6,304.2 480.2,304.2 480.7,304.2 481.2,303.2 481.7,303.0 482.2,305.0 482.8,305.0 483.3,303.8 483.8,305.0 484.3,304.8 484.8,304.8 485.3,304.2 485.9,304.8 486.4,305.6 486.9,304.8 487.4,305.4 487.9,304.2 488.4,305.0 489.0,304.6 489.5,306.2 490.0,304.8 490.5,305.0 491.0,304.8 491.6,305.4 492.1,304.8 492.6,306.6 493.1,305.0 493.6,305.4 494.1,305.8 494.7,306.6 495.2,306.2 495.7,306.4 496.2,305.6 496.7,307.4 497.3,307.4 497.8,307.0 498.3,307.4 498.8,307.0 499.3,307.4 499.8,307.4 500.4,308.2 500.9,308.2 501.4,308.0 501.9,307.0 502.4,307.2 503.0,308.6 503.5,308.6 504.0,307.6 504.5,309.0 505.0,309.0 505.5,307.6 506.1,307.4 506.6,308.0 507.1,309.2 507.6,308.6 508.1,309.6 508.7,308.2 509.2,308.0 509.7,309.2 510.2,309.8 510.7,309.2 511.2,308.4 511.8,309.4 512.3,310.2 512.8,310.0 513.3,310.6 513.8,309.8 514.3,309.4 514.9,309.0 515.4,309.6 515.9,309.6 516.4,310.6 516.9,311.2 517.5,310.8 518.0,310.0 518.5,310.6 519.0,310.4 519.5,311.4 520.0,311.8 520.6,310.0 521.1,310.6 521.6,311.2 522.1,311.6 522.6,312.2 523.2,311.8 523.7,312.0 524.2,312.4 524.7,310.8 525.2,311.6 525.7,311.6 526.3,311.4 526.8,311.4 527.3,311.4 527.8,312.8 528.3,311.8 528.9,312.4 529.4,311.8 529.9,312.6 530.4,312.6 530.9,312.4 531.4,312.0 532.0,313.6 532.5,314.0 533.0,313.0 533.5,313.6 534.0,313.8 534.6,312.6 535.1,314.4 535.6,313.0 536.1,313.6 536.6,313.2 537.1,314.2 537.7,314.0 538.2,313.8 538.7,315.2 539.2,313.4 539.7,314.2 540.2,315.2 540.8,314.8 541.3,314.2 541.8,314.4 542.3,314.4 542.8,316.0 543.4,314.4 543.9,315.6 544.4,314.6 544.9,316.2 545.4,316.2 545.9,316.0 546.5,315.6 547.0,315.0 547.5,315.0 548.0,316.8 548.5,315.8 549.1,316.4 549.6,316.4 550.1,315.4 550.6,316.0 551.1,317.4 551.6,316.4 552.2,317.0 552.7,317.8 553.2,316.8 553.7,317.4 554.2,317.6 554.8,316.8 555.3,317.4 555.8,318.2 556.3,317.2 556.8,316.8 557.3,317.2 557.9,317.8 558.4,318.6 558.9,318.6 559.4,317.6 559.9,317.8 560.5,318.8 561.0,318.2 561.5,317.8 562.0,319.2 562.5,319.0 563.0,319.0 563.6,318.6 564.1,319.4 564.6,318.2 565.1,319.8 565.6,318.4 566.1,320.2 566.7,320.4 567.2,320.0 567.7,319.2 568.2,319.6 568.7,318.8 569.3,319.2 569.8,320.4 570.3,319.8 570.8,320.8 571.3,321.0 571.8,320.8 572.4,319.8 572.9,321.0 573.4,320.0 573.9,320.2 574.4,321.8 575.0,320.4 575.5,321.4 576.0,321.4 576.5,322.2 577.0,322.0 577.5,321.0 578.1,322.4 578.6,321.0 579.1,322.0 579.6,322.0 580.1,322.6 580.7,321.0 581.2,321.4 581.7,322.0 582.2,322.6 582.7,323.0 583.2,323.4 583.8,322.4 584.3,322.4 584.8,322.8 585.3,322.6 585.8,322.6 586.4,322.4 586.9,323.6 587.4,323.2 587.9,323.8 588.4,323.2 588.9,323.0 589.5,323.6 590.0,324.6 590.5,323.8 591.0,324.6 591.5,323.2 592.1,323.4 592.6,324.2 593.1,324.8 593.6,324.0 594.1,325.3 594.6,324.0 595.2,325.5 595.7,324.8 596.2,324.4 596.7,325.3 597.2,325.9 597.7,325.5 598.3,326.3 598.8,324.8 599.3,325.9 599.8,326.3 600.3,325.1 600.9,326.5 601.4,325.5 601.9,326.3 602.4,326.7 602.9,326.7 603.4,326.5 604.0,326.1 604.5,326.3 605.0,325.7 605.5,327.3 606.0,327.3 606.6,326.7 607.1,327.7 607.6,327.1 608.1,326.7 608.6,327.7 609.1,328.1 609.7,327.3 610.2,327.5 610.7,327.1 611.2,328.5 611.7,327.7 612.3,328.1 612.8,327.1 613.3,328.7 613.8,327.5 614.3,327.7 614.8,329.1 615.4,328.3 615.9,327.7 616.4,328.3 616.9,329.5 617.4,327.9 618.0,329.1 618.5,328.9 619.0,329.7 619.5,328.9 620.0,329.1 620.5,328.5 621.1,329.5 621.6,329.9 622.1,329.3 622.6,330.3 623.1,329.9 623.6,330.9 624.2,329.1 624.7,329.7 625.2,330.9 625.7,331.3 626.2,331.1 626.8,330.7 627.3,330.3 627.8,331.3 628.3,331.9 628.8,331.1 629.3,330.7 629.9,330.3 630.4,331.1 630.9,331.5 631.4,331.5 631.9,330.9 632.5,331.9 633.0,332.5 633.5,332.1 634.0,331.5 634.5,332.3 635.0,332.1 635.6,332.1 636.1,332.1 636.6,332.5 637.1,333.3 637.6,332.3 638.2,333.5 638.7,333.1 639.2,331.9 639.7,332.7 640.2,332.9 640.7,334.1 641.3,332.7 641.8,334.1 642.3,333.7 642.8,332.7 643.3,333.5 643.9,332.7 644.4,334.7 644.9,333.9 645.4,333.1 645.9,334.1 646.4,334.1 647.0,333.9 647.5,334.7 648.0,335.3 648.5,333.9 649.0,334.1 649.5,334.3 650.1,335.7 650.6,335.7 651.1,335.3 651.6,334.7 652.1,335.1 652.7,336.1 653.2,335.1 653.7,335.9 654.2,335.3 654.7,336.3 655.2,334.9 655.8,336.3 656.3,334.9 656.8,336.9 657.3,335.5 657.8,336.3 658.4,335.9 658.9,336.9 659.4,337.3 659.9,337.1 660.4,335.7 660.9,335.9 661.5,337.3 662.0,337.1 662.5,337.1 663.0,336.7 663.5,337.9 664.1,337.9 664.6,336.9 665.1,337.9 665.6,338.1 666.1,337.7 666.6,338.3 667.2,337.7 667.7,338.7 668.2,339.1 668.7,338.9 669.2,338.5 669.8,338.5 670.3,338.3 670.8,338.5 671.3,339.3 671.8,339.7 672.3,339.3 672.9,339.1 673.4,338.9 673.9,339.1 674.4,339.3 674.9,339.9 675.4,339.5 676.0,339.3 676.5,339.3 677.0,339.1 677.5,340.7 678.0,340.1 678.6,339.3 679.1,339.9 679.6,339.5 680.1,339.7 680.6,340.7 681.1,340.9 681.7,341.5 682.2,340.9 682.7,339.9 683.2,341.7 683.7,340.5 684.3,341.9 684.8,341.7 685.3,341.7 685.8,341.5 686.3,340.5 686.8,341.3 687.4,341.7 687.9,341.3 688.4,342.9 688.9,342.7 689.4,342.5 690.0,341.5 690.5,342.9 691.0,342.7 691.5,342.3 692.0,343.5 692.5,342.7 693.1,343.5 693.6,343.3 694.1,343.1 694.6,342.7 695.1,343.9 695.7,342.7 696.2,343.7 696.7,343.3 697.2,343.5 697.7,343.9 698.2,343.3 698.8,343.3 699.3,344.7 699.8,344.1 700.3,343.1 700.8,343.7 701.4,343.5 701.9,344.9 702.4,343.5 702.9,344.5 703.4,345.3 703.9,345.7 704.5,345.1 705.0,343.9 705.5,344.7 706.0,345.7 706.5,345.7 707.0,346.1 707.6,344.5 708.1,345.7 708.6,344.7 709.1,345.9 709.6,345.7 710.2,346.1 710.7,346.7 711.2,345.7 711.7,345.9 712.2,345.9 712.7,346.7 713.3,346.1 713.8,345.7 714.3,346.5 714.8,346.9 715.3,347.7 715.9,347.5 716.4,346.1 716.9,347.1 717.4,347.9 717.9,346.5 718.4,347.3 719.0,347.5 719.5,347.9 720.0,346.9 720.5,347.3 721.0,347.9 721.6,348.3 722.1,347.5 722.6,348.5 723.1,348.9 723.6,348.3 724.1,348.1 724.7,348.3 725.2,349.5 725.7,349.5 726.2,348.9 726.7,348.9 727.3,349.7 727.8,348.1 728.3,349.1 728.8,349.5 729.3,350.1 729.8,349.1 730.4,349.3 730.9,350.1 731.4,349.9 731.9,349.9 732.4,349.5 732.9,349.7 733.5,349.3 734.0,349.5 734.5,350.7 735.0,351.3 735.5,349.9 736.1,349.7 736.6,351.3 737.1,350.7 737.6,350.5 738.1,350.9 738.6,350.9 739.2,350.7 739.7,351.9 740.2,350.5 740.7,351.5 741.2,352.3 741.8,351.3 742.3,351.7 742.8,351.1 743.3,352.5 743.8,352.5 744.3,352.5 744.9,352.7 745.4,351.9 745.9,352.5 746.4,351.9 746.9,352.1 747.5,352.1 748.0,352.5 748.5,353.7 749.0,351.9 749.5,352.9 750.0,353.5 750.6,354.1 751.1,352.9 751.6,353.1 752.1,352.9 752.6,354.1 753.2,353.3 753.7,353.9 754.2,353.3 754.7,354.3 755.2,354.7 755.7,353.3 756.3,353.9 756.8,354.7 757.3,354.1 757.8,354.3 758.3,354.3 758.8,355.2 759.4,355.8 759.9,355.2 760.4,355.6 760.9,356.2 761.4,354.7 762.0,354.5 762.5,356.6 763.0,356.6 763.5,356.4 764.0,355.4 764.5,356.0 765.1,355.6 765.6,356.0 766.1,356.8 766.6,355.8 767.1,356.8 767.7,356.8 768.2,356.2 768.7,356.4 769.2,356.0 769.7,356.4 770.2,357.6 770.8,357.2 771.3,357.2 771.8,356.4 772.3,357.4 772.8,357.8 773.4,358.0 773.9,357.4 774.4,358.0 774.9,357.8 775.4,358.6 775.9,358.6 776.5,359.0 777.0,357.6 777.5,358.0 778.0,358.0 778.5,358.6 779.1,358.4 779.6,358.0 780.1,358.2 780.6,358.6 781.1,358.2 781.6,359.0 782.2,358.2 782.7,358.8 783.2,359.2 783.7,358.8 784.2,360.4 784.8,359.4 785.3,360.4 785.8,358.8 786.3,360.6 786.8,360.8 787.3,360.2 787.9,360.2 788.4,361.0 788.9,360.0 789.4,360.0 789.9,361.2 790.4,360.2 791.0,361.8 791.5,361.2 792.0,361.2 792.5,361.0 793.0,361.8 793.6,361.4 794.1,360.8 794.6,360.4 795.1,361.6 795.6,361.8 796.1,362.4 796.7,362.2 797.2,361.0 797.7,362.4 798.2,362.4 798.7,363.2 799.3,362.8 799.8,361.4 800.3,363.0 800.8,362.2 801.3,362.6 801.8,363.6 802.4,362.0 802.9,362.2 803.4,362.2 803.9,363.6 804.4,363.4 805.0,363.0 805.5,363.6 806.0,363.6 806.5,363.2 807.0,364.2 807.5,363.2 808.1,363.2 808.6,364.2 809.1,363.2 809.6,363.6 810.1,364.2 810.7,365.0 811.2,365.0 811.7,365.0 812.2,365.2 812.7,364.6 813.2,364.0 813.8,364.8 814.3,364.6 814.8,364.2 815.3,365.2 815.8,365.4 816.3,365.0 816.9,364.8 817.4,364.6 817.9,366.4 818.4,366.8 818.9,366.0 819.5,365.2 820.0,365.4 820.5,366.0 821.0,365.8 821.5,366.8 822.0,366.4 822.6,367.4 823.1,366.8 823.6,366.0 824.1,367.8 824.6,367.8 825.2,366.8 825.7,367.6 826.2,366.6 826.7,366.8 827.2,367.6 827.7,367.0 828.3,368.0 828.8,368.0 829.3,368.8 829.8,367.2 830.3,367.6 830.9,367.4 831.4,368.6 831.9,368.8 832.4,367.8 832.9,368.2 833.4,368.0 834.0,369.0 834.5,369.4 835.0,368.8 835.5,369.6 836.0,369.6 836.6,370.0 837.1,368.2 837.6,370.2 838.1,370.2 838.6,369.8 839.1,369.2 839.7,369.0 840.2,370.6 840.7,370.0 841.2,370.4 841.7,369.8 842.2,370.8 842.8,370.0 843.3,371.0 843.8,369.8 844.3,369.8 844.8,370.2 845.4,371.2 845.9,371.8 846.4,370.4 846.9,371.4 847.4,370.4 847.9,372.0 848.5,372.2 849.0,371.4 849.5,371.6 850.0,371.2 850.5,372.2 851.1,371.4 851.6,372.0 852.1,372.4 852.6,372.0 853.1,371.6 853.6,371.8 854.2,373.4 854.7,371.6 855.4,239.4 855.9,364.8 856.4,366.0 857.0,365.8 857.5,367.4 858.0,366.4 858.5,368.0 859.0,366.4 859.6,368.6 860.1,368.2 860.6,369.2 861.1,369.2 861.6,368.8 862.1,369.6 862.7,369.8 863.2,369.6 863.7,369.6 864.2,369.6 864.7,369.8 865.2,369.6 865.8,371.6 866.3,371.8 866.8,371.0 867.3,370.4 867.8,370.6 868.4,371.2 868.9,372.4 869.4,352.1 869.9,372.0 870.4,371.6 870.9,360.4 871.5,371.6 872.0,360.0 872.5,371.2 873.0,356.6 873.5,371.6 874.1,363.4 874.6,370.0 875.1,349.9 875.6,369.8 876.1,371.0 876.6,358.8 877.2,370.4 877.7,369.8 878.2,370.6 878.7,370.4 879.2,371.4 879.8,370.8 880.3,371.0 880.8,372.4 881.3,371.8 881.8,372.0 882.3,372.4 882.9,373.6 883.4,373.8 883.9,374.0 884.4,374.0 884.9,373.0 885.5,373.0 886.0,374.8 886.5,373.8 887.0,374.0 887.5,373.8 888.0,374.8 888.6,374.2 889.1,374.8 889.6,376.0 890.1,375.0 890.6,375.2 891.1,376.2 891.7,375.2 892.2,376.2 892.7,375.6 893.2,377.0 893.7,376.0 894.3,377.2 894.8,377.4 895.3,376.4 895.8,376.0 896.3,377.8 896.8,377.2 897.4,376.6 897.9,377.8 898.4,377.2 898.9,378.0 899.4,378.4 900.0,377.4 900.5,378.0 901.0,378.4 901.5,378.0 902.0,378.2 902.5,377.8 903.1,378.0 903.6,379.4 904.1,377.8 904.6,378.8 905.1,379.2 905.7,378.2 906.2,378.8 906.7,379.8 907.2,378.4 907.7,379.4 908.2,379.8 908.8,380.4 909.3,380.2 909.8,380.6 910.3,381.0 910.8,379.4 911.4,381.0 911.9,379.8 912.4,380.4 912.9,380.8 913.4,380.6 913.9,380.4 914.5,381.6 915.0,381.6 915.5,380.4 916.0,380.4 916.5,381.6 917.0,381.0 917.6,382.0 918.1,380.8 918.6,381.4 919.1,381.4 919.6,381.4 920.2,381.0 920.7,382.6 921.2,382.2 921.7,382.8 922.2,382.4 922.7,382.0 923.3,382.0 923.8,382.8 924.3,383.2 924.8,383.4 925.3,383.0 925.9,383.2 926.4,383.4 926.9,383.8 927.4,382.2 927.9,384.2 928.4,383.4 929.0,384.4 929.5,383.4 930.0,382.8" fill="none" stroke="red" stroke-width="2.5" opacity="0.8"/>
<polyline points="70.0,429.1 70.7,70.0 71.2,70.7 71.8,70.7 72.3,70.5 72.8,70.8 73.3,70.8 73.8,71.8 74.4,72.1 74.9,71.6 75.4,71.8 75.9,72.0 76.4,72.0 76.9,72.3 77.5,72.7 78.0,72.3 78.5,72.7 79.0,73.2 79.5,72.8 80.0,73.1 80.6,73.1 81.1,73.5 81.6,73.8 82.1,73.2 82.6,429.3 83.2,73.8 83.7,429.5 84.2,73.7 84.7,429.8 85.2,73.9 85.7,429.3 86.3,73.4 86.8,429.7 87.3,73.8 87.8,429.5 88.3,73.7 88.9,429.8 89.4,73.2 89.9,429.8 90.4,73.4 90.9,429.2 91.4,73.6 92.0,429.4 92.5,73.3 93.0,430.0 93.5,73.3 94.0,429.1 94.6,73.3 95.1,429.5 95.6,73.6 96.1,429.8 96.6,73.1 97.1,429.3 97.7,73.4 98.2,429.4 98.7,73.6 99.2,429.6 99.7,73.5 100.3,429.6 100.8,73.7 101.3,429.2 101.8,73.5 102.3,429.4 102.8,74.1 103.4,429.6 103.9,74.1 104.4,429.2 104.9,74.0 105.4,429.5 105.9,73.8 106.5,429.8 107.0,74.0 107.5,429.8 108.0,74.0 108.5,429.3 109.1,74.2 109.6,429.1 110.1,74.1 110.6,429.3 111.1,73.6 111.6,429.5 112.2,73.8 112.7,429.3 113.2,74.5 113.7,429.4 114.2,74.1 114.8,429.5 115.3,73.8 115.8,429.8 116.3,73.8 116.8,429.9 117.3,74.1 117.9,429.5 118.4,74.5 118.9,429.5 119.4,74.1 119.9,429.3 120.5,74.2 121.0,429.6 121.5,74.6 122.0,429.2 122.5,74.3 123.0,429.1 123.6,74.0 124.1,429.2 124.6,74.8 125.1,430.0 125.6,429.4 126.2,429.2 126.7,429.7 127.2,430.0 127.7,429.8 128.2,429.6 128.7,429.7 129.3,429.3 129.8,429.7 130.3,429.9 130.8,429.2 131.3,430.0 131.9,429.6 132.4,429.4 132.9,429.5 133.4,429.8 133.9,429.9 134.4,429.3 135.0,430.0 135.5,429.3 136.0,429.5 136.5,429.2 137.0,429.7 137.5,429.9 138.1,429.3 138.6,429.9 139.1,430.0 139.6,429.9 140.1,429.2 140.7,429.4 141.2,430.0 141.7,429.6 142.2,429.3 142.7,429.7 143.2,429.7 143.8,429.3 144.3,429.3 144.8,429.1 145.3,429.5 145.8,429.2 146.4,429.3 146.9,429.3 147.4,429.2 147.9,429.2 148.4,429.8 148.9,429.7 149.5,429.3 150.0,429.3 150.5,430.0 151.0,429.5 151.5,429.4 152.1,429.1 152.6,429.4 153.1,429.8 153.6,429.2 154.1,429.2 154.6,429.9 155.2,430.0 155.7,429.5 156.2,429.4 156.7,429.6 157.2,429.5 157.8,429.7 158.3,429.5 158.8,429.7 159.3,429.4 159.8,429.8 160.3,429.7 160.9,430.0 161.4,429.4 161.9,429.4 162.4,429.9 162.9,429.9 163.4,429.2 164.0,429.4 164.5,429.3 165.0,429.6 165.5,429.8 166.0,429.1 166.6,429.9 167.1,429.3 167.6,429.5 168.3,72.9 168.8,72.7 169.4,72.5 169.9,73.0 170.4,73.7 170.9,73.5 171.4,73.3 171.9,73.6 172.5,73.9 173.0,74.5 173.5,74.1 174.0,74.5 174.5,74.7 175.1,74.3 175.6,75.0 176.1,74.7 176.6,74.7 177.1,75.1 177.6,75.2 178.2,75.7 178.7,75.7 179.2,75.8 179.7,75.5 180.2,429.8 180.8,75.9 181.3,429.8 181.8,75.8 182.3,429.4 182.8,75.9 183.3,429.7 183.9,75.3 184.4,429.6 184.9,75.2 185.4,429.8 185.9,75.3 186.4,430.0 187.0,75.5 187.5,429.9 188.0,75.4 188.5,429.7 189.0,75.3 189.6,429.6 190.1,75.7 190.6,429.2 191.1,76.0 191.6,429.4 192.1,75.3 192.7,429.5 193.2,75.9 193.7,429.7 194.2,75.9 194.7,429.3 195.3,75.5 195.8,429.5 196.3,75.8 196.8,429.6 197.3,75.6 197.8,430.0 198.4,75.4 198.9,429.4 199.4,75.5 199.9,429.4 200.4,76.1 201.0,429.3 201.5,76.2 202.0,429.5 202.5,75.9 203.0,429.9 203.5,76.0 204.1,429.2 204.6,76.3 205.1,430.0 205.6,75.9 206.1,429.8 206.7,75.7 207.2,429.9 207.7,76.0 208.2,429.2 208.7,75.9 209.2,429.2 209.8,76.6 210.3,429.6 210.8,76.1 211.3,429.4 211.8,75.9 212.3,430.0 212.9,75.8 213.4,429.9 213.9,76.5 214.4,429.7 214.9,76.7 215.5,429.1 216.0,76.4 216.5,429.2 217.0,76.7 217.5,430.0 218.0,76.8 218.6,429.3 219.1,76.8 219.6,429.1 220.1,76.1 220.6,430.0 221.2,76.1 221.7,429.8 222.2,76.7 222.7,429.1 223.2,76.7 223.7,429.9 224.3,76.2 224.8,429.4 225.3,76.6 225.8,429.6 226.3,76.7 226.9,429.8 227.4,76.9 227.9,429.6 228.4,77.0 228.9,429.2 229.4,76.6 230.0,429.2 230.5,77.2 231.0,429.7 231.5,77.2 232.0,429.9 232.6,429.3 233.1,429.6 233.6,429.2 234.1,429.3 234.6,429.2 235.1,429.2 235.7,429.8 236.2,429.7 236.7,429.3 237.2,429.2 237.7,429.8 238.2,429.9 238.8,429.1 239.3,429.9 239.8,429.7 240.3,429.6 240.8,429.5 241.4,429.1 241.9,429.7 242.4,429.7 242.9,429.7 243.4,429.8 243.9,429.4 244.5,430.0 245.0,430.0 245.5,429.8 246.0,429.9 246.5,429.2 247.1,429.6 247.6,429.1 248.1,429.4 248.6,429.5 249.1,429.7 249.6,429.4 250.2,429.1 250.7,430.0 251.2,429.2 251.7,429.4 252.2,429.8 252.8,429.1 253.3,429.6 253.8,429.7 254.3,429.4 254.8,429.5 255.3,429.9 255.9,429.8 256.4,429.4 256.9,429.7 257.4,429.6 257.9,430.0 258.5,429.1 259.0,429.6 259.5,429.3 260.0,429.5 260.5,429.1 261.0,429.2 261.6,429.3 262.1,429.1 262.6,429.7 263.1,429.2 263.6,429.4 264.2,429.5 264.7,429.6 265.2,430.0 265.7,429.4 266.2,429.2 266.7,429.7 267.3,430.0 267.8,429.6 268.3,429.9 268.8,429.4 269.3,429.1 269.8,429.8 270.4,429.7 270.9,429.4 271.4,429.5 271.9,429.4 272.4,429.8 273.0,429.3 273.5,429.5 274.0,429.2 274.5,429.8 275.0,429.5 275.5,429.8 276.1,429.9 276.6,429.7 277.1,429.7 277.6,429.7 278.1,429.2 278.7,429.3 279.2,429.6 279.7,429.7 280.2,429.9 280.7,429.7 281.2,429.6 281.8,429.6 282.3,429.9 282.8,429.4 283.3,429.3 283.8,429.5 284.4,429.8 284.9,429.1 285.4,429.2 285.9,429.1 286.4,429.8 286.9,429.4 287.5,429.6 288.0,429.3 288.5,429.4 289.0,429.4 289.5,429.3 290.1,430.0 290.6,429.3 291.1,429.5 291.6,429.8 292.1,429.4 292.6,429.9 293.2,429.4 293.7,429.7 294.2,429.5 294.7,429.8 295.2,429.1 295.7,429.4 296.3,429.3 296.8,429.3 297.3,429.8 297.8,429.2 298.3,429.3 298.9,429.9 299.4,429.8 299.9,429.8 300.4,429.4 300.9,429.4 301.4,429.3 302.0,429.9 302.5,429.1 303.0,429.4 303.5,429.9 304.0,429.2 304.6,429.5 305.1,429.9 305.6,429.5 306.1,429.4 306.6,429.6 307.1,429.3 307.7,429.2 308.2,429.2 308.7,429.7 309.2,429.2 309.7,429.8 310.3,429.1 310.8,429.2 311.3,429.6 311.8,429.8 312.3,429.9 312.8,429.5 313.4,429.9 313.9,429.5 314.4,429.6 314.9,429.2 315.4,429.4 316.0,429.4 316.5,429.9 317.0,429.8 317.5,429.9 318.0,430.0 318.5,429.5 319.1,429.9 319.6,429.5 320.1,429.3 320.6,430.0 321.1,429.5 321.6,429.6 322.2,429.6 322.7,430.0 323.2,429.3 323.7,429.3 324.2,429.3 324.8,429.8 325.3,429.4 325.8,430.0 326.3,429.8 326.8,429.8 327.3,429.6 327.9,429.5 328.4,429.1 328.9,429.3 329.4,429.2 329.9,429.2 330.5,429.8 331.0,429.9 331.5,429.2 332.0,429.4 332.5,429.9 333.0,430.0 333.6,429.8 334.1,429.7 334.6,429.7 335.1,429.6 335.6,429.5 336.2,429.3 336.7,430.0 337.2,429.2 337.7,429.3 338.2,429.4 338.7,430.0 339.3,429.3 339.8,429.3 340.3,429.2 340.8,429.3 341.3,429.1 341.9,429.6 342.4,429.7 342.9,429.4 343.4,429.6 343.9,429.6 344.4,429.3 345.0,430.0 345.5,429.8 346.0,429.9 346.5,429.5 347.0,429.6 347.5,429.2 348.1,429.9 348.6,429.6 349.1,429.4 349.6,429.6 350.1,430.0 350.7,429.6 351.2,429.8 351.7,429.9 352.2,429.7 352.7,429.2 353.2,429.1 353.8,429.3 354.3,429.7 354.8,429.2 355.3,429.5 355.8,429.9 356.4,429.1 356.9,429.7 357.4,429.2 357.9,429.8 358.4,429.3 358.9,429.5 359.5,429.3 360.0,429.3 360.5,430.0 361.0,429.2 361.5,429.2 362.1,429.7 362.6,429.9 363.1,429.3 363.6,429.4 364.1,429.7 364.6,429.2 365.2,429.1 365.7,429.8 366.2,429.6 366.7,429.9 367.2,429.3 367.8,429.2 368.3,429.5 368.8,429.3 369.3,429.6 369.8,429.3 370.3,429.4 370.9,429.4 371.4,429.9 371.9,429.1 372.4,429.6 372.9,429.3 373.5,429.3 374.0,429.4 374.5,429.9 375.0,429.6 375.5,429.7 376.0,429.5 376.6,429.6 377.1,429.1 377.6,429.7 378.1,429.7 378.6,429.8 379.1,429.2 379.7,429.6 380.2,429.2 380.7,429.3 381.2,430.0 381.7,429.6 382.3,430.0 382.8,429.8 383.3,429.6 383.8,430.0 384.3,429.9 384.8,429.5 385.4,429.4 385.9,429.9 386.4,429.5 386.9,430.0 387.4,429.2 388.0,429.9 388.5,429.2 389.0,429.6 389.5,429.6 390.0,429.3 390.5,429.4 391.1,430.0 391.6,429.4 392.1,429.3 392.6,429.4 393.1,429.9 393.7,429.8 394.2,429.2 394.7,429.5 395.2,430.0 395.7,429.7 396.2,429.7 396.8,429.2 397.3,429.7 397.8,429.3 398.3,429.4 398.8,429.5 399.4,430.0 399.9,429.1 400.4,429.5 400.9,429.6 401.4,429.6 401.9,430.0 402.5,429.6 403.0,429.4 403.5,429.3 404.0,429.9 404.5,429.4 405.0,429.6 405.6,429.6 406.1,429.8 406.6,429.4 407.1,429.2 407.6,429.4 408.2,429.1 408.7,429.5 409.2,430.0 409.7,429.9 410.2,429.5 410.7,429.8 411.3,429.9 411.8,429.8 412.3,429.7 412.8,429.8 413.3,429.1 413.9,429.3 414.4,429.9 414.9,429.3 415.4,429.5 415.9,429.4 416.4,429.4 417.0,429.5 417.5,429.7 418.0,429.3 418.5,429.2 419.0,429.3 419.6,429.2 420.1,429.7 420.6,429.9 421.1,429.8 421.6,430.0 422.1,429.9 422.7,429.5 423.2,429.4 423.7,429.4 424.2,429.6 424.7,429.8 425.3,429.9 425.8,429.6 426.3,429.8 426.8,429.5 427.3,429.9 427.8,429.6 428.4,429.6 428.9,429.4 429.4,429.7 429.9,429.7 430.4,429.7 430.9,429.7 431.5,429.2 432.0,429.8 432.5,429.3 433.0,429.5 433.5,429.9 434.1,429.7 434.6,429.5 435.1,429.7 435.6,429.3 436.1,429.4 436.6,429.8 437.2,429.2 437.7,429.5 438.2,429.9 438.7,429.4 439.2,429.5 439.8,429.6 440.3,429.5 440.8,429.3 441.3,429.6 441.8,430.0 442.3,429.6 442.9,429.9 443.4,429.2 443.9,429.3 444.4,430.0 444.9,429.5 445.5,429.9 446.0,429.3 446.5,429.8 447.0,430.0 447.5,429.5 448.0,429.8 448.6,429.7 449.1,429.9 449.6,429.4 450.1,429.2 450.6,429.7 451.2,429.3 451.7,429.3 452.2,429.3 452.7,429.2 453.2,429.5 453.7,429.4 454.3,429.3 454.8,429.1 455.3,429.5 455.8,429.4 456.3,429.4 456.8,429.6 457.4,429.4 457.9,429.9 458.4,429.2 458.9,429.7 459.4,429.2 460.0,429.3 460.5,429.6 461.0,429.6 461.5,429.7 462.0,429.5 462.5,429.7 463.1,429.5 463.6,429.2 464.1,429.5 464.6,429.8 465.1,429.4 465.7,429.4 466.2,429.2 466.7,429.4 467.2,429.4 467.7,429.9 468.2,429.8 468.8,429.1 469.3,429.7 469.8,429.9 470.3,429.5 470.8,429.3 471.4,429.1 471.9,429.5 472.4,429.9 472.9,429.6 473.4,429.7 473.9,429.7 474.5,429.9 475.0,430.0 475.5,429.8 476.0,429.5 476.5,429.7 477.1,429.8 477.6,429.6 478.1,430.0 478.6,429.5 479.1,429.2 479.6,429.4 480.2,429.4 480.7,429.3 481.2,429.5 481.7,429.5 482.2,429.9 482.8,429.8 483.3,429.9 483.8,429.5 484.3,429.6 484.8,429.6 485.3,429.4 485.9,429.7 486.4,429.7 486.9,429.2 487.4,429.1 487.9,429.4 488.4,429.8 489.0,429.5 489.5,429.8 490.0,429.3 490.5,429.2 491.0,429.5 491.6,429.9 492.1,429.9 492.6,429.6 493.1,429.7 493.6,429.4 494.1,429.9 494.7,429.9 495.2,430.0 495.7,429.5 496.2,429.3 496.7,429.1 497.3,429.5 497.8,429.2 498.3,429.4 498.8,429.8 499.3,429.2 499.8,429.1 500.4,429.1 500.9,429.4 501.4,429.1 501.9,430.0 502.4,429.1 503.0,430.0 503.5,429.7 504.0,429.2 504.5,429.9 505.0,429.7 505.5,429.2 506.1,429.9 506.6,430.0 507.1,429.2 507.6,429.6 508.1,429.8 508.7,429.4 509.2,429.5 509.7,429.7 510.2,429.1 510.7,429.2 511.2,429.6 511.8,429.9 512.3,429.5 512.8,429.6 513.3,429.7 513.8,429.3 514.3,429.4 514.9,429.2 515.4,429.4 515.9,429.6 516.4,429.5 516.9,429.4 517.5,429.5 518.0,429.2 518.5,429.5 519.0,429.9 519.5,429.3 520.0,429.4 520.6,429.7 521.1,429.5 521.6,429.5 522.1,429.7 522.6,429.6 523.2,429.9 523.7,429.5 524.2,429.4 524.7,430.0 525.2,429.8 525.7,429.5 526.3,429.9 526.8,429.7 527.3,429.3 527.8,429.2 528.3,429.5 528.9,429.7 529.4,429.5 529.9,429.4 530.4,430.0 530.9,429.5 531.4,429.4 532.0,429.2 532.5,430.0 533.0,429.6 533.5,429.6 534.0,429.5 534.6,429.1 535.1,429.3 535.6,429.3 536.1,429.5 536.6,430.0 537.1,429.9 537.7,429.5 538.2,429.5 538.7,429.9 539.2,429.8 539.7,429.6 540.2,429.6 540.8,429.2 541.3,429.7 541.8,429.9 542.3,429.2 542.8,429.7 543.4,429.7 543.9,429.7 544.4,430.0 544.9,429.4 545.4,429.5 545.9,429.2 546.5,429.1 547.0,429.7 547.5,429.9 548.0,429.1 548.5,429.7 549.1,429.9 549.6,430.0 550.1,429.6 550.6,429.3 551.1,429.8 551.6,429.4 552.2,429.6 552.7,429.9 553.2,429.1 553.7,429.4 554.2,429.5 554.8,429.6 555.3,429.3 555.8,429.4 556.3,429.9 556.8,429.2 557.3,429.9 557.9,429.3 558.4,429.5 558.9,429.9 559.4,429.2 559.9,430.0 560.5,429.2 561.0,429.9 561.5,429.3 562.0,429.8 562.5,429.6 563.0,429.3 563.6,429.6 564.1,429.3 564.6,429.2 565.1,430.0 565.6,429.7 566.1,429.9 566.7,429.8 567.2,429.3 567.7,430.0 568.2,429.7 568.7,429.7 569.3,429.9 569.8,429.2 570.3,429.2 570.8,429.4 571.3,429.6 571.8,430.0 572.4,429.5 572.9,429.7 573.4,429.1 573.9,429.8 574.4,429.3 575.0,429.6 575.5,429.9 576.0,429.2 576.5,429.2 577.0,429.9 577.5,429.7 578.1,429.1 578.6,429.9 579.1,429.8 579.6,430.0 580.1,429.9 580.7,429.2 581.2,429.7 581.7,429.5 582.2,429.4 582.7,429.9 583.2,429.5 583.8,429.4 584.3,429.1 584.8,429.4 585.3,429.3 585.8,429.7 586.4,429.1 586.9,429.3 587.4,429.2 587.9,429.7 588.4,429.1 588.9,429.1 589.5,429.2 590.0,429.9 590.5,429.2 591.0,429.6 591.5,429.1 592.1,429.9 592.6,429.7 593.1,429.7 593.6,429.2 594.1,429.3 594.6,429.6 595.2,429.5 595.7,429.4 596.2,429.4 596.7,430.0 597.2,429.8 597.7,429.2 598.3,429.2 598.8,429.7 599.3,429.4 599.8,429.9 600.3,429.4 600.9,429.5 601.4,429.4 601.9,429.5 602.4,429.3 602.9,429.8 603.4,429.9 604.0,429.6 604.5,429.3 605.0,429.3 605.5,429.5 606.0,429.9 606.6,429.7 607.1,429.7 607.6,429.9 608.1,429.1 608.6,429.4 609.1,429.7 609.7,429.8 610.2,429.7 610.7,429.1 611.2,429.1 611.7,429.3 612.3,429.8 612.8,429.6 613.3,430.0 613.8,429.7 614.3,429.5 614.8,429.3 615.4,429.8 615.9,429.4 616.4,429.5 616.9,429.5 617.4,429.1 618.0,429.7 618.5,429.8 619.0,429.2 619.5,429.6 620.0,430.0 620.5,429.7 621.1,429.4 621.6,429.6 622.1,429.6 622.6,429.6 623.1,430.0 623.6,429.8 624.2,429.1 624.7,429.5 625.2,429.1 625.7,429.3 626.2,430.0 626.8,429.7 627.3,429.7 627.8,429.6 628.3,429.4 628.8,429.7 629.3,429.9 629.9,429.6 630.4,429.1 630.9,429.1 631.4,429.8 631.9,429.2 632.5,429.3 633.0,429.2 633.5,429.6 634.0,429.6 634.5,429.7 635.0,429.6 635.6,429.4 636.1,429.7 636.6,429.2 637.1,429.4 637.6,429.8 638.2,429.4 638.7,429.1 639.2,429.9 639.7,429.3 640.2,429.3 640.7,429.1 641.3,429.6 641.8,429.9 642.3,429.2 642.8,429.6 643.3,429.4 643.9,429.5 644.4,429.8 644.9,429.4 645.4,429.7 645.9,429.8 646.4,429.9 647.0,429.8 647.5,429.6 648.0,429.6 648.5,429.7 649.0,429.1 649.5,429.5 650.1,429.3 650.6,429.8 651.1,429.2 651.6,429.5 652.1,429.7 652.7,429.7 653.2,429.6 653.7,429.6 654.2,429.7 654.7,429.2 655.2,429.2 655.8,429.5 656.3,429.3 656.8,429.6 657.3,429.2 657.8,429.2 658.4,429.2 658.9,429.2 659.4,429.1 659.9,429.7 660.4,429.3 660.9,429.8 661.5,429.3 662.0,429.6 662.5,429.4 663.0,429.1 663.5,429.6 664.1,429.2 664.6,429.7 665.1,429.7 665.6,429.2 666.1,429.8 666.6,430.0 667.2,429.9 667.7,429.2 668.2,429.5 668.7,429.9 669.2,429.9 669.8,429.8 670.3,429.3 670.8,429.7 671.3,429.5 671.8,429.4 672.3,429.6 672.9,429.4 673.4,429.8 673.9,429.2 674.4,429.3 674.9,429.2 675.4,429.9 676.0,429.8 676.5,429.5 677.0,429.4 677.5,429.7 678.0,429.9 678.6,429.9 679.1,429.2 679.6,429.4 680.1,429.9 680.6,430.0 681.1,429.7 681.7,429.8 682.2,429.4 682.7,429.8 683.2,429.8 683.7,429.9 684.3,429.8 684.8,429.7 685.3,429.1 685.8,429.1 686.3,429.4 686.8,429.3 687.4,429.9 687.9,429.2 688.4,429.7 688.9,429.8 689.4,429.8 690.0,429.8 690.5,429.8 691.0,429.4 691.5,429.4 692.0,429.7 692.5,429.3 693.1,429.3 693.6,429.1 694.1,429.1 694.6,429.7 695.1,430.0 695.7,429.8 696.2,429.3 696.7,429.2 697.2,429.7 697.7,429.6 698.2,429.8 698.8,429.7 699.3,429.2 699.8,429.3 700.3,429.2 700.8,429.6 701.4,429.4 701.9,429.1 702.4,429.5 702.9,429.5 703.4,429.7 703.9,429.2 704.5,430.0 705.0,429.9 705.5,429.2 706.0,429.6 706.5,429.5 707.0,429.6 707.6,429.7 708.1,429.1 708.6,429.9 709.1,429.5 709.6,429.1 710.2,429.8 710.7,429.3 711.2,429.4 711.7,429.9 712.2,429.9 712.7,429.8 713.3,429.6 713.8,429.8 714.3,429.5 714.8,429.8 715.3,429.9 715.9,429.7 716.4,429.2 716.9,430.0 717.4,429.4 717.9,429.1 718.4,429.2 719.0,429.9 719.5,429.9 720.0,429.3 720.5,429.4 721.0,429.3 721.6,429.6 722.1,429.2 722.6,429.7 723.1,429.2 723.6,429.8 724.1,429.9 724.7,429.8 725.2,429.3 725.7,429.9 726.2,429.3 726.7,429.6 727.3,429.2 727.8,429.2 728.3,429.2 728.8,429.5 729.3,430.0 729.8,429.1 730.4,429.1 730.9,429.8 731.4,429.5 731.9,429.8 732.4,429.6 732.9,429.9 733.5,429.5 734.0,429.9 734.5,429.6 735.0,429.2 735.5,429.1 736.1,429.4 736.6,429.5 737.1,429.5 737.6,429.6 738.1,430.0 738.6,429.5 739.2,429.1 739.7,429.4 740.2,429.3 740.7,429.7 741.2,429.9 741.8,429.5 742.3,429.1 742.8,429.9 743.3,429.7 743.8,429.7 744.3,429.8 744.9,429.2 745.4,429.5 745.9,429.6 746.4,429.9 746.9,429.2 747.5,429.6 748.0,429.8 748.5,429.4 749.0,429.6 749.5,429.9 750.0,429.7 750.6,429.7 751.1,429.3 751.6,429.3 752.1,429.8 752.6,429.7 753.2,429.7 753.7,429.6 754.2,429.7 754.7,429.7 755.2,429.1 755.7,429.9 756.3,429.8 756.8,429.5 757.3,429.4 757.8,430.0 758.3,429.3 758.8,429.6 759.4,429.8 759.9,430.0 760.4,429.2 760.9,429.4 761.4,429.3 762.0,429.2 762.5,429.3 763.0,429.9 763.5,429.8 764.0,429.1 764.5,429.2 765.1,429.8 765.6,429.6 766.1,429.4 766.6,429.6 767.1,429.2 767.7,429.9 768.2,429.1 768.7,429.7 769.2,429.3 769.7,429.6 770.2,430.0 770.8,429.1 771.3,429.1 771.8,429.8 772.3,429.7 772.8,429.9 773.4,429.6 773.9,429.9 774.4,429.9 774.9,429.5 775.4,429.4 775.9,429.9 776.5,430.0 777.0,429.5 777.5,429.4 778.0,429.9 778.5,429.7 779.1,429.2 779.6,430.0 780.1,429.1 780.6,429.3 781.1,430.0 781.6,429.8 782.2,429.4 782.7,429.9 783.2,429.7 783.7,429.7 784.2,429.4 784.8,429.5 785.3,429.6 785.8,429.7 786.3,429.6 786.8,430.0 787.3,429.2 787.9,429.7 788.4,429.9 788.9,429.1 789.4,429.7 789.9,429.4 790.4,429.9 791.0,429.5 791.5,429.8 792.0,429.4 792.5,429.4 793.0,429.6 793.6,429.8 794.1,429.7 794.6,429.7 795.1,429.4 795.6,429.5 796.1,429.7 796.7,429.1 797.2,429.8 797.7,429.3 798.2,429.7 798.7,429.5 799.3,429.4 799.8,429.9 800.3,429.3 800.8,429.4 801.3,429.3 801.8,429.3 802.4,429.7 802.9,429.2 803.4,429.5 803.9,429.3 804.4,429.9 805.0,429.6 805.5,429.9 806.0,429.4 806.5,429.8 807.0,429.3 807.5,429.6 808.1,429.3 808.6,429.3 809.1,429.2 809.6,429.6 810.1,429.1 810.7,429.7 811.2,429.4 811.7,429.7 812.2,429.9 812.7,429.3 813.2,429.2 813.8,429.5 814.3,429.8 814.8,429.1 815.3,429.2 815.8,429.2 816.3,429.8 816.9,429.4 817.4,429.7 817.9,429.3 818.4,429.7 818.9,429.2 819.5,429.1 820.0,429.5 820.5,429.4 821.0,429.5 821.5,429.8 822.0,429.4 822.6,429.5 823.1,430.0 823.6,429.2 824.1,429.9 824.6,429.8 825.2,429.3 825.7,429.8 826.2,430.0 826.7,429.6 827.2,429.5 827.7,429.6 828.3,429.7 828.8,429.2 829.3,429.6 829.8,429.3 830.3,429.1 830.9,429.7 831.4,429.7 831.9,429.4 832.4,429.8 832.9,429.3 833.4,429.1 834.0,429.1 834.5,429.6 835.0,430.0 835.5,430.0 836.0,429.8 836.6,429.4 837.1,429.3 837.6,429.8 838.1,429.7 838.6,429.1 839.1,430.0 839.7,429.9 840.2,429.3 840.7,429.3 841.2,429.9 841.7,429.3 842.2,429.4 842.8,429.4 843.3,429.4 843.8,429.8 844.3,429.7 844.8,429.9 845.4,429.5 845.9,429.6 846.4,429.2 846.9,429.6 847.4,429.1 847.9,429.3 848.5,429.1 849.0,429.6 849.5,429.4 850.0,429.6 850.5,429.4 851.1,429.5 851.6,429.4 852.1,429.1 852.6,429.1 853.1,429.7 853.6,429.8 854.2,429.7 854.7,429.7 855.4,72.0 855.9,429.7 856.4,429.9 857.0,429.2 857.5,429.6 858.0,429.4 858.5,429.4 859.0,429.3 859.6,429.3 860.1,429.4 860.6,429.8 861.1,429.3 861.6,429.8 862.1,429.6 862.7,429.5 863.2,429.3 863.7,430.0 864.2,429.7 864.7,429.9 865.2,429.6 865.8,430.0 866.3,429.8 866.8,429.6 867.3,429.2 867.8,429.1 868.4,429.1 868.9,429.3 869.4,374.2 869.9,429.4 870.4,429.6 870.9,399.5 871.5,429.4 872.0,399.7 872.5,429.9 873.0,391.2 873.5,429.8 874.1,407.8 874.6,430.0 875.1,374.3 875.6,429.2 876.1,429.7 876.6,399.9 877.2,429.2 877.7,429.8 878.2,429.8 878.7,430.0 879.2,429.8 879.8,429.8 880.3,429.8 880.8,429.3 881.3,429.8 881.8,429.4 882.3,429.6 882.9,429.6 883.4,429.8 883.9,429.6 884.4,429.8 884.9,429.7 885.5,429.8 886.0,429.2 886.5,429.4 887.0,429.6 887.5,429.9 888.0,429.4 888.6,429.7 889.1,429.9 889.6,429.3 890.1,429.5 890.6,430.0 891.1,429.4 891.7,429.9 892.2,429.6 892.7,429.8 893.2,429.2 893.7,429.8 894.3,429.2 894.8,429.8 895.3,430.0 895.8,429.6 896.3,429.9 896.8,429.9 897.4,429.9 897.9,429.7 898.4,429.2 898.9,429.1 899.4,429.9 900.0,429.8 900.5,429.6 901.0,429.6 901.5,429.1 902.0,429.3 902.5,429.8 903.1,429.5 903.6,429.3 904.1,429.9 904.6,429.2 905.1,429.3 905.7,429.4 906.2,429.8 906.7,429.6 907.2,429.7 907.7,429.4 908.2,429.9 908.8,429.6 909.3,429.2 909.8,430.0 910.3,430.0 910.8,429.8 911.4,429.7 911.9,429.2 912.4,429.6 912.9,429.3 913.4,430.0 913.9,429.7 914.5,429.9 915.0,429.1 915.5,429.6 916.0,429.5 916.5,429.2 917.0,429.8 917.6,429.9 918.1,429.9 918.6,429.4 919.1,429.2 919.6,429.1 920.2,429.6 920.7,429.4 921.2,429.7 921.7,429.8 922.2,429.2 922.7,429.1 923.3,429.4 923.8,429.8 924.3,429.5 924.8,429.2 925.3,429.3 925.9,429.8 926.4,429.3 926.9,429.3 927.4,429.9 927.9,429.6 928.4,429.3 929.0,429.8 929.5,429.6 930.0,429.5" fill="none" stroke="blue" stroke-width="1.5" stroke-dasharray="5,3"/>
<line x1="70" y1="430" x2="930" y2="430" stroke="#333" stroke-width="2"/>
<line x1="70" y1="70" x2="70" y2="430" stroke="#333" stroke-width="2"/>
<line x1="930" y1="70" x2="930" y2="430" stroke="#333" stroke-width="2"/>
<text x="70.0" y="450" text-anchor="middle" font-family="sans-serif" font-size="12">60s</text>
<text x="242.00000000000003" y="450" text-anchor="middle" font-family="sans-serif" font-size="12">93s</text>
<text x="414.0" y="450" text-anchor="middle" font-family="sans-serif" font-size="12">127s</text>
<text x="585.9999999999999" y="450" text-anchor="middle" font-family="sans-serif" font-size="12">160s</text>
<text x="758.0" y="450" text-anchor="middle" font-family="sans-serif" font-size="12">193s</text>
<text x="930.0" y="450" text-anchor="middle" font-family="sans-serif" font-size="12">226s</text>
<g transform="translate(820, 60)">
<rect width="120" height="50" fill="white" fill-opacity="0.9" stroke="#ccc"/>
<line x1="10" y1="15" x2="40" y2="15" stroke="red" stroke-width="3"/>
<text x="45" y="20" font-family="sans-serif" font-size="14">Voltage</text>
<line x1="10" y1="35" x2="40" y2="35" stroke="blue" stroke-width="2" stroke-dasharray="5,3"/>
<text x="45" y="40" font-family="sans-serif" font-size="14">Current</text>
</g>
</svg>