<svg viewBox="0 0 1000 500" xmlns="http://www.w3.org/2000/svg">
<rect width="100%" height="100%" fill="#ffffff"/>
<text x="500.0" y="35" text-anchor="middle" font-family="sans-serif" font-size="22" font-weight="bold">Outgassing Characterization Detail (Zoom): stalled</text>
<line x1="70" y1="430.0" x2="930" y2="430.0" stroke="#eee" stroke-width="1"/>
<text x="65" y="434.0" text-anchor="end" font-family="sans-serif" font-size="12" fill="red">12.00V</text>
<line x1="70" y1="358.00000000000006" x2="930" y2="358.00000000000006" stroke="#eee" stroke-width="1"/>
<text x="65" y="362.00000000000006" text-anchor="end" font-family="sans-serif" font-size="12" fill="red">12.51V</text>
<line x1="70" y1="286.0000000000001" x2="930" y2="286.0000000000001" stroke="#eee" stroke-width="1"/>
<text x="65" y="290.0000000000001" text-anchor="end" font-family="sans-serif" font-size="12" fill="red">13.02V</text>
<line x1="70" y1="213.99999999999991" x2="930" y2="213.99999999999991" stroke="#eee" stroke-width="1"/>
<text x="65" y="217.99999999999991" text-anchor="end" font-family="sans-serif" font-size="12" fill="red">13.53V</text>
<line x1="70" y1="141.99999999999994" x2="930" y2="141.99999999999994" stroke="#eee" stroke-width="1"/>
<text x="65" y="145.99999999999994" text-anchor="end" font-family="sans-serif" font-size="12" fill="red">14.04V</text>
<line x1="70" y1="70.0" x2="930" y2="70.0" stroke="#eee" stroke-width="1"/>
<text x="65" y="74.0" text-anchor="end" font-family="sans-serif" font-size="12" fill="red">14.55V</text>
<text x="935" y="434.0" text-anchor="start" font-family="sans-serif" font-size="12" fill="blue">-0.05A</text>
<text x="935" y="362.0" text-anchor="start" font-family="sans-serif" font-size="12" fill="blue">0.11A</text>
<text x="935" y="290.0" text-anchor="start" font-family="sans-serif" font-size="12" fill="blue">0.27A</text>
<text x="935" y="218.0" text-anchor="start" font-family="sans-serif" font-size="12" fill="blue">0.43A</text>
<text x="935" y="146.0" text-anchor="start" font-family="sans-serif" font-size="12" fill="blue">0.59A</text>
<text x="935" y="74.00000000000006" text-anchor="start" font-family="sans-serif" font-size="12" fill="blue">0.75A</text>
<polyline points="70.0,430.0 71.1,218.8 72.2,218.9 73.3,219.0 74.5,219.1 75.6,219.1 76.7,216.9 77.8,213.0 78.9,210.4 80.0,208.4 81.1,207.0 82.2,206.1 83.4,205.5 84.5,204.7 85.6,204.1 86.7,203.6 87.8,203.0 88.9,202.4 90.0,201.9 91.1,201.5 92.3,201.1 93.4,200.7 94.5,200.2 95.6,199.9 96.7,199.6 97.8,199.2 98.9,198.8 100.0,198.5 101.2,198.2 102.3,197.9 103.4,197.7 104.5,197.4 105.6,197.2 106.7,196.9 107.8,196.6 108.9,196.3 110.1,196.1 111.2,195.9 112.3,195.6 113.4,195.4 114.5,195.1 115.6,195.0 116.7,194.7 117.8,194.5 119.0,194.3 120.1,194.1 121.2,193.9 122.3,193.7 123.4,193.5 124.5,193.2 125.8,193.1 127.0,192.8 128.1,192.6 129.2,192.4 130.3,192.3 131.4,192.1 132.5,191.8 133.6,191.6 134.8,191.4 135.9,191.3 137.0,191.0 138.1,190.8 139.2,190.6 140.3,190.4 141.4,190.3 142.5,190.1 143.7,189.9 144.8,189.6 145.9,189.4 147.0,189.2 148.1,189.1 149.2,189.0 150.3,188.6 151.4,188.4 152.6,188.4 153.7,188.1 154.8,187.9 155.9,187.7 157.0,187.5 158.1,187.4 159.2,187.2 160.3,187.0 161.5,186.8 162.6,186.5 163.7,186.3 164.8,186.2 165.9,186.0 167.0,185.8 168.1,185.5 169.2,185.3 170.4,185.2 171.5,184.9 172.6,184.9 173.7,184.7 174.8,184.5 175.9,184.2 177.0,184.1 178.1,183.9 179.3,183.6 180.4,183.5 181.7,183.3 182.8,183.1 183.9,182.8 185.0,182.8 186.2,182.5 187.3,182.4 188.4,182.2 189.5,181.9 190.6,181.8 191.7,181.5 192.8,181.4 193.9,181.2 195.1,180.9 196.2,180.8 197.3,180.6 198.4,180.4 199.5,180.2 200.6,180.0 201.7,179.8 202.8,179.7 204.0,179.4 205.1,179.2 206.2,179.1 207.3,178.8 208.4,178.7 209.5,178.4 210.6,178.3 211.7,178.1 212.9,177.9 214.0,177.8 215.1,177.6 216.2,177.3 217.3,177.1 218.4,176.9 219.5,176.8 220.6,176.6 221.8,176.4 222.9,176.1 224.0,176.0 70.0,188.8 70.0,221.2 71.1,219.0 72.2,219.2 73.3,219.3 74.5,219.3 75.6,219.4 76.7,219.6 77.8,219.6 78.9,219.7 80.0,219.8 81.1,219.8 82.2,219.8 83.4,219.9 84.5,219.9 85.6,220.0 86.7,220.0 87.8,220.0 88.9,220.1 90.0,220.2 91.1,220.2 92.3,220.2 93.4,220.3 94.5,220.3 95.6,220.3 96.7,220.5 97.8,220.4 98.9,220.5 100.0,220.5 101.2,220.1 102.3,218.9 103.4,217.5 104.5,216.4 105.6,215.1 106.7,213.8 107.8,212.7 108.9,211.6 110.1,210.7 111.2,210.0 112.3,209.1 113.4,208.4 114.5,207.5 115.6,206.9 116.7,206.1 117.8,205.5 119.0,204.8 120.1,204.2 121.2,203.7 122.3,203.1 123.4,202.5 124.5,202.0 125.8,201.0 127.0,199.9 128.1,199.0 129.2,198.0 130.3,197.1 131.4,196.2 132.5,195.3 133.6,194.4 134.8,193.5 135.9,192.7 137.0,191.9 138.1,191.0 139.2,190.3 140.3,189.5 141.4,188.7 142.5,188.0 143.7,187.3 144.8,186.6 145.9,185.8 147.0,185.1 148.1,184.4 149.2,183.8 150.3,183.1 151.4,182.3 152.6,181.7 153.7,181.1 154.8,180.5 155.9,179.9 157.0,179.3 158.1,178.7 159.2,178.1 160.3,177.7 161.5,177.0 162.6,176.5 163.7,175.9 70.0,192.6 70.0,218.8 71.1,218.9 72.2,219.0 73.3,218.9 74.5,219.0 75.6,219.1 76.7,219.2 77.8,219.1 78.9,219.1 80.0,219.2 81.1,219.2 82.2,219.3 83.4,219.3 84.5,219.3 85.6,219.4 86.7,219.4 87.8,219.4 88.9,219.5 90.0,219.5 91.1,219.5 92.3,219.6 93.4,219.5 94.5,219.6 95.6,219.6 96.7,219.7 97.8,219.7 98.9,219.6 100.0,219.7 101.2,219.2 102.3,218.3 103.4,217.2 104.5,216.2 105.6,215.5 106.7,214.8 107.8,214.1 108.9,213.4 110.1,212.7 111.2,212.1 112.3,211.5 113.4,211.1 114.5,210.5 115.6,210.1 116.7,209.6 117.8,209.1 119.0,208.7 120.1,208.4 121.2,207.9 122.3,207.5 123.4,207.2 124.5,206.9 125.8,206.2 127.0,205.7 128.1,204.9 129.2,204.5 130.3,203.9 131.4,203.3 132.5,202.8 133.6,202.3 134.8,201.8 135.9,201.3 137.0,201.0 138.1,200.5 139.2,200.1 140.3,199.6 141.4,199.2 142.5,198.9 143.7,198.5 144.8,198.3 145.9,197.9 147.0,197.6 148.1,197.2 149.2,196.9 150.3,196.6 151.4,196.3 152.6,195.9 153.7,195.8 154.8,195.4 155.9,195.2 157.0,195.0 158.1,194.8 159.2,194.5 160.3,194.3 161.5,194.0 162.6,193.8 163.7,193.6 164.8,193.4 165.9,193.1 167.0,192.9 168.1,192.7 169.2,192.5 170.4,192.4 171.5,192.1 172.6,191.8 173.7,191.7 174.8,191.4 175.9,191.2 177.0,191.0 178.1,190.9 179.3,190.7 180.4,190.5 181.7,190.3 182.8,190.1 183.9,189.9 185.0,189.7 186.2,189.6 187.3,189.3 188.4,189.0 189.5,189.0 190.6,188.7 191.7,188.4 192.8,188.4 193.9,188.1 195.1,187.8 196.2,187.8 197.3,187.6 198.4,187.3 199.5,187.1 200.6,187.0 201.7,186.7 202.8,186.5 204.0,186.3 205.1,186.1 206.2,185.9 207.3,185.7 208.4,185.5 209.5,185.4 210.6,185.3 211.7,185.0 212.9,184.8 214.0,184.6 215.1,184.4 216.2,184.2 217.3,184.1 218.4,183.8 219.5,183.6 220.6,183.5 221.8,183.3 222.9,183.1 224.0,182.8 225.1,182.7 226.2,182.4 227.3,182.3 228.4,182.1 229.5,181.9 230.7,181.8 231.8,181.6 232.9,181.3 234.0,181.1 235.1,180.9 236.2,180.8 237.5,180.6 238.7,180.4 239.8,180.2 240.9,180.0 242.0,179.8 243.1,179.6 244.2,179.4 245.3,179.3 246.5,179.1 247.6,178.8 248.7,178.7 249.8,178.5 250.9,178.3 252.0,178.2 253.1,177.9 254.2,177.8 255.4,177.5 256.5,177.4 257.6,177.1 258.7,177.0 259.8,176.7 260.9,176.5 262.0,176.4 263.1,176.2 264.3,176.0 265.4,175.8 266.5,175.6 267.6,175.4 268.7,175.3 269.8,175.1 270.9,174.9 272.0,174.7 273.2,174.4 274.3,174.4 275.4,174.1 276.5,173.9 277.6,173.7 278.7,173.6 279.8,173.4 280.9,173.1 282.1,173.0 283.2,172.8 284.3,172.5 285.4,172.4 286.5,172.2 287.6,172.0 288.7,171.8 289.8,171.6 291.0,171.4 292.1,171.3 293.4,171.1 294.5,170.9 295.6,170.7 296.7,170.4 297.8,170.3 299.0,170.1 300.1,169.9 301.2,169.8 302.3,169.6 303.4,169.4 304.5,169.2 305.6,169.1 306.8,168.8 307.9,168.6 309.0,168.5 310.1,168.2 311.2,168.1 312.3,167.8 313.4,167.7 314.5,167.5 315.7,167.2 316.8,167.2 317.9,166.9 319.0,166.7 320.1,166.5 321.2,166.3 322.3,166.2 323.4,166.0 324.6,165.8 325.7,165.5 326.8,165.4 327.9,165.3 329.0,165.0 330.1,164.8 331.2,164.7 332.3,164.4 333.5,164.3 334.6,164.1 335.7,163.9 336.8,163.7 337.9,163.5 339.0,163.4 340.1,163.2 341.2,163.0 342.4,162.7 343.5,162.6 344.6,162.4 345.7,162.2 346.8,162.1 347.9,161.9 349.2,161.7 350.4,161.5 351.5,161.3 352.6,161.0 353.7,160.9 354.8,160.7 355.9,160.5 357.0,160.4 358.2,160.2 359.3,160.0 360.4,159.9 361.5,159.6 362.6,159.5 363.7,159.3 364.8,159.1 365.9,158.9 367.1,158.6 368.2,158.5 369.3,158.3 370.4,158.1 371.5,157.9 372.6,157.8 373.7,157.6 374.8,157.4 376.0,157.2 377.1,157.0 378.2,156.9 379.3,156.6 380.4,156.5 381.5,156.3 382.6,156.1 383.7,155.9 384.9,155.7 386.0,155.5 387.1,155.3 388.2,155.2 389.3,155.0 390.4,154.8 391.5,154.6 392.6,154.3 393.8,154.2 394.9,154.0 396.0,153.9 397.1,153.7 398.2,153.4 399.3,153.2 400.4,153.1 401.5,152.9 402.7,152.8 403.8,152.5 405.1,152.4 406.2,152.2 407.3,151.9 408.4,151.8 409.5,151.6 410.7,151.5 411.8,151.3 412.9,151.1 414.0,150.9 415.1,150.7 416.2,150.6 417.3,150.4 418.5,150.2 419.6,150.0 420.7,149.8 421.8,149.6 422.9,149.4 424.0,149.2 425.1,149.0 426.2,148.9 427.4,148.7 428.5,148.4 429.6,148.3 430.7,148.2 431.8,147.9 432.9,147.8 434.0,147.6 435.1,147.4 436.3,147.2 437.4,147.0 438.5,146.8 439.6,146.6 440.7,146.4 441.8,146.3 442.9,146.1 444.0,145.9 445.2,145.7 446.3,145.5 447.4,145.4 448.5,145.1 449.6,145.1 450.7,144.9 451.8,144.7 452.9,144.5 454.1,144.3 455.2,144.1 456.3,143.9 457.4,143.8 458.5,143.5 459.6,143.3 460.9,143.1 462.1,143.0 463.2,142.8 464.3,142.6 465.4,142.4 466.5,142.2 467.6,142.1 468.7,141.9 469.8,141.8 471.0,141.5 472.1,141.4 473.2,141.2 474.3,141.0 475.4,140.8 476.5,140.6 477.6,140.5 478.8,140.3 479.9,140.1 481.0,139.9 482.1,139.7 483.2,139.5 484.3,139.3 485.4,139.2 486.5,139.0 487.7,138.7 488.8,138.7 489.9,138.5 491.0,138.3 492.1,138.0 493.2,137.9 494.3,137.7 495.4,137.6 496.6,137.4 497.7,137.1 498.8,137.0 499.9,136.8 501.0,136.6 502.1,136.5 503.2,136.3 504.3,136.0 505.5,135.8 506.6,135.7 507.7,135.6 508.8,135.3 509.9,135.1 511.0,135.0 512.1,134.8 513.2,134.6 514.4,134.4 515.5,134.3 516.8,134.1 517.9,133.9 519.0,133.8 520.1,133.5 521.2,133.3 522.4,133.2 523.5,133.0 524.6,132.8 525.7,132.7 526.8,132.5 527.9,132.3 529.0,132.1 530.2,131.9 531.3,131.7 532.4,131.5 533.5,131.4 534.6,131.2 535.7,131.0 536.8,130.9 537.9,130.6 539.1,130.4 540.2,130.2 541.3,130.1 542.4,129.9 543.5,129.7 544.6,129.6 545.7,129.4 546.8,129.2 548.0,129.1 549.1,128.8 550.2,128.6 551.3,128.5 552.4,128.3 553.5,128.2 554.6,127.9 555.7,127.8 556.9,127.6 558.0,127.4 559.1,127.2 560.2,127.1 561.3,126.8 562.4,126.7 563.5,126.5 564.6,126.3 565.8,126.1 566.9,126.0 568.0,125.7 569.1,125.7 570.2,125.4 571.3,125.3 572.6,125.2 573.8,125.0 574.9,124.7 576.0,124.5 577.1,124.4 578.2,124.1 579.3,124.1 580.4,123.8 581.5,123.7 582.7,123.5 583.8,123.3 584.9,123.2 586.0,123.0 587.1,122.8 588.2,122.6 589.3,122.5 590.5,122.3 591.6,122.0 592.7,121.9 593.8,121.7 594.9,121.5 596.0,121.3 597.1,121.1 598.2,121.0 599.4,120.9 600.5,120.6 601.6,120.4 602.7,120.2 603.8,120.1 604.9,120.0 606.0,119.8 607.1,119.6 608.3,119.5 609.4,119.2 610.5,119.0 611.6,118.8 612.7,118.6 613.8,118.6 614.9,118.3 616.0,118.1 617.2,118.0 618.3,117.7 619.4,117.7 620.5,117.5 621.6,117.2 622.7,117.1 623.8,116.9 624.9,116.7 626.1,116.6 627.2,116.4 628.5,116.2 629.6,116.0 630.7,115.9 631.8,115.6 632.9,115.5 634.1,115.3 635.2,115.1 636.3,115.0 637.4,114.8 638.5,114.6 639.6,114.5 640.7,114.3 641.8,114.1 643.0,113.9 644.1,113.7 645.2,113.6 646.3,113.4 647.4,113.3 648.5,113.1 649.6,112.9 650.8,112.8 651.9,112.5 653.0,112.4 654.1,112.1 655.2,112.0 656.3,111.9 657.4,111.7 658.5,111.4 659.7,111.3 660.8,111.1 661.9,110.9 663.0,110.7 664.1,110.6 665.2,110.4 666.3,110.2 667.4,110.0 668.6,110.0 669.7,109.7 670.8,109.6 671.9,109.3 673.0,109.2 674.1,109.1 675.2,108.8 676.3,108.6 677.5,108.5 678.6,108.4 679.7,108.1 680.8,108.0 681.9,107.7 683.0,107.6 684.3,107.4 685.5,107.3 686.6,107.0 687.7,107.0 688.8,106.8 689.9,106.5 691.0,106.4 692.1,106.2 693.2,106.0 694.4,105.8 695.5,105.7 696.6,105.5 697.7,105.3 698.8,105.2 699.9,105.0 701.0,104.8 702.2,104.7 703.3,104.4 704.4,104.3 705.5,104.2 706.6,103.9 707.7,103.8 708.8,103.6 709.9,103.4 711.1,103.3 712.2,103.2 713.3,102.9 714.4,102.7 715.5,102.6 716.6,102.5 717.7,102.3 718.8,102.1 720.0,101.9 721.1,101.7 722.2,101.6 723.3,101.4 724.4,101.2 725.5,101.1 726.6,100.8 727.7,100.6 728.9,100.5 730.0,100.3 731.1,100.1 732.2,100.0 733.3,99.8 734.4,99.7 735.5,99.4 736.6,99.3 737.8,99.0 738.9,99.0 740.2,98.8 741.3,98.6 742.4,98.5 743.5,98.3 744.6,98.1 745.8,97.9 746.9,97.7 748.0,97.5 749.1,97.4 750.2,97.3 751.3,97.0 752.4,96.8 753.5,96.8 754.7,96.6 755.8,96.4 756.9,96.2 758.0,96.1 759.1,95.8 760.2,95.7 761.3,95.5 762.5,95.4 763.6,95.1 764.7,95.0 765.8,94.8 766.9,94.6 768.0,94.4 769.1,94.3 770.2,94.1 771.4,94.0 772.5,93.8 773.6,93.6 774.7,93.5 775.8,93.3 776.9,93.1 778.0,92.9 779.1,92.7 780.3,92.6 781.4,92.4 782.5,92.3 783.6,92.0 784.7,91.9 785.8,91.8 786.9,91.5 788.0,91.3 789.2,91.1 790.3,91.1 791.4,90.8 792.5,90.7 793.6,90.5 794.7,90.4 796.0,90.3 797.2,90.0 798.3,89.9 799.4,89.7 800.5,89.5 801.6,89.4 802.7,89.1 803.8,89.0 804.9,88.8 806.1,88.6 807.2,88.5 808.3,88.3 809.4,88.2 810.5,88.0 811.6,87.8 812.7,87.6 813.8,87.5 815.0,87.3 816.1,87.1 817.2,87.0 818.3,86.7 819.4,86.7 820.5,86.4 821.6,86.3 822.8,86.1 823.9,86.0 825.0,85.8 826.1,85.6 827.2,85.4 828.3,85.2 829.4,85.1 830.5,85.0 831.7,84.8 832.8,84.6 833.9,84.5 835.0,84.3 836.1,84.1 837.2,83.9 838.3,83.7 839.4,83.6 840.6,83.4 841.7,83.3 842.8,83.1 843.9,83.0 845.0,82.7 846.1,82.6 847.2,82.4 848.3,82.2 849.5,82.1 850.6,81.9 851.9,81.7 853.0,81.5 854.1,81.4 855.2,81.2 856.3,81.0 857.5,80.9 858.6,80.7 859.7,80.6 860.8,80.4 861.9,80.2 863.0,80.1 864.1,79.9 865.2,79.8 866.4,79.5 867.5,79.4 868.6,79.3 869.7,79.1 870.8,78.9 871.9,78.7 873.0,78.5 874.2,78.4 875.3,78.2 876.4,78.0 877.5,77.9 878.6,77.7 879.7,77.5 880.8,77.3 881.9,77.2 883.1,77.0 884.2,76.8 885.3,76.7 886.4,76.5 887.5,76.4 888.6,76.1 889.7,76.0 890.8,75.9 892.0,75.7 893.1,75.5 894.2,75.4 895.3,75.1 896.4,75.0 897.5,74.8 898.6,74.6 899.7,74.5 900.9,74.3 902.0,74.1 903.1,74.0 904.2,73.8 905.3,73.6 906.4,73.5 907.7,73.4 908.9,73.1 910.0,73.0 911.1,72.8 912.2,72.7 913.3,72.5 914.4,72.3 915.5,72.2 916.6,72.0 917.8,71.9 918.9,71.6 920.0,71.5 921.1,71.4 922.2,71.2 923.3,71.0 924.4,70.9 925.5,70.7 926.7,70.5 927.8,70.3 928.9,70.2 930.0,70.0 70.0,84.9 70.0,218.8 71.1,218.8 72.2,219.0 73.3,219.0 74.5,219.0 75.6,219.1 76.7,219.2 77.8,219.2 78.9,219.2 80.0,219.2 81.1,219.3 82.2,219.3 83.4,219.3 84.5,219.4 85.6,219.4 86.7,219.4 87.8,219.5 88.9,219.4 90.0,219.5 91.1,219.6 92.3,219.5 93.4,219.5 94.5,219.6 95.6,219.5 96.7,219.6 97.8,219.7 98.9,219.6 100.0,219.7 101.2,219.2 102.3,218.3 103.4,217.3 104.5,216.5 105.6,215.7 106.7,215.2 107.8,214.5 108.9,214.1 110.1,213.7 111.2,213.3 112.3,213.1 113.4,213.0 114.5,212.6 115.6,212.6 116.7,212.5 117.8,212.6 119.0,212.7 120.1,212.8 121.2,213.0 122.3,213.1 123.4,213.4 124.5,213.6 125.8,213.8 127.0,214.1 128.1,214.4 129.2,214.8 130.3,215.1 131.4,215.6 132.5,216.0 133.6,216.5 134.8,216.8 135.9,216.9 137.0,217.0 138.1,217.1 139.2,217.2 140.3,217.4 141.4,217.6 142.5,217.7 143.7,217.7 144.8,217.7 145.9,217.8 147.0,217.9 148.1,218.0 149.2,218.0 150.3,218.0 151.4,218.1 152.6,218.2 153.7,218.3 154.8,218.2 155.9,218.2 157.0,218.3 158.1,218.4 159.2,218.4 160.3,218.4 161.5,218.5 162.6,218.4 163.7,218.4 164.8,218.6 165.9,218.5 167.0,218.5 168.1,218.6 169.2,218.6 170.4,218.7 171.5,218.6 172.6,218.6 173.7,218.7 174.8,218.3 175.9,217.8 177.0,217.4 178.1,216.8 179.3,216.3 180.4,215.7 181.7,215.1 182.8,214.4 183.9,213.7 185.0,213.0 186.2,212.3 187.3,211.5 188.4,210.7 189.5,209.9 190.6,209.1 191.7,208.5 192.8,207.7 193.9,207.0 195.1,206.1 196.2,205.4 197.3,204.7 198.4,204.0 199.5,203.4 200.6,202.7 201.7,202.1 202.8,201.5 204.0,200.9 205.1,200.3 206.2,199.9 207.3,199.4 208.4,199.0 209.5,198.7 210.6,198.3 211.7,198.0 212.9,197.7 214.0,197.6 215.1,197.3 216.2,197.2 217.3,197.2 218.4,197.2 219.5,197.1 220.6,197.2 221.8,197.4 222.9,197.6 224.0,197.8 225.1,197.9 226.2,198.3 227.3,198.6 228.4,199.0 229.5,199.4 230.7,199.9 231.8,200.3 232.9,200.9 234.0,201.4 235.1,202.0 236.2,202.5 237.5,203.2 238.7,203.8 239.8,204.4 70.0,206.8 70.0,218.8 71.1,218.9 72.2,218.9 73.3,218.9 74.5,219.1 75.6,219.1 76.7,219.1 77.8,219.1 78.9,219.3 80.0,219.2 81.1,219.3 82.2,219.3 83.4,219.3 84.5,219.1 85.6,218.9 86.7,218.9 87.8,218.6 88.9,218.6 90.0,218.5 91.1,218.4 92.3,218.4 93.4,218.2 94.5,218.2 95.6,218.2 96.7,218.1 97.8,218.0 98.9,208.9 100.0,207.9 101.2,207.0 102.3,206.2 103.4,205.5 104.5,204.9 105.6,204.2 106.7,203.7 107.8,203.1 108.9,202.6 110.1,202.0 111.2,201.6 112.3,201.2 113.4,200.7 114.5,200.4 115.6,199.9 116.7,199.6 117.8,199.2 119.0,198.9 120.1,198.6 121.2,198.4 122.3,198.1 123.4,197.7 124.5,197.4 125.8,197.2" fill="none" stroke="red" stroke-width="2.5" opacity="0.8"/>
<polyline points="70.0,407.2 71.1,429.8 72.2,430.0 73.3,429.7 74.5,429.8 75.6,429.5 76.7,346.1 77.8,214.6 78.9,138.9 80.0,93.4 81.1,70.8 82.2,70.9 83.4,71.4 84.5,71.8 85.6,71.5 86.7,72.0 87.8,72.7 88.9,72.8 90.0,72.7 91.1,72.6 92.3,73.5 93.4,73.1 94.5,73.6 95.6,73.4 96.7,74.2 97.8,73.8 98.9,73.9 100.0,73.9 101.2,74.3 102.3,74.1 103.4,74.9 104.5,74.3 105.6,75.1 106.7,75.0 107.8,75.3 108.9,75.5 110.1,75.3 111.2,75.4 112.3,75.6 113.4,75.6 114.5,75.2 115.6,75.9 116.7,75.5 117.8,75.9 119.0,76.2 120.1,75.6 121.2,76.1 122.3,76.0 123.4,75.9 124.5,76.0 125.8,76.0 127.0,76.2 128.1,76.8 129.2,76.4 130.3,76.3 131.4,76.7 132.5,76.6 133.6,76.7 134.8,77.2 135.9,77.1 137.0,77.1 138.1,77.3 139.2,77.2 140.3,77.8 141.4,77.2 142.5,77.3 143.7,77.9 144.8,77.8 145.9,77.8 147.0,77.4 148.1,77.6 149.2,78.2 150.3,78.4 151.4,78.2 152.6,78.3 153.7,78.1 154.8,78.5 155.9,78.3 157.0,78.1 158.1,78.4 159.2,79.0 160.3,78.5 161.5,79.1 162.6,79.3 163.7,79.3 164.8,78.7 165.9,79.4 167.0,79.2 168.1,79.2 169.2,79.2 170.4,79.9 171.5,80.0 172.6,79.7 173.7,79.6 174.8,80.2 175.9,79.9 177.0,79.8 178.1,80.4 179.3,80.0 180.4,80.5 181.7,80.7 182.8,79.9 183.9,80.4 185.0,80.6 186.2,80.8 187.3,80.5 188.4,80.9 189.5,80.4 190.6,81.3 191.7,80.7 192.8,80.9 193.9,81.2 195.1,81.3 196.2,81.1 197.3,80.9 198.4,81.8 199.5,81.7 200.6,81.8 201.7,82.0 202.8,81.7 204.0,82.1 205.1,82.0 206.2,81.8 207.3,81.8 208.4,82.0 209.5,81.7 210.6,82.6 211.7,82.4 212.9,82.4 214.0,82.7 215.1,82.2 216.2,82.9 217.3,83.1 218.4,82.6 219.5,82.4 220.6,82.8 221.8,83.4 222.9,82.7 224.0,83.2 70.0,429.5 70.0,429.5 71.1,429.4 72.2,429.3 73.3,429.6 74.5,429.6 75.6,429.2 76.7,429.5 77.8,429.2 78.9,429.3 80.0,429.4 81.1,429.4 82.2,429.2 83.4,429.5 84.5,429.7 85.6,429.4 86.7,429.7 87.8,429.3 88.9,429.8 90.0,429.4 91.1,429.8 92.3,429.8 93.4,429.8 94.5,429.5 95.6,429.9 96.7,429.8 97.8,430.0 98.9,429.2 100.0,429.4 101.2,411.2 102.3,377.1 103.4,345.3 104.5,324.2 105.6,304.6 106.7,285.5 107.8,267.8 108.9,257.5 110.1,246.8 111.2,241.8 112.3,231.6 113.4,227.6 114.5,218.1 115.6,213.7 116.7,209.7 117.8,205.8 119.0,201.1 120.1,197.6 121.2,197.5 122.3,193.8 123.4,190.0 124.5,190.4 125.8,174.7 127.0,160.6 128.1,151.1 129.2,142.1 130.3,136.9 131.4,128.7 132.5,123.5 133.6,119.0 134.8,114.4 135.9,109.6 137.0,105.6 138.1,101.3 139.2,99.4 140.3,95.9 141.4,94.4 142.5,92.4 143.7,90.5 144.8,89.8 145.9,87.8 147.0,86.5 148.1,84.9 149.2,83.3 150.3,82.3 151.4,80.9 152.6,80.3 153.7,81.2 154.8,81.3 155.9,81.9 157.0,82.0 158.1,82.0 159.2,82.5 160.3,82.5 161.5,83.0 162.6,82.7 163.7,83.5 70.0,429.8 70.0,429.7 71.1,429.9 72.2,429.2 73.3,430.0 74.5,429.3 75.6,429.9 76.7,429.4 77.8,429.6 78.9,429.5 80.0,429.7 81.1,429.8 82.2,429.6 83.4,429.2 84.5,430.0 85.6,429.2 86.7,429.2 87.8,429.2 88.9,429.5 90.0,429.2 91.1,429.2 92.3,429.3 93.4,429.3 94.5,429.5 95.6,429.4 96.7,429.8 97.8,429.9 98.9,429.2 100.0,429.6 101.2,412.1 102.3,377.4 103.4,346.2 104.5,317.5 105.6,297.9 106.7,284.8 107.8,267.4 108.9,256.4 110.1,246.0 111.2,240.6 112.3,230.4 113.4,226.2 114.5,216.6 115.6,212.2 116.7,208.1 117.8,203.8 119.0,199.0 120.1,199.2 121.2,195.6 122.3,191.2 123.4,191.5 124.5,187.3 125.8,172.5 127.0,161.3 128.1,148.1 129.2,142.2 130.3,133.3 131.4,124.9 132.5,120.1 133.6,114.9 134.8,110.4 135.9,106.3 137.0,101.4 138.1,99.8 139.2,95.1 140.3,93.3 141.4,89.8 142.5,88.4 143.7,85.9 144.8,84.7 145.9,82.7 147.0,81.0 148.1,80.0 149.2,78.3 150.3,78.1 151.4,76.9 152.6,75.2 153.7,75.0 154.8,75.8 155.9,75.6 157.0,75.8 158.1,76.1 159.2,75.5 160.3,75.6 161.5,75.9 162.6,76.2 163.7,76.6 164.8,76.4 165.9,76.5 167.0,76.3 168.1,76.8 169.2,76.7 170.4,76.3 171.5,76.4 172.6,76.9 173.7,76.5 174.8,76.6 175.9,76.9 177.0,77.4 178.1,77.3 179.3,77.0 180.4,77.3 181.7,77.4 182.8,77.9 183.9,77.5 185.0,78.0 186.2,78.2 187.3,78.2 188.4,78.4 189.5,78.3 190.6,78.4 191.7,78.1 192.8,78.6 193.9,77.9 195.1,78.7 196.2,78.1 197.3,78.3 198.4,78.2 199.5,78.6 200.6,79.1 201.7,79.3 202.8,79.1 204.0,79.5 205.1,78.8 206.2,78.7 207.3,79.6 208.4,79.2 209.5,79.7 210.6,79.5 211.7,79.6 212.9,79.4 214.0,79.3 215.1,80.1 216.2,79.8 217.3,79.6 218.4,80.3 219.5,80.0 220.6,80.2 221.8,80.7 222.9,80.8 224.0,80.2 225.1,80.7 226.2,80.6 227.3,80.3 228.4,81.0 229.5,80.8 230.7,81.1 231.8,80.9 232.9,81.2 234.0,81.0 235.1,81.5 236.2,80.9 237.5,81.1 238.7,81.5 239.8,81.8 240.9,81.8 242.0,81.6 243.1,81.4 244.2,81.7 245.3,82.2 246.5,81.7 247.6,82.1 248.7,82.0 249.8,82.4 250.9,82.1 252.0,82.1 253.1,82.7 254.2,82.5 255.4,82.3 256.5,82.2 257.6,83.0 258.7,82.9 259.8,82.9 260.9,83.1 262.0,83.1 263.1,83.4 264.3,83.0 265.4,83.6 266.5,83.7 267.6,83.6 268.7,83.3 269.8,83.2 270.9,83.7 272.0,83.7 273.2,84.0 274.3,84.1 275.4,83.4 276.5,83.5 277.6,84.3 278.7,84.1 279.8,83.7 280.9,84.5 282.1,83.9 283.2,84.6 284.3,84.3 285.4,84.4 286.5,84.4 287.6,84.7 288.7,84.7 289.8,85.0 291.0,84.8 292.1,85.0 293.4,84.7 294.5,85.1 295.6,85.4 296.7,85.6 297.8,85.8 299.0,85.4 300.1,85.3 301.2,85.3 302.3,85.5 303.4,85.6 304.5,86.0 305.6,86.0 306.8,86.2 307.9,86.2 309.0,86.0 310.1,86.5 311.2,86.2 312.3,86.7 313.4,86.3 314.5,86.1 315.7,87.0 316.8,87.0 317.9,86.9 319.0,86.7 320.1,86.4 321.2,86.6 322.3,86.9 323.4,86.8 324.6,87.6 325.7,87.1 326.8,87.7 327.9,87.5 329.0,87.1 330.1,88.0 331.2,87.2 332.3,87.6 333.5,87.5 334.6,87.5 335.7,88.3 336.8,88.1 337.9,88.4 339.0,87.9 340.1,87.8 341.2,88.6 342.4,88.8 343.5,88.5 344.6,88.2 345.7,88.9 346.8,88.3 347.9,89.1 349.2,89.1 350.4,89.2 351.5,89.2 352.6,89.4 353.7,88.7 354.8,89.5 355.9,89.5 357.0,89.3 358.2,89.2 359.3,89.9 360.4,89.9 361.5,89.8 362.6,90.0 363.7,90.0 364.8,89.7 365.9,89.6 367.1,90.4 368.2,89.7 369.3,90.0 370.4,89.8 371.5,89.9 372.6,90.5 373.7,90.4 374.8,90.6 376.0,90.8 377.1,90.7 378.2,90.4 379.3,90.7 380.4,90.7 381.5,90.9 382.6,90.7 383.7,90.9 384.9,91.5 386.0,91.2 387.1,90.9 388.2,91.3 389.3,91.4 390.4,91.8 391.5,91.3 392.6,92.0 393.8,91.6 394.9,92.1 396.0,92.3 397.1,91.7 398.2,91.8 399.3,92.3 400.4,92.1 401.5,92.2 402.7,92.6 403.8,92.5 405.1,92.5 406.2,92.5 407.3,92.4 408.4,92.8 409.5,92.3 410.7,93.1 411.8,93.0 412.9,92.8 414.0,93.3 415.1,93.4 416.2,93.3 417.3,93.6 418.5,93.5 419.6,93.6 420.7,93.4 421.8,93.2 422.9,93.8 424.0,94.2 425.1,94.2 426.2,93.9 427.4,94.2 428.5,94.2 429.6,94.1 430.7,93.8 431.8,94.4 432.9,94.6 434.0,94.4 435.1,94.3 436.3,94.6 437.4,94.9 438.5,95.0 439.6,94.8 440.7,94.7 441.8,95.2 442.9,95.0 444.0,95.4 445.2,94.8 446.3,95.2 447.4,94.9 448.5,95.4 449.6,95.5 450.7,95.6 451.8,95.8 452.9,95.7 454.1,95.8 455.2,95.8 456.3,96.2 457.4,95.6 458.5,95.6 459.6,96.0 460.9,96.5 462.1,96.5 463.2,96.5 464.3,96.4 465.4,96.4 466.5,96.9 467.6,96.3 468.7,96.2 469.8,96.5 471.0,96.4 472.1,96.8 473.2,97.1 474.3,96.8 475.4,97.5 476.5,97.3 477.6,97.3 478.8,97.6 479.9,97.0 481.0,97.3 482.1,97.1 483.2,97.6 484.3,97.4 485.4,97.7 486.5,98.0 487.7,98.3 488.8,98.1 489.9,98.4 491.0,97.6 492.1,98.5 493.2,98.6 494.3,98.1 495.4,98.8 496.6,98.2 497.7,98.3 498.8,98.9 499.9,98.9 501.0,98.6 502.1,99.2 503.2,98.5 504.3,98.6 505.5,99.4 506.6,99.5 507.7,99.4 508.8,98.8 509.9,99.3 511.0,99.0 512.1,99.2 513.2,99.5 514.4,99.5 515.5,99.8 516.8,99.9 517.9,99.9 519.0,99.5 520.1,99.7 521.2,100.3 522.4,100.3 523.5,100.0 524.6,100.0 525.7,100.2 526.8,100.8 527.9,100.5 529.0,100.3 530.2,100.6 531.3,100.7 532.4,101.0 533.5,100.6 534.6,101.0 535.7,101.1 536.8,100.8 537.9,101.5 539.1,101.5 540.2,101.5 541.3,101.6 542.4,101.6 543.5,101.8 544.6,101.2 545.7,101.9 546.8,101.2 548.0,102.0 549.1,101.9 550.2,101.6 551.3,102.0 552.4,102.2 553.5,101.9 554.6,102.0 555.7,102.3 556.9,102.2 558.0,102.1 559.1,102.1 560.2,102.4 561.3,102.3 562.4,102.9 563.5,102.3 564.6,102.7 565.8,103.0 566.9,103.0 568.0,103.1 569.1,102.8 570.2,103.2 571.3,103.1 572.6,103.6 573.8,103.0 574.9,103.3 576.0,103.1 577.1,103.5 578.2,103.3 579.3,103.8 580.4,103.6 581.5,104.3 582.7,103.7 583.8,103.6 584.9,103.9 586.0,104.3 587.1,104.5 588.2,104.2 589.3,104.2 590.5,104.5 591.6,104.7 592.7,104.9 593.8,104.8 594.9,104.9 596.0,105.2 597.1,104.8 598.2,104.6 599.4,105.2 600.5,104.8 601.6,105.3 602.7,105.0 603.8,105.1 604.9,105.3 606.0,105.7 607.1,105.9 608.3,105.3 609.4,105.9 610.5,106.1 611.6,105.7 612.7,105.9 613.8,105.9 614.9,105.9 616.0,105.8 617.2,106.2 618.3,106.4 619.4,106.2 620.5,106.6 621.6,106.2 622.7,106.8 623.8,106.4 624.9,106.5 626.1,106.8 627.2,106.5 628.5,107.2 629.6,107.2 630.7,107.3 631.8,107.4 632.9,107.2 634.1,106.8 635.2,106.8 636.3,107.1 637.4,107.5 638.5,107.3 639.6,107.7 640.7,107.9 641.8,108.0 643.0,107.9 644.1,107.8 645.2,107.5 646.3,108.4 647.4,107.7 648.5,108.1 649.6,108.1 650.8,108.6 651.9,108.5 653.0,108.2 654.1,108.3 655.2,108.5 656.3,108.3 657.4,108.9 658.5,108.9 659.7,108.8 660.8,109.0 661.9,108.6 663.0,108.7 664.1,109.3 665.2,109.5 666.3,109.0 667.4,108.9 668.6,109.0 669.7,109.1 670.8,109.8 671.9,109.6 673.0,109.2 674.1,109.8 675.2,109.4 676.3,110.0 677.5,109.6 678.6,110.0 679.7,109.8 680.8,110.4 681.9,110.4 683.0,109.8 684.3,110.4 685.5,110.7 686.6,110.6 687.7,110.4 688.8,110.8 689.9,111.0 691.0,111.0 692.1,110.6 693.2,110.4 694.4,111.3 695.5,110.9 696.6,111.1 697.7,111.5 698.8,111.1 699.9,111.3 701.0,111.6 702.2,111.4 703.3,111.3 704.4,111.3 705.5,111.8 706.6,111.3 707.7,111.4 708.8,111.8 709.9,111.8 711.1,111.6 712.2,112.0 713.3,112.4 714.4,111.9 715.5,112.6 716.6,112.0 717.7,112.4 718.8,112.7 720.0,112.9 721.1,112.4 722.2,112.9 723.3,112.4 724.4,112.9 725.5,112.5 726.6,112.6 727.7,113.3 728.9,113.1 730.0,113.5 731.1,112.9 732.2,113.4 733.3,113.1 734.4,113.8 735.5,113.5 736.6,113.5 737.8,113.6 738.9,113.8 740.2,113.3 741.3,113.5 742.4,113.5 743.5,113.7 744.6,114.4 745.8,114.4 746.9,113.8 748.0,113.8 749.1,114.3 750.2,114.5 751.3,114.3 752.4,114.8 753.5,114.7 754.7,114.6 755.8,114.9 756.9,115.1 758.0,115.0 759.1,115.0 760.2,115.2 761.3,115.3 762.5,115.5 763.6,115.2 764.7,114.9 765.8,115.7 766.9,115.7 768.0,115.7 769.1,115.5 770.2,115.2 771.4,115.9 772.5,115.8 773.6,116.2 774.7,115.9 775.8,116.3 776.9,115.8 778.0,116.0 779.1,116.2 780.3,116.1 781.4,115.9 782.5,116.7 783.6,116.1 784.7,116.5 785.8,116.1 786.9,116.3 788.0,116.7 789.2,116.6 790.3,117.1 791.4,116.6 792.5,116.7 793.6,117.0 794.7,116.9 796.0,116.7 797.2,117.5 798.3,117.2 799.4,117.1 800.5,117.5 801.6,117.8 802.7,117.7 803.8,117.2 804.9,117.5 806.1,117.8 807.2,117.4 808.3,118.3 809.4,117.8 810.5,117.9 811.6,118.4 812.7,118.5 813.8,118.1 815.0,118.1 816.1,118.5 817.2,118.1 818.3,118.4 819.4,118.6 820.5,118.3 821.6,119.1 822.8,118.9 823.9,118.6 825.0,118.5 826.1,118.9 827.2,119.0 828.3,118.7 829.4,119.1 830.5,118.9 831.7,118.9 832.8,119.6 833.9,119.3 835.0,119.8 836.1,119.9 837.2,119.9 838.3,119.4 839.4,119.5 840.6,120.2 841.7,120.2 842.8,120.0 843.9,119.8 845.0,120.4 846.1,120.1 847.2,120.6 848.3,120.0 849.5,120.7 850.6,120.2 851.9,120.0 853.0,120.3 854.1,120.2 855.2,121.0 856.3,120.7 857.5,120.7 858.6,120.6 859.7,120.9 860.8,120.9 861.9,120.7 863.0,121.4 864.1,121.2 865.2,121.1 866.4,121.3 867.5,121.2 868.6,121.9 869.7,121.7 870.8,121.3 871.9,122.0 873.0,121.9 874.2,121.7 875.3,122.2 876.4,122.0 877.5,122.0 878.6,122.4 879.7,122.0 880.8,122.4 881.9,122.0 883.1,122.7 884.2,122.5 885.3,122.9 886.4,122.8 887.5,122.7 888.6,122.3 889.7,122.4 890.8,122.4 892.0,122.9 893.1,123.3 894.2,123.1 895.3,123.2 896.4,122.7 897.5,123.6 898.6,123.1 899.7,122.9 900.9,123.5 902.0,123.5 903.1,124.0 904.2,123.5 905.3,123.8 906.4,124.1 907.7,124.0 908.9,124.1 910.0,123.9 911.1,124.0 912.2,124.4 913.3,123.8 914.4,123.8 915.5,124.1 916.6,124.0 917.8,124.6 918.9,124.9 920.0,124.7 921.1,124.2 922.2,124.4 923.3,125.0 924.4,124.8 925.5,124.7 926.7,125.1 927.8,125.2 928.9,124.8 930.0,124.8 70.0,429.7 70.0,429.6 71.1,429.4 72.2,429.5 73.3,429.7 74.5,429.4 75.6,430.0 76.7,429.8 77.8,429.4 78.9,429.8 80.0,429.2 81.1,429.4 82.2,429.9 83.4,429.5 84.5,429.7 85.6,429.2 86.7,429.9 87.8,429.3 88.9,429.4 90.0,429.3 91.1,429.6 92.3,429.3 93.4,429.6 94.5,429.5 95.6,429.9 96.7,430.0 97.8,429.3 98.9,429.5 100.0,429.9 101.2,411.9 102.3,379.0 103.4,348.5 104.5,322.5 105.6,306.3 106.7,297.6 107.8,284.7 108.9,278.8 110.1,274.4 111.2,275.3 112.3,274.0 113.4,276.6 114.5,277.0 115.6,282.0 116.7,287.3 117.8,292.9 119.0,302.3 120.1,309.3 121.2,317.2 122.3,327.3 123.4,336.3 124.5,344.7 125.8,352.3 127.0,360.2 128.1,369.7 129.2,380.1 130.3,391.6 131.4,403.8 132.5,415.9 133.6,428.6 134.8,428.2 135.9,428.4 137.0,428.3 138.1,428.1 139.2,428.1 140.3,428.3 141.4,428.1 142.5,427.9 143.7,427.8 144.8,428.2 145.9,428.2 147.0,428.3 148.1,428.5 149.2,427.9 150.3,428.3 151.4,428.5 152.6,428.2 153.7,428.2 154.8,428.2 155.9,428.0 157.0,428.4 158.1,428.6 159.2,428.3 160.3,427.7 161.5,427.9 162.6,428.0 163.7,428.1 164.8,428.1 165.9,428.1 167.0,427.8 168.1,428.1 169.2,428.1 170.4,428.6 171.5,428.1 172.6,427.9 173.7,428.0 174.8,414.4 175.9,399.6 177.0,383.7 178.1,367.9 179.3,352.6 180.4,336.5 181.7,320.9 182.8,305.5 183.9,289.0 185.0,274.1 186.2,258.3 187.3,243.8 188.4,228.4 189.5,214.6 190.6,200.4 191.7,186.9 192.8,174.4 193.9,161.6 195.1,150.3 196.2,139.2 197.3,128.9 198.4,119.8 199.5,111.3 200.6,103.1 201.7,96.2 202.8,90.1 204.0,85.9 205.1,80.9 206.2,78.2 207.3,76.0 208.4,74.4 209.5,74.3 210.6,74.8 211.7,76.1 212.9,78.8 214.0,82.0 215.1,87.1 216.2,92.2 217.3,98.5 218.4,105.2 219.5,113.3 220.6,121.7 221.8,132.1 222.9,141.5 224.0,153.1 225.1,164.5 226.2,177.2 227.3,189.6 228.4,203.2 229.5,216.5 230.7,231.2 231.8,245.7 232.9,260.5 234.0,275.8 235.1,291.4 236.2,306.8 237.5,322.5 238.7,337.7 239.8,353.6 70.0,429.9 70.0,429.7 71.1,429.9 72.2,429.8 73.3,429.3 74.5,429.4 75.6,429.9 76.7,429.9 77.8,429.9 78.9,430.0 80.0,429.8 81.1,429.5 82.2,429.9 83.4,430.0 84.5,422.3 85.6,414.9 86.7,409.8 87.8,406.1 88.9,403.7 90.0,401.9 91.1,400.3 92.3,398.6 93.4,397.3 94.5,396.3 95.6,395.2 96.7,394.3 97.8,393.5 98.9,71.8 100.0,70.0 101.2,70.4 102.3,71.4 103.4,70.9 104.5,71.6 105.6,72.0 106.7,71.9 107.8,72.1 108.9,73.0 110.1,72.3 111.2,72.8 112.3,73.4 113.4,72.8 114.5,73.6 115.6,74.0 116.7,74.1 117.8,73.5 119.0,73.8 120.1,74.2 121.2,74.6 122.3,74.1 123.4,74.4 124.5,74.6 125.8,75.0" fill="none" stroke="blue" stroke-width="1.5" stroke-dasharray="5,3"/>
<line x1="70" y1="430" x2="930" y2="430" stroke="#333" stroke-width="2"/>
<line x1="70" y1="70" x2="70" y2="430" stroke="#333" stroke-width="2"/>
<line x1="930" y1="70" x2="930" y2="430" stroke="#333" stroke-width="2"/>
<text x="70.0" y="450" text-anchor="middle" font-family="sans-serif" font-size="12">0s</text>
<text x="242.0" y="450" text-anchor="middle" font-family="sans-serif" font-size="12">31s</text>
<text x="414.0" y="450" text-anchor="middle" font-family="sans-serif" font-size="12">62s</text>
<text x="586.0" y="450" text-anchor="middle" font-family="sans-serif" font-size="12">93s</text>
<text x="758.0" y="450" text-anchor="middle" font-family="sans-serif" font-size="12">124s</text>
<text x="930.0000000000001" y="450" text-anchor="middle" font-family="sans-serif" font-size="12">155s</text>
<g transform="translate(820, 60)">
<rect width="120" height="50" fill="white" fill-opacity="0.9" stroke="#ccc"/>
<line x1="10" y1="15" x2="40" y2="15" stroke="red" stroke-width="3"/>
<text x="45" y="20" font-family="sans-serif" font-size="14">Voltage</text>
<line x1="10" y1="35" x2="40" y2="35" stroke="blue" stroke-width="2" stroke-dasharray="5,3"/>
<text x="45" y="40" font-family="sans-serif" font-size="14">Current</text>
</g>
</svg>