<svg viewBox="0 0 1000 500" xmlns="http://www.w3.org/2000/svg">
<rect width="100%" height="100%" fill="#ffffff"/>
<text x="500.0" y="35" text-anchor="middle" font-family="sans-serif" font-size="22" font-weight="bold">Outgassing Characterization Detail (Zoom): stalled</text>
<line x1="75" y1="425.0" x2="925" y2="425.0" stroke="#eee" stroke-width="1"/>
<text x="65" y="429.0" text-anchor="end" font-family="sans-serif" font-size="12" fill="red">12.00V</text>
<line x1="75" y1="355.0" x2="925" y2="355.0" stroke="#eee" stroke-width="1"/>
<text x="65" y="359.0" text-anchor="end" font-family="sans-serif" font-size="12" fill="red">12.36V</text>
<line x1="75" y1="285.0" x2="925" y2="285.0" stroke="#eee" stroke-width="1"/>
<text x="65" y="289.0" text-anchor="end" font-family="sans-serif" font-size="12" fill="red">12.72V</text>
<line x1="75" y1="215.0" x2="925" y2="215.0" stroke="#eee" stroke-width="1"/>
<text x="65" y="219.0" text-anchor="end" font-family="sans-serif" font-size="12" fill="red">13.08V</text>
<line x1="75" y1="145.0" x2="925" y2="145.0" stroke="#eee" stroke-width="1"/>
<text x="65" y="149.0" text-anchor="end" font-family="sans-serif" font-size="12" fill="red">13.44V</text>
<line x1="75" y1="75.0" x2="925" y2="75.0" stroke="#eee" stroke-width="1"/>
<text x="65" y="79.0" text-anchor="end" font-family="sans-serif" font-size="12" fill="red">13.80V</text>
<text x="935" y="429.0" text-anchor="start" font-family="sans-serif" font-size="12" fill="blue">-0.05A</text>
<text x="935" y="359.0" text-anchor="start" font-family="sans-serif" font-size="12" fill="blue">0.11A</text>
<text x="935" y="289.0" text-anchor="start" font-family="sans-serif" font-size="12" fill="blue">0.27A</text>
<text x="935" y="218.99999999999997" text-anchor="start" font-family="sans-serif" font-size="12" fill="blue">0.43A</text>
<text x="935" y="149.0" text-anchor="start" font-family="sans-serif" font-size="12" fill="blue">0.59A</text>
<text x="935" y="79.00000000000006" text-anchor="start" font-family="sans-serif" font-size="12" fill="blue">0.75A</text>
<polyline points="75.0,425.0 76.6,120.3 78.2,113.8 79.9,111.5 81.5,110.5 83.1,110.2 84.8,109.9 86.4,109.8 88.0,109.8 89.6,109.7 91.3,109.7 92.9,109.7 94.5,109.5 96.2,109.5 97.8,109.6 99.4,109.6 101.0,109.5 102.7,109.4 104.3,109.4 105.9,109.4 107.6,109.4 109.2,109.2 110.8,109.2 112.5,109.1 114.1,109.1 115.7,109.0 117.3,109.0 119.0,109.0 120.6,109.0 122.2,108.8 123.9,108.8 125.5,108.8 127.1,108.7 128.7,108.6 130.4,108.6 132.0,108.6 133.6,108.6 135.2,108.6 136.9,108.5 138.5,108.5 140.2,108.5 141.8,108.3 143.4,108.3 145.0,108.4 146.6,108.2 148.3,108.3 149.9,108.1 151.5,108.2 153.2,108.1 154.8,108.1 156.4,108.0 158.1,108.0 159.7,107.9 161.3,107.8 162.9,107.9 164.6,107.7 166.2,107.6 167.8,107.7 169.5,107.6 171.1,107.6 172.7,107.5 174.3,107.5 176.0,107.4 177.6,107.4 179.2,107.3 180.9,107.4 182.5,107.2 184.1,107.1 185.8,107.1 187.4,107.1 189.0,107.0 190.6,106.9 192.2,107.0 193.9,107.0 195.5,107.0 197.2,106.8 198.8,106.7 200.4,106.8 202.1,106.8 203.7,106.6 205.3,106.7 206.9,106.6 208.5,106.5 210.2,106.5 211.8,106.4 213.4,106.4 215.1,106.3 216.7,106.3 218.3,106.3 220.0,106.1 221.6,106.1 223.2,106.0 224.8,106.1 226.5,106.0 228.1,105.8 229.7,105.8 231.4,105.8 233.0,105.7 234.6,105.7 236.2,105.6 237.9,105.7 239.5,105.6 241.1,105.6 242.8,105.4 244.4,105.4 246.0,105.3 247.7,105.3 249.3,105.3 250.9,105.2 252.5,105.1 254.2,105.1 255.8,105.0 257.4,105.1 259.1,105.1 260.7,104.9 262.3,104.9 263.9,104.8 265.6,104.8 267.2,104.7 268.8,104.8 270.5,104.6 272.1,104.7 273.7,104.6 275.4,104.5 277.0,104.5 278.6,104.3 280.2,104.3 281.8,104.3 283.5,104.2 285.1,104.2 286.7,104.1 288.4,104.2 290.0,104.0 291.6,104.0 293.3,103.9 294.9,103.9 296.5,103.9 298.1,103.7 299.8,103.7 301.4,103.7 303.0,103.6 304.7,103.5 306.3,103.6 307.9,103.5 309.5,103.3 311.2,103.3 312.8,103.3 314.4,103.2 316.1,103.2 317.7,103.2 319.3,103.1 321.0,103.0 322.6,103.0 324.2,103.0 325.8,102.9 327.5,102.8 329.1,102.8 330.7,102.7 332.4,102.7 334.0,102.6 335.6,102.6 337.2,102.5 338.9,102.4 340.5,102.3 342.1,102.3 343.7,102.3 345.4,102.2 347.0,102.2 348.7,102.1 350.3,102.1 351.9,102.0 353.5,102.0 355.1,101.8 356.8,101.9 358.4,101.8 360.0,101.8 361.7,101.8 363.3,101.6 364.9,101.6 366.6,101.4 368.2,101.4 369.8,101.4 371.4,101.3 373.1,101.3 374.7,101.2 376.3,101.1 378.0,101.1 379.6,101.1 381.2,101.0 382.9,100.9 384.5,100.9 386.1,100.8 387.7,100.7 389.4,100.7 391.0,100.6 392.6,100.5 394.3,100.6 395.9,100.5 397.5,100.4 399.1,100.4 400.8,100.3 402.4,100.2 404.0,100.1 405.7,100.2 407.3,100.0 408.9,100.1 410.6,100.0 412.2,99.8 413.8,99.9 415.4,99.7 417.0,99.7 418.7,99.7 420.3,99.6 422.0,99.5 423.6,99.4 425.2,99.3 426.8,99.4 428.5,99.3 430.1,99.2 431.7,99.1 433.3,99.2 435.0,99.0 436.6,99.0 438.2,98.9 439.9,98.9 441.5,98.7 443.1,98.7 444.7,98.6 446.4,98.6 448.0,98.6 449.6,98.5 451.3,98.4 452.9,98.4 454.5,98.3 456.2,98.3 457.8,98.1 459.4,98.1 461.0,98.0 462.7,98.0 464.3,98.0 465.9,97.9 467.6,97.8 469.2,97.8 470.8,97.7 472.4,97.6 474.1,97.5 475.7,97.4 477.3,97.4 479.0,97.3 480.6,97.4 482.2,97.2 483.9,97.2 485.5,97.2 487.1,97.1 488.7,97.1 490.3,97.0 492.0,96.8 493.6,96.8 495.2,96.7 496.9,96.7 498.5,96.6 500.1,96.5 501.8,96.5 503.4,96.4 505.0,96.3 506.6,96.2 508.3,96.3 509.9,96.2 511.5,96.0 513.2,96.0 514.8,96.1 516.4,96.0 518.0,95.9 519.7,95.7 521.3,95.8 522.9,95.7 524.6,95.5 526.2,95.5 527.8,95.4 529.5,95.4 531.1,95.3 532.7,95.2 534.3,95.1 536.0,95.0 537.6,95.0 539.2,94.9 540.9,95.0 542.5,94.8 544.1,94.7 545.8,94.7 547.4,94.5 549.0,94.6 550.6,94.5 552.3,94.4 553.9,94.4 555.5,94.4 557.2,94.3 558.8,94.2 560.4,94.1 562.0,94.1 563.7,93.8 565.3,93.9 566.9,93.8 568.5,93.8 570.2,93.7 571.8,93.7 573.5,93.6 575.1,93.5 576.7,93.3 578.3,93.2 579.9,93.2 581.6,93.2 583.2,93.1 584.8,93.0 586.5,92.9 588.1,92.9 589.7,92.9 591.4,92.8 593.0,92.7 594.6,92.6 596.2,92.5 597.9,92.4 599.5,92.3 601.1,92.2 602.8,92.2 604.4,92.2 606.0,92.1 607.6,91.9 609.3,91.9 610.9,92.0 612.5,91.9 614.2,91.8 615.8,91.6 617.4,91.5 619.1,91.4 620.7,91.4 622.3,91.3 623.9,91.2 625.6,91.3 627.2,91.2 628.8,91.1 630.5,90.9 632.1,90.8 633.7,90.8 635.3,90.8 637.0,90.7 638.6,90.5 640.2,90.5 641.8,90.5 643.5,90.3 645.1,90.3 646.8,90.2 648.4,90.1 650.0,90.0 651.6,90.0 653.2,89.8 654.9,89.8 656.5,89.7 658.1,89.7 659.8,89.7 661.4,89.4 663.0,89.4 664.7,89.4 666.3,89.2 667.9,89.2 669.5,89.2 671.2,89.0 672.8,89.0 674.4,88.9 676.1,88.8 677.7,88.8 679.3,88.7 680.9,88.7 682.6,88.5 684.2,88.5 685.8,88.5 687.5,88.2 689.1,88.1 690.7,88.1 692.4,88.0 694.0,87.9 695.6,87.8 697.2,87.8 698.8,87.7 700.5,87.6 702.1,87.5 703.8,87.4 705.4,87.4 707.0,87.4 708.7,87.2 710.3,87.2 711.9,87.0 713.5,86.9 715.1,86.8 716.8,86.8 718.4,86.7 720.0,86.7 721.7,86.6 723.3,86.4 724.9,86.4 726.6,86.3 728.2,86.3 729.8,86.2 731.4,86.1 733.1,86.0 734.7,86.0 736.3,85.9 738.0,85.8 739.6,85.7 741.2,85.6 742.8,85.5 744.5,85.5 746.1,85.2 747.7,85.2 749.4,85.1 751.0,85.1 752.6,85.1 754.3,84.8 755.9,84.8 757.5,84.6 759.1,84.7 760.8,84.5 762.4,84.5 764.0,84.5 765.7,84.3 767.3,84.3 768.9,84.1 770.5,84.1 772.2,83.9 773.8,83.8 775.4,83.8 777.1,83.8 778.7,83.6 780.3,83.5 782.0,83.4 783.6,83.2 785.2,83.3 786.8,83.2 788.4,83.1 790.1,82.9 791.7,83.0 793.3,82.8 795.0,82.6 796.6,82.7 798.2,82.6 799.9,82.4 801.5,82.4 803.1,82.3 804.7,82.2 806.4,82.1 808.0,82.1 809.6,82.0 811.3,81.9 812.9,81.8 814.5,81.7 816.1,81.6 817.8,81.5 819.4,81.3 821.0,81.3 822.7,81.3 824.3,81.2 825.9,81.0 827.6,81.0 829.2,80.8 830.8,80.7 832.4,80.7 834.1,80.5 835.7,80.3 837.3,80.3 839.0,80.2 840.6,80.2 842.2,80.1 843.8,80.0 845.5,79.9 847.1,79.7 848.7,79.8 850.3,79.5 852.0,79.6 853.6,79.3 855.3,79.3 856.9,79.3 858.5,79.0 860.1,79.0 861.7,79.0 863.4,78.9 865.0,78.7 866.6,78.6 868.3,78.5 869.9,78.4 871.5,78.4 873.2,78.3 874.8,78.1 876.4,78.0 878.0,77.9 879.7,77.9 881.3,77.7 882.9,77.6 884.6,77.5 886.2,77.4 887.8,77.4 889.5,77.2 891.1,77.1 892.7,77.1 894.3,76.9 896.0,76.9 897.6,76.9 899.2,76.6 900.9,76.6 902.5,76.5 904.1,76.3 905.7,76.4 907.4,76.2 909.0,76.1 910.6,75.9 912.3,75.9 913.9,75.8 915.5,75.6 917.2,75.7 918.8,75.4 920.4,75.3 922.0,75.4 923.6,75.1" fill="none" stroke="red" stroke-width="2.5" opacity="0.8"/>
<polyline points="75.0,403.0 76.6,97.4 78.2,76.7 79.9,77.1 81.5,77.6 83.1,77.2 84.8,77.3 86.4,77.2 88.0,78.1 89.6,77.5 91.3,77.3 92.9,77.4 94.5,77.6 96.2,77.9 97.8,77.3 99.4,77.5 101.0,78.0 102.7,78.1 104.3,78.2 105.9,77.4 107.6,78.1 109.2,77.8 110.8,77.9 112.5,78.2 114.1,78.1 115.7,78.2 117.3,77.5 119.0,77.7 120.6,78.0 122.2,78.3 123.9,77.8 125.5,77.7 127.1,78.3 128.7,78.1 130.4,77.7 132.0,78.4 133.6,77.8 135.2,78.3 136.9,78.0 138.5,78.4 140.2,78.5 141.8,77.8 143.4,78.3 145.0,78.1 146.6,77.9 148.3,78.2 149.9,78.5 151.5,78.4 153.2,78.4 154.8,78.1 156.4,78.6 158.1,77.9 159.7,77.8 161.3,78.1 162.9,78.6 164.6,77.9 166.2,78.0 167.8,78.5 169.5,78.2 171.1,78.0 172.7,78.5 174.3,78.3 176.0,78.3 177.6,78.0 179.2,78.0 180.9,78.1 182.5,78.6 184.1,78.8 185.8,78.8 187.4,78.4 189.0,78.4 190.6,78.2 192.2,78.7 193.9,78.6 195.5,78.5 197.2,78.2 198.8,78.2 200.4,78.5 202.1,78.6 203.7,78.6 205.3,78.7 206.9,78.4 208.5,78.4 210.2,78.6 211.8,78.4 213.4,78.7 215.1,79.1 216.7,79.0 218.3,78.9 220.0,78.8 221.6,78.6 223.2,79.2 224.8,78.9 226.5,78.5 228.1,78.7 229.7,78.9 231.4,78.6 233.0,79.2 234.6,78.6 236.2,78.5 237.9,78.4 239.5,78.5 241.1,78.7 242.8,79.3 244.4,78.9 246.0,78.6 247.7,79.1 249.3,78.9 250.9,78.9 252.5,78.6 254.2,78.7 255.8,79.2 257.4,79.1 259.1,78.7 260.7,78.6 262.3,78.8 263.9,79.0 265.6,78.8 267.2,78.9 268.8,79.1 270.5,79.5 272.1,79.4 273.7,79.3 275.4,79.5 277.0,79.6 278.6,79.5 280.2,79.2 281.8,79.6 283.5,79.2 285.1,78.9 286.7,79.2 288.4,79.3 290.0,78.9 291.6,79.6 293.3,79.3 294.9,79.2 296.5,79.5 298.1,79.0 299.8,79.0 301.4,79.3 303.0,79.7 304.7,79.0 306.3,79.3 307.9,79.3 309.5,79.6 311.2,79.4 312.8,79.3 314.4,79.8 316.1,79.3 317.7,79.2 319.3,79.8 321.0,79.8 322.6,79.9 324.2,79.5 325.8,79.6 327.5,79.2 329.1,79.4 330.7,79.8 332.4,79.6 334.0,80.0 335.6,79.3 337.2,80.1 338.9,79.7 340.5,80.2 342.1,80.2 343.7,79.9 345.4,79.8 347.0,79.4 348.7,79.5 350.3,79.8 351.9,80.1 353.5,79.6 355.1,80.2 356.8,80.2 358.4,79.6 360.0,79.8 361.7,79.6 363.3,79.7 364.9,79.6 366.6,80.3 368.2,80.4 369.8,80.0 371.4,80.2 373.1,80.1 374.7,80.5 376.3,80.0 378.0,80.1 379.6,79.8 381.2,79.8 382.9,80.0 384.5,80.3 386.1,80.4 387.7,79.8 389.4,80.4 391.0,80.5 392.6,79.9 394.3,79.9 395.9,80.2 397.5,80.4 399.1,80.3 400.8,80.6 402.4,80.5 404.0,80.2 405.7,80.1 407.3,80.8 408.9,80.2 410.6,80.5 412.2,80.2 413.8,80.4 415.4,80.5 417.0,80.5 418.7,80.6 420.3,80.5 422.0,80.8 423.6,80.7 425.2,80.9 426.8,80.7 428.5,81.0 430.1,80.6 431.7,80.5 433.3,80.6 435.0,80.8 436.6,80.5 438.2,80.8 439.9,81.0 441.5,80.5 443.1,80.7 444.7,80.4 446.4,80.8 448.0,80.7 449.6,81.1 451.3,80.7 452.9,80.9 454.5,80.8 456.2,81.1 457.8,81.0 459.4,80.8 461.0,80.9 462.7,80.7 464.3,80.9 465.9,80.6 467.6,80.8 469.2,81.2 470.8,80.9 472.4,80.7 474.1,81.1 475.7,80.8 477.3,81.1 479.0,80.9 480.6,81.0 482.2,81.1 483.9,81.6 485.5,81.4 487.1,81.1 488.7,81.1 490.3,81.2 492.0,81.2 493.6,81.0 495.2,81.3 496.9,81.1 498.5,81.4 500.1,81.7 501.8,81.0 503.4,81.5 505.0,81.3 506.6,81.8 508.3,81.1 509.9,81.2 511.5,81.9 513.2,81.7 514.8,81.4 516.4,81.5 518.0,81.4 519.7,81.4 521.3,81.3 522.9,82.1 524.6,81.3 526.2,81.6 527.8,81.9 529.5,82.1 531.1,81.4 532.7,81.5 534.3,82.2 536.0,81.5 537.6,82.1 539.2,82.2 540.9,81.6 542.5,82.2 544.1,82.3 545.8,82.0 547.4,82.1 549.0,81.8 550.6,81.9 552.3,81.6 553.9,81.7 555.5,82.0 557.2,81.9 558.8,82.4 560.4,82.3 562.0,82.4 563.7,82.1 565.3,82.1 566.9,81.9 568.5,81.8 570.2,82.6 571.8,82.3 573.5,81.8 575.1,82.1 576.7,82.3 578.3,82.3 579.9,82.4 581.6,82.5 583.2,82.7 584.8,82.6 586.5,82.4 588.1,82.3 589.7,82.8 591.4,82.8 593.0,82.6 594.6,82.3 596.2,82.7 597.9,82.5 599.5,82.3 601.1,82.2 602.8,82.2 604.4,83.0 606.0,82.3 607.6,82.6 609.3,82.3 610.9,82.6 612.5,82.4 614.2,82.4 615.8,82.7 617.4,83.0 619.1,83.1 620.7,82.5 622.3,83.2 623.9,82.6 625.6,82.5 627.2,82.8 628.8,82.9 630.5,82.8 632.1,83.0 633.7,82.8 635.3,83.3 637.0,83.3 638.6,83.3 640.2,83.2 641.8,82.9 643.5,83.4 645.1,83.3 646.8,83.0 648.4,83.0 650.0,83.2 651.6,83.2 653.2,83.3 654.9,83.0 656.5,83.5 658.1,83.2 659.8,83.6 661.4,83.8 663.0,83.5 664.7,83.1 666.3,83.4 667.9,83.7 669.5,83.2 671.2,83.3 672.8,83.3 674.4,83.3 676.1,83.7 677.7,83.6 679.3,83.5 680.9,83.6 682.6,83.7 684.2,83.5 685.8,83.6 687.5,83.5 689.1,83.6 690.7,83.9 692.4,84.0 694.0,83.7 695.6,83.9 697.2,84.0 698.8,83.7 700.5,84.3 702.1,83.6 703.8,83.9 705.4,83.9 707.0,83.7 708.7,83.7 710.3,84.0 711.9,84.3 713.5,84.2 715.1,84.2 716.8,84.2 718.4,84.1 720.0,83.9 721.7,84.5 723.3,84.5 724.9,84.6 726.6,84.5 728.2,84.1 729.8,84.5 731.4,84.1 733.1,84.0 734.7,84.1 736.3,84.1 738.0,84.5 739.6,84.2 741.2,84.5 742.8,84.2 744.5,84.8 746.1,84.2 747.7,84.8 749.4,85.0 751.0,84.2 752.6,84.5 754.3,84.4 755.9,84.3 757.5,84.8 759.1,84.6 760.8,84.7 762.4,85.0 764.0,85.2 765.7,84.4 767.3,85.0 768.9,85.1 770.5,85.2 772.2,84.5 773.8,84.6 775.4,85.2 777.1,85.0 778.7,85.1 780.3,85.1 782.0,84.8 783.6,85.4 785.2,84.7 786.8,84.8 788.4,85.3 790.1,85.1 791.7,85.5 793.3,85.6 795.0,85.4 796.6,85.0 798.2,85.4 799.9,85.3 801.5,85.6 803.1,85.2 804.7,85.5 806.4,85.3 808.0,85.2 809.6,85.9 811.3,85.6 812.9,85.2 814.5,85.8 816.1,85.7 817.8,85.8 819.4,85.4 821.0,85.7 822.7,85.3 824.3,85.6 825.9,85.5 827.6,85.5 829.2,85.4 830.8,85.6 832.4,86.1 834.1,85.5 835.7,85.7 837.3,86.2 839.0,85.5 840.6,86.0 842.2,86.0 843.8,86.1 845.5,85.7 847.1,86.0 848.7,86.4 850.3,86.3 852.0,85.8 853.6,86.0 855.3,85.9 856.9,86.3 858.5,86.0 860.1,86.2 861.7,86.7 863.4,86.0 865.0,85.9 866.6,86.6 868.3,86.9 869.9,86.7 871.5,86.7 873.2,86.9 874.8,86.5 876.4,86.9 878.0,86.3 879.7,86.9 881.3,86.9 882.9,86.6 884.6,86.5 886.2,86.4 887.8,87.1 889.5,86.6 891.1,87.1 892.7,87.0 894.3,86.6 896.0,86.9 897.6,86.6 899.2,87.4 900.9,87.1 902.5,87.4 904.1,87.2 905.7,87.2 907.4,86.8 909.0,87.2 910.6,87.1 912.3,87.3 913.9,87.0 915.5,87.5 917.2,87.1 918.8,87.1 920.4,87.3 922.0,87.5 923.6,87.1" fill="none" stroke="blue" stroke-width="1.5" stroke-dasharray="5,3"/>
<line x1="75" y1="425" x2="925" y2="425" stroke="#333" stroke-width="2"/>
<line x1="75" y1="75" x2="75" y2="425" stroke="#333" stroke-width="2"/>
<line x1="925" y1="75" x2="925" y2="425" stroke="#333" stroke-width="2"/>
<text x="75.0" y="450" text-anchor="middle" font-family="sans-serif" font-size="12">0s</text>
<text x="245.0" y="450" text-anchor="middle" font-family="sans-serif" font-size="12">189s</text>
<text x="415.0" y="450" text-anchor="middle" font-family="sans-serif" font-size="12">377s</text>
<text x="585.0" y="450" text-anchor="middle" font-family="sans-serif" font-size="12">566s</text>
<text x="755.0" y="450" text-anchor="middle" font-family="sans-serif" font-size="12">755s</text>
<text x="925.0000000000001" y="450" text-anchor="middle" font-family="sans-serif" font-size="12">943s</text>
<g transform="translate(800, 60)">
<rect width="140" height="50" fill="white" fill-opacity="0.9" stroke="#ccc"/>
<line x1="10" y1="15" x2="40" y2="15" stroke="red" stroke-width="3"/>
<text x="45" y="20" font-family="sans-serif" font-size="14">Voltage</text>
<line x1="10" y1="35" x2="40" y2="35" stroke="blue" stroke-width="2" stroke-dasharray="5,3"/>
<text x="45" y="40" font-family="sans-serif" font-size="14">Current</text>
</g>
</svg>