<svg viewBox="0 0 1000 500" xmlns="http://www.w3.org/2000/svg">
<rect width="100%" height="100%" fill="#ffffff"/>
<text x="500.0" y="35" text-anchor="middle" font-family="sans-serif" font-size="22" font-weight="bold">Outgassing Characterization Detail (Zoom): stormy</text>
<line x1="70" y1="430.0" x2="930" y2="430.0" stroke="#eee" stroke-width="1"/>
<text x="65" y="434.0" text-anchor="end" font-family="sans-serif" font-size="12" fill="red">12.00V</text>
<line x1="70" y1="358.0000000000001" x2="930" y2="358.0000000000001" stroke="#eee" stroke-width="1"/>
<text x="65" y="362.0000000000001" text-anchor="end" font-family="sans-serif" font-size="12" fill="red">12.37V</text>
<line x1="70" y1="285.9999999999999" x2="930" y2="285.9999999999999" stroke="#eee" stroke-width="1"/>
<text x="65" y="289.9999999999999" text-anchor="end" font-family="sans-serif" font-size="12" fill="red">12.74V</text>
<line x1="70" y1="214.00000000000006" x2="930" y2="214.00000000000006" stroke="#eee" stroke-width="1"/>
<text x="65" y="218.00000000000006" text-anchor="end" font-family="sans-serif" font-size="12" fill="red">13.11V</text>
<line x1="70" y1="141.99999999999983" x2="930" y2="141.99999999999983" stroke="#eee" stroke-width="1"/>
<text x="65" y="145.99999999999983" text-anchor="end" font-family="sans-serif" font-size="12" fill="red">13.48V</text>
<line x1="70" y1="70.0" x2="930" y2="70.0" stroke="#eee" stroke-width="1"/>
<text x="65" y="74.0" text-anchor="end" font-family="sans-serif" font-size="12" fill="red">13.86V</text>
<text x="935" y="434.0" text-anchor="start" font-family="sans-serif" font-size="12" fill="blue">-0.05A</text>
<text x="935" y="362.0" text-anchor="start" font-family="sans-serif" font-size="12" fill="blue">0.11A</text>
<text x="935" y="290.0" text-anchor="start" font-family="sans-serif" font-size="12" fill="blue">0.27A</text>
<text x="935" y="218.0" text-anchor="start" font-family="sans-serif" font-size="12" fill="blue">0.43A</text>
<text x="935" y="146.0" text-anchor="start" font-family="sans-serif" font-size="12" fill="blue">0.59A</text>
<text x="935" y="74.0" text-anchor="start" font-family="sans-serif" font-size="12" fill="blue">0.75A</text>
<polyline points="70.0,430.0 70.9,140.2 71.8,123.5 72.7,118.8 73.6,115.3 74.6,112.9 75.5,110.7 76.4,109.0 77.3,107.3 78.2,105.8 79.1,104.4 80.1,103.1 81.0,101.6 81.9,100.2 82.8,98.9 83.7,97.5 84.6,96.3 85.5,94.9 86.4,93.7 87.3,92.3 88.3,91.0 89.2,89.7 90.1,88.3 91.0,87.0 91.9,85.7 92.8,84.5 93.8,83.0 94.7,81.8 70.1,142.9 70.8,140.6 71.7,141.0 72.6,141.3 73.6,141.7 74.5,142.1 75.4,139.0 76.3,130.6 77.2,124.8 78.1,120.2 79.1,116.0 80.0,109.2 80.9,103.2 81.8,97.8 82.7,93.0 83.6,88.4 84.5,84.2 70.0,70.0 70.6,140.1 71.5,140.4 72.5,140.6 73.4,140.8 74.3,140.8 75.2,139.9 76.1,135.2 77.0,131.1 77.9,128.1 78.8,125.4 79.8,121.2 80.7,117.5 81.6,114.4 82.5,111.6 83.4,109.3 84.3,107.4 85.2,106.1 86.2,104.7 87.1,103.6 88.0,102.8 88.9,102.0 89.8,101.5 90.7,101.1 91.7,100.8 92.6,100.7 93.5,100.8 94.4,101.1 95.3,101.3 96.2,101.7 97.1,102.3 98.1,102.9 99.0,103.6 99.9,104.4 100.8,105.2 101.7,106.0 102.6,106.9 103.5,108.0 104.4,108.7 105.4,109.6 106.3,110.4 107.2,111.1 108.1,111.7 70.5,139.9 71.5,140.2 72.4,137.6 73.3,127.9 74.2,122.5 75.1,119.4 76.0,118.0 76.9,117.1 77.8,116.4 78.7,116.2 79.7,115.9 80.6,115.9 81.5,115.7 82.4,115.6 83.3,115.6 84.2,115.5 85.2,115.5 86.1,115.6 87.0,115.4 87.9,115.4 88.8,115.5 89.7,115.3 90.7,115.3 91.6,115.4 92.5,115.3 93.4,115.4 94.3,115.3 95.2,115.4 96.1,115.3 97.0,115.3 98.0,115.2 98.9,115.1 99.8,115.2 100.7,115.1 101.6,115.2 102.5,115.0 103.4,115.2 104.4,115.0 105.3,115.0 106.2,115.0 107.1,114.9 108.0,115.0 108.9,114.9 109.9,114.8 110.8,114.9 111.7,114.9 112.6,114.8 113.5,114.8 114.4,114.8 115.3,114.8 116.3,114.8 117.2,114.7 118.1,114.7 119.0,114.7 119.9,114.7 120.8,114.6 121.7,114.6 122.6,114.6 123.5,114.5 124.5,114.5 125.4,114.4 126.3,114.5 127.2,114.4 128.1,114.5 129.0,114.4 130.0,114.4 130.9,114.4 131.8,114.4 132.7,114.2 133.6,114.2 134.5,114.4 135.5,114.3 136.4,114.2 137.3,114.2 138.2,114.1 139.1,114.1 140.0,114.2 140.9,114.1 141.8,114.1 142.7,114.1 143.7,114.0 144.6,114.0 145.5,113.9 146.4,114.0 147.3,113.8 148.2,113.9 149.2,113.8 150.1,113.9 151.0,113.7 151.9,113.8 152.8,113.8 153.7,113.7 154.7,113.7 155.6,113.6 156.5,113.7 157.4,113.7 158.3,113.5 159.2,113.6 160.1,113.6 161.0,113.5 162.0,113.5 162.9,113.5 163.8,113.5 164.7,113.4 165.6,113.3 166.5,113.4 167.4,113.4 168.4,113.4 169.3,113.4 170.2,113.4 171.1,113.2 172.0,113.2 172.9,113.2 173.9,113.2 174.8,113.1 175.7,113.1 176.6,113.1 177.5,113.1 178.4,113.1 179.3,113.0 180.3,112.9 181.2,113.0 182.1,113.0 183.0,112.9 183.9,113.0 184.8,112.8 185.7,112.8 186.6,112.8 187.5,112.8 188.5,112.8 189.4,112.7 190.3,112.6 191.2,112.7 192.1,112.6 193.0,112.6 194.0,112.6 194.9,112.6 195.8,112.6 196.7,112.4 197.6,112.4 198.6,112.5 199.5,112.4 200.4,112.4 201.3,112.3 202.2,112.5 203.1,112.4 204.0,112.3 204.9,112.3 205.8,112.3 206.7,112.3 207.7,112.2 208.6,112.3 209.5,112.2 210.4,112.2 211.3,112.0 212.2,112.1 213.2,112.0 214.1,112.1 215.0,112.1 215.9,112.0 216.8,112.0 217.7,112.0 218.7,111.8 219.6,111.9 220.5,111.9 221.4,111.8 222.3,111.8 223.2,111.8 224.1,111.7 225.0,111.7 226.0,111.8 226.9,111.7 227.8,111.7 228.7,111.6 229.6,111.6 230.5,111.6 231.4,111.6 232.4,111.5 233.3,111.5 234.2,111.4 235.1,111.5 236.0,111.4 236.9,111.4 237.9,111.3 238.8,111.4 239.7,111.2 240.6,111.3 241.5,111.3 242.4,111.3 243.3,111.3 244.3,111.2 245.2,111.2 246.1,111.1 247.0,111.0 247.9,111.0 248.8,111.1 249.7,111.1 250.6,110.9 251.6,110.9 252.5,110.9 253.4,111.0 254.3,110.8 255.2,110.9 256.1,110.8 257.1,110.7 258.0,110.7 258.9,110.8 259.8,110.7 260.7,110.6 261.6,110.7 262.6,110.6 263.5,110.7 264.4,110.6 265.3,110.5 266.2,110.5 267.1,110.5 268.0,110.5 268.9,110.4 269.8,110.4 270.7,110.3 271.7,110.4 272.6,110.3 273.5,110.2 274.4,110.4 275.3,110.2 276.2,110.1 277.2,110.2 278.1,110.1 279.0,110.1 279.9,110.1 280.8,110.0 281.7,110.0 282.7,109.9 283.6,110.0 284.5,110.0 285.4,110.0 286.3,109.9 287.2,109.9 288.1,109.8 289.0,109.8 290.0,109.8 290.9,109.7 291.8,109.7 292.7,109.7 293.6,109.7 294.5,109.7 295.4,109.6 296.4,109.5 297.3,109.5 298.2,109.5 299.1,109.6 300.0,109.5 300.9,109.3 301.9,109.5 302.8,109.4 303.7,109.3 304.6,109.3 305.5,109.3 306.4,109.3 307.3,109.2 308.3,109.2 309.2,109.2 310.1,109.1 311.0,109.0 311.9,109.0 312.8,109.1 313.7,109.0 314.6,109.1 315.6,108.9 316.5,108.9 317.4,108.9 318.3,108.8 319.2,108.8 320.1,108.9 321.1,108.7 322.0,108.7 322.9,108.8 323.8,108.6 324.7,108.6 325.6,108.5 326.6,108.7 327.5,108.5 328.4,108.5 329.3,108.5 330.2,108.5 331.1,108.4 332.0,108.4 332.9,108.5 333.8,108.3 334.7,108.2 335.7,108.2 336.6,108.2 337.5,108.2 338.4,108.1 339.3,108.1 340.3,108.2 341.2,108.2 342.1,108.0 343.0,108.1 343.9,108.1 344.8,108.0 345.8,108.0 346.7,108.0 347.6,107.9 348.5,107.8 349.4,107.8 350.3,107.7 351.2,107.9 352.1,107.7 353.0,107.7 354.0,107.7 354.9,107.8 355.8,107.6 356.7,107.6 357.6,107.6 358.5,107.5 359.4,107.6 360.4,107.4 361.3,107.4 362.2,107.4 363.1,107.4 364.0,107.4 364.9,107.4 365.9,107.3 366.8,107.3 367.7,107.2 368.6,107.2 369.5,107.2 370.4,107.1 371.3,107.1 372.3,107.1 373.2,107.1 374.1,107.0 375.0,107.0 375.9,107.0 376.8,107.0 377.7,106.9 378.6,106.9 379.6,106.7 380.5,106.8 381.4,106.8 382.3,106.7 383.2,106.7 384.1,106.8 385.1,106.7 386.0,106.6 386.9,106.5 387.8,106.6 388.7,106.4 389.6,106.4 390.6,106.5 391.5,106.5 392.4,106.5 393.3,106.4 394.2,106.4 395.1,106.3 396.0,106.2 396.9,106.3 397.8,106.2 398.8,106.2 399.7,106.1 400.6,106.2 401.5,106.1 402.4,106.1 403.3,106.0 404.3,105.9 405.2,106.0 406.1,106.0 407.0,105.8 407.9,105.8 408.8,105.8 409.8,105.7 410.7,105.8 411.6,105.6 412.5,105.6 413.4,105.6 414.3,105.7 415.2,105.6 416.1,105.5 417.0,105.5 418.0,105.4 418.9,105.5 419.8,105.4 420.7,105.3 421.6,105.3 422.5,105.2 423.4,105.3 424.4,105.3 425.3,105.3 426.2,105.1 427.1,105.1 428.0,105.1 428.9,105.1 429.9,105.0 430.8,105.1 431.7,104.9 432.6,104.9 433.5,104.9 434.4,104.9 435.3,104.9 436.3,104.8 437.2,104.7 438.1,104.8 439.0,104.6 439.9,104.7 440.8,104.6 441.7,104.6 442.6,104.6 443.6,104.6 444.5,104.5 445.4,104.4 446.3,104.4 447.2,104.4 448.1,104.4 449.1,104.3 450.0,104.2 450.9,104.2 451.8,104.1 452.7,104.1 453.6,104.1 454.6,104.2 455.5,104.1 456.4,104.1 457.3,104.1 458.2,103.9 459.1,104.0 460.0,103.9 460.9,104.0 461.8,103.9 462.8,103.7 463.7,103.8 464.6,103.7 465.5,103.7 466.4,103.6 467.3,103.6 468.3,103.6 469.2,103.6 470.1,103.4 471.0,103.5 471.9,103.6 472.8,103.4 473.8,103.4 474.7,103.5 475.6,103.4 476.5,103.2 477.4,103.3 478.3,103.2 479.2,103.2 480.1,103.2 481.0,103.1 482.0,103.1 482.9,103.0 483.8,103.1 484.7,103.0 485.6,102.9 486.5,102.9 487.5,102.9 488.4,102.8 489.3,102.8 490.2,102.8 491.1,102.8 492.0,102.8 493.0,102.7 493.9,102.7 494.8,102.6 495.7,102.6 496.6,102.5 497.5,102.5 498.4,102.4 499.3,102.3 500.3,102.4 501.2,102.4 502.1,102.3 503.0,102.4 503.9,102.2 504.8,102.3 505.7,102.2 506.6,102.2 507.6,102.1 508.5,102.1 509.4,101.9 510.3,102.0 511.2,102.0 512.1,101.8 513.1,101.9 514.0,101.9 514.9,101.9 515.8,101.7 516.7,101.8 517.6,101.6 518.6,101.7 519.5,101.6 520.4,101.5 521.3,101.5 522.2,101.5 523.1,101.5 524.0,101.4 524.9,101.5 525.8,101.4 526.8,101.3 527.7,101.3 528.6,101.3 529.5,101.2 530.4,101.1 531.3,101.1 532.3,101.2 533.2,101.1 534.1,100.9 535.0,101.0 535.9,100.9 536.8,101.0 537.8,101.0 538.7,100.8 539.6,100.7 540.5,100.8 541.4,100.8 542.3,100.6 543.2,100.7 544.1,100.7 545.0,100.7 546.0,100.5 546.9,100.5 547.8,100.5 548.7,100.3 549.6,100.4 550.5,100.4 551.5,100.4 552.4,100.3 553.3,100.1 554.2,100.1 555.1,100.1 556.0,100.1 557.0,100.1 557.9,100.1 558.8,100.1 559.7,100.0 560.6,99.9 561.5,99.9 562.4,99.9 563.3,99.7 564.3,99.8 565.2,99.6 566.1,99.7 567.0,99.8 567.9,99.7 568.8,99.6 569.7,99.5 570.6,99.5 571.6,99.5 572.5,99.4 573.4,99.3 574.3,99.4 575.2,99.2 576.2,99.3 577.1,99.2 578.0,99.2 578.9,99.2 579.8,99.2 580.7,99.1 581.6,99.1 582.6,99.1 583.5,99.0 584.4,98.8 585.3,98.9 586.2,98.9 587.1,98.9 588.0,98.8 588.9,98.8 589.8,98.7 590.8,98.6 591.7,98.6 592.6,98.5 593.5,98.5 594.4,98.4 595.3,98.5 596.3,98.4 597.2,98.4 598.1,98.4 599.0,98.3 599.9,98.3 600.8,98.2 601.8,98.2 602.7,98.2 603.6,98.1 604.5,98.0 605.4,98.0 606.3,98.0 607.2,98.0 608.1,97.8 609.0,97.9 610.0,97.9 610.9,97.7 611.8,97.7 612.7,97.6 613.6,97.7 614.5,97.7 615.5,97.6 616.4,97.5 617.3,97.4 618.2,97.5 619.1,97.4 620.0,97.3 621.0,97.4 621.9,97.4 622.8,97.3 623.7,97.2 624.6,97.1 625.5,97.1 626.4,97.1 627.3,97.1 628.3,97.0 629.2,96.9 630.1,96.9 631.0,96.8 631.9,96.8 632.8,96.8 633.7,96.8 634.7,96.8 635.6,96.7 636.5,96.7 637.4,96.6 638.3,96.6 639.2,96.6 640.2,96.5 641.1,96.5 642.0,96.4 642.9,96.3 643.8,96.4 644.7,96.2 645.6,96.1 646.6,96.2 647.5,96.2 648.4,96.2 649.3,96.1 650.2,96.0 651.1,96.0 652.0,95.9 652.9,95.9 653.8,95.9 654.8,95.7 655.7,95.8 656.6,95.6 657.5,95.7 658.4,95.6 659.3,95.6 660.3,95.5 661.2,95.5 662.1,95.4 663.0,95.4 663.9,95.3 664.8,95.3 665.8,95.4 666.7,95.2 667.6,95.1 668.5,95.1 669.4,95.1 670.3,95.1 671.2,95.0 672.1,94.9 673.0,94.9 674.0,94.8 674.9,94.8 675.8,94.8 676.7,94.7 677.6,94.8 678.5,94.7 679.5,94.5 680.4,94.6 681.3,94.4 682.2,94.5 683.1,94.5 684.0,94.3 685.0,94.3 685.9,94.3 686.8,94.3 687.7,94.3 688.6,94.3 689.5,94.2 690.4,94.1 691.3,94.1 692.3,94.0 693.2,94.0 694.1,94.0 695.0,93.9 695.9,93.8 696.8,93.7 697.7,93.8 698.7,93.7 699.6,93.6 700.5,93.7 701.4,93.6 702.3,93.4 703.2,93.4 704.2,93.4 705.1,93.5 706.0,93.3 706.9,93.4 707.8,93.2 708.7,93.1 709.6,93.2 710.6,93.2 711.5,93.1 712.4,93.1 713.3,93.1 714.2,92.9 715.1,92.8 716.0,92.9 716.9,92.8 717.9,92.8 718.8,92.7 719.7,92.8 720.6,92.6 721.5,92.6 722.4,92.5 723.4,92.4 724.3,92.4 725.2,92.5 726.1,92.4 727.0,92.3 727.9,92.3 728.9,92.1 729.8,92.2 730.7,92.1 731.6,92.1 732.5,92.1 733.4,92.0 734.3,92.0 735.2,92.0 736.1,91.9 737.0,91.7 738.0,91.8 738.9,91.7 739.8,91.7 740.7,91.7 741.6,91.5 742.5,91.6 743.5,91.4 744.4,91.5 745.3,91.4 746.2,91.3 747.1,91.3 748.0,91.2 749.0,91.2 749.9,91.2 750.8,91.1 751.7,91.1 752.6,91.0 753.5,91.0 754.4,90.8 755.3,90.8 756.3,90.8 757.2,90.8 758.1,90.7 759.0,90.8 759.9,90.5 760.8,90.5 761.7,90.6 762.7,90.5 763.6,90.4 764.5,90.4 765.4,90.4 766.3,90.3 767.2,90.2 768.2,90.2 769.1,90.1 770.0,90.0 770.9,90.0 771.8,90.1 772.7,89.9 773.6,90.0 774.6,89.9 775.5,89.9 776.4,89.8 777.3,89.6 778.2,89.6 779.1,89.7 780.0,89.6 780.9,89.5 781.9,89.6 782.8,89.4 783.7,89.4 784.6,89.2 785.5,89.2 786.4,89.2 787.4,89.2 788.3,89.2 789.2,89.1 790.1,89.0 791.0,89.0 791.9,88.9 792.9,88.9 793.8,88.8 794.7,88.7 795.6,88.8 796.5,88.8 797.4,88.6 798.3,88.6 799.2,88.5 800.1,88.6 801.0,88.4 802.0,88.5 802.9,88.4 803.8,88.2 804.7,88.3 805.6,88.3 806.5,88.1 807.5,88.0 808.4,88.0 809.3,88.0 810.2,88.0 811.1,87.8 812.1,87.8 813.0,87.8 813.9,87.8 814.8,87.6 815.7,87.7 816.6,87.7 817.5,87.6 818.4,87.5 819.3,87.4 820.3,87.5 821.2,87.4 822.1,87.2 823.0,87.3 823.9,87.1 824.8,87.2 825.7,87.2 826.7,87.0 827.6,87.0 828.5,87.0 829.4,86.9 830.3,86.8 831.2,86.7 832.2,86.8 833.1,86.6 834.0,86.6 834.9,86.5 835.8,86.5 836.7,86.4 837.6,86.5 838.6,86.4 839.5,86.3 840.4,86.2 841.3,86.2 842.2,86.1 843.1,86.1 844.0,86.0 844.9,86.1 845.9,86.0 846.8,85.8 847.7,85.9 848.6,85.8 849.5,85.8 850.4,85.7 851.4,85.7 852.3,85.5 853.2,85.5 854.1,85.5 855.0,85.4 855.9,85.4 856.9,85.3 857.8,85.2 858.7,85.3 859.6,85.2 860.5,85.2 861.4,85.1 862.3,85.0 863.2,84.9 864.1,84.9 865.1,84.8 866.0,84.7 866.9,84.6 867.8,84.7 868.7,84.6 869.6,84.6 870.6,84.5 871.5,84.4 872.4,84.5 873.3,84.3 874.2,84.4 875.1,84.3 876.1,84.2 877.0,84.3 877.9,84.0 878.8,84.1 879.7,84.0 880.6,83.9 881.5,83.9 882.4,83.9 883.3,83.9 884.3,83.7 885.2,83.6 886.1,83.7 887.0,83.6 887.9,83.4 888.8,83.4 889.7,83.4 890.7,83.3 891.6,83.3 892.5,83.3 893.4,83.2 894.3,83.2 895.2,83.0 896.2,83.1 897.1,83.0 898.0,82.9 898.9,82.8 899.8,82.8 900.7,82.7 901.6,82.8 902.6,82.7 903.5,82.5 904.4,82.4 905.3,82.6 906.2,82.5 907.1,82.4 908.0,82.3 908.9,82.3 909.9,82.2 910.8,82.1 911.7,82.1 912.6,81.9 913.5,81.9 914.4,81.8 915.4,81.9 916.3,81.9 917.2,81.7 918.1,81.7 919.0,81.7 919.9,81.6 920.9,81.5 921.8,81.4 922.7,81.4 923.6,81.3 924.5,81.2 925.4,81.3 926.3,81.2 927.2,81.2 928.1,81.0 929.1,80.9 930.0,80.9 70.4,140.0 71.3,140.3 72.2,140.6 73.1,140.8 74.0,140.8 74.9,140.9 75.8,135.2 76.7,130.6 77.6,127.2 78.6,124.3 79.5,131.5 80.4,133.1" fill="none" stroke="red" stroke-width="2.5" opacity="0.8"/>
<polyline points="70.0,407.1 70.9,430.0 71.8,70.0 72.7,71.2 73.6,71.8 74.6,72.7 75.5,73.9 76.4,74.3 77.3,74.9 78.2,75.0 79.1,75.1 80.1,75.9 81.0,76.3 81.9,76.2 82.8,77.2 83.7,77.7 84.6,77.9 85.5,78.3 86.4,78.1 87.3,78.9 88.3,79.1 89.2,79.9 90.1,79.7 91.0,80.2 91.9,80.4 92.8,81.1 93.8,81.3 94.7,82.3 70.1,429.6 70.8,429.8 71.7,429.7 72.6,429.9 73.6,430.0 74.5,429.5 75.4,361.0 76.3,262.5 77.2,222.2 78.1,201.5 79.1,181.5 80.0,130.1 80.9,107.1 81.8,91.4 82.7,83.9 83.6,80.3 84.5,81.2 70.0,429.5 70.6,429.2 71.5,429.7 72.5,429.6 73.4,430.0 74.3,429.3 75.2,401.7 76.1,305.0 77.0,253.3 77.9,226.1 78.8,204.0 79.8,149.4 80.7,116.6 81.6,95.1 82.5,83.3 83.4,76.0 84.3,75.0 85.2,77.6 86.2,81.9 87.1,89.1 88.0,97.1 88.9,106.9 89.8,117.7 90.7,130.3 91.7,145.0 92.6,159.8 93.5,176.5 94.4,193.2 95.3,210.4 96.2,229.2 97.1,247.5 98.1,265.4 99.0,283.8 99.9,301.8 100.8,319.7 101.7,336.2 102.6,352.1 103.5,366.9 104.4,380.2 105.4,392.7 106.3,402.4 107.2,412.2 108.1,418.7 70.5,429.3 71.5,429.8 72.4,353.6 73.3,154.8 74.2,89.9 75.1,70.9 76.0,71.3 76.9,72.0 77.8,71.9 78.7,71.6 79.7,71.9 80.6,71.7 81.5,72.3 82.4,72.2 83.3,71.9 84.2,72.0 85.2,71.9 86.1,72.5 87.0,72.1 87.9,72.6 88.8,72.1 89.7,72.5 90.7,72.0 91.6,72.5 92.5,72.1 93.4,72.4 94.3,72.0 95.2,72.0 96.1,72.4 97.0,72.2 98.0,72.7 98.9,72.3 99.8,72.6 100.7,72.1 101.6,72.8 102.5,72.6 103.4,72.4 104.4,72.5 105.3,72.7 106.2,72.0 107.1,72.1 108.0,72.3 108.9,72.3 109.9,72.7 110.8,72.3 111.7,72.5 112.6,72.6 113.5,72.7 114.4,72.6 115.3,72.3 116.3,72.6 117.2,72.0 118.1,72.1 119.0,72.7 119.9,72.0 120.8,72.1 121.7,72.1 122.6,72.8 123.5,72.6 124.5,72.1 125.4,72.4 126.3,72.6 127.2,72.4 128.1,72.2 129.0,72.6 130.0,72.1 130.9,72.2 131.8,72.8 132.7,72.9 133.6,72.2 134.5,72.2 135.5,72.2 136.4,72.5 137.3,73.0 138.2,72.7 139.1,72.3 140.0,72.9 140.9,72.7 141.8,72.5 142.7,72.2 143.7,72.2 144.6,73.0 145.5,72.2 146.4,72.5 147.3,72.9 148.2,72.2 149.2,72.3 150.1,72.4 151.0,72.7 151.9,73.1 152.8,72.5 153.7,72.9 154.7,72.4 155.6,73.1 156.5,72.3 157.4,73.1 158.3,72.5 159.2,72.6 160.1,72.4 161.0,73.0 162.0,73.1 162.9,72.9 163.8,72.7 164.7,72.5 165.6,72.9 166.5,72.4 167.4,72.4 168.4,72.5 169.3,73.0 170.2,73.1 171.1,73.2 172.0,72.6 172.9,72.4 173.9,72.9 174.8,72.8 175.7,72.9 176.6,72.8 177.5,73.1 178.4,72.7 179.3,73.3 180.3,73.0 181.2,72.5 182.1,72.9 183.0,72.9 183.9,73.3 184.8,73.1 185.7,72.7 186.6,73.3 187.5,73.1 188.5,73.0 189.4,73.3 190.3,72.8 191.2,73.2 192.1,72.6 193.0,73.0 194.0,73.3 194.9,73.2 195.8,73.1 196.7,72.8 197.6,72.6 198.6,72.6 199.5,73.5 200.4,73.1 201.3,73.4 202.2,73.5 203.1,73.4 204.0,73.1 204.9,72.7 205.8,73.0 206.7,72.7 207.7,72.8 208.6,73.1 209.5,73.6 210.4,72.7 211.3,73.3 212.2,73.2 213.2,73.4 214.1,73.6 215.0,73.6 215.9,73.0 216.8,73.0 217.7,73.2 218.7,73.2 219.6,73.5 220.5,73.7 221.4,73.2 222.3,72.9 223.2,73.7 224.1,73.0 225.0,73.2 226.0,72.9 226.9,73.6 227.8,73.6 228.7,72.9 229.6,73.4 230.5,73.7 231.4,73.3 232.4,73.2 233.3,73.1 234.2,73.4 235.1,73.4 236.0,73.2 236.9,73.8 237.9,73.2 238.8,73.0 239.7,73.5 240.6,73.6 241.5,73.8 242.4,73.5 243.3,73.8 244.3,73.2 245.2,73.4 246.1,73.1 247.0,73.3 247.9,73.2 248.8,73.3 249.7,73.9 250.6,73.3 251.6,73.2 252.5,73.1 253.4,73.6 254.3,73.7 255.2,73.5 256.1,73.5 257.1,73.9 258.0,73.1 258.9,73.4 259.8,73.3 260.7,73.2 261.6,74.0 262.6,73.8 263.5,73.8 264.4,74.0 265.3,73.4 266.2,73.7 267.1,74.0 268.0,73.4 268.9,73.6 269.8,73.7 270.7,73.9 271.7,73.3 272.6,73.3 273.5,74.0 274.4,73.4 275.3,73.7 276.2,73.9 277.2,74.1 278.1,73.8 279.0,73.9 279.9,73.7 280.8,74.1 281.7,74.1 282.7,73.3 283.6,74.0 284.5,73.4 285.4,74.0 286.3,74.2 287.2,73.7 288.1,73.6 289.0,74.0 290.0,74.0 290.9,74.3 291.8,74.1 292.7,73.6 293.6,73.8 294.5,73.8 295.4,73.7 296.4,73.6 297.3,74.2 298.2,73.8 299.1,74.0 300.0,73.6 300.9,74.4 301.9,74.1 302.8,73.6 303.7,74.0 304.6,74.2 305.5,73.7 306.4,73.8 307.3,74.4 308.3,74.2 309.2,74.3 310.1,73.7 311.0,74.0 311.9,74.4 312.8,73.8 313.7,74.1 314.6,73.8 315.6,74.3 316.5,73.7 317.4,74.1 318.3,74.1 319.2,74.4 320.1,74.2 321.1,74.3 322.0,74.6 322.9,74.0 323.8,74.3 324.7,73.8 325.6,74.6 326.6,74.0 327.5,74.4 328.4,74.1 329.3,73.9 330.2,74.1 331.1,73.9 332.0,74.0 332.9,74.4 333.8,74.4 334.7,74.5 335.7,74.0 336.6,73.9 337.5,74.2 338.4,74.1 339.3,74.6 340.3,74.2 341.2,74.1 342.1,74.2 343.0,74.6 343.9,74.5 344.8,74.0 345.8,74.1 346.7,74.4 347.6,74.6 348.5,74.2 349.4,74.0 350.3,74.6 351.2,74.3 352.1,74.5 353.0,74.7 354.0,74.1 354.9,74.9 355.8,74.3 356.7,74.3 357.6,74.8 358.5,74.4 359.4,74.1 360.4,74.3 361.3,74.3 362.2,74.3 363.1,74.3 364.0,74.4 364.9,74.8 365.9,74.5 366.8,74.4 367.7,74.7 368.6,74.4 369.5,74.6 370.4,74.4 371.3,74.6 372.3,75.0 373.2,74.7 374.1,74.9 375.0,75.1 375.9,75.1 376.8,74.8 377.7,74.9 378.6,74.6 379.6,75.0 380.5,74.4 381.4,74.4 382.3,74.5 383.2,74.3 384.1,74.4 385.1,74.7 386.0,75.0 386.9,74.9 387.8,74.5 388.7,74.5 389.6,74.6 390.6,75.0 391.5,74.7 392.4,75.2 393.3,74.7 394.2,74.4 395.1,74.8 396.0,74.8 396.9,75.1 397.8,74.6 398.8,75.3 399.7,74.5 400.6,74.7 401.5,75.1 402.4,74.7 403.3,74.6 404.3,75.3 405.2,74.8 406.1,75.0 407.0,74.9 407.9,74.7 408.8,75.4 409.8,74.7 410.7,75.0 411.6,74.7 412.5,74.7 413.4,74.8 414.3,75.2 415.2,75.4 416.1,75.2 417.0,75.3 418.0,75.0 418.9,75.5 419.8,75.3 420.7,75.0 421.6,75.4 422.5,75.5 423.4,75.4 424.4,74.9 425.3,75.4 426.2,74.9 427.1,75.1 428.0,75.6 428.9,75.3 429.9,75.4 430.8,75.5 431.7,75.5 432.6,74.9 433.5,75.3 434.4,74.9 435.3,75.7 436.3,75.5 437.2,75.0 438.1,75.3 439.0,75.0 439.9,75.1 440.8,75.2 441.7,75.6 442.6,75.6 443.6,75.0 444.5,75.5 445.4,75.7 446.3,75.6 447.2,75.8 448.1,75.4 449.1,75.5 450.0,75.3 450.9,75.5 451.8,75.6 452.7,75.8 453.6,75.0 454.6,75.3 455.5,75.9 456.4,75.7 457.3,75.9 458.2,75.2 459.1,75.3 460.0,75.5 460.9,75.3 461.8,75.5 462.8,75.7 463.7,75.9 464.6,75.8 465.5,75.6 466.4,75.6 467.3,75.7 468.3,75.5 469.2,75.6 470.1,75.4 471.0,75.9 471.9,76.0 472.8,75.8 473.8,75.4 474.7,75.5 475.6,75.9 476.5,75.9 477.4,75.6 478.3,76.0 479.2,75.8 480.1,76.1 481.0,75.7 482.0,76.0 482.9,76.0 483.8,76.2 484.7,75.8 485.6,76.2 486.5,76.1 487.5,75.8 488.4,75.5 489.3,75.6 490.2,76.2 491.1,75.6 492.0,76.0 493.0,75.9 493.9,76.3 494.8,76.1 495.7,76.4 496.6,76.1 497.5,76.3 498.4,76.0 499.3,75.9 500.3,76.1 501.2,76.0 502.1,76.2 503.0,75.8 503.9,75.7 504.8,75.8 505.7,76.3 506.6,75.7 507.6,76.2 508.5,75.9 509.4,75.9 510.3,76.2 511.2,76.4 512.1,76.0 513.1,76.1 514.0,76.5 514.9,76.5 515.8,76.3 516.7,76.2 517.6,75.8 518.6,76.6 519.5,76.2 520.4,75.8 521.3,75.9 522.2,75.9 523.1,76.0 524.0,76.1 524.9,76.5 525.8,75.9 526.8,76.5 527.7,76.2 528.6,76.0 529.5,76.5 530.4,76.0 531.3,76.5 532.3,76.1 533.2,76.5 534.1,76.6 535.0,76.0 535.9,76.6 536.8,76.6 537.8,76.8 538.7,76.7 539.6,76.6 540.5,76.1 541.4,76.8 542.3,76.6 543.2,76.1 544.1,76.7 545.0,76.4 546.0,76.3 546.9,76.3 547.8,76.8 548.7,76.2 549.6,76.1 550.5,76.9 551.5,76.9 552.4,76.2 553.3,76.3 554.2,76.6 555.1,76.9 556.0,76.7 557.0,76.7 557.9,76.8 558.8,76.7 559.7,76.5 560.6,76.9 561.5,76.7 562.4,76.9 563.3,76.5 564.3,76.6 565.2,76.9 566.1,77.2 567.0,77.1 567.9,76.9 568.8,76.4 569.7,77.0 570.6,77.1 571.6,77.0 572.5,76.4 573.4,76.8 574.3,76.8 575.2,77.1 576.2,76.5 577.1,77.0 578.0,77.3 578.9,76.7 579.8,76.5 580.7,76.9 581.6,77.1 582.6,77.3 583.5,76.6 584.4,76.5 585.3,76.8 586.2,77.2 587.1,77.3 588.0,77.1 588.9,77.4 589.8,76.7 590.8,77.3 591.7,76.9 592.6,77.4 593.5,77.0 594.4,77.2 595.3,76.9 596.3,77.2 597.2,77.1 598.1,77.4 599.0,76.8 599.9,77.0 600.8,76.8 601.8,77.5 602.7,77.6 603.6,77.7 604.5,77.5 605.4,77.0 606.3,77.3 607.2,77.0 608.1,76.9 609.0,77.0 610.0,77.8 610.9,77.2 611.8,77.0 612.7,77.4 613.6,77.6 614.5,77.5 615.5,77.0 616.4,77.1 617.3,77.7 618.2,77.4 619.1,77.5 620.0,77.7 621.0,77.4 621.9,77.5 622.8,77.2 623.7,77.7 624.6,77.5 625.5,77.4 626.4,77.8 627.3,77.5 628.3,77.1 629.2,77.3 630.1,77.8 631.0,77.6 631.9,77.7 632.8,78.0 633.7,77.8 634.7,78.0 635.6,77.9 636.5,77.7 637.4,78.0 638.3,77.5 639.2,77.9 640.2,77.4 641.1,77.8 642.0,78.0 642.9,78.0 643.8,77.7 644.7,77.5 645.6,77.6 646.6,78.1 647.5,78.0 648.4,78.2 649.3,78.0 650.2,78.2 651.1,77.5 652.0,77.8 652.9,77.8 653.8,77.8 654.8,78.2 655.7,78.0 656.6,77.6 657.5,77.8 658.4,77.5 659.3,78.1 660.3,77.8 661.2,78.1 662.1,78.3 663.0,77.7 663.9,77.7 664.8,77.8 665.8,77.8 666.7,77.9 667.6,78.3 668.5,77.8 669.4,78.0 670.3,78.0 671.2,77.7 672.1,78.5 673.0,78.4 674.0,78.0 674.9,77.9 675.8,78.2 676.7,78.4 677.6,78.3 678.5,78.4 679.5,78.6 680.4,77.9 681.3,77.9 682.2,78.7 683.1,78.2 684.0,78.3 685.0,78.0 685.9,78.2 686.8,78.8 687.7,78.5 688.6,78.6 689.5,78.3 690.4,78.4 691.3,78.3 692.3,78.4 693.2,78.2 694.1,78.4 695.0,78.5 695.9,78.1 696.8,78.3 697.7,78.8 698.7,78.6 699.6,78.9 700.5,78.8 701.4,78.9 702.3,78.1 703.2,78.9 704.2,78.7 705.1,78.3 706.0,78.7 706.9,79.0 707.8,78.3 708.7,79.0 709.6,78.6 710.6,78.8 711.5,78.4 712.4,78.5 713.3,78.4 714.2,78.8 715.1,78.4 716.0,79.0 716.9,79.0 717.9,79.0 718.8,78.6 719.7,78.8 720.6,78.4 721.5,79.1 722.4,78.8 723.4,78.7 724.3,79.2 725.2,78.7 726.1,78.5 727.0,78.5 727.9,79.4 728.9,79.3 729.8,78.6 730.7,79.1 731.6,78.9 732.5,79.0 733.4,78.6 734.3,79.2 735.2,79.4 736.1,79.1 737.0,79.5 738.0,78.9 738.9,79.1 739.8,78.8 740.7,79.0 741.6,79.5 742.5,78.8 743.5,79.1 744.4,79.5 745.3,79.5 746.2,79.0 747.1,79.3 748.0,79.4 749.0,79.1 749.9,78.9 750.8,79.1 751.7,78.9 752.6,79.4 753.5,79.1 754.4,79.3 755.3,79.2 756.3,79.0 757.2,79.8 758.1,79.5 759.0,79.3 759.9,79.0 760.8,79.8 761.7,79.5 762.7,79.2 763.6,79.8 764.5,79.3 765.4,79.2 766.3,79.6 767.2,79.4 768.2,79.1 769.1,79.4 770.0,79.8 770.9,79.8 771.8,79.6 772.7,79.6 773.6,79.4 774.6,79.4 775.5,79.7 776.4,79.6 777.3,79.8 778.2,79.4 779.1,79.8 780.0,80.0 780.9,79.6 781.9,79.9 782.8,79.3 783.7,79.9 784.6,79.9 785.5,79.9 786.4,79.8 787.4,79.7 788.3,79.7 789.2,80.0 790.1,80.0 791.0,80.2 791.9,80.2 792.9,79.7 793.8,79.6 794.7,79.5 795.6,79.9 796.5,79.7 797.4,80.1 798.3,80.0 799.2,80.2 800.1,79.7 801.0,80.4 802.0,80.1 802.9,80.3 803.8,79.9 804.7,80.1 805.6,79.7 806.5,80.5 807.5,80.4 808.4,79.9 809.3,79.7 810.2,80.5 811.1,80.0 812.1,80.6 813.0,79.8 813.9,80.6 814.8,80.4 815.7,80.2 816.6,80.5 817.5,80.2 818.4,80.4 819.3,80.2 820.3,80.6 821.2,80.1 822.1,80.1 823.0,80.7 823.9,80.2 824.8,80.2 825.7,80.8 826.7,80.4 827.6,80.7 828.5,80.3 829.4,80.2 830.3,80.7 831.2,80.9 832.2,80.3 833.1,80.3 834.0,80.9 834.9,80.1 835.8,80.7 836.7,80.7 837.6,80.4 838.6,81.1 839.5,80.9 840.4,80.7 841.3,81.0 842.2,80.7 843.1,80.7 844.0,80.9 844.9,81.1 845.9,80.5 846.8,80.4 847.7,80.4 848.6,80.7 849.5,81.0 850.4,80.6 851.4,80.6 852.3,80.9 853.2,81.0 854.1,80.7 855.0,80.7 855.9,81.1 856.9,80.9 857.8,80.7 858.7,81.0 859.6,80.9 860.5,80.8 861.4,80.6 862.3,81.3 863.2,80.6 864.1,81.3 865.1,81.4 866.0,80.9 866.9,80.9 867.8,80.8 868.7,81.5 869.6,81.1 870.6,81.6 871.5,80.9 872.4,80.7 873.3,80.8 874.2,80.8 875.1,81.1 876.1,80.8 877.0,81.3 877.9,81.2 878.8,81.1 879.7,81.2 880.6,81.4 881.5,81.6 882.4,81.1 883.3,81.7 884.3,81.7 885.2,81.2 886.1,81.6 887.0,81.2 887.9,81.1 888.8,81.6 889.7,81.1 890.7,81.7 891.6,81.7 892.5,81.8 893.4,81.4 894.3,81.3 895.2,81.2 896.2,81.8 897.1,81.8 898.0,81.3 898.9,81.9 899.8,81.8 900.7,81.3 901.6,81.8 902.6,81.7 903.5,81.3 904.4,81.9 905.3,82.2 906.2,81.4 907.1,81.5 908.0,82.0 908.9,81.9 909.9,82.1 910.8,82.1 911.7,81.6 912.6,81.8 913.5,81.5 914.4,82.3 915.4,81.6 916.3,82.1 917.2,82.0 918.1,82.0 919.0,82.4 919.9,81.8 920.9,81.7 921.8,82.4 922.7,82.2 923.6,82.3 924.5,81.7 925.4,82.2 926.3,82.1 927.2,82.3 928.1,82.1 929.1,81.9 930.0,82.0 70.4,429.7 71.3,429.7 72.2,429.6 73.1,429.5 74.0,429.6 74.9,429.6 75.8,297.4 76.7,240.0 77.6,207.0 78.6,190.8 79.5,401.1 80.4,397.2" fill="none" stroke="blue" stroke-width="1.5" stroke-dasharray="5,3"/>
<line x1="70" y1="430" x2="930" y2="430" stroke="#333" stroke-width="2"/>
<line x1="70" y1="70" x2="70" y2="430" stroke="#333" stroke-width="2"/>
<line x1="930" y1="70" x2="930" y2="430" stroke="#333" stroke-width="2"/>
<text x="70.0" y="450" text-anchor="middle" font-family="sans-serif" font-size="12">0s</text>
<text x="242.0" y="450" text-anchor="middle" font-family="sans-serif" font-size="12">189s</text>
<text x="414.0" y="450" text-anchor="middle" font-family="sans-serif" font-size="12">378s</text>
<text x="586.0000000000001" y="450" text-anchor="middle" font-family="sans-serif" font-size="12">567s</text>
<text x="758.0" y="450" text-anchor="middle" font-family="sans-serif" font-size="12">756s</text>
<text x="930.0" y="450" text-anchor="middle" font-family="sans-serif" font-size="12">945s</text>
<g transform="translate(820, 60)">
<rect width="120" height="50" fill="white" fill-opacity="0.9" stroke="#ccc"/>
<line x1="10" y1="15" x2="40" y2="15" stroke="red" stroke-width="3"/>
<text x="45" y="20" font-family="sans-serif" font-size="14">Voltage</text>
<line x1="10" y1="35" x2="40" y2="35" stroke="blue" stroke-width="2" stroke-dasharray="5,3"/>
<text x="45" y="40" font-family="sans-serif" font-size="14">Current</text>
</g>
</svg>